<svg width="512" height="95" viewBox="0 0 512 95" fill="none" xmlns="http://www.w3.org/2000/svg">
<g clip-path="url(#clip0_499_2069)">
<path d="M42.3831 77.1618C44.4031 77.1618 46.3201 76.9818 48.1241 76.5798C49.9541 76.1768 51.5781 75.5448 52.9481 74.6058C54.3181 73.7058 55.4511 72.4698 56.2781 70.8948C57.1041 69.3368 57.4991 67.3148 57.4991 64.8668C57.4991 60.0758 56.1511 56.6718 53.4701 54.6058C50.7831 52.5688 47.2001 51.5558 42.7931 51.5558H20.5331V77.1618H42.3831ZM41.2531 37.5788C44.8791 37.5788 47.8811 36.7178 50.2611 34.9688C52.6161 33.2538 53.7601 30.4108 53.7601 26.5128C53.7601 24.3528 53.3791 22.5618 52.6161 21.1738C51.8291 19.7858 50.7831 18.6988 49.4631 17.9398C48.1531 17.1488 46.6731 16.6008 44.9531 16.3078C43.2691 15.9758 41.5001 15.8488 39.6891 15.8488H20.5331V37.5788H41.2531ZM43.9011 0.00978906C48.3471 0.00978906 52.3611 0.394789 56.0311 1.18979C59.6781 1.96279 62.7921 3.25479 65.4231 5.02779C68.0151 6.79679 70.0421 9.15179 71.4931 12.1178C72.9091 15.0418 73.6231 18.6998 73.6231 23.0288C73.6231 27.7108 72.5591 31.6198 70.4331 34.7448C68.2931 37.8658 65.1481 40.4258 60.9461 42.4148C66.6691 44.0598 70.9061 46.9588 73.7171 51.0758C76.5421 55.2208 77.9231 60.1858 77.9231 66.0018C77.9231 70.7188 77.0191 74.7758 75.2181 78.1908C73.3961 81.6478 70.9181 84.4508 67.8631 86.6118C64.7831 88.7938 61.2461 90.3938 57.2841 91.4358C53.3179 92.483 49.2321 93.0088 45.1301 92.9998H0.0600586V0.00878906L43.9011 0.00978906ZM128.36 41.4778C126.16 39.0448 122.439 37.7278 117.898 37.7278C114.942 37.7278 112.495 38.2258 110.539 39.2388C108.625 40.2388 107.054 41.4848 105.857 42.9498C104.663 44.4398 103.847 46.0108 103.375 47.6918C102.901 49.3308 102.619 50.8168 102.531 52.1308H132.622C132.181 47.4128 130.567 43.9278 128.36 41.4778ZM107.11 76.8518C109.879 79.5558 113.883 80.9188 119.07 80.9188C122.799 80.9188 126.023 79.9758 128.727 78.0938C131.407 76.2188 133.039 74.2098 133.671 72.1268H149.956C147.339 80.2308 143.367 86.0178 137.946 89.4998C132.594 92.9988 126.061 94.7428 118.452 94.7428C113.148 94.7428 108.375 93.8818 104.092 92.1928C99.8081 90.4808 96.2281 88.0798 93.2161 84.9518C90.2811 81.8088 88.0041 78.0938 86.3801 73.7338C84.7731 69.3938 83.9601 64.5878 83.9601 59.3798C83.9601 54.3448 84.8051 49.6408 86.4471 45.2948C88.1271 40.9338 90.4471 37.1698 93.4981 34.0128C96.5601 30.8388 100.186 28.3348 104.409 26.5058C108.636 24.6798 113.293 23.7658 118.452 23.7658C124.148 23.7658 129.137 24.8608 133.413 27.0958C137.675 29.2958 141.167 32.2788 143.914 36.0158C146.658 39.7468 148.611 44.0128 149.832 48.7938C151.04 53.5708 151.467 58.5608 151.118 63.7868H102.53C102.53 69.1078 104.33 74.1468 107.11 76.8518ZM177.385 0.00978906V35.0718H177.809C180.157 31.1708 183.127 28.3348 186.778 26.5768C190.422 24.8038 193.978 23.9278 197.441 23.9278C202.381 23.9278 206.428 24.5778 209.588 25.9158C212.752 27.2788 215.255 29.1228 217.088 31.5198C218.885 33.9078 220.156 36.8185 220.902 40.2518C221.632 43.6768 222.01 47.4558 222.01 51.6218V92.9998H203.426V54.9798C203.426 49.4368 202.561 45.2698 200.838 42.5438C199.112 39.8138 196.047 38.4438 191.626 38.4438C186.626 38.4438 183.01 39.9588 180.771 42.9498C178.491 45.9398 177.385 50.8628 177.385 57.7128V92.9998H158.808V0.00878906L177.385 0.00978906ZM271.614 61.7208C270.464 62.1018 269.188 62.4238 267.874 62.7028C266.468 62.964 265.054 63.1808 263.634 63.3528C262.161 63.5239 260.692 63.737 259.231 63.9918C257.847 64.2628 256.463 64.6018 255.145 65.0438C253.804 65.4818 252.628 66.0638 251.66 66.7988C250.661 67.5429 249.838 68.4974 249.249 69.5948C248.655 70.7178 248.338 72.1758 248.338 73.8998C248.338 75.5448 248.655 76.9328 249.248 78.0728C249.86 79.2028 250.658 80.0858 251.706 80.7388C252.751 81.3918 253.976 81.8508 255.34 82.1058C256.724 82.3808 258.154 82.4838 259.62 82.4838C263.256 82.4838 266.06 81.8798 268.058 80.6688C270.046 79.4498 271.544 77.9958 272.479 76.3008C273.433 74.6058 274.009 72.8968 274.195 71.1738C274.439 69.4398 274.549 68.0418 274.549 66.9928V60.0758C273.747 60.7858 272.804 61.3328 271.614 61.7208ZM235.213 35.5208C237.063 32.6819 239.548 30.3133 242.473 28.6028C245.425 26.8528 248.723 25.6198 252.43 24.8818C256.095 24.132 259.826 23.7581 263.567 23.7658C266.939 23.7658 270.35 23.9988 273.864 24.4788C277.32 24.9561 280.481 25.8918 283.348 27.2858C286.212 28.6878 288.546 30.6058 290.353 33.1088C292.186 35.5488 293.115 38.8538 293.115 42.9498V78.0408C293.115 81.0918 293.298 83.9908 293.623 86.7668C293.99 89.5668 294.94 91.6668 295.837 93.0448L276.947 92.9988C276.392 92.1938 275.933 90.9328 275.717 89.8348C275.495 88.7417 275.343 87.6354 275.262 86.5228C272.32 89.5668 268.871 91.7068 264.852 92.9278C260.889 94.1322 256.77 94.7438 252.628 94.7428C249.428 94.7428 246.448 94.3368 243.659 93.5528C240.912 92.7688 238.472 91.5548 236.392 89.9128C234.302 88.2388 232.695 86.1628 231.522 83.6488C230.358 81.1208 229.757 78.1118 229.757 74.6378C229.757 70.8028 230.446 67.6458 231.805 65.1738C233.129 62.7028 234.849 60.7138 237 59.2418C239.115 57.7588 241.544 56.6428 244.295 55.9158C247.007 55.1781 249.757 54.5876 252.533 54.1468C255.319 53.7198 258.03 53.3738 260.739 53.1048C263.454 52.8398 265.806 52.4628 267.907 51.9328C269.979 51.4168 271.639 50.6328 272.857 49.6408C274.054 48.6458 274.63 47.1978 274.549 45.2698C274.549 43.2778 274.195 41.6898 273.556 40.5028C272.952 39.3842 272.064 38.4441 270.982 37.7768C269.892 37.1198 268.662 36.6898 267.246 36.4598C265.725 36.2413 264.189 36.1326 262.652 36.1348C259.033 36.1348 256.169 36.9398 254.139 38.4868C252.052 40.0788 250.852 42.6988 250.481 46.3568H231.929C232.197 41.9898 233.271 38.3838 235.213 35.5208ZM320.851 25.6868V35.0718H321.264C323.605 31.1708 326.624 28.3348 330.374 26.5768C334.092 24.8038 337.944 23.9278 341.85 23.9278C346.811 23.9278 350.882 24.5778 354.029 25.9158C357.231 27.2788 359.721 29.1228 361.525 31.5198C363.375 33.9068 364.646 36.8198 365.388 40.2518C366.136 43.6768 366.508 47.4558 366.508 51.6218V92.9998H347.916V54.9798C347.916 49.4368 347.044 45.2698 345.31 42.5438C343.552 39.8138 340.519 38.0638 336.066 38.0638C331.034 38.0638 327.369 39.9588 325.116 42.9498C322.85 45.9398 321.726 50.8628 321.726 57.7128V92.9998H303.337V25.6868H320.851ZM407.658 37.7278C404.685 37.7278 402.231 38.3838 400.257 39.7478C398.244 41.0925 396.562 42.8767 395.338 44.9658C394.078 47.0878 393.205 49.4358 392.665 52.0068C392.16 54.5738 391.878 57.1168 391.878 59.6448C391.878 62.0878 392.16 64.5638 392.665 67.0918C393.205 69.6058 394.035 71.8758 395.208 73.9448C396.387 75.9631 398.02 77.6788 399.978 78.9558C401.966 80.2658 404.385 80.9188 407.255 80.9188C411.708 80.9188 415.119 79.6758 417.51 77.2148C419.89 74.7398 421.362 71.4138 421.983 67.2468H439.843C438.618 76.1768 435.143 82.9988 429.427 87.7018C423.689 92.3738 416.341 94.7428 407.393 94.7428C402.337 94.7428 397.743 93.8818 393.506 92.1928C389.276 90.4808 385.684 88.1228 382.726 85.0788C379.766 82.0278 377.471 78.4018 375.79 74.1858C374.148 69.9618 373.322 65.3258 373.322 60.2948C373.322 55.0828 374.088 50.2278 375.61 45.7398C377.125 41.2698 379.364 37.3958 382.347 34.1468C385.303 30.8768 388.919 28.3348 393.195 26.5058C397.453 24.6798 402.319 23.7658 407.782 23.7658C411.779 23.7658 415.617 24.3058 419.324 25.3158C423.004 26.3468 426.312 27.9398 429.214 30.0758C432.116 32.1875 434.542 34.8859 436.334 37.9958C438.138 41.1488 439.169 44.9268 439.454 49.2458H421.32C420.119 41.5618 415.564 37.7278 407.658 37.7278ZM98.7491 6.24779H136.443V15.4258H98.7491V6.24779ZM489.13 41.4778C486.901 39.0448 483.151 37.7278 478.667 37.7278C475.715 37.7278 473.261 38.2258 471.27 39.2388C469.352 40.2388 467.6 41.4848 466.425 42.9498C465.249 44.4398 464.405 46.0108 463.915 47.6918C463.477 49.3308 463.169 50.8168 463.088 52.1308H493.406C492.911 47.4128 491.336 43.9278 489.129 41.4778M467.649 76.8518C470.429 79.5558 474.623 80.9188 479.849 80.9188C483.571 80.9188 486.787 79.9758 489.475 78.0938C492.162 76.2188 493.828 74.2098 494.422 72.1268H510.707C508.104 80.2308 504.107 86.0178 498.722 89.4998C493.348 92.9988 486.844 94.7428 479.206 94.7428C473.889 94.7428 469.096 93.8818 464.846 92.1928C460.569 90.4808 456.986 88.0798 453.988 84.9518C451.022 81.8088 448.748 78.0938 447.13 73.7338C445.524 69.3938 444.726 64.5878 444.726 59.3798C444.726 54.3448 445.552 49.6408 447.197 45.2948C448.864 40.9338 451.233 37.1698 454.267 34.0128C457.342 30.8388 460.937 28.3348 465.149 26.5058C469.379 24.6798 474.076 23.7658 479.206 23.7658C484.895 23.7658 489.906 24.8608 494.139 27.0958C498.412 29.2958 501.921 32.2788 504.647 36.0158C507.391 39.7468 509.365 44.0128 510.576 48.7938C511.769 53.5708 512.229 58.5608 511.886 63.7868H463.087C463.087 69.1078 464.863 74.1468 467.649 76.8518Z" fill="#0A0B09"/>
</g>
<defs>
<clipPath id="clip0_499_2069">
<rect width="512" height="95" fill="white"/>
</clipPath>
</defs>
</svg>
