<svg width="512" height="95" viewBox="0 0 512 95" fill="none" xmlns="http://www.w3.org/2000/svg">
<g clip-path="url(#clip0_498_2063)">
<path d="M9.16997 24.813C21.395 12.503 41.263 12.369 53.655 24.51C54.0761 24.9185 54.4124 25.4063 54.6445 25.9452C54.8766 26.4841 54.9999 27.0635 55.0073 27.6502C55.0148 28.237 54.9063 28.8194 54.6879 29.364C54.4696 29.9086 54.1459 30.4048 53.7352 30.8239C53.3246 31.243 52.8352 31.5769 52.2952 31.8063C51.7551 32.0357 51.175 32.1562 50.5883 32.1607C50.0016 32.1653 49.4197 32.0539 48.8761 31.8329C48.3326 31.6119 47.8381 31.2857 47.421 30.873C38.526 22.158 24.265 22.255 15.489 31.09C6.71297 39.925 6.71397 54.187 15.489 63.022C24.265 71.858 38.526 71.955 47.421 63.24C48.2683 62.432 49.3996 61.9901 50.5703 62.01C51.7409 62.0298 52.8566 62.5098 53.676 63.346C54.4954 64.1823 54.9526 65.3075 54.9487 66.4783C54.9448 67.6491 54.48 68.7712 53.655 69.602C41.263 81.744 21.395 81.61 9.16997 69.3C-3.05503 56.99 -3.05503 37.122 9.16997 24.813ZM119.963 0.00895312L120.099 0.00195312H120.381L120.636 0.0169531L120.917 0.0499531L121.037 0.0699531L121.247 0.111953L121.472 0.170953C121.691 0.232953 121.902 0.31062 122.106 0.403953L122.326 0.512953L122.535 0.629953L122.713 0.742953L165.296 29C165.553 29.1666 165.792 29.3616 166.013 29.585L166.128 29.705L166.215 29.803L166.342 29.956L166.527 30.206L166.627 30.36L166.75 30.568L166.848 30.756L166.939 30.953C167.086 31.2896 167.189 31.6346 167.247 31.988L167.253 32.028C167.286 32.236 167.304 32.4443 167.307 32.653V61.403C167.307 61.9332 167.21 62.459 167.023 62.955L167.003 63.002C166.955 63.1273 166.901 63.2501 166.841 63.37L166.722 63.592L166.549 63.872L166.463 63.995L166.307 64.198L166.164 64.365L166.021 64.517C165.792 64.7503 165.542 64.9536 165.271 65.127L122.741 93.351C122.309 93.643 121.821 93.861 121.299 93.988L121.023 94.044L120.765 94.082L120.429 94.108L120.251 94.112C120.163 94.112 120.076 94.1093 119.99 94.104L119.665 94.074L119.465 94.042C119.023 93.964 118.596 93.819 118.198 93.612L118.172 93.597C118.018 93.5167 117.869 93.4265 117.727 93.327L75.162 65.083C75.0432 65.0041 74.9287 64.919 74.819 64.828L74.635 64.668L74.457 64.494L74.226 64.237L74.096 64.073L73.953 63.873C73.9004 63.7941 73.85 63.7137 73.802 63.632L73.669 63.387L73.564 63.164C73.3194 62.6059 73.1934 62.0032 73.194 61.394V32.706C73.196 32.196 73.286 31.683 73.467 31.19L73.585 30.903L73.619 30.829L73.726 30.617L73.833 30.43L73.953 30.24L74.043 30.113L74.183 29.929L74.333 29.753L74.486 29.59L74.646 29.437C74.8326 29.2663 75.03 29.114 75.238 28.98L117.75 0.767953L117.955 0.635953L118.193 0.503953L118.411 0.397953L118.618 0.309953C118.94 0.182605 119.275 0.0936566 119.618 0.0449531L119.963 0.00895312ZM98.949 52.424L85.666 61.36L115.796 81.354V63.757L98.949 52.424ZM141.551 52.423L124.704 63.757V81.354L154.834 61.359L141.551 52.423ZM120.251 38.094L106.931 47.055L120.251 56.015L133.571 47.054L120.251 38.094ZM82.098 41.087V53.024L90.97 47.055L82.098 41.087ZM158.395 41.092L149.531 47.055L158.395 53.019V41.092ZM115.796 12.752L85.664 32.75L98.95 41.687L115.796 30.354V12.752ZM124.704 12.756V30.354L141.55 41.687L154.836 32.75L124.704 12.756ZM213.202 15.492H193.837C192.656 15.492 191.523 15.9612 190.688 16.7965C189.852 17.6318 189.383 18.7647 189.383 19.946V74.167C189.383 75.3482 189.852 76.4811 190.688 77.3164C191.523 78.1517 192.656 78.621 193.837 78.621H213.202C230.635 78.621 244.766 64.489 244.766 47.056C244.766 29.624 230.635 15.492 213.202 15.492ZM198.287 69.713V24.4H213.202C225.715 24.4 235.859 34.543 235.859 47.056C235.859 59.569 225.715 69.713 213.202 69.713H198.287ZM302.28 15.492C303.418 15.4931 304.513 15.9302 305.339 16.7134C306.166 17.4965 306.661 18.5663 306.723 19.7031C306.785 20.8398 306.409 21.9572 305.673 22.8256C304.937 23.6941 303.897 24.2478 302.765 24.373L302.28 24.4H271.873V42.602H290.661C291.801 42.6008 292.898 43.0368 293.726 43.8202C294.554 44.6037 295.051 45.6748 295.113 46.8131C295.175 47.9514 294.798 49.0702 294.06 49.9392C293.322 50.8081 292.279 51.361 291.146 51.484L290.661 51.51H271.872L271.873 69.713H302.28C303.377 69.7131 304.436 70.1181 305.253 70.8505C306.07 71.583 306.588 72.5912 306.708 73.682L306.734 74.167C306.734 75.2643 306.329 76.323 305.596 77.1401C304.864 77.9572 303.856 78.4752 302.765 78.595L302.28 78.621H267.423C266.326 78.6209 265.267 78.2158 264.45 77.4834C263.633 76.7509 263.115 75.7427 262.995 74.652L262.969 74.167V19.946C262.969 18.8486 263.374 17.79 264.107 16.9728C264.839 16.1557 265.847 15.6377 266.938 15.518L267.423 15.492H302.28ZM356.501 15.492C367.517 15.492 376.447 24.422 376.447 35.437C376.447 46.171 367.969 54.924 357.344 55.366L356.501 55.383H337.713L337.717 74.167C337.717 75.2641 337.312 76.3227 336.58 77.1398C335.848 77.9569 334.84 78.475 333.749 78.595L333.263 78.621C332.166 78.6206 331.107 78.2154 330.29 77.483C329.474 76.7506 328.956 75.7426 328.836 74.652L328.809 74.167V19.946C328.809 18.8485 329.214 17.7897 329.947 16.9725C330.68 16.1554 331.688 15.6374 332.779 15.518L333.263 15.492H356.501ZM337.713 46.475H356.501C362.597 46.475 367.539 41.534 367.539 35.437C367.539 29.559 362.944 24.754 357.149 24.418L356.501 24.4H337.713V46.475ZM433.96 15.492C435.098 15.4931 436.193 15.9302 437.019 16.7134C437.846 17.4965 438.341 18.5663 438.403 19.7031C438.465 20.8398 438.089 21.9572 437.353 22.8256C436.617 23.6941 435.577 24.2478 434.445 24.373L433.96 24.4H403.554L403.553 42.602H422.341C423.481 42.6006 424.578 43.0364 425.407 43.8197C426.235 44.603 426.732 45.6742 426.794 46.8126C426.856 47.951 426.479 49.0699 425.741 49.939C425.004 50.808 423.96 51.361 422.827 51.484L422.341 51.51H403.553V69.713H433.96C435.057 69.7131 436.116 70.1181 436.933 70.8505C437.75 71.583 438.268 72.5912 438.388 73.682L438.414 74.167C438.414 75.2643 438.009 76.323 437.276 77.1401C436.544 77.9572 435.536 78.4752 434.445 78.595L433.96 78.621H399.104C398.007 78.6209 396.948 78.2158 396.131 77.4834C395.314 76.7509 394.796 75.7427 394.676 74.652L394.65 74.167V19.946C394.65 18.8488 395.055 17.7902 395.787 16.9731C396.519 16.1561 397.527 15.6379 398.618 15.518L399.104 15.492H433.96ZM460.49 19.946C460.49 15.873 465.444 14.008 468.145 16.846L468.445 17.194L503.088 61.286L503.092 19.946C503.092 18.8486 503.497 17.79 504.23 16.9728C504.962 16.1557 505.97 15.6377 507.061 15.518L507.546 15.492C508.643 15.492 509.702 15.897 510.519 16.6292C511.336 17.3614 511.854 18.3694 511.974 19.46L512 19.946V74.167C512 78.24 507.046 80.104 504.345 77.267L504.044 76.919L469.394 32.819L469.398 74.167C469.398 75.2643 468.993 76.323 468.26 77.1401C467.528 77.9572 466.52 78.4752 465.429 78.595L464.944 78.621C463.847 78.6209 462.788 78.2158 461.971 77.4834C461.154 76.7509 460.636 75.7427 460.516 74.652L460.49 74.167V19.946Z" fill="black"/>
</g>
<defs>
<clipPath id="clip0_498_2063">
<rect width="512" height="95" fill="white"/>
</clipPath>
</defs>
</svg>
