<svg width="16" height="16" viewBox="0 0 16 16" fill="none" xmlns="http://www.w3.org/2000/svg">
<g clip-path="url(#clip0_500_2091)">
<path d="M13.6326 13.633H11.2619V9.92029C11.2619 9.03498 11.2461 7.89529 10.0289 7.89529C8.79419 7.89529 8.60525 8.85991 8.60525 9.85585V13.6327H6.23463V5.99798H8.51044V7.04135H8.54232C8.77009 6.65193 9.09921 6.33157 9.49463 6.11439C9.89006 5.89721 10.337 5.79133 10.7878 5.80804C13.1906 5.80804 13.6336 7.38854 13.6336 9.44466L13.6326 13.633ZM3.55963 4.95441C2.79982 4.95454 2.18375 4.33866 2.18363 3.57885C2.1835 2.81904 2.79932 2.20298 3.55913 2.20285C4.31894 2.20266 4.935 2.81854 4.93513 3.57835C4.93519 3.94323 4.79032 4.29319 4.53236 4.55125C4.27441 4.80931 3.92451 4.95433 3.55963 4.95441ZM4.745 13.633H2.37182V5.99798H4.74494L4.745 13.633ZM14.8145 0.00116449H1.18057C0.53619 -0.00608551 0.00775293 0.510102 -0.00012207 1.15448V14.8453C0.00750293 15.49 0.535878 16.0067 1.1805 15.9999H14.8145C15.4605 16.0079 15.9909 15.4912 15.9999 14.8453V1.15341C15.9907 0.507789 15.4602 -0.00833551 14.8145 0.000101993" fill="#0A66C2"/>
</g>
<defs>
<clipPath id="clip0_500_2091">
<rect width="16" height="16" fill="white"/>
</clipPath>
</defs>
</svg>
