<svg width="256" height="63" viewBox="0 0 256 63" fill="none" xmlns="http://www.w3.org/2000/svg">
<g clip-path="url(#clip0_499_2071)">
<path d="M78.217 25.1611C81.147 25.1611 83.522 22.7851 83.522 19.8546C83.522 16.9236 81.147 14.5481 78.217 14.5481C75.287 14.5481 72.912 16.9236 72.912 19.8546C72.912 22.7856 75.287 25.1611 78.217 25.1611ZM253.297 43.2916C252.49 42.7241 251.867 42.6301 251.35 43.7321C242.44 63.0301 227.425 53.4001 228.917 54.2476C232.247 52.7241 241.006 45.6991 239.682 35.9991C238.878 30.0711 233.79 27.4416 228.39 28.3831C218.963 30.0266 215.495 40.1946 217.26 49.1966C217.569 50.7426 218.122 52.0176 218.673 53.2666C208.02 61.9296 203.789 45.5116 203.309 43.5496C203.29 43.4446 211.535 36.5726 213.828 20.1971C216.232 3.03458 210.757 -0.0904231 205.158 0.00707687C194.798 0.187577 191.999 21.8331 195.76 39.8731C195.445 39.9551 193.979 40.7671 191.623 40.8581C189.928 35.5246 182.685 30.8496 180.79 32.6511C176.046 37.1576 181.94 45.9681 186.088 46.6591C183.596 62.0046 168.015 58.2041 170.915 38.9786C175.989 29.5561 179.849 15.5456 179.16 7.08758C178.916 4.09308 176.702 0.0810769 171.695 0.280077C162.065 0.661077 161.017 22.3126 162.146 37.6796C162.09 37.3011 161.555 39.5466 157.608 40.6631C156.675 35.4816 148.331 30.2806 146.367 32.7811C142.691 37.4611 149.063 45.8056 152.081 46.3876C149.589 61.7326 134.008 57.9321 136.908 38.7066C141.982 29.2846 145.841 15.2741 145.152 6.81608C144.908 3.82108 142.695 -0.190923 137.688 0.00757687C128.057 0.389077 127.01 22.0406 128.139 37.4076C128.083 37.0231 127.534 39.3426 123.426 40.4406C123.289 33.7181 114.915 30.6356 112.904 32.7806C109.319 36.6041 113.725 44.4491 117.801 46.3876C115.31 61.7326 99.7285 57.9321 102.629 38.7066C107.703 29.2846 111.562 15.2741 110.873 6.81608C110.63 3.82108 108.415 -0.190923 103.408 0.00757687C93.778 0.389077 93.003 23.1291 94.132 38.4956C90.96 52.0861 80.3225 69.0581 81.7045 35.0596C81.841 32.6746 81.99 31.7691 80.801 30.8761C79.91 30.1821 77.884 30.5161 76.7765 30.5436C75.4305 30.5976 75.093 31.3851 74.7955 32.5756C74.1025 35.6496 73.978 38.6296 73.879 42.6956C73.814 44.5976 73.6615 45.4851 72.929 48.0786C72.1975 50.6716 68.024 55.4111 65.739 54.6186C62.569 53.5286 63.609 44.5796 64.203 38.4311C64.698 33.5721 63.113 31.3901 59.052 30.5966C56.6745 30.1011 55.23 30.1771 52.754 29.3966C50.4125 28.6586 49.883 24.2296 44.889 25.7056C42.1575 26.5136 43.9135 32.3011 43.257 36.5906C40.0295 57.6911 33.314 58.2706 30.1985 48.0206C44.23 13.6551 34.2575 0.107077 28.42 0.107077C22.34 0.107077 15.39 4.29508 18.333 31.0911C16.902 30.6736 16.462 30.4486 14.8955 30.4486C6.036 30.4486 0 37.6106 0 46.4456C0 55.2806 6.0365 62.4431 14.896 62.4431C20.126 62.4431 23.798 60.0646 26.579 56.3851C28.3935 58.9836 30.603 62.4831 34.6435 62.3256C46.687 61.8566 50.1895 37.1521 50.603 35.7741C51.8905 35.9726 53.1085 36.3481 54.2975 36.5466C56.2785 36.8441 56.4225 37.6281 56.3775 39.6206C55.8525 56.4226 58.953 62.3056 65.986 62.3056C69.9045 62.3056 73.397 58.4556 75.803 55.7026C77.6 59.4116 80.4635 62.1921 84.305 62.3051C93.6135 62.5366 97.1775 47.7001 96.8525 49.6526C96.5975 51.1846 99.8725 62.2216 109.455 62.2616C121.326 62.3116 123.533 49.2576 123.796 47.0711C123.843 46.6811 123.829 46.6361 123.796 47.0711L123.786 47.2036C127.555 46.5026 129.499 44.4821 129.499 44.4821C129.499 44.4821 132.525 62.4646 143.734 62.2621C155.374 62.0511 157.569 50.2511 157.857 47.9501C157.918 47.4681 157.895 47.4041 157.857 47.9501L157.853 48.0176C162.329 46.3891 163.507 44.7546 163.507 44.7546C163.507 44.7546 165.912 62.3796 177.742 62.5336C188.284 62.6716 192.191 51.8761 192.214 47.3576C193.992 47.3766 197.281 46.3026 197.204 46.2416C197.204 46.2416 201.065 61.6516 211.849 62.4431C216.912 62.8146 220.71 59.5941 222.875 58.1251C227.963 62.2456 244.906 67.5086 255.604 49.3711C257.114 46.7681 253.867 43.6931 253.297 43.2916ZM14.4685 56.4601C9.2995 56.4601 5.985 51.6806 5.985 46.5271C5.985 41.3741 9.0275 36.5946 14.1965 36.5946C16.5225 36.5946 17.8165 36.8506 19.628 38.4261C19.9565 39.7206 20.8875 42.7066 21.3405 44.0626C21.9475 45.8771 22.6695 47.4216 23.3975 49.1026C22.3575 53.4141 18.948 56.4601 14.4685 56.4601ZM27.0645 38.5776C26.8495 38.2351 26.8945 38.4456 26.654 38.1221C25.7065 35.5446 23.8805 29.7916 23.669 23.2571C23.43 15.8651 24.662 7.20058 28.294 7.20058C30.755 7.20058 33.3705 24.7606 27.064 38.5776M99.845 30.8756C99.262 26.4891 99.2315 6.93408 103.926 7.47258C106.518 8.52258 102.283 26.9751 99.845 30.8756ZM134.124 30.8756C133.541 26.4891 133.511 6.93408 138.206 7.47258C140.798 8.52258 136.562 26.9751 134.124 30.8756ZM168.132 31.1481C167.549 26.7611 167.518 7.20608 172.212 7.74458C174.804 8.79458 170.569 27.2476 168.132 31.1481ZM205.676 6.32808C209.968 5.88308 209.791 24.6261 201.176 36.4591C200.065 32.1821 198.361 7.79658 205.676 6.32758M223.716 46.6586C222.338 39.6951 225.9 35.1216 229.572 34.6201C230.855 34.4151 232.715 35.2466 233.086 36.8011C233.696 39.7306 232.998 44.0761 224.779 49.5896C224.791 49.6366 224.024 48.2096 223.717 46.6586" fill="black"/>
</g>
<defs>
<clipPath id="clip0_499_2071">
<rect width="256" height="63" fill="white"/>
</clipPath>
</defs>
</svg>
