<svg width="128" height="145" viewBox="0 0 128 145" fill="none" xmlns="http://www.w3.org/2000/svg">
<g clip-path="url(#clip0_499_2082)">
<path d="M94.8601 52.2106C104.199 58.8831 115.64 62.8091 127.997 62.8091V39.0441C125.658 39.0451 123.326 38.8011 121.038 38.3161V57.0226C108.682 57.0226 97.2426 53.0971 87.9016 46.4251V94.9231C87.9016 119.185 68.2236 138.851 43.9516 138.851C34.8951 138.851 26.4771 136.114 19.4846 131.421C27.4656 139.577 38.5956 144.637 50.9086 144.637C75.1826 144.637 94.8611 124.971 94.8611 100.708V52.2106H94.8601ZM103.445 28.2346C98.6721 23.0231 95.5381 16.2881 94.8601 8.84214V5.78564H88.2656C89.9256 15.2491 95.5881 23.3341 103.445 28.2346ZM34.8366 112.804C32.1698 109.31 30.7283 105.034 30.7351 100.639C30.7351 89.5426 39.7356 80.5456 50.8401 80.5456C52.9092 80.5445 54.9662 80.8621 56.9386 81.4871V57.1906C54.6336 56.8751 52.3076 56.7406 49.9826 56.7901V75.7011C48.0092 75.0759 45.9512 74.7585 43.8811 74.7601C32.7771 74.7601 23.7771 83.7561 23.7771 94.8536C23.7771 102.701 28.2756 109.494 34.8366 112.804Z" fill="#FF004F"/>
<path d="M87.9015 46.4246C97.243 53.0966 108.681 57.0221 121.037 57.0221V38.3156C114.14 36.8471 108.035 33.2451 103.445 28.2346C95.587 23.3336 89.9255 15.2486 88.2655 5.78564H70.944V100.707C70.9045 111.773 61.9195 120.733 50.839 120.733C44.31 120.733 38.509 117.623 34.8355 112.803C28.2755 109.494 23.7765 102.7 23.7765 94.8541C23.7765 83.7576 32.7765 74.7606 43.8805 74.7606C46.008 74.7606 48.0585 75.0916 49.982 75.7016V56.7906C26.136 57.2831 6.9585 76.7571 6.9585 100.708C6.9585 112.664 11.734 123.502 19.485 131.422C26.4775 136.114 34.895 138.852 43.952 138.852C68.2245 138.852 87.902 119.184 87.902 94.9231L87.9015 46.4246Z" fill="black"/>
<path d="M121.037 38.315V33.258C114.818 33.267 108.721 31.5262 103.445 28.2345C108.116 33.3456 114.266 36.8702 121.037 38.316M88.265 5.785C88.1069 4.88079 87.9855 3.97054 87.901 3.0565V0H63.984V94.9225C63.946 105.988 54.961 114.948 43.88 114.948C40.7386 114.952 37.6402 114.218 34.835 112.804C38.5085 117.623 44.3095 120.732 50.8385 120.732C61.9185 120.732 70.9045 111.773 70.9435 100.707V5.7855L88.265 5.785ZM49.983 56.79V51.4055C47.9844 51.1326 45.9696 50.996 43.9525 50.9965C19.6775 50.9965 0 70.6635 0 94.9225C0 110.132 7.7335 123.536 19.4855 131.421C11.7345 123.502 6.959 112.663 6.959 100.707C6.959 76.757 26.136 57.2825 49.983 56.79Z" fill="#00F2EA"/>
</g>
<defs>
<clipPath id="clip0_499_2082">
<rect width="128" height="145" fill="white"/>
</clipPath>
</defs>
</svg>
