<svg width="24" height="24" viewBox="0 0 24 24" fill="none" xmlns="http://www.w3.org/2000/svg">
<path d="M3 9.5H6M14 17.5C15.1935 17.5 16.3381 17.0259 17.182 16.182C18.0259 15.3381 18.5 14.1935 18.5 13C18.5 11.8065 18.0259 10.6619 17.182 9.81802C16.3381 8.97411 15.1935 8.5 14 8.5C12.8065 8.5 11.6619 8.97411 10.818 9.81802C9.97411 10.6619 9.5 11.8065 9.5 13C9.5 14.1935 9.97411 15.3381 10.818 16.182C11.6619 17.0259 12.8065 17.5 14 17.5ZM23.5 6.5H20.5C19.7044 6.5 18.9413 6.18393 18.3787 5.62132C17.8161 5.05871 17.5 4.29565 17.5 3.5H10.5C10.5 4.29565 10.1839 5.05871 9.62132 5.62132C9.05871 6.18393 8.29565 6.5 7.5 6.5H0.5V20.5H20.5C21.2956 20.5 22.0587 20.1839 22.6213 19.6213C23.1839 19.0587 23.5 18.2956 23.5 17.5V6.5Z" stroke="#010A38"/>
</svg>
