<svg width="24" height="24" viewBox="0 0 24 24" fill="none" xmlns="http://www.w3.org/2000/svg">
<g clip-path="url(#clip0_224_10621)">
<path d="M12 8.465L18.965 1.5L19.142 1.677L19.294 1.905C20.0333 3.0143 20.985 3.96627 22.094 4.706L22.324 4.859L22.5 5.036L15.536 12L22.5 18.965L22.323 19.141L22.095 19.294C20.9857 20.0333 20.0337 20.985 19.294 22.094L19.141 22.324L18.965 22.5L12 15.536L5.036 22.5L4.859 22.323L4.706 22.095C3.96667 20.9857 3.01504 20.0337 1.906 19.294L1.676 19.141L1.5 18.965L8.465 12L1.5 5.036L1.677 4.859L1.906 4.706C3.01494 3.96656 3.96656 3.01494 4.706 1.906L4.859 1.676L5.036 1.5L12 8.465Z" stroke="#010A38"/>
</g>
<defs>
<clipPath id="clip0_224_10621">
<rect width="24" height="24" fill="white"/>
</clipPath>
</defs>
</svg>
