<svg width="24" height="24" viewBox="0 0 24 24" fill="none" xmlns="http://www.w3.org/2000/svg">
<g clip-path="url(#clip0_224_10623)">
<path d="M14 24V17.5C14 16.9695 14.2107 16.4608 14.5858 16.0857C14.9609 15.7107 15.4696 15.5 16 15.5V7.49995C16 7.49995 14.5 6.49995 12 6.49995C9.5 6.49995 8 7.49995 8 7.49995V15.5C8.53043 15.5 9.03914 15.7107 9.41421 16.0857C9.78929 16.4608 10 16.9695 10 17.5V24M3.5 24V17.5C3.5 16.9695 3.28929 16.4608 2.91421 16.0857C2.53914 15.7107 2.03043 15.5 1.5 15.5V7.49995C1.5 7.49995 3 6.49995 5.5 6.49995M20.5 24V17.5C20.5 16.9695 20.7107 16.4608 21.0858 16.0857C21.4609 15.7107 21.9696 15.5 22.5 15.5V7.49995C22.5 7.49995 21 6.49995 18.5 6.49995M11.85 4.49995C11.85 4.49995 10.25 3.49995 10.25 2.24995C10.25 1.78635 10.4342 1.34174 10.762 1.01393C11.0898 0.686117 11.5344 0.501953 11.998 0.501953C12.4616 0.501953 12.9062 0.686117 13.234 1.01393C13.5618 1.34174 13.746 1.78635 13.746 2.24995C13.746 3.49995 12.15 4.49995 12.15 4.49995H11.85ZM5.35 4.49995C5.35 4.49995 3.75 3.49995 3.75 2.24995C3.75 2.0204 3.79521 1.7931 3.88306 1.58102C3.9709 1.36895 4.09966 1.17625 4.26198 1.01393C4.42429 0.851614 4.61699 0.722857 4.82907 0.635012C5.04115 0.547166 5.26845 0.501953 5.498 0.501953C5.72755 0.501953 5.95485 0.547166 6.16693 0.635012C6.37901 0.722857 6.57171 0.851614 6.73402 1.01393C6.89634 1.17625 7.0251 1.36895 7.11294 1.58102C7.20079 1.7931 7.246 2.0204 7.246 2.24995C7.246 3.49995 5.65 4.49995 5.65 4.49995H5.35ZM18.35 4.49995C18.35 4.49995 16.75 3.49995 16.75 2.24995C16.75 1.78635 16.9342 1.34174 17.262 1.01393C17.5898 0.686117 18.0344 0.501953 18.498 0.501953C18.9616 0.501953 19.4062 0.686117 19.734 1.01393C20.0618 1.34174 20.246 1.78635 20.246 2.24995C20.246 3.49995 18.65 4.49995 18.65 4.49995H18.35Z" stroke="#6B7280"/>
</g>
<defs>
<clipPath id="clip0_224_10623">
<rect width="24" height="24" fill="white"/>
</clipPath>
</defs>
</svg>
