<svg width="24" height="24" viewBox="0 0 24 24" fill="none" xmlns="http://www.w3.org/2000/svg">
<path d="M18.437 20.9365H5.56299C4.89995 20.9365 4.26406 20.6731 3.79522 20.2043C3.32638 19.7354 3.06299 19.0995 3.06299 18.4365V5.5625C3.06299 4.89946 3.32638 4.26357 3.79522 3.79473C4.26406 3.32589 4.89995 3.0625 5.56299 3.0625H18.437C19.1 3.0625 19.7359 3.32589 20.2048 3.79473C20.6736 4.26357 20.937 4.89946 20.937 5.5625V18.4365C20.937 19.0995 20.6736 19.7354 20.2048 20.2043C19.7359 20.6731 19.1 20.9365 18.437 20.9365ZM5.56299 4.0625C5.16516 4.0625 4.78363 4.22054 4.50233 4.50184C4.22102 4.78314 4.06299 5.16468 4.06299 5.5625V18.4365C4.06299 18.8343 4.22102 19.2159 4.50233 19.4972C4.78363 19.7785 5.16516 19.9365 5.56299 19.9365H18.437C18.8348 19.9365 19.2163 19.7785 19.4976 19.4972C19.779 19.2159 19.937 18.8343 19.937 18.4365V5.5625C19.937 5.16468 19.779 4.78314 19.4976 4.50184C19.2163 4.22054 18.8348 4.0625 18.437 4.0625H5.56299Z" fill="#010A38"/>
<path d="M12 16.5943C11.0914 16.5933 10.2035 16.323 9.44845 15.8174C8.69344 15.3119 8.10527 14.5938 7.75828 13.754C7.41129 12.9143 7.32107 11.9905 7.49901 11.0994C7.67696 10.2084 8.11508 9.39011 8.758 8.74802C9.40092 8.10594 10.2198 7.66889 11.111 7.4921C12.0023 7.31532 12.926 7.40675 13.7653 7.75484C14.6046 8.10292 15.3219 8.69203 15.8265 9.4477C16.331 10.2034 16.6002 11.0917 16.6 12.0003C16.5984 13.2193 16.1131 14.3877 15.2506 15.2491C14.3881 16.1105 13.219 16.5943 12 16.5943ZM12 8.4003C11.2894 8.40128 10.5951 8.61284 10.0046 9.00825C9.41422 9.40365 8.95421 9.96516 8.68274 10.6219C8.41126 11.2786 8.34049 12.001 8.47936 12.6979C8.61823 13.3948 8.96052 14.0349 9.46299 14.5373C9.96546 15.0398 10.6056 15.3821 11.3025 15.521C11.9994 15.6598 12.7218 15.5891 13.3785 15.3176C14.0352 15.0461 14.5967 14.5861 14.9921 13.9957C15.3875 13.4053 15.599 12.7109 15.6 12.0003C15.6 11.0455 15.2208 10.1298 14.5456 9.45471C13.8705 8.77958 12.9548 8.4003 12 8.4003Z" fill="#010A38"/>
<path d="M17.2 7.90586C17.7937 7.90586 18.275 7.42457 18.275 6.83086C18.275 6.23715 17.7937 5.75586 17.2 5.75586C16.6063 5.75586 16.125 6.23715 16.125 6.83086C16.125 7.42457 16.6063 7.90586 17.2 7.90586Z" fill="#010A38"/>
</svg>
