<svg width="24" height="24" viewBox="0 0 24 24" fill="none" xmlns="http://www.w3.org/2000/svg">
<path d="M15.5 21.5V4.5M15.5 21.5H15.167L14.809 21.28C12.9177 20.1162 10.7407 19.5 8.52 19.5H8.5M15.5 21.5H15.677C17.8516 21.4999 19.9853 20.9088 21.85 19.79L22.5 19.4V2.5H22.25L21.893 2.72C20.0015 3.88399 17.824 4.50018 15.603 4.5H15.25L14.767 4.21C12.902 3.09103 10.7679 2.49997 8.593 2.5H8.5M8.5 19.5V2.5M8.5 19.5H8.396H8.25M8.5 2.5H8.324C6.14906 2.49997 4.01501 3.09103 2.15 4.21L1.5 4.6V21.5H1.75L2.107 21.28C3.99854 20.116 6.17601 19.4998 8.397 19.5" stroke="#010A38"/>
</svg>
