<svg width="24" height="24" viewBox="0 0 24 24" fill="none" xmlns="http://www.w3.org/2000/svg">
<path d="M4.50001 17.2695C4.35801 17.2695 4.23934 17.2211 4.14401 17.1245C4.04867 17.0278 4.00067 16.9088 4.00001 16.7675C3.99934 16.6261 4.04734 16.5075 4.14401 16.4115C4.24067 16.3155 4.35934 16.2678 4.50001 16.2685H19.5C19.642 16.2685 19.7607 16.3165 19.856 16.4125C19.952 16.5085 20 16.6275 20 16.7695C20 16.9115 19.952 17.0301 19.856 17.1255C19.76 17.2208 19.6413 17.2685 19.5 17.2685L4.50001 17.2695ZM4.50001 12.4995C4.35801 12.4995 4.23934 12.4515 4.14401 12.3555C4.04867 12.2595 4.00067 12.1405 4.00001 11.9985C3.99934 11.8565 4.04734 11.7378 4.14401 11.6425C4.24067 11.5471 4.35934 11.4995 4.50001 11.4995H19.5C19.642 11.4995 19.7607 11.5475 19.856 11.6435C19.9513 11.7395 19.9993 11.8585 20 12.0005C20.0007 12.1425 19.9527 12.2611 19.856 12.3565C19.7593 12.4518 19.6407 12.4995 19.5 12.4995H4.50001ZM4.50001 7.72947C4.35801 7.72947 4.23934 7.6818 4.14401 7.58647C4.04801 7.49047 4.00001 7.37147 4.00001 7.22947C4.00001 7.08747 4.04801 6.9688 4.14401 6.87347C4.24001 6.77814 4.35867 6.73047 4.50001 6.73047H19.5C19.642 6.73047 19.7607 6.77847 19.856 6.87447C19.9513 6.97047 19.9993 7.0888 20 7.22947C20.0007 7.37014 19.9527 7.4888 19.856 7.58547C19.7593 7.68214 19.6407 7.73014 19.5 7.72947H4.50001Z" fill="#010A38"/>
</svg>
