<svg width="64" height="64" viewBox="0 0 64 64" fill="none" xmlns="http://www.w3.org/2000/svg">
<path d="M63.3787 17.1112C44.3573 12.8073 24.5795 11.9567 5.28015 9.50647C4.63332 9.42421 3.99214 10.1422 4.02758 10.7484C4.12988 12.5022 4.29501 14.2265 4.45772 15.9587C2.6002 20.3473 2.07579 25.4083 1.40641 30.0796C0.689504 35.0823 0.0193383 40.1784 5.92621e-06 45.2363C-0.0016051 45.6699 0.325421 46.1499 0.772482 46.2418C19.7907 50.1823 39.3252 51.9481 58.5939 54.4949C59.049 54.5548 59.4075 54.0701 59.4212 53.674C59.8538 41.7422 60.9493 29.7529 63.9732 18.1502C64.086 17.7229 63.8346 17.2134 63.3787 17.1112ZM62.1897 18.6637C62.0898 19.3578 61.9876 20.0494 61.8869 20.7418C52.5405 19.8274 43.1957 18.8897 33.8606 17.8675C24.6817 16.862 15.1565 14.8917 5.92534 14.9197C6.07275 13.9629 6.21291 13.0037 6.34663 12.043C25.124 12.8975 43.5517 16.6328 62.1897 18.6637ZM5.91649 15.704C5.9181 15.6337 5.90037 15.5706 5.87701 15.5107C14.575 17.592 24.0365 17.8076 32.9198 18.7372C42.5279 19.7427 52.1353 20.7458 61.7491 21.6882C61.327 24.5785 60.9082 27.4672 60.4982 30.3551C51.002 29.479 41.5138 28.4895 32.0442 27.3586C23.0393 26.2828 13.8758 24.291 4.79037 23.8749C5.33731 21.1595 5.8593 18.4337 5.91649 15.704ZM58.5867 45.5789C58.4095 47.3167 58.7003 51.2253 57.3051 52.2611C55.9003 53.3034 51.8526 52.1158 50.1151 51.9249C44.7761 51.3395 39.4372 50.7549 34.0982 50.1695C29.0718 49.6184 24.0454 49.0698 19.0238 48.4724C16.6113 48.1857 14.194 47.9253 11.7855 47.6082C9.82163 47.3495 4.2225 47.0236 2.84507 45.2986C1.58041 43.7156 2.53654 40.0579 2.70731 38.2282C2.9973 35.1214 3.38317 32.0243 3.84714 28.9383C4.05738 27.5423 4.33448 26.1415 4.61721 24.7374C13.237 26.6742 22.3707 27.0136 31.1219 27.9951C40.8726 29.0884 50.629 30.1163 60.391 31.0955C59.7144 35.9081 59.0813 40.7271 58.5867 45.5789Z" fill="#010A38"/>
<path d="M50.824 35.4204C50.7652 35.394 50.7056 35.3892 50.6468 35.3924C49.3201 34.5075 47.5375 35.2255 46.1617 36.3708C45.1306 34.8302 43.6549 33.8031 42.0229 34.8989C40.0961 34.3007 37.8415 37.8139 37.4009 39.3313C36.572 42.1873 38.5809 45.5056 41.5968 45.9705C42.6617 46.1342 43.6774 45.9417 44.5651 45.5049C44.9719 46.0639 45.4906 46.5607 46.1423 46.9552C48.935 48.6475 52.6702 47.1133 53.9631 44.2885C55.3832 41.1818 54.0347 36.8683 50.824 35.4204ZM44.4548 40.8224C44.6191 39.9599 45.2554 38.7379 46.1149 37.6909C47.3876 39.8417 47.2161 43.069 45.1894 44.6966C44.4854 43.5745 44.2026 42.1474 44.4548 40.8224ZM43.2546 45.5919C40.8509 46.0911 38.3876 44.4091 37.856 42.0627C37.5305 40.6275 38.034 39.2291 38.7429 37.9928C39.2447 37.1175 40.378 35.39 41.7281 35.3748C41.7531 35.505 41.8457 35.6096 42.0213 35.5897C42.1864 35.5713 42.3467 35.5625 42.5038 35.5617C42.6416 35.6312 42.7801 35.7151 42.9194 35.8285C42.9968 35.8916 43.141 35.8077 43.0717 35.7119C43.0347 35.6608 42.9952 35.6288 42.9573 35.5825C44.0303 35.6863 44.905 36.1918 45.5591 36.9242C45.2119 37.2764 44.9066 37.6478 44.665 38.0128C43.2416 40.1659 43.0217 43.093 44.3637 45.215C44.027 45.3763 43.6613 45.5072 43.2546 45.5919ZM48.7957 46.738C47.3272 46.7548 46.1649 46.0423 45.3972 45.0001C46.7666 43.981 47.6623 42.3199 47.643 40.5453C47.6333 39.6652 47.2523 38.3258 46.6152 37.1255C47.7139 35.9938 49.0615 35.2431 50.2617 35.7478C50.2617 35.8285 50.2963 35.9123 50.3817 35.9882C52.1804 37.5815 53.6908 39.1389 53.6175 41.7456C53.5442 44.3636 51.5465 46.7068 48.7957 46.738Z" fill="#010A38"/>
</svg>
