<svg width="141" height="32" viewBox="0 0 141 32" fill="none" xmlns="http://www.w3.org/2000/svg">
<path d="M3.83313 13.1973C5.24083 12.8274 6.726 13.3625 8.10754 13.6094C9.7072 13.8972 11.3313 14.0263 12.9572 14.0469C15.1823 14.0762 17.4057 13.9059 19.6134 13.6533C21.2511 13.4681 23.64 12.6526 24.8038 14.3203C25.823 15.7818 24.7767 18.034 23.8312 19.4395C23.8227 19.4525 23.8134 19.4656 23.8048 19.4785C23.7551 19.5517 23.7061 19.6233 23.6573 19.6914C23.6223 19.7408 23.589 19.7922 23.5529 19.8408L20.6144 23.7959C20.6136 23.7954 20.6123 23.7945 20.6115 23.7939V23.7959C19.0641 22.8594 16.2189 20.9842 16.1954 20.9688C16.0274 20.813 16.0034 20.555 16.1398 20.3701L16.1896 20.3047C16.3552 20.0818 16.5419 19.8762 16.7452 19.6914L19.6339 17.0791L19.1515 16.7148C18.9917 16.595 18.7778 16.5773 18.6036 16.668L17.2775 17.3584L16.7882 16.9258C16.6661 16.8183 16.4797 16.8393 16.3839 16.9707L16.1954 17.2256C16.0996 17.3546 16.1316 17.5435 16.2677 17.6318L16.4865 17.7725L15.255 18.4131L14.7843 17.999C14.6622 17.8911 14.4759 17.9114 14.38 18.043L14.1906 18.2988C14.095 18.4279 14.1278 18.6158 14.2638 18.7041L14.4611 18.8301L14.2745 18.9268C14.0128 19.0645 13.6899 19.018 13.4777 18.8096C13.0649 18.4104 12.6369 18.028 12.1486 17.7285C11.6747 17.4409 11.1325 17.2375 10.5861 17.2051C10.2929 17.188 10.0749 17.4821 10.173 17.7637C10.3562 18.2863 10.7025 18.7539 11.1066 19.1328C11.5253 19.5234 12.0117 19.8323 12.506 20.1172C12.7616 20.2669 12.8957 20.564 12.8409 20.8574L12.7999 21.0635L12.6251 20.9072C12.5031 20.7996 12.3167 20.8198 12.2208 20.9512L12.0323 21.207C11.9365 21.336 11.9686 21.5239 12.1046 21.6123L12.631 21.9531L12.3693 23.3252L12.174 23.1523C12.0519 23.0446 11.8655 23.0648 11.7697 23.1963L11.5812 23.4521C11.4854 23.5812 11.5175 23.7691 11.6534 23.8574L12.2003 24.21L11.9181 25.6904C11.8803 25.887 11.9568 26.0875 12.1163 26.208L12.5988 26.5723L12.629 26.5068L12.6281 26.5049L14.2716 23.0312C14.3908 22.7818 14.5337 22.5404 14.6993 22.3203L14.7462 22.2559C14.8829 22.0715 15.1366 22.0218 15.3312 22.1416C15.3614 22.1677 17.937 24.3903 19.2589 25.623L19.255 25.6279L19.256 25.6289L19.2531 25.6318C19.3052 25.6786 19.3582 25.7208 19.4103 25.7676C19.7415 26.0521 20.0533 26.2965 20.3409 26.4961C20.7217 26.7573 21.1385 26.9655 21.589 27.0625C22.1558 27.1857 22.5924 27.1243 22.924 26.9365C22.9221 26.9395 22.9191 26.9424 22.9171 26.9453C22.9191 26.9443 22.922 26.9434 22.924 26.9424C22.5807 27.4828 22.0049 27.7679 21.0831 27.5654C21.0225 27.5508 20.9632 27.5331 20.9054 27.5156C20.8825 27.5098 20.8581 27.5038 20.838 27.4951C20.4836 27.3835 20.146 27.2093 19.838 26.9951C19.826 26.9874 19.6677 26.8871 19.4386 26.8193C19.0605 26.708 18.4788 26.6822 18.0197 27.3008L16.1866 29.7686C14.9182 31.4786 12.3779 31.4786 11.1066 29.7686C9.82092 28.0383 8.5348 26.3044 7.24915 24.5742C5.45424 22.1565 3.19944 20.0053 2.3761 17C2.15226 16.1864 2.05027 15.292 2.36145 14.5078C2.65528 13.7683 3.18207 13.3794 3.83899 13.2061L3.83313 13.1973ZM24.2628 20.3086C24.2628 20.3086 25.7287 23.5931 24.7345 24.6807C24.7259 24.6922 24.7166 24.7014 24.7052 24.7129C24.6297 24.7891 24.5391 24.8544 24.4347 24.9043C24.4206 24.91 24.4087 24.9161 24.3947 24.9219C24.3513 24.9394 24.307 24.957 24.2579 24.9688C24.2436 24.9716 24.2283 24.9775 24.214 24.9805C24.1501 24.9951 24.0854 25.0097 24.0128 25.0156C23.9432 25.0215 23.8674 25.0244 23.7892 25.0244H23.7277C23.6639 25.0244 23.5969 25.0156 23.5245 25.0068C23.5043 25.0068 23.4833 25.0039 23.463 25.001C23.373 24.9892 23.2766 24.9717 23.1749 24.9482C22.6891 24.8366 22.0924 24.6074 21.3566 24.2285C21.3305 24.2168 21.3016 24.1983 21.2755 24.1836V24.1807L24.2628 20.3086ZM6.21008 1.97949C8.95552 0.409519 12.0665 -0.227031 15.1085 0.0722656C15.2946 0.0905684 15.4806 0.112398 15.6661 0.137695C15.9365 0.174587 16.2062 0.218754 16.4747 0.270508C16.5386 0.282813 16.6024 0.296426 16.6661 0.30957C16.9116 0.360227 17.1562 0.417339 17.3995 0.480469C18.7112 0.820587 19.9886 1.34061 21.1935 2.04297C23.6284 3.46213 25.127 6.08569 25.1271 8.92383V9.06738C25.1269 10.4834 23.9892 11.6328 22.587 11.6328H22.0431C21.8977 11.6328 21.749 11.6299 21.6007 11.6211H21.5978C21.5513 11.6182 21.5046 11.6152 21.4581 11.6123C21.3564 11.6064 21.2542 11.5977 21.1525 11.5859C21.1002 11.5801 21.0475 11.5742 20.9952 11.5684C20.9405 11.5609 20.8859 11.5516 20.8312 11.543C20.8198 11.5413 20.8084 11.5389 20.797 11.5371C20.7558 11.5305 20.7142 11.5253 20.673 11.5186C20.6323 11.5098 20.5935 11.5068 20.5529 11.498C20.4997 11.4887 20.4469 11.4749 20.3937 11.4639C20.3599 11.4568 20.3258 11.4499 20.2921 11.4424C20.2455 11.432 20.198 11.4243 20.1515 11.4131C20.0878 11.3985 20.0267 11.3808 19.963 11.3633C19.9318 11.3548 19.9002 11.3448 19.8683 11.3359C19.8599 11.3336 19.8513 11.3315 19.8429 11.3291C19.806 11.3187 19.7686 11.309 19.7325 11.2979C19.663 11.2774 19.5961 11.2568 19.5294 11.2334C19.4925 11.2205 19.456 11.2072 19.42 11.1943C19.394 11.1852 19.3679 11.1754 19.3419 11.166C19.3307 11.1619 19.319 11.1584 19.3077 11.1543C19.244 11.1309 19.1801 11.1103 19.1163 11.084C19.1138 11.0818 19.111 11.0793 19.1085 11.0771C18.8207 10.9614 18.5392 10.8276 18.2667 10.6748C17.5365 10.2635 16.5586 9.95847 15.4474 9.79395C15.7259 8.97612 16.0849 8.18582 16.5138 7.43652C16.5191 7.42728 16.5241 7.41746 16.5294 7.4082L16.5304 7.40723C16.5375 7.59863 16.5622 7.78962 16.6027 7.97656C16.6352 8.1234 16.6792 8.26781 16.7306 8.40918C16.8827 8.82638 17.1156 9.21345 17.423 9.53223C17.4308 9.46961 17.4352 9.40606 17.4396 9.34277C17.437 9.33966 17.4343 9.33613 17.4318 9.33301C17.4638 8.83667 17.3961 8.32441 17.2042 7.86914C17.2067 7.8708 17.2096 7.87235 17.212 7.87402C17.2106 7.87066 17.2095 7.86666 17.2081 7.86328C17.8948 8.33719 18.7175 8.61219 19.549 8.62305C19.0345 7.95687 18.3154 7.40989 17.5187 7.15527C17.4462 7.13186 17.3764 7.11427 17.3068 7.09961C17.3104 7.09863 17.3139 7.0967 17.3175 7.0957C17.3149 7.09516 17.3122 7.0943 17.3097 7.09375C18.1503 6.86542 18.9234 6.37595 19.4816 5.69824C18.6653 5.68432 17.8203 5.89302 17.132 6.33301C17.5828 5.43413 17.7686 4.40209 17.6437 3.40332C17.413 3.64339 17.2043 3.91002 17.0197 4.19336C16.6683 4.73346 16.4091 5.33833 16.2911 5.96484L16.2892 5.96289C16.2887 5.9656 16.2887 5.96901 16.2882 5.97168C15.853 5.36223 15.2295 4.87214 14.5538 4.56348C14.7615 5.37671 15.2206 6.11961 15.838 6.68164C15.8338 6.68095 15.8295 6.68036 15.8253 6.67969C15.8282 6.6824 15.8312 6.6858 15.8341 6.68848C15.6422 6.65914 15.4439 6.65331 15.2491 6.65918C15.2451 6.65467 15.2405 6.65001 15.2365 6.64551C14.8759 6.65985 14.5155 6.73622 14.1818 6.86426C14.781 7.22259 15.4973 7.3635 16.1866 7.27832C16.1851 7.28051 16.1833 7.28297 16.1818 7.28516H16.1837C16.1228 7.37011 16.064 7.45803 16.0031 7.5459L16.0021 7.54492C15.5215 8.23945 15.0759 8.95994 14.671 9.70215C14.3365 9.67571 13.9957 9.65821 13.6466 9.6582C13.5682 9.65822 13.4955 9.66405 13.42 9.66406C12.7801 8.25097 12.0025 6.89902 11.1036 5.63574C11.793 5.7209 12.5122 5.58002 13.1085 5.22168C12.5878 5.02194 12.003 4.94802 11.4532 5.03906C12.0709 4.47667 12.529 3.73274 12.7365 2.91895C12.2108 3.15691 11.7204 3.50723 11.3224 3.93555C11.3208 3.935 11.3191 3.93416 11.3175 3.93359C11.2034 4.0569 11.0962 4.18636 10.9991 4.32227C10.9654 4.14296 10.9169 3.96594 10.8615 3.79102H10.8595C10.621 3.03323 10.1875 2.32768 9.64368 1.76074C9.6102 2.02763 9.59983 2.29677 9.61047 2.56445C9.6191 2.78133 9.64286 2.9978 9.67883 3.21191C9.68223 3.23226 9.68495 3.25314 9.6886 3.27344C9.7768 3.76234 9.93409 4.23939 10.1554 4.68359C9.46308 4.24307 8.6163 4.03513 7.80188 4.0498C8.36044 4.73119 9.13517 5.22205 9.98157 5.45117C9.91175 5.46586 9.8414 5.48333 9.76868 5.50684C8.96879 5.76537 8.24745 6.31173 7.73254 6.98145C8.56732 6.97254 9.39377 6.69655 10.0831 6.2207C9.86795 6.74066 9.79752 7.33153 9.86731 7.88965C10.4141 7.32572 10.7345 6.55276 10.7609 5.76562C11.4705 6.99935 11.9885 8.34208 12.2794 9.73438C10.9848 9.87541 9.8498 10.2135 9.02356 10.6748C7.86867 11.3211 6.56203 11.6328 5.24426 11.6328H4.70325C3.30124 11.6326 2.16441 10.4833 2.16418 9.06738V8.92383C2.16421 6.0858 3.66202 3.46216 6.0968 2.04297C6.13418 2.02117 6.17257 2.00094 6.21008 1.97949ZM6.85364 8.51562C6.69957 8.42463 6.42625 8.37409 6.21106 8.43262H6.21399C6.39987 8.50303 6.50779 8.55652 6.61243 8.61816C6.71689 8.67975 6.80098 8.74507 6.91418 8.84766C7.04504 8.75075 7.13868 8.69155 7.25208 8.63281C7.3655 8.57407 7.48209 8.5275 7.67981 8.46289C7.47622 8.39828 7.19426 8.43341 7.02551 8.51855C6.99065 8.53617 6.96085 8.55953 6.93469 8.58008C6.91156 8.55675 6.88537 8.53605 6.85364 8.51562ZM4.28723 8.29785C4.13299 8.20689 3.8598 8.15711 3.64465 8.21582H3.64758C3.83342 8.28621 3.94143 8.33879 4.04602 8.40039C4.15063 8.46204 4.2354 8.52715 4.34875 8.62988C4.4795 8.53306 4.57237 8.47373 4.68567 8.41504C4.79905 8.35632 4.91583 8.30968 5.1134 8.24512C4.90979 8.18064 4.62775 8.21563 4.45911 8.30078C4.42439 8.31833 4.39533 8.34182 4.36926 8.3623C4.34606 8.33888 4.3191 8.31835 4.28723 8.29785ZM21.6847 5.67188C20.9374 5.67212 20.3296 6.28542 20.3292 7.04004C20.3293 7.13394 20.3387 7.22681 20.3566 7.31543C20.4833 7.93879 21.0315 8.40918 21.6857 8.40918C21.7298 8.40917 21.7735 8.40654 21.8165 8.40234C21.825 8.40151 21.8335 8.4004 21.8419 8.39941C21.9631 8.38528 22.0793 8.35485 22.1886 8.31055C22.2681 8.27827 22.3439 8.23861 22.4152 8.19238C22.5416 8.11043 22.654 8.00812 22.7472 7.88965C22.7794 7.84872 22.8086 7.80526 22.8361 7.76074C22.8731 7.70068 22.9071 7.63803 22.9347 7.57227C23.0032 7.40889 23.0411 7.22829 23.0411 7.04004C23.0411 6.92666 23.026 6.81635 23.0001 6.71094C22.9789 6.6244 22.949 6.54112 22.9122 6.46191C22.6956 5.9958 22.2274 5.67191 21.6847 5.67188ZM5.75696 7.15234C5.60276 7.06128 5.32868 7.01058 5.1134 7.06934H5.11633C5.30237 7.1398 5.41106 7.19322 5.51575 7.25488C5.62018 7.31646 5.7043 7.38178 5.8175 7.48438C5.94837 7.38746 6.04198 7.32827 6.1554 7.26953C6.26882 7.2108 6.38538 7.16422 6.58313 7.09961C6.37958 7.03501 6.0976 7.07016 5.92883 7.15527C5.89397 7.17289 5.86417 7.19625 5.83801 7.2168C5.81489 7.19346 5.78868 7.17277 5.75696 7.15234ZM3.9679 2.82422C2.76356 4.04937 1.94223 5.61828 1.62219 7.32227C1.10753 6.8524 0.717777 6.42576 0.432739 6.03809C-1.12339 3.22065 1.8587 2.80072 3.9679 2.82422Z" fill="url(#paint0_linear_327_7394)" style="mix-blend-mode:screen"/>
<path d="M52.8943 21.2147C52.9409 21.37 52.9874 21.4827 53.0339 21.5526C53.0883 21.6225 53.1585 21.6571 53.2439 21.6571C53.3215 21.6571 53.3878 21.6225 53.4421 21.5526C53.4965 21.4827 53.543 21.37 53.5818 21.2147L55.4451 14.6356H56.8191L54.8855 21.2382C54.6993 21.8665 54.4824 22.3051 54.2341 22.5536C53.9935 22.802 53.6631 22.9266 53.2439 22.9266C52.817 22.9266 52.4796 22.8019 52.2312 22.5536C51.9906 22.3052 51.7769 21.8668 51.5906 21.2382L49.657 14.6356H51.031L52.8943 21.2147ZM83.0496 20.4344C83.0496 20.9001 83.2011 21.2534 83.5037 21.494C83.8142 21.7347 84.2652 21.8553 84.8552 21.8553C85.445 21.8553 85.8914 21.7346 86.1941 21.494C86.5045 21.2534 86.6599 20.9002 86.6599 20.4344V14.6356H88.0339V20.4344C88.0339 21.2185 87.758 21.8318 87.2068 22.2743C86.6634 22.7089 85.8797 22.9266 84.8552 22.9266C83.8305 22.9266 83.0421 22.709 82.491 22.2743C81.9476 21.8318 81.6755 21.2185 81.6755 20.4344V14.6356H83.0496V20.4344ZM108.561 14.496C109.291 14.496 109.885 14.6078 110.343 14.8329C110.808 15.058 111.177 15.3923 111.449 15.8348L110.541 16.58C110.238 16.2306 109.938 15.9784 109.643 15.8231C109.356 15.6603 108.992 15.579 108.55 15.579C108.053 15.579 107.668 15.6908 107.396 15.9159C107.125 16.1332 106.989 16.444 106.989 16.8475C106.989 17.2124 107.14 17.4923 107.443 17.6864C107.746 17.8727 108.165 18.0241 108.701 18.1405C109.392 18.2802 109.943 18.4356 110.354 18.6063C110.766 18.7693 111.088 19.0058 111.321 19.3163C111.554 19.6268 111.67 20.0423 111.67 20.5624C111.67 22.1382 110.572 22.9266 108.375 22.9266C107.839 22.9266 107.385 22.8722 107.012 22.7635C106.648 22.6471 106.333 22.4799 106.069 22.2626C105.805 22.0452 105.537 21.7583 105.265 21.4012L106.197 20.621C106.515 21.0634 106.834 21.378 107.152 21.5643C107.478 21.7505 107.882 21.8436 108.363 21.8436C109.015 21.8436 109.5 21.7386 109.818 21.5292C110.136 21.3196 110.296 20.9971 110.296 20.5624C110.296 20.3219 110.226 20.1278 110.087 19.9803C109.955 19.8251 109.717 19.6935 109.376 19.5848C109.042 19.4684 108.541 19.3398 107.874 19.2001C107.113 19.0448 106.546 18.7728 106.174 18.3846C105.801 17.9965 105.615 17.48 105.615 16.8358C105.615 16.3624 105.735 15.9507 105.975 15.6014C106.216 15.2444 106.558 14.9733 107.001 14.787C107.443 14.593 107.964 14.496 108.561 14.496ZM36.9128 14.496C37.2 14.496 37.4405 14.5504 37.6345 14.6591C37.8286 14.76 37.9997 14.9302 38.1472 15.1708C38.2947 15.4114 38.4342 15.7497 38.5662 16.1844L40.5925 22.787H39.2185L38.5779 20.6444H35.2361L34.5955 22.787H33.2214L35.2595 16.1844C35.3915 15.7497 35.527 15.4114 35.6667 15.1708C35.8142 14.9302 35.9854 14.76 36.1794 14.6591C36.3735 14.5504 36.6179 14.496 36.9128 14.496ZM45.3708 14.6356C46.2634 14.6356 46.9699 14.7673 47.49 15.0311C48.0101 15.2951 48.387 15.7224 48.6199 16.3124C48.8527 16.8946 48.9695 17.694 48.9695 18.7108C48.9695 19.7278 48.8528 20.532 48.6199 21.1219C48.387 21.704 48.01 22.1266 47.49 22.3905C46.9699 22.6544 46.2635 22.787 45.3708 22.787H42.3787V14.6356H45.3708ZM63.5759 15.7186H60.8279C60.3312 15.7186 59.9621 15.8345 59.7214 16.0673C59.4886 16.2923 59.3719 16.6497 59.3718 17.1385V18.1757H63.0398V19.2469H59.3718V20.2831C59.3718 20.7722 59.4885 21.1332 59.7214 21.3661C59.9621 21.5912 60.3311 21.704 60.8279 21.704H63.6228V22.787H60.8279C59.8421 22.787 59.1239 22.5772 58.6736 22.1581C58.2233 21.7311 57.9978 21.106 57.9978 20.2831V17.1385C57.9979 16.3159 58.2235 15.6954 58.6736 15.2762C59.1238 14.8493 59.842 14.6356 60.8279 14.6356H63.5759V15.7186ZM70.4675 21.6102H70.5251C70.6494 21.6102 70.7354 21.5598 70.782 21.4589C70.8285 21.3501 70.8513 21.1639 70.8513 20.9003V14.6356H72.1443V21.0985C72.1442 21.6572 72.0274 22.0799 71.7947 22.3671C71.5695 22.6465 71.2085 22.787 70.7117 22.787H69.7449L66.8689 16.7899V22.787H65.5769V14.6356H67.1482L70.4675 21.6102ZM80.1931 15.7186H77.6775V22.787H76.3035V15.7186H73.7771V14.6356H80.1931V15.7186ZM93.6521 14.6356C94.5681 14.6356 95.2516 14.8295 95.7019 15.2177C96.1522 15.6058 96.3777 16.1924 96.3777 16.9764C96.3776 17.5274 96.2372 17.9699 95.9578 18.3036C95.6783 18.6372 95.2864 18.8471 94.782 18.9325C95.1622 19.0644 95.4532 19.2893 95.655 19.6073C95.8569 19.9256 96.0359 20.3529 96.1912 20.8885L96.738 22.787H95.283L94.7351 20.8885C94.6265 20.5084 94.5146 20.2133 94.3982 20.0038C94.2818 19.7865 94.1185 19.6232 93.9089 19.5145C93.7071 19.4058 93.4311 19.3514 93.0818 19.3514H91.6609V22.787H90.2869V14.6356H93.6521ZM103.846 15.7186H101.098C100.602 15.7187 100.234 15.8347 99.9929 16.0673C99.7601 16.2923 99.6434 16.6497 99.6433 17.1385V18.1757H103.311V19.2469H99.6433V20.2831C99.6433 20.7722 99.76 21.1332 99.9929 21.3661C100.234 21.591 100.602 21.7039 101.098 21.704H103.893V22.787H101.098C100.113 22.7869 99.3943 22.5772 98.9441 22.1581C98.4939 21.7311 98.2693 21.1059 98.2693 20.2831V17.1385C98.2694 16.3161 98.4942 15.6954 98.9441 15.2762C99.3943 14.8493 100.113 14.6357 101.098 14.6356H103.846V15.7186ZM43.7527 21.704H45.3708C45.922 21.704 46.3573 21.607 46.6755 21.413C47.0014 21.2189 47.2341 20.9081 47.3738 20.4813C47.5213 20.0466 47.5955 19.4561 47.5955 18.7108C47.5954 17.9658 47.5212 17.3799 47.3738 16.953C47.2341 16.5184 47.0014 16.2037 46.6755 16.0096C46.3573 15.8156 45.922 15.7186 45.3708 15.7186H43.7527V21.704ZM36.9128 15.7645C36.8274 15.7645 36.7572 15.8001 36.7029 15.87C36.6486 15.9399 36.598 16.0528 36.5515 16.2079L35.5388 19.619H38.2751L37.2625 16.2079C37.2159 16.0529 37.1653 15.9399 37.1111 15.87C37.0645 15.8001 36.9982 15.7645 36.9128 15.7645ZM91.6609 18.2684H93.6521C94.0558 18.2684 94.3822 18.1596 94.6306 17.9423C94.879 17.7249 95.0037 17.4103 95.0037 16.9989C95.0036 16.5799 94.8789 16.2621 94.6306 16.0448C94.3822 15.8274 94.0558 15.7186 93.6521 15.7186H91.6609V18.2684ZM113.123 8.00574C113.123 8.62678 113.325 9.09795 113.728 9.41882C114.142 9.73955 114.743 9.90027 115.529 9.90027C116.315 9.90027 116.911 9.73953 117.314 9.41882C117.728 9.09795 117.935 8.62678 117.935 8.00574V0.273315H119.767V8.00574C119.767 9.05103 119.4 9.86889 118.666 10.4589C117.941 11.0385 116.895 11.328 115.529 11.328C114.163 11.328 113.113 11.0384 112.378 10.4589C111.653 9.86887 111.291 9.05116 111.291 8.00574V0.273315H113.123V8.00574ZM126.228 0.0877686C127.201 0.087783 127.993 0.23786 128.603 0.537964C129.224 0.838137 129.717 1.28293 130.079 1.87292L128.868 2.86609C128.464 2.40036 128.065 2.0643 127.672 1.8573C127.289 1.64007 126.802 1.53113 126.213 1.53113C125.55 1.53113 125.038 1.68123 124.676 1.98132C124.313 2.27112 124.133 2.68535 124.133 3.22351C124.133 3.71 124.334 4.0829 124.738 4.34167C125.142 4.58999 125.701 4.79193 126.415 4.94714C127.336 5.13342 128.07 5.34058 128.619 5.56824C129.167 5.7856 129.597 6.10147 129.908 6.5155C130.218 6.92951 130.374 7.48327 130.374 8.17664C130.374 10.2778 128.908 11.328 125.979 11.328C125.265 11.328 124.66 11.2561 124.163 11.1112C123.677 10.956 123.258 10.7329 122.906 10.4432C122.554 10.1534 122.196 9.77093 121.834 9.2948L123.076 8.25378C123.5 8.84371 123.925 9.26317 124.349 9.5116C124.784 9.76002 125.323 9.88464 125.965 9.88464C126.834 9.8846 127.481 9.74415 127.905 9.46472C128.329 9.18526 128.542 8.7561 128.542 8.17664C128.542 7.85588 128.449 7.59691 128.262 7.40027C128.087 7.19327 127.771 7.01685 127.315 6.87195C126.87 6.7167 126.202 6.54653 125.312 6.36023C124.298 6.15325 123.542 5.7907 123.046 5.27332C122.549 4.75578 122.3 4.067 122.3 3.20789C122.3 2.57666 122.46 2.02807 122.781 1.56238C123.102 1.08633 123.557 0.723879 124.147 0.475464C124.737 0.216694 125.431 0.0877686 126.228 0.0877686ZM37.0095 9.43445C37.1544 9.31024 37.2896 9.07153 37.4138 8.7196L39.8972 1.54675L42.4128 8.7196C42.5163 9.06118 42.6463 9.29989 42.8015 9.43445L44.866 0.273315H46.5896L44.1052 11.1425H43.5623C43.0449 11.1425 42.6306 11.0801 42.3201 10.9559C42.0096 10.8317 41.7507 10.6193 41.5437 10.3192C41.347 10.019 41.1548 9.58909 40.9685 9.03015L39.8972 5.77039L38.8572 9.03015C38.6812 9.57874 38.4847 10.0034 38.2673 10.3036C38.0603 10.6037 37.7962 10.8214 37.4753 10.9559C37.1649 11.0801 36.7558 11.1425 36.2488 11.1425H35.7058L33.2214 0.273315H34.9451L37.0095 9.43445ZM51.8337 0.0877686C52.2167 0.0877734 52.5379 0.159659 52.7966 0.304565C53.0553 0.439136 53.2826 0.667353 53.4792 0.988159C53.6759 1.30903 53.8629 1.75915 54.0388 2.33875L56.74 11.1425H54.908L54.0535 8.28503H49.5984L48.7439 11.1425H46.9119L49.6287 2.33875C49.8046 1.75916 49.9863 1.30903 50.1726 0.988159C50.3692 0.667359 50.5965 0.439137 50.8552 0.304565C51.114 0.159654 51.4404 0.0877686 51.8337 0.0877686ZM65.4802 9.5741H65.5574C65.723 9.5741 65.8371 9.5065 65.8992 9.37195C65.9613 9.22705 65.9929 8.97873 65.9929 8.62683V0.273315H67.7156V8.8905C67.7156 9.63576 67.5603 10.1999 67.2498 10.5829C66.9496 10.9554 66.4687 11.1424 65.8064 11.1425H64.5173L60.6824 3.14636V11.1425H58.9587V0.273315H61.0554L65.4802 9.5741ZM74.7302 0.273315C75.9206 0.273315 76.8629 0.449708 77.5564 0.801636C78.2498 1.15357 78.7518 1.72303 79.0623 2.50964C79.3727 3.28594 79.5281 4.35202 79.5281 5.70789C79.5281 7.06382 79.3728 8.1351 79.0623 8.92175C78.7517 9.69802 78.2498 10.2622 77.5564 10.6141C76.8629 10.9661 75.9206 11.1425 74.7302 11.1425H70.74V0.273315H74.7302ZM89.158 1.71765H85.4939C84.8316 1.7177 84.3401 1.873 84.0193 2.18347C83.7088 2.48364 83.5535 2.96008 83.5535 3.61218V4.99402H88.4441V6.42175H83.5535V7.80359C83.5535 8.45569 83.7088 8.9374 84.0193 9.24792C84.3401 9.54799 84.8317 9.69808 85.4939 9.69812H89.2205V11.1425H85.4939C84.1795 11.1424 83.2221 10.8625 82.6218 10.3036C82.0215 9.7343 81.7214 8.90076 81.7214 7.80359V3.61218C81.7214 2.51506 82.0215 1.68675 82.6218 1.12781C83.2221 0.558556 84.1795 0.273357 85.4939 0.273315H89.158V1.71765ZM96.1511 0.273315C97.3723 0.273315 98.2832 0.532348 98.8835 1.04968C99.4839 1.56722 99.7839 2.349 99.7839 3.39441C99.7839 4.12932 99.598 4.71983 99.2253 5.16492C98.8527 5.6098 98.3296 5.88898 97.657 6.00281C98.1642 6.17877 98.5529 6.47882 98.822 6.9032C99.0911 7.32757 99.3289 7.89703 99.5359 8.61121L100.265 11.1425H98.325L97.5955 8.61121C97.4506 8.10421 97.3005 7.71097 97.1453 7.43152C96.99 7.14171 96.7724 6.92409 96.4929 6.77917C96.2238 6.63426 95.8562 6.5614 95.3904 6.5614H93.4958V11.1425H91.6638V0.273315H96.1511ZM104.086 7.80359C104.086 8.45565 104.23 8.9374 104.52 9.24792C104.82 9.54806 105.281 9.69808 105.902 9.69812H109.381V11.1425H105.902C104.619 11.1424 103.687 10.8625 103.107 10.3036C102.538 9.7343 102.254 8.90063 102.254 7.80359V0.273315H104.086V7.80359ZM140.102 1.71765H136.749V11.1425H134.917V1.71765H131.548V0.273315H140.102V1.71765ZM72.572 9.69812H74.7302C75.4651 9.69812 76.0451 9.56822 76.4695 9.30945C76.904 9.05072 77.2148 8.63725 77.4011 8.06824C77.5978 7.4886 77.696 6.70154 77.696 5.70789C77.696 4.71421 77.5978 3.93245 77.4011 3.36316C77.2148 2.78361 76.9042 2.36409 76.4695 2.10535C76.0451 1.84664 75.465 1.71765 74.7302 1.71765H72.572V9.69812ZM51.8337 1.78015C51.7199 1.78015 51.6269 1.82664 51.5544 1.9198C51.482 2.01296 51.4144 2.16305 51.3523 2.37L50.0017 6.91882H53.6501L52.2996 2.37C52.2375 2.16305 52.1698 2.01296 52.0974 1.9198C52.0353 1.82665 51.9476 1.78016 51.8337 1.78015ZM93.4958 5.11804H96.1511C96.6894 5.11804 97.1246 4.97329 97.4558 4.68347C97.787 4.39368 97.9519 3.97417 97.9519 3.42566C97.9519 2.86678 97.787 2.44204 97.4558 2.15222C97.1246 1.8624 96.6894 1.71765 96.1511 1.71765H93.4958V5.11804Z" fill="url(#paint1_linear_327_7394)"/>
<path d="M39.5281 28.0252C39.7063 28.0252 39.8638 28.0698 39.9998 28.159C40.1357 28.2481 40.2418 28.3743 40.3181 28.5379C40.3944 28.7014 40.4324 28.8946 40.4324 29.117C40.4323 29.3411 40.3943 29.5356 40.3181 29.7C40.2419 29.8632 40.1365 29.9899 40.0017 30.0799C39.8666 30.169 39.7104 30.2137 39.5339 30.2137C39.3981 30.2137 39.2895 30.1912 39.2078 30.1463C39.1261 30.1004 39.0624 30.0488 39.0183 29.991C38.9743 29.9323 38.9406 29.8831 38.9167 29.8445H38.8894V30.9637H38.5632V28.0525H38.8777V28.3885H38.9167C38.9406 28.3518 38.9733 28.3046 39.0154 28.2478C39.0586 28.19 39.121 28.1386 39.2009 28.0936C39.2817 28.0478 39.3907 28.0252 39.5281 28.0252ZM62.0574 28.0252C62.1253 28.0252 62.2037 28.0331 62.2917 28.0496C62.3808 28.0653 62.467 28.0977 62.5496 28.1473C62.633 28.1969 62.7025 28.2719 62.7576 28.3719C62.8127 28.472 62.8396 28.607 62.8396 28.7752V30.1697H62.5144V29.8826H62.4978C62.4758 29.9285 62.4389 29.9777 62.3875 30.0301C62.336 30.0824 62.2678 30.1271 62.1824 30.1639C62.097 30.2006 61.9929 30.2195 61.8699 30.2195C61.7358 30.2195 61.6139 30.1938 61.5046 30.1434C61.3953 30.0919 61.3082 30.0181 61.2439 29.9217C61.1796 29.8244 61.1473 29.7068 61.1472 29.5691C61.1472 29.4481 61.1709 29.3495 61.2185 29.2742C61.2663 29.1979 61.3309 29.1377 61.4109 29.0945C61.4908 29.0514 61.5792 29.019 61.6755 28.9978C61.7727 28.9759 61.8704 28.9589 61.9685 28.9461C62.0972 28.9295 62.202 28.9173 62.282 28.909C62.3625 28.8998 62.421 28.8841 62.4578 28.8631C62.4954 28.8419 62.5144 28.8051 62.5144 28.7527V28.742C62.5144 28.606 62.4775 28.5 62.4031 28.4246C62.3296 28.3493 62.2179 28.3113 62.0681 28.3113C61.9128 28.3113 61.7911 28.3459 61.7029 28.4139C61.6147 28.4819 61.5522 28.5545 61.5164 28.6316L61.2078 28.5213C61.2629 28.3926 61.3366 28.2922 61.4285 28.2205C61.5213 28.1479 61.6229 28.0976 61.7322 28.0691C61.8423 28.0398 61.9509 28.0252 62.0574 28.0252ZM43.6804 28.0252C43.8716 28.0252 44.039 28.0709 44.1824 28.1619C44.3265 28.2529 44.4384 28.3804 44.5183 28.5447C44.5991 28.7091 44.6403 28.9015 44.6404 29.1219C44.6404 29.3405 44.5991 29.5316 44.5183 29.6951C44.4384 29.8586 44.3266 29.986 44.1824 30.077C44.039 30.1679 43.8716 30.2137 43.6804 30.2137C43.4894 30.2136 43.3217 30.1679 43.1775 30.077C43.0343 29.986 42.9224 29.8586 42.8416 29.6951C42.7617 29.5316 42.7214 29.3405 42.7214 29.1219C42.7215 28.9015 42.7616 28.7091 42.8416 28.5447C42.9224 28.3804 43.0343 28.2529 43.1775 28.1619C43.3217 28.071 43.4894 28.0252 43.6804 28.0252ZM48.3416 28.0252C48.4516 28.0252 48.5604 28.0432 48.6677 28.0799C48.7752 28.1166 48.8735 28.1769 48.9617 28.2596C49.0498 28.3413 49.1203 28.4498 49.1726 28.5848C49.2249 28.7198 49.2507 28.8863 49.2507 29.0838V29.2215H47.7146C47.7193 29.3623 47.7457 29.483 47.7957 29.5838C47.8516 29.6939 47.9291 29.7779 48.0281 29.8357C48.1273 29.8927 48.2433 29.9217 48.3748 29.9217C48.4601 29.9216 48.5374 29.9094 48.6062 29.8855C48.6759 29.8607 48.7364 29.8238 48.7869 29.7752C48.8373 29.7256 48.8765 29.664 48.9041 29.5906L49.2175 29.6795C49.1845 29.7857 49.1293 29.8791 49.0515 29.9598C48.9734 30.0397 48.8763 30.1022 48.7615 30.1473C48.6467 30.1913 48.5179 30.2136 48.3748 30.2137C48.1708 30.2137 47.9944 30.169 47.8464 30.0789C47.6994 29.9879 47.5856 29.8607 47.5056 29.698C47.4267 29.5346 47.3875 29.3444 47.3875 29.1277C47.3875 28.911 47.4267 28.7198 47.5056 28.5545C47.5855 28.3882 47.6972 28.2586 47.8396 28.1658C47.983 28.0721 48.1504 28.0252 48.3416 28.0252ZM59.3572 28.0252C59.4673 28.0252 59.576 28.0432 59.6833 28.0799C59.7909 28.1166 59.8891 28.1769 59.9773 28.2596C60.0654 28.3413 60.1359 28.4498 60.1882 28.5848C60.2405 28.7198 60.2664 28.8863 60.2664 29.0838V29.2215H58.7302C58.7349 29.3623 58.7613 29.483 58.8113 29.5838C58.8673 29.6939 58.9446 29.7779 59.0437 29.8357C59.1428 29.8927 59.2582 29.9216 59.3894 29.9217C59.4749 29.9217 59.5529 29.9094 59.6218 29.8855C59.6914 29.8607 59.7511 29.8238 59.8015 29.7752C59.8521 29.7256 59.8911 29.6641 59.9187 29.5906L60.2332 29.6795C60.2001 29.7859 60.1441 29.879 60.0662 29.9598C59.9881 30.0397 59.8919 30.1022 59.7771 30.1473C59.6622 30.1914 59.5328 30.2137 59.3894 30.2137C59.1857 30.2136 59.0099 30.1688 58.8621 30.0789C58.715 29.9879 58.6012 29.8607 58.5212 29.698C58.4423 29.5346 58.4031 29.3444 58.4031 29.1277C58.4031 28.911 58.4423 28.7198 58.5212 28.5545C58.6012 28.3882 58.7128 28.2586 58.8552 28.1658C58.9986 28.0721 59.1661 28.0252 59.3572 28.0252ZM74.7634 28.0252C74.9727 28.0253 75.1372 28.0711 75.2566 28.1629C75.3769 28.2548 75.4619 28.3765 75.5125 28.5271L75.2205 28.6092C75.2021 28.5606 75.1751 28.5134 75.1394 28.4676C75.1045 28.4207 75.0565 28.3817 74.9958 28.3514C74.9353 28.3211 74.8578 28.3065 74.7634 28.3064C74.634 28.3064 74.5255 28.3357 74.4392 28.3953C74.3537 28.4541 74.3113 28.5299 74.3113 28.6209C74.3114 28.7015 74.3405 28.7655 74.3992 28.8123C74.458 28.8591 74.5498 28.8983 74.6746 28.9295L74.989 29.0066C75.1783 29.0526 75.3191 29.1229 75.4119 29.2176C75.5047 29.3113 75.5515 29.4319 75.5515 29.5799C75.5515 29.7011 75.5167 29.8096 75.447 29.9051C75.3781 30.0006 75.281 30.0755 75.157 30.1307C75.0329 30.1858 74.8888 30.2137 74.7244 30.2137C74.5084 30.2137 74.3297 30.1668 74.1882 30.073C74.0469 29.9794 73.9574 29.8428 73.9197 29.6629L74.2283 29.5857C74.2577 29.6995 74.3136 29.7847 74.3953 29.8416C74.4779 29.8984 74.5855 29.9275 74.7185 29.9275C74.87 29.9275 74.9907 29.8951 75.0798 29.8309C75.1698 29.7656 75.2146 29.6874 75.2146 29.5965C75.2146 29.523 75.1889 29.4615 75.1375 29.4119C75.086 29.3615 75.0075 29.3234 74.9011 29.2986L74.5476 29.2156C74.3541 29.1697 74.2118 29.099 74.1208 29.0027C74.0308 28.9053 73.9851 28.7826 73.9851 28.6365C73.9852 28.5174 74.0189 28.4118 74.0857 28.3201C74.1537 28.2282 74.2464 28.1557 74.363 28.1033C74.4807 28.0509 74.6146 28.0252 74.7634 28.0252ZM77.3806 28.0252C77.5293 28.0252 77.6636 28.0523 77.783 28.1072C77.9024 28.1624 78.0006 28.2404 78.0769 28.3396C78.153 28.4388 78.2001 28.5542 78.2185 28.6863H77.8933C77.8685 28.59 77.8136 28.5048 77.7283 28.4305C77.6437 28.3551 77.5298 28.3172 77.3865 28.3172C77.2597 28.3172 77.1481 28.3506 77.0525 28.4168C76.9581 28.482 76.884 28.574 76.8308 28.6932C76.7784 28.8117 76.7527 28.9512 76.7527 29.1111C76.7527 29.2747 76.7784 29.4176 76.8298 29.5389C76.8822 29.6599 76.956 29.7541 77.0505 29.8211C77.146 29.888 77.258 29.9217 77.3865 29.9217C77.471 29.9217 77.548 29.9071 77.6169 29.8777C77.6858 29.8483 77.744 29.8059 77.7917 29.7508C77.8395 29.6957 77.8731 29.6296 77.8933 29.5525H78.2185C78.2001 29.6772 78.1551 29.7895 78.0828 29.8895C78.0112 29.9886 77.9159 30.068 77.7976 30.1268C77.68 30.1846 77.5427 30.2137 77.3865 30.2137C77.188 30.2137 77.0171 30.1668 76.8738 30.073C76.7305 29.9794 76.6199 29.8507 76.5427 29.6863C76.4655 29.5218 76.4275 29.3332 76.4275 29.1219C76.4275 28.907 76.4667 28.7169 76.5457 28.5525C76.6256 28.3873 76.7373 28.2586 76.8796 28.1658C77.0229 28.0722 77.1897 28.0252 77.3806 28.0252ZM80.0398 28.0252C80.2309 28.0252 80.3984 28.0709 80.5417 28.1619C80.6859 28.2529 80.7978 28.3804 80.8777 28.5447C80.9585 28.7091 80.9987 28.9015 80.9988 29.1219C80.9988 29.3404 80.9585 29.5316 80.8777 29.6951C80.7978 29.8586 80.6859 29.986 80.5417 30.077C80.3984 30.1679 80.2309 30.2137 80.0398 30.2137C79.8487 30.2137 79.6811 30.1679 79.5369 30.077C79.3936 29.986 79.2808 29.8586 79.2 29.6951C79.1202 29.5317 79.0808 29.3403 79.0808 29.1219C79.0808 28.9016 79.1201 28.7091 79.2 28.5447C79.2808 28.3803 79.3936 28.2529 79.5369 28.1619C79.6811 28.0709 79.8487 28.0252 80.0398 28.0252ZM85.3298 28.0252C85.4399 28.0252 85.5487 28.0432 85.656 28.0799C85.7635 28.1166 85.8617 28.1769 85.95 28.2596C86.0381 28.3413 86.1085 28.4497 86.1609 28.5848C86.2132 28.7198 86.239 28.8863 86.239 29.0838V29.2215H84.7029C84.7076 29.3622 84.734 29.483 84.7839 29.5838C84.84 29.6941 84.9181 29.7778 85.0173 29.8357C85.1165 29.8926 85.2317 29.9217 85.363 29.9217C85.4484 29.9217 85.5256 29.9094 85.5945 29.8855C85.6643 29.8607 85.7246 29.8239 85.7751 29.7752C85.8256 29.7256 85.8648 29.664 85.8923 29.5906L86.2068 29.6795C86.1737 29.7858 86.1177 29.879 86.0398 29.9598C85.9617 30.0397 85.8646 30.1022 85.7498 30.1473C85.635 30.1913 85.5062 30.2136 85.363 30.2137C85.159 30.2137 84.9827 30.169 84.8347 30.0789C84.6877 29.9879 84.5748 29.8607 84.4949 29.698C84.4159 29.5345 84.3757 29.3445 84.3757 29.1277C84.3757 28.9109 84.4158 28.7199 84.4949 28.5545C84.5748 28.3882 84.6855 28.2586 84.8279 28.1658C84.9712 28.0721 85.1387 28.0252 85.3298 28.0252ZM50.4685 29.6951C50.5363 29.6952 50.5947 29.7198 50.6433 29.7684C50.692 29.8171 50.7166 29.8761 50.7166 29.9441C50.7165 29.989 50.7043 30.0306 50.6814 30.0682C50.6594 30.1056 50.63 30.1361 50.5925 30.159C50.5559 30.181 50.5143 30.1921 50.4685 30.1922C50.4005 30.1922 50.3414 30.1676 50.2927 30.1189C50.2442 30.0704 50.2206 30.0119 50.2205 29.9441C50.2205 29.8762 50.244 29.8171 50.2927 29.7684C50.3414 29.7197 50.4005 29.6951 50.4685 29.6951ZM68.0144 29.6951C68.0824 29.6951 68.1415 29.7197 68.1902 29.7684C68.2388 29.817 68.2625 29.8762 68.2625 29.9441C68.2624 29.989 68.2512 30.0306 68.2283 30.0682C68.2062 30.1057 68.176 30.1361 68.1384 30.159C68.1018 30.1809 68.0602 30.1922 68.0144 30.1922C67.9466 30.1921 67.8882 30.1675 67.8396 30.1189C67.791 30.0703 67.7665 30.0119 67.7664 29.9441C67.7664 29.8761 67.7909 29.8171 67.8396 29.7684C67.8882 29.7198 67.9466 29.6952 68.0144 29.6951ZM34.9255 27.6502H33.5632V28.6043H34.8367V28.907H33.5632V29.867H34.947V30.1697H33.2214V27.3465H34.9255V27.6502ZM36.7322 28.9178L37.239 28.0525H37.614L36.9304 29.1111L37.614 30.1697H37.239L36.7322 29.3484L36.2253 30.1697H35.8503L36.5222 29.1111L35.8503 28.0525H36.2253L36.7322 28.9178ZM41.739 30.1697H41.4138V27.3465H41.739V30.1697ZM46.5994 28.0213C46.635 28.0222 46.6621 28.0234 46.6804 28.0252V28.3562C46.6694 28.3535 46.6438 28.3491 46.6042 28.3436C46.5658 28.3372 46.5252 28.3338 46.4822 28.3338C46.3793 28.3338 46.2867 28.355 46.2058 28.3982C46.126 28.4405 46.0632 28.4998 46.0164 28.575C45.9704 28.6494 45.947 28.7343 45.947 28.8299V30.1697H45.6218V28.0525H45.9363V28.3719H45.9578C45.9964 28.2673 46.0667 28.1822 46.1677 28.117C46.2687 28.0519 46.3828 28.0193 46.5095 28.0193C46.5334 28.0193 46.5636 28.0204 46.5994 28.0213ZM54.3162 27.3465C54.5899 27.3465 54.8245 27.4034 55.0193 27.5164C55.2138 27.6284 55.3628 27.7897 55.4666 27.9998C55.5704 28.2093 55.6228 28.4605 55.6228 28.7527C55.6228 29.0468 55.5703 29.3002 55.4656 29.5125C55.3608 29.7238 55.2078 29.8859 55.0076 29.9998C54.8073 30.1128 54.5638 30.1697 54.2771 30.1697H53.406V27.3465H54.3162ZM57.614 28.0213C57.6499 28.0222 57.6777 28.0234 57.696 28.0252V28.3562C57.685 28.3535 57.6594 28.3491 57.6199 28.3436C57.5813 28.3371 57.54 28.3338 57.4968 28.3338C57.3941 28.3338 57.3022 28.3551 57.2214 28.3982C57.1415 28.4405 57.0779 28.4996 57.031 28.575C56.9851 28.6494 56.9627 28.7344 56.9626 28.8299V30.1697H56.6375V28.0525H56.9509V28.3719H56.9734C57.012 28.2673 57.0824 28.1822 57.1833 28.117C57.2843 28.0519 57.3985 28.0193 57.5251 28.0193C57.5489 28.0193 57.5785 28.0204 57.614 28.0213ZM66.0525 28.0252C66.2418 28.0252 66.397 28.0844 66.5173 28.2029C66.6376 28.3206 66.698 28.5039 66.698 28.7527V30.1697H66.3718V28.7527C66.3718 28.5965 66.3294 28.4848 66.2439 28.4178C66.1585 28.3508 66.0579 28.3172 65.9421 28.3172C65.7935 28.3172 65.6782 28.3621 65.5964 28.452C65.5147 28.5411 65.4734 28.6549 65.4734 28.7918V30.1697H65.1423V28.7195C65.1423 28.5992 65.1032 28.502 65.0251 28.4285C64.9471 28.3543 64.8463 28.3172 64.7234 28.3172C64.6391 28.3172 64.5604 28.3397 64.4871 28.3846C64.4145 28.4296 64.3553 28.4922 64.3103 28.5721C64.2662 28.6511 64.2439 28.7426 64.2439 28.8465V30.1697H63.9187V28.0525H64.2332V28.3836H64.2605C64.3046 28.2706 64.376 28.1824 64.4744 28.1199C64.5727 28.0566 64.6911 28.0252 64.8289 28.0252C64.9684 28.0252 65.0848 28.0566 65.1775 28.1199C65.2712 28.1824 65.3439 28.2706 65.3962 28.3836H65.4187C65.4729 28.2742 65.5544 28.1872 65.6628 28.1228C65.7712 28.0577 65.901 28.0252 66.0525 28.0252ZM70.2859 27.3465C70.5596 27.3465 70.7943 27.4034 70.989 27.5164C71.1835 27.6284 71.3325 27.7897 71.4363 27.9998C71.5401 28.2093 71.5925 28.4605 71.5925 28.7527C71.5925 29.0468 71.5401 29.3002 71.4353 29.5125C71.3305 29.7238 71.1776 29.8859 70.9773 29.9998C70.777 30.1128 70.5335 30.1697 70.2468 30.1697H69.3757V27.3465H70.2859ZM72.9324 30.1697H72.6072V28.0525H72.9324V30.1697ZM82.6765 29.74H82.699L83.2839 28.0525H83.6365L82.8533 30.1697H82.5222L81.74 28.0525H82.0925L82.6765 29.74ZM88.197 28.0213C88.2327 28.0222 88.2598 28.0234 88.2781 28.0252V28.3562C88.267 28.3535 88.2414 28.3491 88.2019 28.3436C88.1635 28.3372 88.1228 28.3338 88.0798 28.3338C87.9769 28.3338 87.8843 28.355 87.8035 28.3982C87.7237 28.4405 87.6608 28.4998 87.614 28.575C87.5681 28.6494 87.5447 28.7343 87.5447 28.8299V30.1697H87.2195V28.0525H87.5339V28.3719H87.5554C87.594 28.2672 87.6644 28.1822 87.7654 28.117C87.8664 28.0518 87.9805 28.0193 88.1072 28.0193C88.1311 28.0193 88.1612 28.0204 88.197 28.0213ZM62.5144 29.1053C62.5006 29.1218 62.4704 29.1374 62.4236 29.1512C62.3777 29.164 62.324 29.1752 62.2634 29.1853C62.2038 29.1945 62.1455 29.2034 62.0886 29.2107C62.0326 29.2172 61.9868 29.2227 61.9519 29.2273C61.8676 29.2384 61.7889 29.2563 61.7156 29.2811C61.643 29.3049 61.5838 29.3408 61.5388 29.3895C61.4947 29.4372 61.4724 29.503 61.4724 29.5857C61.4725 29.6986 61.5149 29.7838 61.5984 29.8416C61.6828 29.8984 61.7895 29.9275 61.9187 29.9275C62.0474 29.9275 62.1567 29.9019 62.2449 29.8514C62.3338 29.8009 62.4011 29.7358 62.446 29.6561C62.492 29.5761 62.5144 29.4913 62.5144 29.4031V29.1053ZM39.49 28.3172C39.3577 28.3172 39.2461 28.3507 39.156 28.4178C39.0661 28.4839 38.9978 28.5767 38.9519 28.6961C38.906 28.8146 38.8835 28.9531 38.8835 29.1111C38.8835 29.2709 38.9071 29.4118 38.9539 29.534C39.0007 29.6553 39.0689 29.7512 39.1589 29.8201C39.249 29.8881 39.3596 29.9217 39.49 29.9217C39.626 29.9217 39.7399 29.8859 39.8308 29.8143C39.9225 29.7418 39.991 29.6442 40.0369 29.5223C40.0837 29.3991 40.1072 29.2618 40.1072 29.1111C40.1072 28.9624 40.0847 28.8282 40.0388 28.7088C39.9938 28.5884 39.9247 28.4935 39.8328 28.4236C39.7418 28.3529 39.6278 28.3172 39.49 28.3172ZM43.6804 28.3172C43.5353 28.3172 43.4157 28.3552 43.322 28.4305C43.2285 28.5058 43.159 28.6043 43.114 28.7264C43.069 28.8485 43.0467 28.9805 43.0466 29.1219C43.0466 29.2634 43.069 29.3951 43.114 29.5164C43.159 29.6377 43.2283 29.7359 43.322 29.8103C43.4157 29.8847 43.5353 29.9216 43.6804 29.9217C43.8254 29.9217 43.9451 29.8846 44.0388 29.8103C44.1325 29.7359 44.2018 29.6376 44.2468 29.5164C44.2919 29.3951 44.3152 29.2634 44.3152 29.1219C44.3152 28.9805 44.2918 28.8485 44.2468 28.7264C44.2018 28.6043 44.1325 28.5058 44.0388 28.4305C43.9451 28.3551 43.8256 28.3172 43.6804 28.3172ZM80.0398 28.3172C79.8946 28.3172 79.7751 28.3551 79.6814 28.4305C79.5878 28.5058 79.5184 28.6043 79.4734 28.7264C79.4284 28.8485 79.406 28.9805 79.406 29.1219C79.406 29.2634 79.4284 29.3951 79.4734 29.5164C79.5184 29.6377 79.5877 29.7359 79.6814 29.8103C79.7751 29.8847 79.8947 29.9217 80.0398 29.9217C80.1849 29.9217 80.3045 29.8847 80.3982 29.8103C80.4919 29.7359 80.5612 29.6377 80.6062 29.5164C80.6512 29.3951 80.6736 29.2634 80.6736 29.1219C80.6736 28.9805 80.6512 28.8485 80.6062 28.7264C80.5612 28.6043 80.4918 28.5058 80.3982 28.4305C80.3045 28.3551 80.185 28.3172 80.0398 28.3172ZM53.7478 29.867H54.2556C54.4889 29.8669 54.6823 29.8213 54.8357 29.7312C54.9891 29.6412 55.1031 29.5128 55.1785 29.3465C55.2538 29.1802 55.2917 28.9824 55.2917 28.7527C55.2917 28.5249 55.2548 28.3283 55.1804 28.1639C55.106 27.9986 54.9943 27.8722 54.8464 27.784C54.6985 27.6949 54.5142 27.6502 54.2937 27.6502H53.7478V29.867ZM69.7175 29.867H70.2253C70.4586 29.8669 70.652 29.8213 70.8054 29.7312C70.9588 29.6412 71.0729 29.5127 71.1482 29.3465C71.2235 29.1802 71.2615 28.9824 71.2615 28.7527C71.2615 28.5249 71.2246 28.3283 71.1501 28.1639C71.0757 27.9985 70.9641 27.8722 70.8162 27.784C70.6682 27.6949 70.484 27.6502 70.2634 27.6502H69.7175V29.867ZM48.3416 28.3172C48.212 28.3172 48.0993 28.3495 48.0046 28.4139C47.9111 28.4772 47.8393 28.56 47.7888 28.6619C47.7455 28.7493 47.7218 28.8421 47.7156 28.9402H48.9207C48.9207 28.8209 48.8961 28.7146 48.8484 28.6209C48.8015 28.5272 48.7345 28.4525 48.6472 28.3982C48.5609 28.3441 48.459 28.3172 48.3416 28.3172ZM59.3572 28.3172C59.2276 28.3172 59.1149 28.3495 59.0203 28.4139C58.9267 28.4772 58.8549 28.56 58.8044 28.6619C58.7611 28.7493 58.7374 28.842 58.7312 28.9402H59.9353C59.9353 28.8209 59.9117 28.7145 59.864 28.6209C59.8171 28.5272 59.7501 28.4525 59.6628 28.3982C59.5766 28.3441 59.4746 28.3173 59.3572 28.3172ZM85.3298 28.3172C85.2004 28.3172 85.0885 28.3496 84.9939 28.4139C84.9002 28.4773 84.8276 28.5599 84.7771 28.6619C84.7338 28.7493 84.7101 28.8421 84.7039 28.9402H85.9089C85.9089 28.8209 85.8844 28.7146 85.8367 28.6209C85.7898 28.5272 85.7228 28.4525 85.6355 28.3982C85.5492 28.3442 85.4473 28.3172 85.3298 28.3172ZM72.7722 27.2586C72.8356 27.2586 72.8903 27.2799 72.9353 27.323C72.9812 27.3662 73.0037 27.4187 73.0037 27.4793C73.0036 27.5397 72.981 27.5915 72.9353 27.6346C72.8903 27.6778 72.8356 27.7 72.7722 27.7C72.7088 27.7 72.6541 27.6778 72.6082 27.6346C72.5633 27.5915 72.5408 27.5398 72.5408 27.4793C72.5408 27.4186 72.5631 27.3662 72.6082 27.323C72.6541 27.2799 72.7089 27.2586 72.7722 27.2586Z" fill="url(#paint2_linear_327_7394)"/>
<defs>
<linearGradient id="paint0_linear_327_7394" x1="13.5815" y1="22.7977" x2="13.368" y2="0.00199959" gradientUnits="userSpaceOnUse">
<stop stop-color="#243463"/>
<stop offset="0.5" stop-color="#4F7A59"/>
<stop offset="1" stop-color="#B59154"/>
</linearGradient>
<linearGradient id="paint1_linear_327_7394" x1="33.2214" y1="11.5072" x2="140.102" y2="11.5072" gradientUnits="userSpaceOnUse">
<stop stop-color="#233462"/>
<stop offset="0.5" stop-color="#547E5D"/>
<stop offset="1" stop-color="#B69354"/>
</linearGradient>
<linearGradient id="paint2_linear_327_7394" x1="33.2214" y1="28.7582" x2="88.5339" y2="28.7582" gradientUnits="userSpaceOnUse">
<stop stop-color="#233462"/>
<stop offset="1" stop-color="#748646"/>
</linearGradient>
</defs>
</svg>
