<svg width="32" height="32" viewBox="0 0 32 32" fill="none" xmlns="http://www.w3.org/2000/svg">
<g style="mix-blend-mode:luminosity" clip-path="url(#clip0_327_7870)">
<path d="M6.95451 13.6016C8.40531 13.2204 9.93498 13.771 11.3588 14.0254C13.0075 14.322 14.6812 14.4553 16.3569 14.4766C18.6502 14.5068 20.9418 14.3316 23.2172 14.0713C24.9051 13.8804 27.3666 13.0397 28.5658 14.7588C29.5943 16.2341 28.5811 18.4914 27.6235 19.9443C27.515 20.1158 27.4021 20.2851 27.2807 20.4482L24.2533 24.5234C24.2515 24.5223 24.2493 24.5206 24.2475 24.5195L24.2455 24.5234C22.6549 23.5608 19.7321 21.6356 19.6938 21.6104C19.5205 21.4499 19.4966 21.1837 19.6371 20.9932L19.6879 20.9258C19.8587 20.6959 20.0505 20.4835 20.2602 20.293L23.2377 17.6016L22.7406 17.2266C22.5759 17.1027 22.3559 17.0841 22.1762 17.1777L20.809 17.8896L20.3061 17.4443C20.1803 17.3328 19.9881 17.3536 19.8891 17.4893L19.6938 17.7529C19.5951 17.886 19.6284 18.08 19.769 18.1709L19.9936 18.3164L18.726 18.9766L18.2397 18.5498C18.1138 18.4382 17.9216 18.4588 17.8227 18.5947L17.6283 18.8584C17.5297 18.9915 17.563 19.1855 17.7035 19.2764L17.9067 19.4062L17.7153 19.5059C17.4456 19.6479 17.1128 19.5994 16.894 19.3848C16.4685 18.9732 16.0272 18.5792 15.5238 18.2705C15.0354 17.974 14.4769 17.7648 13.9135 17.7314C13.611 17.7136 13.3861 18.0172 13.4877 18.3076C13.6766 18.8459 14.0334 19.3275 14.4496 19.7178C14.8811 20.1202 15.3826 20.4389 15.892 20.7324C16.1554 20.8868 16.2934 21.1927 16.2367 21.4951L16.1947 21.707L16.0151 21.5469C15.8892 21.4353 15.6969 21.4568 15.5981 21.5928L15.4037 21.8555C15.305 21.9886 15.3384 22.1825 15.4789 22.2734L16.0209 22.625L15.7514 24.0391L15.5502 23.8604C15.4243 23.7487 15.2321 23.7693 15.1332 23.9053L14.9389 24.1689C14.8402 24.302 14.8736 24.496 15.0141 24.5869L15.5776 24.9502L15.2865 26.4766C15.2479 26.6791 15.3262 26.8847 15.4906 27.0088L15.9877 27.3848L17.7094 23.7451C17.8322 23.485 17.9791 23.2397 18.1498 23.0098L18.1977 22.9424C18.2332 22.8944 18.2768 22.8549 18.3246 22.8252C18.4674 22.7329 18.6546 22.7255 18.8071 22.8193C18.8417 22.8492 21.4935 25.1378 22.8549 26.4072L22.849 26.416C22.9028 26.4642 22.9574 26.5074 23.0112 26.5557C23.3526 26.849 23.6736 27.1009 23.9701 27.3066C24.3626 27.5758 24.792 27.7907 25.2563 27.8906C25.8406 28.0176 26.2915 27.9543 26.6332 27.7607C26.6099 27.7974 26.5844 27.8329 26.559 27.8672C26.1988 28.3574 25.6214 28.6038 24.7309 28.4082C24.6683 28.3931 24.6079 28.3745 24.5483 28.3564C24.5246 28.3505 24.4997 28.3439 24.4789 28.335C24.1136 28.2199 23.7652 28.0411 23.4477 27.8203C23.437 27.8134 23.2739 27.7089 23.0365 27.6387C22.6468 27.5239 22.047 27.4976 21.5737 28.1357L19.685 30.6787C18.3778 32.4406 15.7599 32.4405 14.4496 30.6787C13.1246 28.8957 11.799 27.1083 10.474 25.3252C8.6243 22.8337 6.30104 20.6165 5.45256 17.5195C5.22185 16.6811 5.11631 15.7603 5.43694 14.9521C5.7397 14.1895 6.2831 13.79 6.96037 13.6113L6.95451 13.6016ZM28.0141 20.9297C28.0141 20.9297 29.5251 24.3139 28.5004 25.4346C28.4914 25.4467 28.4821 25.4566 28.4701 25.4688C28.3923 25.5472 28.2994 25.6137 28.1918 25.665C28.177 25.671 28.1646 25.6776 28.1498 25.6836C28.1049 25.7017 28.0591 25.7194 28.0082 25.7314C27.9934 25.7345 27.9781 25.7411 27.9633 25.7441C27.8975 25.7592 27.831 25.7742 27.7563 25.7803C27.6845 25.7863 27.6065 25.7891 27.5258 25.7891H27.4623C27.3968 25.789 27.3278 25.7805 27.2533 25.7715C27.2325 25.7714 27.2107 25.7677 27.1899 25.7646C27.0971 25.7525 26.9977 25.7351 26.893 25.7109C26.3924 25.5958 25.7773 25.3592 25.019 24.9688C24.9921 24.9566 24.9618 24.9379 24.935 24.9229V24.9199L28.0141 20.9297ZM17.0649 0C19.751 6.00268e-05 22.4377 0.702141 24.8451 2.10547C27.3542 3.56789 28.8987 6.27181 28.8988 9.19629V9.34473C28.8986 10.8038 27.7256 11.9882 26.2807 11.9883H25.7201C25.7189 11.9883 25.7175 11.9874 25.7162 11.9873C25.5761 11.9872 25.436 11.9825 25.2963 11.9756H25.2612C25.2133 11.9726 25.1644 11.9698 25.1166 11.9668C25.0876 11.9651 25.0587 11.9611 25.0297 11.959C24.9877 11.9556 24.9456 11.9523 24.9037 11.9482C24.8701 11.945 24.8358 11.9433 24.8022 11.9395C24.7484 11.9334 24.6938 11.9279 24.6401 11.9219C24.5857 11.9144 24.5313 11.9051 24.477 11.8965C24.4571 11.8935 24.4372 11.8898 24.4174 11.8867C24.3812 11.8808 24.3443 11.876 24.308 11.8701C24.2663 11.8611 24.2267 11.8576 24.185 11.8486C24.1503 11.8425 24.1161 11.833 24.0815 11.8262C24.0172 11.8133 23.953 11.7996 23.8891 11.7852C23.8501 11.7763 23.8099 11.7701 23.7709 11.7607C23.7051 11.7456 23.6414 11.7281 23.5756 11.71C23.4979 11.6888 23.417 11.6667 23.3393 11.6426C23.2675 11.6214 23.1981 11.6003 23.1293 11.5762C23.0906 11.5626 23.0526 11.5488 23.0151 11.5352C22.9876 11.5255 22.9604 11.5148 22.933 11.5049C22.9228 11.5012 22.912 11.4978 22.9018 11.4941C22.836 11.47 22.7693 11.449 22.7035 11.4219C22.7006 11.4194 22.6977 11.4166 22.6947 11.4141C22.3987 11.295 22.1088 11.1582 21.8285 11.001C21.0761 10.5772 20.0684 10.2623 18.9233 10.0928C19.214 9.23924 19.589 8.41569 20.0385 7.63477C20.0386 7.63694 20.0384 7.63943 20.0385 7.6416C20.0399 7.63925 20.042 7.6371 20.0434 7.63477C20.0554 8.01603 20.1399 8.39205 20.2778 8.74609V8.74902C20.2762 8.74711 20.2744 8.74507 20.2729 8.74316C20.4302 9.14346 20.6614 9.51431 20.9594 9.82324C20.9674 9.75904 20.9725 9.6938 20.977 9.62891C20.9738 9.62511 20.9704 9.62099 20.9672 9.61719C21.0002 9.10563 20.9316 8.57857 20.7338 8.10938C20.7362 8.11101 20.7392 8.11262 20.7416 8.11426C20.7402 8.11084 20.7391 8.10694 20.7377 8.10352C21.4457 8.59207 22.2936 8.87576 23.1508 8.88672C22.6205 8.19972 21.8786 7.63654 21.0571 7.37402C20.9824 7.34991 20.91 7.3315 20.8383 7.31641C20.8421 7.31536 20.8462 7.31356 20.85 7.3125C20.8474 7.31195 20.8448 7.3111 20.8422 7.31055C21.709 7.07511 22.5072 6.57108 23.0824 5.87207C22.2407 5.85737 21.3685 6.07261 20.6586 6.52637C21.1233 5.59996 21.3148 4.53619 21.186 3.50684C20.9288 3.77449 20.6955 4.07243 20.4946 4.3916C20.4709 4.42922 20.4499 4.46865 20.4272 4.50684C20.3023 4.71629 20.1912 4.93409 20.0961 5.1582C19.9608 5.47792 19.856 5.80965 19.7924 6.14746L19.7905 6.14551C19.79 6.14796 19.7899 6.15088 19.7895 6.15332C19.3408 5.52507 18.698 5.02018 18.0014 4.70215C18.2153 5.54053 18.6882 6.30733 19.3246 6.88672C19.3211 6.88614 19.3174 6.88534 19.3139 6.88477C19.3165 6.88721 19.319 6.89016 19.3217 6.89258C19.1241 6.86237 18.9198 6.85627 18.7192 6.8623C18.7154 6.85808 18.7112 6.85383 18.7074 6.84961C18.3356 6.86398 17.964 6.94211 17.6196 7.07422C18.237 7.44331 18.9747 7.58875 19.685 7.50098C19.6835 7.50298 19.6815 7.50482 19.6801 7.50684C19.6823 7.50659 19.6847 7.5071 19.6869 7.50684C19.6241 7.59447 19.5632 7.68572 19.5004 7.77637C19.4993 7.77502 19.4976 7.77378 19.4965 7.77246C19.0004 8.48918 18.5403 9.23303 18.1225 9.99902C17.778 9.9718 17.4273 9.95412 17.0678 9.9541C16.9869 9.9541 16.9113 9.95995 16.8334 9.95996C16.1739 8.50376 15.373 7.11042 14.4467 5.80859C15.1572 5.89633 15.8986 5.75114 16.5131 5.38184C15.9765 5.17598 15.3736 5.10055 14.8071 5.19434C15.2839 4.76024 15.6683 4.22062 15.9213 3.625C15.9256 3.615 15.9298 3.60476 15.934 3.59473C16.0132 3.40428 16.0793 3.20806 16.1303 3.00781C15.5881 3.25305 15.0817 3.61396 14.6713 4.05566C14.67 4.05521 14.6687 4.05421 14.6674 4.05371C14.5497 4.18093 14.4394 4.31485 14.3393 4.45508C14.3045 4.27017 14.2539 4.08763 14.1967 3.90723H14.1947C13.9489 3.12616 13.5014 2.39877 12.9408 1.81445C12.9063 2.08952 12.8965 2.36675 12.9076 2.64258C12.916 2.85417 12.9384 3.06529 12.9721 3.27441C12.9788 3.316 12.9849 3.35799 12.9926 3.39941C13.0844 3.8943 13.245 4.37718 13.4692 4.82715C12.7558 4.3733 11.8835 4.1588 11.0444 4.17383C11.6199 4.87587 12.4173 5.38206 13.2895 5.61816C13.2176 5.63329 13.1456 5.65159 13.0707 5.67578C12.2463 5.94224 11.5027 6.50505 10.9721 7.19531C11.8325 7.18618 12.6845 6.90154 13.3949 6.41113C13.1732 6.94691 13.1004 7.55576 13.1723 8.13086C13.7358 7.54965 14.0661 6.75267 14.0932 5.94141C14.8246 7.21291 15.3588 8.59728 15.6586 10.0322C14.3244 10.1776 13.1546 10.5256 12.3031 11.001C11.1129 11.667 9.76669 11.9882 8.40862 11.9883H7.851C6.40603 11.9883 5.2341 10.8039 5.23381 9.34473V9.19629C5.23384 8.62041 5.29527 8.05292 5.41057 7.50195C5.41169 7.49687 5.41239 7.49142 5.4135 7.48633C5.88693 5.24581 7.2762 3.27715 9.28654 2.10547C9.73766 1.84235 10.1985 1.60344 10.6674 1.38965C10.8237 1.3184 10.9811 1.25034 11.1391 1.18457C11.4551 1.05303 11.7741 0.931886 12.0961 0.822266C12.2572 0.767411 12.4191 0.715383 12.5815 0.666016C12.9063 0.567294 13.2337 0.480095 13.5629 0.40332C13.8919 0.326582 14.2228 0.260868 14.5551 0.206055C15.2197 0.0964365 15.8898 0.0307175 16.561 0.00878906C16.7289 0.00330602 16.8969 -6.51039e-06 17.0649 0ZM10.0668 8.77637C9.90792 8.68251 9.62559 8.63087 9.40373 8.69141H9.40666C9.59833 8.76401 9.70992 8.81829 9.81779 8.88184C9.92552 8.94533 10.0126 9.01236 10.1293 9.11816C10.264 9.0184 10.3603 8.95792 10.477 8.89746C10.5939 8.83691 10.7145 8.78829 10.9184 8.72168C10.7085 8.65507 10.4175 8.69149 10.2436 8.7793C10.2077 8.79745 10.1777 8.82161 10.1508 8.84277C10.127 8.81874 10.0994 8.79739 10.0668 8.77637ZM7.42229 8.55176C7.26339 8.4579 6.98106 8.40626 6.7592 8.4668H6.76213C6.9538 8.5394 7.06539 8.59466 7.17326 8.6582C7.28083 8.72162 7.36824 8.78796 7.48479 8.89355C7.61956 8.79375 7.71569 8.73334 7.83244 8.67285C7.94937 8.6123 8.06997 8.56368 8.27385 8.49707C8.06401 8.43047 7.77295 8.46691 7.59904 8.55469C7.5632 8.5728 7.53318 8.59703 7.50627 8.61816C7.48241 8.59407 7.45504 8.57284 7.42229 8.55176ZM25.2094 5.85156C25.1625 5.85636 25.1162 5.86366 25.0707 5.87305C25.0167 5.8842 24.9641 5.89973 24.9125 5.91699C24.5948 6.02346 24.3286 6.24217 24.1576 6.52637C24.1171 6.59397 24.0812 6.66481 24.0522 6.73926C24.035 6.78311 24.02 6.82816 24.0072 6.87402C23.9736 6.99535 23.9545 7.12353 23.9545 7.25586C23.9548 8.03346 24.581 8.66554 25.351 8.66602C25.399 8.66601 25.4468 8.66398 25.4936 8.65918C25.5874 8.64956 25.6786 8.631 25.766 8.60352C25.9412 8.54844 26.1014 8.45903 26.2397 8.34375C26.55 8.08483 26.7483 7.69325 26.7485 7.25586C26.7484 7.01295 26.6869 6.78377 26.5795 6.58398C26.4719 6.38413 26.318 6.21285 26.1322 6.08594C26.0367 6.02067 25.932 5.96872 25.8217 5.92871C25.7173 5.89087 25.6077 5.86328 25.4936 5.85156C25.447 5.84679 25.3988 5.84474 25.351 5.84473C25.3032 5.84476 25.2559 5.84681 25.2094 5.85156ZM8.93596 7.37109C8.77709 7.27733 8.4956 7.22571 8.27385 7.28613H8.27678C8.46808 7.3586 8.57924 7.41316 8.68694 7.47656C8.7947 7.54008 8.88264 7.60704 8.99944 7.71289C9.13419 7.61311 9.23027 7.55269 9.34709 7.49219C9.46398 7.43166 9.58377 7.38298 9.78752 7.31641C9.57766 7.24989 9.28655 7.28625 9.11272 7.37402C9.07692 7.39217 9.04683 7.41638 9.01994 7.4375C8.99609 7.41344 8.96869 7.39216 8.93596 7.37109ZM7.09221 2.91113C5.85109 4.17369 5.005 5.79087 4.67522 7.54688C4.14489 7.06274 3.74339 6.62309 3.44963 6.22363C1.84559 3.31999 4.91849 2.88692 7.09221 2.91113Z" fill="url(#paint0_linear_327_7870)" style="mix-blend-mode:screen"/>
</g>
<defs>
<linearGradient id="paint0_linear_327_7870" x1="17.0004" y1="23.4942" x2="16.7804" y2="0.00206045" gradientUnits="userSpaceOnUse">
<stop stop-color="#243463"/>
<stop offset="0.5" stop-color="#4F7A59"/>
<stop offset="1" stop-color="#B59154"/>
</linearGradient>
<clipPath id="clip0_327_7870">
<rect width="32" height="32" fill="white"/>
</clipPath>
</defs>
</svg>
