<svg width="64" height="64" viewBox="0 0 64 64" fill="none" xmlns="http://www.w3.org/2000/svg">
<path d="M35.2385 0C35.9408 0.0973913 36.6601 0.131358 37.3409 0.311419C38.0117 0.489215 38.6429 0.805188 39.1826 1.28535C39.5202 1.58545 39.6207 1.98068 39.7641 2.36459C39.8036 2.46877 39.8138 2.62051 39.7664 2.7145C39.4886 3.26148 39.3813 3.91832 38.7716 4.25919C38.5683 4.37357 38.3764 4.53095 38.2251 4.70875C38.1167 4.83558 37.997 5.0519 38.0343 5.18553C38.207 5.80952 37.9315 6.40857 37.9914 7.02802C38.0489 7.6203 38.0038 8.22277 38.0038 8.82071C38.0038 9.44809 38.0038 10.0766 38.0038 10.704C38.0038 10.9135 37.9925 11.1241 38.0128 11.3314C38.0467 11.6768 38.2048 11.7844 38.5875 11.8002C39.8002 11.8546 41.0129 11.9101 42.2245 11.9837C42.4842 11.9995 42.7383 12.0969 42.9957 12.1569C44.3529 12.4718 45.5566 13.0754 46.5706 14.0447C47.1182 14.5679 47.4897 15.2123 47.737 15.9099C48.0735 16.86 48.4021 17.8215 48.6132 18.8045C48.9407 20.3344 49.3878 21.8417 49.4194 23.4339C49.4352 24.2527 49.6916 25.0635 49.783 25.8846C49.8858 26.8007 49.9264 27.7248 49.9919 28.6444C50.0597 29.5889 50.1263 30.5333 50.1951 31.4778C50.2256 31.8934 50.2663 32.3079 50.2889 32.7235C50.3115 33.138 50.2448 33.557 50.4312 33.9579C50.4899 34.0836 50.4345 34.258 50.4729 34.3984C50.5926 34.84 50.2685 35.2398 50.4074 35.7064C50.5226 36.0937 50.4605 36.5353 50.4673 36.9521C50.474 37.4005 50.4876 37.8501 50.4616 38.2974C50.4458 38.5556 50.3442 38.8082 50.3047 39.0664C50.2494 39.4378 50.2008 39.8115 50.1748 40.1875C50.0969 41.2826 50.0201 42.3777 49.9659 43.4728C49.9027 44.7547 49.8711 46.0366 49.809 47.3186C49.7909 47.7014 49.7108 48.0796 49.6757 48.4624C49.6486 48.7591 49.6407 49.0569 49.6362 49.3548C49.6261 50.1588 49.6215 50.9538 49.4296 51.751C49.285 52.3512 49.3551 52.999 49.2478 53.6128C49.0807 54.5754 48.8549 55.5334 48.3772 56.3986C48.1198 56.8641 47.8138 57.3057 47.4976 57.7349C47.2571 58.0633 46.9206 58.2208 46.4904 58.1857C46.1652 58.1596 45.8344 58.1777 45.5081 58.2061C45.14 58.2366 45.1185 58.3034 45.2269 58.7066C45.2653 58.8481 45.2755 58.9999 45.2766 59.1483C45.2811 59.8957 45.3116 60.6454 45.2676 61.3894C45.2348 61.9477 45.1298 62.506 44.7945 62.9884C44.222 63.8128 43.0431 64.0654 42.1997 63.5048C41.8813 63.293 41.6012 63.0178 41.3291 62.7472C41.2376 62.6566 41.1925 62.489 41.1823 62.3531C41.1146 61.463 41.0378 60.5718 41.0107 59.6805C40.9757 58.5152 41.1191 58.6024 39.9493 58.6307C39.0945 58.6511 38.2409 58.7564 37.3873 58.8221C37.0316 58.8493 36.6759 58.8629 36.3213 58.9014C35.881 58.9489 35.4451 59.0475 35.0036 59.0701C34.0529 59.1188 33.0999 59.1267 32.148 59.163C31.7641 59.1777 31.3802 59.2082 30.9985 59.2569C30.7388 59.2898 30.4927 59.3917 30.2375 59.2128C30.154 59.1539 30.0015 59.155 29.892 59.1799C28.3631 59.5299 26.8151 59.2649 25.2772 59.3385C24.6415 59.0135 23.9572 59.2864 23.2989 59.1766C22.7467 59.0837 22.6271 59.2434 22.6146 59.8232C22.6124 59.9421 22.6146 60.0621 22.6203 60.1822C22.6564 60.8651 22.6835 61.549 22.7343 62.2308C22.8134 63.31 22.0681 63.891 21.0169 63.9895C20.1124 64.0744 19.4192 63.6407 19.0127 62.8038C18.6852 62.13 18.4695 61.4313 18.5147 60.6669C18.5328 60.369 18.5226 60.0689 18.517 59.77C18.5113 59.4415 18.6062 59.0407 18.4526 58.8074C18.3081 58.5888 17.8926 58.556 17.6012 58.4314C15.9527 57.7225 14.8585 56.4371 14.4532 54.7135C14.3448 54.256 14.4656 53.7555 14.2149 53.3206C14.268 52.5642 13.8638 51.8914 13.8434 51.135C13.8242 50.417 13.621 49.7047 13.5431 48.9856C13.4945 48.5428 13.4787 48.0841 13.5397 47.6459C13.6673 46.7229 13.6244 45.8124 13.5533 44.8883C13.4799 43.9405 13.5341 42.9824 13.5487 42.03C13.5555 41.585 13.6255 41.1399 13.6221 40.6948C13.6188 40.2906 13.8231 39.8919 13.6402 39.4797C13.5962 39.3801 13.6007 39.2283 13.6447 39.1264C13.9191 38.4945 13.7983 37.832 13.8028 37.1842C13.8163 34.8219 13.8039 32.4608 13.8107 30.0985C13.813 29.4122 13.77 28.7112 13.8875 28.0419C14.0986 26.8358 14.0433 25.6139 14.2014 24.4079C14.2127 24.3195 14.2262 24.2289 14.2217 24.1406C14.1641 22.9708 14.4464 21.8462 14.6643 20.7127C14.6925 20.5677 14.6948 20.4159 14.7027 20.2676C14.7513 19.228 14.9669 18.2269 15.2492 17.2247C15.37 16.7977 15.4638 16.3753 15.6636 15.9744C15.9109 15.4784 16.2666 15.0911 16.725 14.7967C17.4194 14.3494 18.1466 13.987 18.9257 13.6846C19.8313 13.3336 20.7357 13.1693 21.6887 13.1603C21.8073 13.1592 21.9315 13.1648 22.0444 13.132C22.7027 12.944 23.3746 12.8557 24.0554 12.8138C24.2022 12.8047 24.3524 12.773 24.489 12.7209C24.7612 12.6178 24.9328 12.4389 24.9023 12.1139C24.8278 11.3155 24.7634 10.5171 24.6923 9.71875C24.6471 9.21594 24.5714 8.71427 24.5545 8.21146C24.5308 7.49688 24.5127 6.77888 24.5635 6.06657C24.5929 5.66455 24.4585 5.43466 24.1198 5.29536C23.6444 5.10058 23.3791 4.72574 23.212 4.26596C23.1623 4.13007 23.0991 3.97153 23.1273 3.84129C23.1939 3.52873 23.3486 3.22749 23.142 2.91267C23.3204 2.4812 23.4118 2.03048 23.816 1.69188C24.7961 0.868581 25.9366 0.563977 27.1719 0.494897C28.3236 0.430347 29.4753 0.359008 30.6282 0.29559C31.0742 0.270676 31.5202 0.24802 31.9662 0.245755C32.76 0.241225 33.5515 0.231025 34.3386 0.088335C34.6265 0.0362419 34.9325 0.0804208 35.2306 0.0804208C35.2328 0.0509769 35.2351 0.0260465 35.2385 0ZM14.7434 44.6086C14.723 44.6086 14.7027 44.6086 14.6824 44.6086C14.6824 45.5327 14.6666 46.4568 14.6869 47.3798C14.7129 48.5134 14.7072 49.6537 14.8292 50.7794C14.9376 51.7782 15.1995 52.76 15.3994 53.7476C15.4457 53.9774 15.5789 54.2062 15.5631 54.4282C15.5146 55.0771 15.816 55.5289 16.183 56.034C16.7408 56.8018 17.4962 57.2072 18.3148 57.5549C19.2825 57.966 20.336 58.0011 21.3534 58.1302C22.4317 58.2672 23.5349 58.1936 24.6268 58.2253C28.3123 58.3351 30.1686 58.2887 33.5324 58.035C34.4808 57.9637 35.4338 57.9569 36.3846 57.9184C36.6522 57.9082 36.9198 57.9014 37.1863 57.8753C37.8638 57.8108 38.539 57.6896 39.2176 57.676C40.9373 57.6421 42.6637 57.7395 44.3642 57.3782C45.14 57.2129 45.9552 57.1789 46.6338 56.6863C46.9443 56.4609 47.2729 56.2628 47.5812 56.034C47.6907 55.9525 47.7968 55.8335 47.8443 55.709C48.1232 54.9899 48.4066 54.2753 48.41 53.478C48.4122 53.0658 48.5071 52.6547 48.568 52.2436C48.6968 51.3683 48.8966 50.4974 48.9474 49.6186C49.0332 48.1362 49.0231 46.6493 49.057 45.1646C49.0615 44.9574 49.0795 44.7491 49.1032 44.5429C49.1416 44.2213 49.2173 43.902 49.2286 43.5804C49.2636 42.5951 49.2681 41.6088 49.302 40.6235C49.3212 40.0596 49.3494 39.4922 49.4228 38.9339C49.4951 38.3846 49.7435 37.8467 49.4477 37.2918C49.4273 37.2533 49.4781 37.1809 49.4826 37.1242C49.5052 36.8966 49.547 36.6667 49.538 36.4391C49.5064 35.6996 49.4319 34.9612 49.4183 34.2217C49.3957 32.976 49.4284 31.7303 49.2986 30.488C49.2455 29.9841 49.3144 29.4564 49.1947 28.9728C49.0728 28.4824 49.3438 27.974 49.0603 27.5153C48.8752 26.076 48.69 24.6378 48.5071 23.1984C48.4427 22.6956 48.419 22.186 48.3185 21.6911C48.13 20.7636 47.8928 19.8463 47.6862 18.9222C47.5778 18.433 47.5349 17.9257 47.387 17.45C47.1397 16.6562 46.7467 15.9359 46.2578 15.2485C45.3884 14.0255 44.161 13.4559 42.7721 13.1693C42.1658 13.0436 41.5097 13.1444 40.9124 12.9983C40.4371 12.8817 39.9764 12.8681 39.5055 12.8647C38.6496 12.8591 37.8005 12.9315 36.9469 12.9972C35.5896 13.1025 34.2189 13.0334 32.8549 13.0663C32.2993 13.0799 31.746 13.1818 31.1894 13.2158C30.6011 13.252 30.0196 13.2588 29.4256 13.3641C28.5844 13.5136 27.7048 13.44 26.8456 13.5034C25.9005 13.5725 24.9486 13.628 24.0204 13.8024C23.2323 13.9496 22.4385 14.0074 21.6492 14.1217C20.9785 14.2191 20.2954 14.2837 19.6484 14.4706C19.0556 14.6416 18.5091 14.9654 17.9343 15.2032C17.0152 15.5826 16.5331 16.3119 16.2767 17.2315C16.1977 17.5169 16.0859 17.7977 16.0475 18.0887C15.9369 18.9437 15.5722 19.7512 15.6162 20.6368C15.6377 21.0807 15.6162 21.5393 15.5236 21.9719C15.3678 22.7035 15.2741 23.4351 15.2763 24.1814C15.2763 24.4203 15.3339 24.6887 15.247 24.8925C15.0482 25.358 15.1137 25.8313 15.1002 26.3036C15.0753 27.1699 15.0595 28.0362 15.0369 28.9026C15.0324 29.0509 15.011 29.1993 14.9929 29.3465C14.95 29.6976 14.8676 30.0498 14.8664 30.4008C14.8653 31.5061 14.9229 32.6125 14.9037 33.7167C14.8721 35.5558 14.7761 37.3949 14.7479 39.2351C14.7219 41.0233 14.7434 42.8159 14.7434 44.6086ZM34.9675 9.7765C34.9709 9.7765 34.9754 9.7765 34.9788 9.7765C34.9788 9.35862 34.9957 8.93962 34.9754 8.52287C34.928 7.5467 34.6559 6.58979 34.7247 5.60115C34.7428 5.34748 34.561 5.22631 34.3137 5.26481C33.993 5.31464 33.6757 5.39842 33.3539 5.42787C32.148 5.53771 30.9409 5.63624 29.7328 5.73023C29.3477 5.75968 28.9616 5.76081 28.5754 5.78007C28.3688 5.79026 28.1599 5.80158 27.9555 5.83329C27.7613 5.86273 27.6314 5.97486 27.6326 6.1923C27.6337 6.37122 27.5908 6.56599 27.6461 6.7268C28.0029 7.76753 27.6439 8.86375 27.9047 9.91014C27.7692 10.5941 27.9849 11.2623 27.9984 11.9406C28.0052 12.269 28.1791 12.3936 28.5189 12.4378C28.9412 12.4921 29.3398 12.3064 29.7441 12.2906C31.2232 12.2339 32.6821 11.8976 34.1692 11.978C34.3171 11.9859 34.4673 11.9769 34.6163 11.9723C34.8817 11.9655 34.972 11.8115 34.9697 11.5635C34.9652 10.9667 34.9675 10.3722 34.9675 9.7765ZM27.2882 4.80389C28.3112 4.7835 29.219 4.77443 30.1359 4.64533C31.0957 4.50943 32.0848 4.63515 33.0513 4.42338C33.5086 4.3226 33.9851 4.27728 34.4537 4.26935C35.3751 4.25236 36.2829 4.15385 37.1648 3.88999C37.7316 3.72125 38.2917 3.51403 38.6948 3.0384C38.9556 2.73037 38.915 2.38723 38.5842 2.13922C38.4193 2.01578 38.2612 1.87537 38.0794 1.77911C37.6165 1.53336 37.1637 1.18567 36.6691 1.10187C35.9623 0.981831 35.2216 1.04072 34.4967 1.0577C33.1665 1.09055 31.8375 1.14719 30.5074 1.19702C30.3594 1.20268 30.2127 1.21967 30.0659 1.24118C29.7768 1.28195 29.4889 1.35554 29.1987 1.37026C28.3089 1.41669 27.418 1.41672 26.5305 1.48127C25.7469 1.53903 25.031 1.82438 24.454 2.37136C23.6772 3.10632 23.8849 4.155 24.8526 4.591C25.188 4.74162 25.5199 4.81294 25.8813 4.80728C26.3849 4.79822 26.8907 4.80389 27.2882 4.80389ZM26.9302 9.72556C26.9302 9.48434 26.9381 9.33484 26.9291 9.18649C26.8692 8.18314 26.8038 7.17979 26.7439 6.17643C26.7304 5.9556 26.6017 5.87633 26.4075 5.83443C25.7198 5.68608 25.4082 5.88766 25.4635 6.5626C25.5482 7.59427 25.3043 8.64291 25.6306 9.65986C25.4522 10.0811 25.7198 10.4571 25.7514 10.8557C25.7864 11.2997 25.7887 11.747 25.8045 12.1932C25.8124 12.4151 25.9411 12.5046 26.1466 12.5091C26.2652 12.5114 26.3849 12.517 26.5034 12.5136C26.998 12.4989 27.1933 12.3246 27.0657 11.8546C26.8647 11.1151 26.9709 10.3733 26.9302 9.72556ZM37.0677 8.46627C37.0688 8.46627 37.0688 8.46627 37.0677 8.46627C37.0688 7.66109 37.0688 6.85703 37.0677 6.05299C37.0677 5.84461 37.0643 5.63624 37.0575 5.42787C37.0496 5.22063 36.9412 5.09831 36.7335 5.08019C36.616 5.06887 36.4952 5.06323 36.3778 5.07342C35.759 5.12891 35.5547 5.42107 35.6834 6.02354C35.7387 6.28061 35.7748 6.54449 35.7929 6.80722C35.8234 7.25228 35.8392 7.69846 35.8471 8.14465C35.8573 8.73466 35.855 9.32466 35.8573 9.91467C35.8595 10.3914 35.8403 10.8693 35.8674 11.345C35.8934 11.7968 36.1192 11.9803 36.5562 11.9746C36.9582 11.9689 37.0598 11.858 37.0655 11.3269C37.0756 10.3733 37.0677 9.41979 37.0677 8.46627ZM41.9479 60.0418C41.9468 60.0418 41.9467 60.0418 41.9456 60.0418C41.9456 60.3385 41.9309 60.6363 41.9501 60.933C41.9693 61.2274 42.0258 61.5185 42.0608 61.8129C42.1319 62.4018 42.5915 62.8389 43.1719 62.865C43.5603 62.8819 43.9792 62.6339 44.0458 62.25C44.1418 61.6997 44.1892 61.1357 44.2017 60.5763C44.2118 60.1063 44.1282 59.6352 44.1102 59.1641C44.0842 58.4971 44.0932 58.496 43.4395 58.5424C43.0917 58.5673 42.7439 58.6058 42.395 58.6205C42.1003 58.633 41.9614 58.7893 41.9513 59.0633C41.9388 59.3883 41.9479 59.7145 41.9479 60.0418ZM19.4056 60.4381C19.4022 60.4381 19.3988 60.4381 19.3954 60.4381C19.3954 60.7054 19.4113 60.9749 19.3921 61.241C19.3469 61.8945 19.7251 62.3576 20.1057 62.8015C20.3744 63.1141 20.7764 63.1787 21.1716 63.105C21.2913 63.0824 21.4211 62.9612 21.4889 62.8502C21.7847 62.3678 21.7881 61.8424 21.6887 61.3011C21.6311 60.984 21.5905 60.6623 21.5645 60.3407C21.5431 60.0746 21.5623 59.8051 21.5476 59.539C21.5329 59.2615 21.3726 59.1165 21.0959 59.0871C20.7165 59.0463 20.3383 58.9988 19.96 58.9489C19.6495 58.907 19.4338 59.0474 19.4101 59.3691C19.3853 59.7224 19.4056 60.0814 19.4056 60.4381Z" fill="#010A38"/>
<path d="M29.0575 37.628C29.0575 38.5543 29.0587 39.2123 29.0575 39.8691C29.0553 40.8204 29.0971 41.7682 29.3376 42.6957C29.3523 42.7523 29.3511 42.8146 29.3523 42.8735C29.3624 44.1532 29.5092 45.417 29.6933 46.6842C29.8762 47.9537 30.1381 49.1881 30.5537 50.3998C30.7456 50.9615 30.9455 51.5074 31.2266 52.0317C31.3903 52.3375 31.6038 52.4711 31.9222 52.4983C32.0995 52.513 32.2767 52.5277 32.454 52.5515C33.4104 52.6783 33.7006 52.5107 34.1037 51.6263C34.351 51.085 34.5011 50.5244 34.5847 49.9321C34.6931 49.1711 34.8534 48.4169 35.0183 47.6649C35.042 47.5585 35.2204 47.4045 35.313 47.4147C35.4688 47.4305 35.6382 47.5347 35.7556 47.6491C35.8234 47.7159 35.8177 47.8756 35.8177 47.9934C35.8155 48.5845 35.846 49.17 35.6371 49.7532C35.4688 50.2209 35.4124 50.7317 35.3254 51.2265C35.1098 52.4496 34.5294 53.0385 33.2772 53.3578C32.0385 53.6738 31.0787 53.1902 30.2748 52.3182C30.0467 52.0702 29.9191 51.6976 29.8288 51.3601C29.5849 50.4485 29.4369 49.5086 29.1546 48.6094C28.9096 47.8269 28.8159 47.0466 28.8328 46.2369C28.8362 46.092 28.7956 45.9402 28.7459 45.8021C28.5494 45.263 28.493 44.7058 28.4738 44.1362C28.4647 43.8769 28.3597 43.6221 28.3191 43.3616C28.2096 42.6595 28.0797 41.9585 28.0199 41.2518C27.9871 40.877 28.0797 40.4897 28.1204 40.1092C28.1328 39.9925 28.1825 39.8759 28.1768 39.7615C28.1633 39.4433 28.0639 39.1126 28.1226 38.8114C28.1847 38.4943 28.0537 38.2361 28.0345 37.9541C27.951 36.7685 27.7952 35.576 28.1339 34.3982C28.1904 34.2023 28.1791 33.9837 28.1813 33.7765C28.187 33.1785 28.1723 32.5806 28.1858 31.9838C28.2186 30.5535 28.2446 29.1221 28.3134 27.6929C28.3417 27.1041 28.4681 26.5208 28.5562 25.9354C28.6669 25.2027 28.7527 24.4643 28.9051 23.7406C29.1366 22.6433 29.2755 21.4972 30.0105 20.5879C30.4182 20.0851 30.9127 19.6525 31.3712 19.1905C31.4107 19.1508 31.4705 19.1259 31.5259 19.1078C32.0057 18.9492 32.917 19.2085 33.2388 19.606C33.2839 19.6627 33.3054 19.7827 33.276 19.8439C33.2467 19.9039 33.1372 19.9605 33.066 19.956C32.9204 19.9469 32.7747 19.905 32.6335 19.8597C31.8815 19.6242 31.3339 19.8393 30.8935 20.5143C30.513 21.0975 30.2409 21.7124 30.093 22.3806C29.7666 23.8539 29.4968 25.3385 29.3963 26.8458C29.3432 27.642 29.2755 28.4403 29.3443 29.2433C29.3692 29.5298 29.2845 29.8253 29.2461 30.1164C29.2269 30.2625 29.1998 30.4085 29.1784 30.5546C29.1738 30.5841 29.1773 30.6147 29.1773 30.6441C29.1355 33.063 29.0937 35.4797 29.0575 37.628Z" fill="#010A38"/>
<path d="M38.2159 35.0291C38.1809 34.3485 38.2125 33.6758 38.0533 32.9918C37.928 32.4527 38.0036 31.8605 38.0284 31.2943C38.0747 30.2615 38.0014 29.2332 37.9765 28.2026C37.9472 27.009 37.9189 25.8041 38.051 24.623C38.1696 23.5618 38.2215 22.4962 38.3525 21.4385C38.5207 20.0773 39.2265 18.9969 40.2246 18.0955C40.4189 17.9199 40.6379 17.7659 40.8626 17.6312C41.758 17.0921 42.7799 17.4149 43.2248 18.365C43.489 18.929 43.7013 19.5008 43.7973 20.1293C43.9395 21.0614 44.2455 21.973 44.3404 22.9073C44.442 23.9118 44.6881 24.8959 44.7311 25.9015C44.7706 26.8256 44.9094 27.7338 45.002 28.6488C45.0777 29.3883 45.0991 30.1369 45.0833 30.8798C45.0766 31.155 44.9072 31.4347 44.7796 31.6963C44.7401 31.7778 44.5899 31.8605 44.503 31.848C44.4126 31.8356 44.2839 31.7201 44.267 31.6306C44.1947 31.2523 44.1269 30.8685 44.1157 30.4846C44.0829 29.4166 44.1631 28.3499 43.8932 27.2899C43.7634 26.7803 43.8413 26.2208 43.769 25.6909C43.6324 24.6954 43.4517 23.7045 43.2936 22.7113C43.2564 22.4769 43.2236 22.2403 43.2112 22.0025C43.157 20.9866 42.8431 20.0252 42.597 19.0501C42.5755 18.9652 42.5383 18.8802 42.4931 18.8055C42.0731 18.1 41.583 17.6685 40.7226 18.4975C40.0293 19.1645 39.5381 19.9255 39.4071 20.947C39.2897 21.8632 39.2265 22.7748 39.1926 23.6932C39.1779 24.0918 39.1418 24.4859 39.1451 24.8868C39.1474 25.2775 39.0142 25.6965 39.0176 26.1144C39.021 26.5334 39.0187 26.9513 39.0187 27.3703C39.0187 27.7893 39.0029 28.2083 39.0232 28.6251C39.0424 29.035 38.925 29.4597 39.1587 29.8538C39.2084 29.9364 39.1835 30.095 39.1406 30.1958C38.9205 30.7212 39.0074 31.2478 39.1068 31.7778C39.1452 31.9817 39.2219 32.1979 39.1869 32.3916C39.0695 33.0382 39.2005 33.6769 39.1994 34.319C39.1982 34.977 39.2095 35.6338 39.2118 36.2918C39.2118 36.4084 39.24 36.5636 39.179 36.6361C39.0345 36.8059 38.9532 37.0788 38.6529 37.0573C38.4541 37.0426 38.2385 36.832 38.2249 36.5534C38.1978 36.0461 38.2159 35.5376 38.2159 35.0291Z" fill="#010A38"/>
<path d="M42.8567 52.7946C41.4215 52.6677 40.1467 51.8773 39.6668 50.4277C39.5471 50.0654 39.7368 49.7924 39.9469 49.5376C39.9807 49.4968 40.1298 49.4912 40.1761 49.5297C40.3342 49.6611 40.4945 49.8026 40.6074 49.9714C40.7372 50.1662 40.8603 50.3859 40.9111 50.6112C41.085 51.3813 41.767 51.5432 42.3395 51.7776C42.7223 51.9339 43.113 51.8354 43.4111 51.4039C43.7227 50.9543 43.9802 50.5093 44.0886 49.9714C44.2591 49.1334 44.5346 48.3055 44.6046 47.4607C44.6644 46.7314 44.7841 45.9885 44.6633 45.2456C44.6305 45.0407 44.6441 44.8289 44.643 44.6194C44.6407 43.992 44.6418 43.3646 44.6418 42.7372C44.6418 41.8403 44.6678 40.9434 44.6339 40.0477C44.6012 39.1893 44.486 38.3342 44.4453 37.4747C44.4182 36.8813 44.4555 36.2845 44.4668 35.6888C44.4702 35.4986 44.5086 35.3242 44.7491 35.3162C44.9523 35.3106 45.1861 35.2562 45.2922 35.5053C45.4435 35.8575 45.614 36.2052 45.4537 36.6163C45.3814 36.802 45.3498 37.0206 45.3667 37.2188C45.4367 38.0432 45.5316 38.8653 45.6174 39.6886C45.6265 39.777 45.6445 39.8698 45.631 39.9559C45.4209 41.3228 45.7066 42.6863 45.6479 44.0543C45.5824 45.5978 45.7269 47.1527 45.3419 48.6747C45.3893 49.7358 44.8857 50.618 44.4397 51.5228C44.2184 51.9713 43.8571 52.2782 43.4777 52.5568C43.2756 52.7074 42.991 52.747 42.8567 52.7946Z" fill="#010A38"/>
<path d="M25.1203 32.4411C25.1203 32.808 25.1079 33.4649 25.1237 34.1206C25.1406 34.8272 25.1926 35.5327 25.2073 36.2394C25.2129 36.5021 25.1305 36.7648 25.1293 37.0287C25.1203 38.4035 25.048 39.7851 25.1497 41.1531C25.2242 42.1689 25.2095 43.1791 25.2377 44.1926C25.2423 44.3716 25.2524 44.5595 25.2039 44.7272C25.144 44.9344 25.0085 45.0952 24.7466 45.0623C24.5083 45.0318 24.3638 44.9208 24.3694 44.6626C24.3897 43.7985 24.4112 42.9345 24.4304 42.0704C24.4327 41.9583 24.462 41.8303 24.4191 41.7363C24.1594 41.1701 24.2181 40.5597 24.2023 39.9742C24.1696 38.8112 24.278 37.6436 24.2192 36.4829C24.1696 35.509 24.3559 34.5158 24.0296 33.56C24.1255 32.9451 24.0058 32.3335 23.9991 31.7198C23.9866 30.6462 23.9889 29.5658 23.8523 28.5047C23.7834 27.9758 23.762 27.4719 23.7823 26.9442C23.8015 26.4448 23.6919 25.9397 23.6535 25.4369C23.64 25.2602 23.64 25.0722 23.6874 24.9035C23.7089 24.8276 23.8545 24.7415 23.9483 24.737C24.2464 24.7234 24.4756 24.8593 24.5433 25.1662C24.6314 25.5705 24.7206 25.9771 24.7613 26.3881C24.8245 27.0336 24.768 27.6995 24.9013 28.3281C25.1689 29.5975 24.978 30.8817 25.1203 32.4411Z" fill="#010A38"/>
<path d="M34.9561 36.7831C34.9561 34.7549 34.982 32.7267 34.9447 30.6996C34.9267 29.7392 34.7867 28.7812 34.7031 27.822C34.6726 27.4675 34.6546 27.1108 34.6139 26.7575C34.5134 25.873 34.4017 24.9908 34.3012 24.1064C34.2854 23.9614 34.2842 23.8085 34.3136 23.6681C34.3282 23.599 34.4231 23.5141 34.4942 23.4983C34.7844 23.4337 35.1808 23.701 35.2406 23.9875C35.2587 24.0747 35.253 24.1653 35.2587 24.2547C35.3592 25.9127 35.506 27.5649 35.7261 29.2115C35.5613 29.6804 35.865 30.1186 35.8086 30.592C35.7532 31.0631 35.7927 31.5455 35.8029 32.0234C35.8131 32.5002 35.839 32.9758 35.856 33.4526C35.8729 33.9259 35.865 34.3902 35.9892 34.8659C36.0988 35.2849 36.11 35.7809 35.9937 36.1942C35.8582 36.6699 35.8819 37.133 35.8548 37.6041C35.821 38.1975 35.777 38.7909 35.742 39.3855C35.7352 39.4942 35.7329 39.6086 35.7589 39.7128C35.8899 40.236 35.7137 40.7105 35.524 41.1759C35.4743 41.2982 35.3388 41.4058 35.2158 41.4681C35.1616 41.4953 35.0328 41.4047 34.9572 41.3435C34.9244 41.3175 34.9369 41.2303 34.9369 41.1714C34.9357 39.7094 34.9357 38.2474 34.9357 36.7854C34.9436 36.7831 34.9493 36.7831 34.9561 36.7831Z" fill="#010A38"/>
<path d="M19.872 24.9401C19.872 25.4463 19.8833 25.9537 19.8675 26.4599C19.8585 26.7226 19.802 26.9842 19.7625 27.2458C19.7489 27.3319 19.688 27.4259 19.7072 27.5006C19.9352 28.4122 19.6056 29.3148 19.6767 30.2287C19.7332 30.9614 19.6315 31.7043 19.6247 32.4427C19.6213 32.7949 19.6078 33.1719 19.723 33.4936C19.8901 33.9624 19.8596 34.429 19.872 34.9012C19.8957 35.7959 19.9262 36.6905 19.9352 37.5851C19.9375 37.8162 19.8901 38.0551 19.8201 38.2748C19.793 38.362 19.6428 38.4526 19.5446 38.4583C19.478 38.4616 19.3594 38.3269 19.3413 38.2386C19.234 37.7199 19.1065 37.199 19.0669 36.6735C19.0105 35.9329 19.0331 35.1866 19.0026 34.4437C18.9902 34.1504 18.9258 33.8593 18.884 33.5672C18.8795 33.5377 18.8513 33.506 18.8592 33.4823C19.1031 32.7224 18.6537 31.9568 18.8445 31.2207C18.9981 30.6273 18.989 30.0441 18.9981 29.4518C19.0195 28.0215 19.0003 26.589 19.0692 25.161C19.1234 24.0478 19.2555 22.9345 19.4147 21.8304C19.5005 21.2313 19.863 20.7172 20.3271 20.3469C20.6895 20.0581 21.1344 19.8475 21.6504 20.0966C21.9926 20.2619 22.3719 20.3491 22.7254 20.493C22.9523 20.5858 22.9806 20.7965 22.967 21.0207C22.9546 21.2177 22.8496 21.3061 22.6904 21.2222C22.5334 21.1407 22.3821 21.0445 22.2342 20.9471C22.1111 20.8655 22.0027 20.7568 21.8729 20.6889C21.166 20.3208 20.5551 20.502 20.3293 21.2528C20.1012 22.0116 19.7986 22.7669 19.8664 23.597C19.9025 24.0421 19.872 24.4928 19.872 24.9401Z" fill="#010A38"/>
<path d="M19.932 45.3004C19.932 46.1645 19.9241 47.0274 19.9365 47.8903C19.941 48.1553 20.0008 48.4203 20.0392 48.6853C20.1104 49.1813 20.1917 49.6751 20.2549 50.1722C20.3351 50.8064 20.5496 51.3726 21.0035 51.8403C21.2079 52.0521 21.3773 52.2978 21.5636 52.5277C21.6573 52.6432 21.7352 52.7803 21.8504 52.8697C22.3619 53.2706 22.7876 53.3623 23.2573 52.6931C23.4899 52.3612 23.6661 51.9943 23.7248 51.5561C23.8264 50.7973 24.0229 50.051 24.1832 49.2991C24.2081 49.1836 24.2385 49.067 24.2882 48.9616C24.3718 48.7861 24.6145 48.717 24.7342 48.8529C24.8652 49.0013 25.0109 49.1802 25.0402 49.3648C25.0877 49.6547 25.0888 49.9684 25.0289 50.2549C24.8901 50.9163 24.6778 51.5629 24.54 52.2254C24.3514 53.1302 23.692 53.5775 22.9208 53.8187C22.2908 54.0158 21.681 53.6987 21.226 53.2616C20.7608 52.8154 20.3701 52.2854 19.9749 51.7712C19.5864 51.2662 19.3674 50.6864 19.3606 50.0397C19.3516 49.2968 19.3143 48.5596 19.0806 47.8428C19.0275 47.6797 19.0546 47.4871 19.0591 47.3082C19.0874 46.2403 18.9779 45.1679 19.1709 44.1034C19.2116 43.8814 19.1856 43.6278 19.1178 43.4115C18.9711 42.9392 19.0727 42.5259 19.3539 42.1522C19.425 42.0582 19.5921 42.0004 19.7163 41.9993C19.7761 41.9981 19.8879 42.1657 19.8902 42.2586C19.9083 42.9743 19.9116 43.69 19.9071 44.4069C19.9049 44.7047 19.8744 45.0014 19.8563 45.2993C19.8823 45.3004 19.9071 45.3004 19.932 45.3004Z" fill="#010A38"/>
<path d="M16.8505 20.497C16.8573 19.7496 16.9081 19.0157 17.2378 18.3193C17.4907 17.7847 17.8859 17.4054 18.3534 17.0758C18.5566 16.932 18.7396 16.9467 18.9067 17.1313C19.076 17.3182 19.076 17.5209 18.901 17.6851C18.5487 18.0169 18.3263 18.428 18.1174 18.856C17.7809 19.5468 17.6793 20.2773 17.7301 21.0292C17.7538 21.3814 17.6488 21.6691 17.4512 21.9397C17.3191 22.1209 17.0966 22.1096 17.0424 21.9057C16.9578 21.5909 16.9036 21.267 16.8539 20.9454C16.8324 20.7993 16.8505 20.6476 16.8505 20.497Z" fill="#010A38"/>
<path d="M47.6805 52.0398C47.6038 53.0669 47.2898 53.9253 46.8077 54.7044C46.6779 54.9139 46.3177 54.9943 46.0489 55.0951C45.9744 55.1234 45.8118 55.0397 45.7553 54.9592C45.6977 54.8777 45.7181 54.7384 45.7124 54.6241C45.7113 54.6014 45.7452 54.5776 45.7644 54.555C46.5006 53.7158 46.5503 52.6355 46.7851 51.6219C46.8303 51.4249 46.7761 51.1712 47.0482 51.1282C47.3339 51.0829 47.4773 51.298 47.5597 51.5302C47.6297 51.7227 47.6557 51.9288 47.6805 52.0398Z" fill="#010A38"/>
<path d="M38.8845 42.2321C38.9218 41.8493 38.9975 41.4654 38.9839 41.0849C38.9715 40.7395 38.8767 40.393 38.7897 40.0555C38.7321 39.8335 38.8145 39.7044 38.9997 39.6433C39.1815 39.5832 39.4039 39.786 39.4186 39.9966C39.4209 40.0261 39.4356 40.0646 39.4231 40.0849C39.0573 40.675 39.422 41.2287 39.5078 41.795C39.5914 42.3487 39.7077 42.898 39.7845 43.4517C39.8251 43.7473 39.815 44.0451 39.5372 44.2592C39.4198 44.3498 39.3497 44.3633 39.2786 44.2173C38.9715 43.5899 38.8168 42.9365 38.8845 42.2321Z" fill="#010A38"/>
<path d="M17.5763 25.3331C17.5345 25.5596 17.5232 25.802 17.4419 26.0171C17.3618 26.2312 17.2127 26.4203 17.0941 26.6207C16.7983 26.5132 16.9395 26.2187 16.8424 26.0273C16.647 25.64 16.6538 25.2289 16.6809 24.8145C16.6944 24.5993 16.8266 24.5076 17.0275 24.4883C17.2218 24.4702 17.3968 24.52 17.46 24.7148C17.5232 24.9073 17.5379 25.1168 17.5763 25.3331Z" fill="#010A38"/>
<path d="M44.7921 56.0403C44.7796 56.2509 44.6046 56.4242 44.3923 56.4355C44.1067 56.4513 43.8255 56.0607 43.8967 55.7311C43.9475 55.4922 44.1552 55.5159 44.3224 55.5261C44.6555 55.5454 44.8101 55.7277 44.7921 56.0403Z" fill="#010A38"/>
<path d="M34.2674 21.7444C34.2008 21.7444 34.1714 21.7478 34.142 21.7444C33.9614 21.7229 33.7751 21.6934 33.7593 21.4613C33.7457 21.2699 33.9636 21.0899 34.1861 21.1114C34.299 21.1227 34.4311 21.1544 34.5113 21.2246C34.5926 21.296 34.6727 21.4352 34.6581 21.5304C34.6456 21.6096 34.5011 21.6776 34.4051 21.732C34.36 21.758 34.29 21.7421 34.2674 21.7444Z" fill="#010A38"/>
<path d="M40.0622 46.9066C40.0396 46.9768 40.0374 47.0493 40.0012 47.0787C39.9357 47.1331 39.8533 47.1795 39.772 47.1965C39.5586 47.2418 39.3418 47.2361 39.2752 46.9768C39.2515 46.8862 39.2966 46.7345 39.3655 46.6711C39.545 46.5068 39.7438 46.5454 39.912 46.7118C39.9719 46.7719 40.0159 46.8466 40.0622 46.9066Z" fill="#010A38"/>
<path d="M20.0062 40.5314C19.9497 40.8089 19.7329 40.9674 19.5376 40.9142C19.3479 40.8621 19.3513 40.7013 19.3806 40.5563C19.4269 40.3208 19.6178 40.3117 19.7939 40.3582C19.8831 40.3819 19.9509 40.485 20.0062 40.5314Z" fill="#010A38"/>
<path d="M36.152 1.57659C36.4163 1.55961 36.7166 1.86989 36.8284 2.27304C36.8849 2.47915 36.7482 2.90269 36.571 2.95138C36.4479 2.98536 36.2548 2.96839 36.1679 2.89025C35.9002 2.64903 35.7986 2.30476 35.7489 1.9571C35.7218 1.77024 35.933 1.59018 36.152 1.57659Z" fill="#010A38"/>
<path d="M42.6605 61.1938C42.6899 61.05 42.7023 60.9016 42.7498 60.7646C42.8502 60.4758 43.0422 60.3524 43.2782 60.4044C43.5198 60.4577 43.7569 60.7453 43.7073 60.9956C43.6384 61.3399 43.5277 61.6762 43.4182 62.0103C43.3742 62.1439 43.1235 62.1813 43.0399 62.0681C42.8468 61.811 42.6097 61.5664 42.6605 61.1938Z" fill="#010A38"/>
<path d="M20.6555 61.3193C20.642 61.4858 20.6634 61.65 20.607 61.7779C20.5528 61.9002 20.4309 62.0146 20.3089 62.0712C20.257 62.095 20.1113 61.9795 20.0458 61.8968C19.9363 61.7576 19.8437 61.6013 19.7703 61.4404C19.6551 61.189 19.7364 60.8878 19.9453 60.7089C20.1576 60.5266 20.5268 60.6262 20.5957 60.8946C20.633 61.0362 20.6386 61.1879 20.6555 61.3193Z" fill="#010A38"/>
</svg>
