<svg width="64" height="64" viewBox="0 0 64 64" fill="none" xmlns="http://www.w3.org/2000/svg">
<path d="M38.3865 14.735C39.0144 14.735 39.6442 14.7588 40.2722 14.7276C40.9185 14.6947 41.4915 14.8997 42.092 15.1066C43.5053 15.5899 44.8491 16.1941 46.0483 17.0912C47.295 18.0249 48.2672 19.1435 48.9116 20.6136C49.5213 22.0013 49.8691 23.4513 50.1181 24.8994C50.3835 26.4391 50.519 28.0447 50.0064 29.6009C49.9332 29.8242 49.8893 30.0769 49.9076 30.3094C50.0046 31.611 49.4919 32.7553 49.0269 33.9197C48.5802 35.0401 47.9651 36.0672 47.3664 37.1052C47.068 37.6233 47.3023 37.995 47.8754 37.9199C50.2828 37.6013 52.6995 37.8357 55.1106 37.7807C56.0004 37.7606 55.9326 37.8357 56.2988 38.6943C56.7199 39.6829 57.0585 40.7027 57.6206 41.6473C58.2485 42.7037 58.611 43.9139 59.1255 45.0416C59.9036 46.7442 60.7183 48.4304 61.5091 50.1257C61.835 50.8232 62.1536 51.5226 62.4539 52.2292C62.9024 53.2856 63.2447 54.3877 63.869 55.3672C64.0814 55.7004 64.043 56.0079 63.6969 56.2423C63.6567 56.2697 63.6054 56.2789 63.5688 56.3082C62.3495 57.2803 62.3495 57.2803 60.8757 57.0515C60.5975 57.0076 60.2606 56.8556 60.0464 56.9563C59.2537 57.3279 58.4298 57.1174 57.6243 57.1888C56.4269 57.295 55.2332 57.4195 54.0359 57.5257C53.5087 57.5733 52.9796 57.6264 52.4523 57.6282C49.5066 57.6392 46.559 57.6227 43.6133 57.6392C40.5834 57.6556 37.5516 57.7051 34.5217 57.7252C31.1988 57.7472 27.8742 57.7655 24.5513 57.76C23.2972 57.7582 22.0449 57.6557 20.7909 57.6483C19.6832 57.6428 18.5738 57.7289 17.4662 57.7289C16.4556 57.7289 15.4432 57.6556 14.4307 57.6392C13.5831 57.6245 12.9826 57.132 12.4297 56.5993C11.9574 56.1453 12.0361 55.51 12.2283 54.9699C12.6787 53.7085 13.1877 52.4654 13.7021 51.2278C13.9584 50.6127 14.2934 50.0323 14.5644 49.4227C15.1081 48.1997 15.6445 46.9749 16.1572 45.741C16.4318 45.08 16.6771 44.4027 16.884 43.718C17.2593 42.4749 17.7738 41.2958 18.3559 40.1388C18.5226 39.8074 18.5115 39.3918 18.5976 39.0184C18.7898 38.1744 19.3848 37.5885 20.2764 37.4897C21.8033 37.3212 23.3357 37.2096 24.8662 37.0777C25.106 37.0576 25.3513 37.0814 25.5893 37.0521C26.0745 36.9935 26.2576 36.6731 26.0617 36.2356C25.7101 35.452 25.355 34.6703 24.987 33.894C24.284 32.4056 23.938 30.8037 23.6121 29.2146C23.4345 28.3449 23.4967 27.382 23.6615 26.4995C23.9471 24.9617 24.1833 23.4018 24.9541 21.9848C26.0196 20.0259 27.2316 18.1786 29.1044 16.9209C30.6661 15.8719 32.3541 15.0535 34.3112 15.026C34.692 15.0205 35.0746 15.0498 35.3986 14.7459C35.514 14.6379 35.752 14.6196 35.9314 14.6288C36.7498 14.669 37.5663 14.7313 38.3828 14.7862C38.3846 14.7679 38.3847 14.7514 38.3865 14.735ZM38.824 16.4339C38.8222 16.4174 38.8222 16.401 38.8204 16.3863C37.8098 16.4449 36.7974 16.5785 35.7886 16.5438C34.042 16.4852 32.5042 16.8879 31.0213 17.8839C29.401 18.9714 27.9858 20.1925 26.9881 21.8768C25.8072 23.8669 25.3733 26.0565 25.2909 28.3266C25.2708 28.8795 25.4154 29.4471 25.5344 29.9963C25.6772 30.6499 25.8548 31.298 26.058 31.9351C26.4498 33.1654 26.7867 34.4195 27.5025 35.5216C27.8101 35.9958 28.1066 36.4791 28.3977 36.9661C29.2802 38.4398 30.104 39.9502 31.0542 41.3782C31.6877 42.3302 32.5591 43.1229 33.2145 44.064C34.0713 45.2943 35.2742 46.0247 36.563 46.6655C36.7186 46.7424 36.9951 46.7882 37.1104 46.7058C37.9251 46.1181 38.7124 45.492 39.5051 44.8732C39.5325 44.8512 39.5142 44.778 39.5307 44.734C40.0653 43.4177 41.1033 42.484 42.0407 41.4808C43.3149 40.1187 44.439 38.643 45.3855 37.0411C46.0153 35.9756 46.5463 34.8515 47.1138 33.7494C47.2017 33.5791 47.2566 33.3905 47.3078 33.2056C47.6722 31.8692 48.2123 30.5821 48.2654 29.1633C48.3093 28.0007 48.8237 26.84 48.2305 25.6812C48.1884 25.6006 48.1903 25.4926 48.1921 25.3974C48.2287 23.552 47.3884 21.9537 46.7366 20.3078C46.3357 19.2991 45.5796 18.5411 44.6239 18.0615C43.9081 17.7026 43.3387 17.0051 42.4361 17.0454C41.7349 16.368 40.8525 16.4284 39.981 16.4357C39.5984 16.4357 39.2103 16.4339 38.824 16.4339ZM49.6018 41.3947C49.6018 41.4093 49.6018 41.424 49.6036 41.4386C50.5208 41.4386 51.4399 41.4295 52.3571 41.4441C52.6409 41.4478 52.9082 41.4936 53.062 41.8213C53.9188 43.6356 54.7536 45.4627 55.5738 47.2898C56.2311 48.7526 57.0292 50.0817 57.9812 51.345C58.2851 51.7477 58.3254 52.242 57.9812 52.5002C57.648 52.751 57.1592 53.119 56.8608 53.0293C56.0223 52.7766 55.2644 53.1355 54.4717 53.1465C52.1612 53.1794 49.8471 53.2435 47.5495 53.4595C46.8263 53.5273 46.0867 53.5291 45.3544 53.6426C44.0289 53.8458 42.665 53.8312 41.3175 53.8421C39.7376 53.855 38.1576 53.7945 36.5758 53.7726C34.6023 53.7451 32.6067 53.9044 30.6642 53.6444C29.1209 53.4375 27.5995 53.487 26.0672 53.4137C25.7303 53.3973 25.3953 53.3423 25.0602 53.3442C22.7095 53.3533 20.3442 52.9835 18.0173 53.6316C17.5559 53.7598 17.1257 53.4595 17.0762 52.9927C17.0469 52.7126 17.0231 52.3757 17.1458 52.1432C17.6401 51.2022 17.8634 50.1678 18.2406 49.192C18.9601 47.3246 19.6302 45.4426 20.2325 43.5349C20.4613 42.8081 20.7451 42.0995 21.0307 41.3929C21.0948 41.2336 21.2449 41.0615 21.3987 40.9956C22.3543 40.5818 23.2825 40.1205 24.4048 40.2798C25.1591 40.386 25.9427 40.2798 26.7134 40.256C27.1675 40.2432 27.6197 40.1095 27.7753 39.6628C27.9327 39.2106 27.2059 38.5369 26.5853 38.4948C26.3454 38.4783 26.102 38.4966 25.8603 38.4856C24.3133 38.4105 22.7919 38.6046 21.2614 38.8133C20.4559 38.9232 19.8682 39.0568 19.8956 40.0308C19.9011 40.1974 19.718 40.364 19.6485 40.5397C18.6287 43.1193 17.6199 45.7025 16.591 48.2784C16.0601 49.6094 15.5 50.9294 14.9416 52.2475C14.5663 53.13 14.125 53.9868 13.7918 54.8839C13.3927 55.9585 13.682 56.3412 14.8226 56.2002C15.727 56.0885 16.6222 55.9329 17.5376 55.9329C20.0989 55.9329 22.6601 55.9311 25.2195 55.9347C25.5564 55.9347 25.8951 55.9475 26.2301 55.986C28.427 56.2423 30.6221 56.4656 32.8154 55.953C32.9985 55.9109 33.2072 55.9164 33.3921 55.9549C35.4865 56.3942 37.6047 56.2258 39.7156 56.2185C41.0557 56.213 42.4179 56.3192 43.7287 56.1105C44.6715 55.9622 45.6089 56.0336 46.5169 56.0354C47.522 56.0391 48.5473 56.0244 49.5633 56.0684C50.5099 56.1087 51.4637 55.9695 52.4139 55.9329C54.2923 55.8615 56.1725 55.8084 58.0509 55.7443C59.0138 55.7114 59.9786 55.6766 60.9416 55.6345C61.8424 55.596 61.9486 55.4587 61.6172 54.5635C61.3865 53.9373 61.0167 53.3625 60.786 52.7345C60.1434 50.988 59.3342 49.3091 58.5817 47.6138C57.5876 45.3803 56.5295 43.1761 55.6489 40.8931C55.528 40.5818 55.312 40.3091 55.1563 40.0106C54.9092 39.531 54.5266 39.39 53.9938 39.3259C51.5333 39.033 49.0874 39.2545 46.6378 39.4394C46.4602 39.4523 46.2497 39.5328 46.1252 39.6555C45.7132 40.0564 45.3086 40.472 44.9498 40.9205C44.6514 41.294 44.7795 41.5393 45.2574 41.5284C46.7092 41.4991 48.1555 41.4423 49.6018 41.3947ZM26.8398 51.9235C26.8416 51.896 26.8434 51.8686 26.8452 51.8411C27.4219 51.8411 28.0023 51.8594 28.579 51.8338C28.9451 51.8173 29.0697 51.5372 29.0111 51.2241C28.9708 51.0026 28.861 50.7701 28.7181 50.5943C27.4366 49.0034 26.2924 47.3063 24.3755 46.3085C23.5041 45.8545 22.6235 45.5927 21.7045 45.362C21.3859 45.2814 21.157 45.3364 21.0161 45.6769C20.3002 47.407 19.934 49.2396 19.4324 51.0319C19.3189 51.442 19.5112 51.702 19.956 51.6745C21.1039 51.6049 22.2427 51.918 23.3961 51.7166C23.8153 51.6434 24.262 51.702 24.6923 51.7331C25.4081 51.7825 26.1239 51.8594 26.8398 51.9235ZM36.4751 52.2768C36.4751 52.2695 36.4751 52.264 36.4751 52.2567C37.8263 52.2567 39.1792 52.264 40.5303 52.2512C40.8342 52.2475 40.9789 52.0041 40.8544 51.7551C40.3051 50.6511 39.7376 49.5563 39.1426 48.4761C38.879 47.9965 38.6611 47.9818 38.2455 48.2931C37.2953 49.0071 36.9548 49.0162 35.9461 48.37C35.622 48.1631 35.2741 47.9892 34.9666 47.7621C34.421 47.3594 33.9029 47.3813 33.3885 47.7951C33.09 48.0349 32.8081 48.2967 32.5042 48.5292C31.9769 48.932 31.5595 49.4959 30.8638 49.6533C30.3878 49.7595 30.4244 50.1147 30.5288 50.4461C30.6423 50.8085 30.8162 51.1527 30.9737 51.5006C31.1457 51.8796 31.4405 52.1121 31.8524 52.1688C32.2332 52.2201 32.6177 52.2695 33.0022 52.2732C34.1574 52.286 35.3163 52.2768 36.4751 52.2768ZM31.0652 44.2416C30.9901 44.0878 30.9315 43.901 30.8217 43.7509C30.4519 43.2456 29.9905 42.7916 29.7013 42.2442C29.2857 41.4588 28.7035 41.3343 27.898 41.4423C26.4773 41.6327 25.0456 41.7609 23.6157 41.8744C22.4587 41.9659 21.8326 42.5023 21.774 43.5971C21.7685 43.7143 21.9809 43.9303 22.1219 43.9578C24.1376 44.3532 25.8475 45.3144 27.3633 46.6747C27.5061 46.8028 27.8742 46.887 28.0005 46.7973C28.9781 46.1163 29.9246 45.3913 30.8693 44.6663C30.9682 44.5894 30.9901 44.4118 31.0652 44.2416ZM55.7551 50.9953C55.6507 50.7591 55.5976 50.5705 55.495 50.4168C54.3581 48.7398 53.5618 46.8998 52.8386 45.0178C52.5676 44.3093 52.2235 43.6283 51.9123 42.9344C51.1452 42.8923 50.378 42.8319 49.6091 42.8136C48.9134 42.7971 48.6736 43.0552 48.6516 43.7619C48.637 44.2104 48.7248 44.6132 49.0873 44.9354C49.5871 45.3803 50.0375 45.8893 50.5575 46.3067C51.8848 47.374 52.4871 48.7453 52.3974 50.4332C52.3864 50.62 52.2821 50.8012 52.2637 50.9898C52.2198 51.442 52.5366 51.7148 52.9686 51.6415C53.4812 51.5537 53.9975 51.4731 54.5138 51.4109C54.7994 51.3761 55.0996 51.42 55.3761 51.3559C55.5152 51.3212 55.6196 51.1289 55.7551 50.9953ZM43.346 43.2584C43.2435 43.306 42.892 43.4287 42.5899 43.6264C42.3117 43.8077 42.0736 44.0585 41.8375 44.2965C41.3889 44.7505 41.3908 44.8732 41.7936 45.351C42.1322 45.7538 42.4965 46.1364 42.8059 46.5593C43.4449 47.4363 43.9374 48.4157 44.6843 49.2176C45.347 49.9279 45.8414 50.7445 46.116 51.6782C46.1892 51.9253 46.2313 52.145 46.5426 52.145C46.841 52.145 47.1046 52.0938 47.2657 51.7862C47.7948 50.7774 47.8589 49.7815 47.0991 48.8716C46.6414 48.326 46.1508 47.7713 45.5686 47.374C44.1131 46.3781 43.769 45.6494 44.1296 43.9084C44.2431 43.35 44.1809 43.2676 43.346 43.2584ZM50.671 49.8913C50.6966 48.8185 50.7058 48.7563 50.0375 47.9049C49.6604 47.4253 49.2265 46.9804 48.7633 46.5813C47.7912 45.7428 46.9747 44.8329 46.8849 43.469C46.8795 43.3866 46.8062 43.2896 46.7348 43.2346C46.6762 43.1889 46.548 43.1504 46.5004 43.1815C45.9 43.588 45.7114 44.2617 45.5155 44.8897C45.3599 45.3876 45.6949 45.8362 46.0354 46.1657C46.4785 46.5941 46.9691 46.9895 47.4891 47.3191C48.1738 47.753 48.6113 48.3297 48.8841 49.0858C49.1459 49.8163 49.4022 50.5266 49.2466 51.3267C49.2173 51.4768 49.3437 51.7825 49.4499 51.8082C49.6641 51.8612 49.9826 51.8503 50.129 51.7203C50.3652 51.5097 50.5666 51.2022 50.6508 50.8983C50.7387 50.5852 50.671 50.2282 50.671 49.8913ZM43.7964 52.3409C43.9685 52.2823 44.2632 52.1816 44.5598 52.0809C44.417 51.8484 44.2779 51.6104 44.1278 51.3816C43.4541 50.3527 42.7748 49.3256 42.1011 48.2949C42.0224 48.1759 41.9858 48.0276 41.8997 47.9141C41.5244 47.4216 41.1436 46.9328 40.7518 46.4531C40.7079 46.3982 40.5505 46.3708 40.4919 46.4055C40.3784 46.4751 40.2228 46.5959 40.2173 46.7021C40.2045 46.9255 40.2227 47.1818 40.3234 47.3759C40.8397 48.3864 41.3889 49.3787 41.918 50.3802C42.1981 50.9092 42.7236 51.2791 42.8591 51.9125C42.9414 52.3134 43.3058 52.361 43.7964 52.3409ZM29.5255 48.5439C30.8198 48.1613 31.6675 47.1214 32.7752 46.4952C32.8374 46.4605 32.7751 45.99 32.6397 45.871C32.376 45.6384 31.3215 45.8691 31.0414 46.1474C30.4683 46.7204 29.9063 47.3045 29.3186 47.8592C29.1539 48.0148 29.0642 48.1466 29.207 48.3297C29.2893 48.434 29.4541 48.564 29.5255 48.5439Z" fill="#010A38"/>
<path d="M44.036 26.1092C43.9097 27.367 43.9353 28.4545 43.6625 29.4632C43.3805 30.5068 42.8771 31.4844 41.98 32.235C40.9035 33.1358 39.6549 33.5623 38.3294 33.7948C37.6795 33.9084 36.9874 33.9523 36.343 33.6319C36.1306 33.5275 35.8817 33.4543 35.6474 33.4452C33.996 33.3793 32.8389 32.3101 31.6013 31.4331C30.9276 30.9553 30.3857 30.3237 30.3747 29.4101C29.5142 27.7679 29.8712 26.1239 30.4717 24.5348C30.9807 23.1837 31.7606 21.979 33.0531 21.2009C33.2179 21.1021 33.3753 20.9867 33.52 20.8604C34.3255 20.1629 35.2464 19.8626 36.3174 19.9487C37.2767 20.0256 38.2416 20.0421 39.2064 20.0677C40.5923 20.1043 41.5424 21.0728 42.6647 21.6714C43.0144 22.4093 43.4519 23.1196 43.6863 23.8922C43.917 24.6629 43.9463 25.4959 44.036 26.1092ZM42.2857 26.4736C42.2985 25.1243 41.6211 23.2679 40.8577 22.3305C40.5044 21.8966 40.076 21.6055 39.5194 21.5744C38.1775 21.4957 36.8337 21.417 35.4881 21.3987C35.186 21.395 34.8363 21.5817 34.5855 21.7795C33.2087 22.8633 32.1066 24.1027 31.6618 25.9097C31.3505 27.1729 31.9199 28.2604 31.973 29.4376C31.9821 29.6335 32.2347 29.8239 32.3904 30.0051C33.7946 31.6657 35.5119 32.387 38.1482 32.149C40.1346 31.9696 41.2806 30.7832 41.8482 29C42.1191 28.1432 42.163 27.2169 42.2857 26.4736Z" fill="#010A38"/>
<path d="M41.5499 38.9717C41.4474 38.8069 41.3338 38.7044 41.3393 38.611C41.3485 38.4774 41.418 38.3254 41.5078 38.2211C42.7325 36.7711 43.6369 35.0978 44.7501 33.5709C44.9093 33.3512 45.1254 33.0601 45.4476 33.245C45.7918 33.4409 45.7789 33.7924 45.6563 34.1385C45.1968 35.4292 44.2704 36.4013 43.4154 37.4192C43.0749 37.8238 42.7032 38.2046 42.3096 38.5561C42.1137 38.73 41.8391 38.8179 41.5499 38.9717Z" fill="#010A38"/>
<path d="M38.9213 42.0209C38.881 41.6584 39.0037 41.338 39.4339 41.3032C39.5511 41.2941 39.7268 41.3728 39.7927 41.4698C40.0106 41.792 39.9611 42.1142 39.6591 42.3596C39.5199 42.4731 39.335 42.5298 39.1721 42.6122C39.0842 42.4145 38.9432 42.2241 38.9213 42.0209Z" fill="#010A38"/>
<path d="M12.0074 15.8924C10.9187 16.8052 9.6264 16.8776 8.37206 17.0364C8.03216 17.0795 7.63185 16.9725 7.31266 16.8207C5.59936 16.0046 4.07241 14.9607 3.33395 13.1042C2.80081 11.7688 2.65416 10.4817 3.41677 9.09793C4.27256 7.54337 5.45098 6.60305 7.17118 6.24763C8.56528 5.95949 9.89902 5.84216 11.3104 6.3477C12.4957 6.77214 13.1582 7.63653 13.7604 8.58031C14.3263 9.46888 14.4643 10.5334 14.6024 11.5669C14.6369 11.8292 14.6369 12.1501 14.5161 12.3675C13.8001 13.6512 13.4205 15.185 12.0074 15.8924ZM4.92995 13.0421C4.98171 13.1094 5.10764 13.3009 5.2612 13.4683C7.07629 15.4559 9.45903 15.9304 11.7762 14.2033C12.5733 13.6098 12.9633 12.716 13.1255 11.7826C13.2497 11.0787 13.2031 10.2764 12.7304 9.69318C12.1368 8.96163 11.4173 8.33014 10.7375 7.67105C10.6547 7.59169 10.477 7.61067 10.3424 7.58652C8.63949 7.27768 7.0297 7.37773 5.57349 8.48369C4.15868 9.55687 3.81881 11.4496 4.92995 13.0421Z" fill="#010A38"/>
<path d="M12.8048 21.0411C14.2662 20.0266 16.9543 19.4969 18.9057 21.1602C19.2076 21.4173 19.4613 21.7744 19.6286 22.1368C20.1997 23.3687 20.2049 24.6506 19.8322 25.9412C19.5734 26.835 18.8246 27.3905 18.1103 27.7201C16.2745 28.5672 14.4284 28.305 12.7237 27.2232C12.4252 27.0334 12.1301 26.759 11.968 26.4537C11.4969 25.5703 11.1915 24.6213 11.1795 23.6068C11.1622 22.368 11.9921 21.6623 12.8048 21.0411ZM12.9066 25.2321C13.2051 25.5323 13.3621 25.798 13.5933 25.9033C14.368 26.2587 15.1858 26.6434 16.0468 26.4674C16.7766 26.3191 17.6116 26.1086 18.1241 25.6306C18.6451 25.1441 18.9057 24.3107 18.5451 23.4981C18.1862 22.6872 17.7618 21.9314 16.73 21.9228C16.0157 21.9176 15.2997 21.9849 14.5853 22.0194C14.0677 22.0453 13.7072 22.2713 13.3397 22.6751C12.9946 23.0564 12.596 23.3532 12.6564 23.9087C12.7116 24.397 12.8358 24.8732 12.9066 25.2321Z" fill="#010A38"/>
<path d="M1.32575 23.9679C2.35753 23.314 3.44105 23.5366 4.38138 23.8662C5.46664 24.2457 6.10332 25.695 5.91525 26.8924C5.82553 27.4653 5.6202 28.0277 5.40108 28.5678C5.20266 29.0561 4.78856 29.3563 4.2468 29.3615C3.61876 29.3666 2.99076 29.3028 2.36273 29.289C0.740876 29.2562 -0.475524 27.2047 0.181843 25.4103C0.381986 24.8634 0.934095 24.4441 1.32575 23.9679ZM2.15911 25.3828C1.29815 25.978 1.205 26.851 1.99004 27.4584C2.43864 27.8052 2.96313 27.7482 3.5118 27.5826C3.90001 27.4653 4.26754 27.4774 4.47458 27.0012C4.69543 26.4922 4.51771 26.0988 4.24338 25.7554C3.46696 24.7927 3.29786 24.5701 2.15911 25.3828Z" fill="#010A38"/>
</svg>
