<svg width="64" height="64" viewBox="0 0 64 64" fill="none" xmlns="http://www.w3.org/2000/svg">
<path d="M42.0911 22.6964C43.7187 27.5308 49.5499 31.2849 52.9903 34.8902C55.1329 37.1364 57.1009 39.406 58.8401 41.9828C60.3739 44.2532 63.2338 46.2536 61.7509 49.2363C61.3288 50.0869 62.7074 50.6756 63.1141 49.8112C63.7755 48.4027 64.2485 47.5036 63.8596 45.9949C63.6744 45.2801 61.6474 43.4657 61.4331 43.2086C60.3877 41.9497 59.5088 40.5355 58.5862 39.1877C57.0169 36.8962 54.871 34.9945 52.9345 33.0168C49.7416 29.7567 44.7027 26.4893 42.6676 22.4191C42.501 22.0884 41.9779 22.3601 42.0911 22.6964Z" fill="#010A38"/>
<path d="M62.661 49.0768C57.0239 45.8798 51.0431 43.2835 45.5288 39.8706C42.7983 38.1807 39.5827 37.3342 37.0552 35.3775C36.6242 35.0436 35.9548 35.274 35.8747 35.8327C35.485 38.5494 41.6097 39.5634 43.2842 40.6371C49.1009 44.3637 55.7269 47.9448 62.3239 50.0131C62.8899 50.1918 63.1373 49.346 62.661 49.0768Z" fill="#010A38"/>
<path d="M34.0799 19.7123C28.5503 19.5741 22.7578 20.3058 17.2193 20.7004C11.8748 21.0812 6.42679 20.8281 1.12515 21.5752C0.863181 21.6124 0.563211 21.9164 0.529252 22.1792C0.34652 23.5619 0.449229 24.347 0.947294 25.7126C1.31114 26.7128 2.92499 26.315 2.56276 25.2986C1.48739 22.2868 7.04533 22.8802 8.90741 22.6765C11.6904 22.3725 14.5017 22.2892 17.2929 22.0854C22.8225 21.6812 28.5123 20.7416 34.0338 20.584C34.5877 20.567 34.6483 19.7261 34.0799 19.7123Z" fill="#010A38"/>
<path d="M29.6271 32.5595C27.6171 32.7414 23.5072 31.307 21.4454 30.7483C18.3786 29.9188 15.2528 28.8426 12.3347 27.6014C10.2729 26.725 8.15776 26.0854 5.97388 25.5962C4.13605 25.1847 2.68552 24.1845 0.812927 24.2791C-0.201799 24.33 -0.304476 25.9269 0.719952 25.8687C2.09852 25.7903 3.05099 26.6134 4.33416 26.8107C7.71631 27.3298 10.8147 28.4431 13.9494 29.7837C16.6039 30.9189 19.6876 31.6418 22.4812 32.3743C24.8146 32.9864 27.3397 33.8685 29.7225 33.3131C30.1907 33.2023 30.1219 32.515 29.6271 32.5595Z" fill="#010A38"/>
<path d="M40.8869 7.35463C41.7682 7.54141 42.4547 7.46217 43.3287 7.26731C45.7244 6.73285 43.7516 10.6277 43.6788 11.0578C43.2681 13.4438 43.1257 16.1905 42.1595 18.4261C41.4343 20.1031 41.1408 21.5164 41.5483 23.254C41.7294 24.0237 42.7635 23.7933 42.8355 23.0923C43.1346 20.1613 44.2035 17.4106 44.6693 14.4893C44.9814 12.5294 45.536 10.7158 46.0123 8.80679C47.0027 4.83842 43.15 6.31321 41.072 6.09086C40.3435 6.01243 40.1754 7.20343 40.8869 7.35463Z" fill="#010A38"/>
<path d="M41.5952 6.26643C39.7315 7.86494 38.3756 9.96232 36.9477 11.9287C36.3114 12.806 35.9208 13.9469 35.4664 14.9284C34.9344 16.0782 34.0668 16.9474 33.4483 18.0389C32.8977 19.0092 34.4016 19.8097 34.9659 18.8572C36.0057 17.1026 36.8976 15.665 37.6342 13.7286C38.5535 11.3134 40.2765 8.58778 41.9445 6.64079C42.1547 6.39499 41.8523 6.0465 41.5952 6.26643Z" fill="#010A38"/>
<path d="M35.8514 35.2278C35.7042 36.6265 34.9013 36.9961 34.2626 38.3665C33.5753 39.8389 32.8509 41.2143 31.8038 42.4716C30.173 44.4283 29.4922 47.2542 28.6327 49.5941C28.2785 50.5595 29.7105 51.018 30.1204 50.1075C31.3146 47.4555 32.1232 44.9336 33.6667 42.4433C34.9709 40.3378 36.8928 37.8289 36.7796 35.2407C36.7537 34.6351 35.9128 34.6375 35.8514 35.2278Z" fill="#010A38"/>
<path d="M29.4961 32.6679C27.4359 33.7198 26.9265 36.5061 25.9999 38.4539C24.4257 41.76 22.3873 45.2983 21.5044 48.847C21.3394 49.5076 22.2127 49.979 22.608 49.3701C23.9801 47.2566 24.7685 44.7412 25.7347 42.419C26.6395 40.2448 28.0892 34.4604 29.851 33.2048C30.1971 32.959 29.8599 32.4819 29.4961 32.6679Z" fill="#010A38"/>
<path d="M22.1196 48.2663C21.0815 48.8889 19.7999 48.9867 18.6146 49.0482C17.3727 49.112 16.2261 49.7338 14.9616 49.8122C14.1643 49.8624 13.8013 50.8318 14.5007 51.3154C15.6521 52.1118 16.9013 52.5646 18.2394 52.947C19.6204 53.3408 21.0718 53.8704 22.4794 54.1089C23.2209 54.2342 23.6316 53.1669 23.0179 52.7481C20.7912 51.2264 17.7236 51.3517 15.3691 49.9368C15.285 50.4316 15.2001 50.9256 15.1152 51.4205C16.5245 51.2369 17.7381 50.4882 19.1216 50.2764C20.3198 50.092 21.5795 49.6263 22.4924 48.8153C22.8045 48.5372 22.4956 48.0399 22.1196 48.2663Z" fill="#010A38"/>
<path d="M25.2966 55.002C25.9272 55.4265 25.5343 55.8364 25.0257 56.1339C24.5357 56.421 23.7595 56.3692 23.2315 56.2326C22.8685 56.138 22.4068 56.0264 22.2111 55.7127C22.0066 55.3828 22.2257 54.913 22.3316 54.5815C22.6082 53.7099 21.287 53.0946 20.8471 53.9193C20.3272 54.8936 20.2084 55.8073 20.8754 56.7476C21.5619 57.7147 23.1248 57.9289 24.2301 57.8489C25.2198 57.7777 26.2304 57.1754 26.6727 56.2779C27.1506 55.3076 26.5999 54.5702 25.6653 54.2419C25.2036 54.0786 24.8971 54.7335 25.2966 55.002Z" fill="#010A38"/>
<path d="M24.497 20.4562C25.1479 20.8152 26.051 20.7764 26.5111 20.0972C26.9865 19.3962 26.351 18.5521 25.7413 18.1567C24.1064 17.0975 22.5468 17.8866 21.7455 19.528C21.3186 20.4012 22.7473 20.9688 23.1572 20.0802C23.3594 19.642 23.7337 19.0542 24.2892 19.0793C24.7832 19.1019 25.2683 19.5207 25.4955 19.9218C25.498 19.7091 25.5012 19.4965 25.5044 19.283C25.371 19.5765 25.0735 19.8846 24.7121 19.8539C24.3612 19.8247 24.155 20.2686 24.497 20.4562Z" fill="#010A38"/>
<path d="M18.4756 21.2875C17.4972 19.8191 16.5561 18.6783 14.7539 18.24C13.2144 17.8649 11.7169 18.692 12.0873 20.4086C12.2878 21.3352 13.6041 21.1985 13.5556 20.2355C13.5063 19.2499 14.6981 19.5555 15.3239 19.7358C16.4688 20.0657 17.1795 20.9317 17.9759 21.7427C18.2548 22.0281 18.6834 21.5988 18.4756 21.2875Z" fill="#010A38"/>
<path d="M47.8429 29.4128C48.7686 29.2171 51.3333 29.8138 51.0528 31.173C50.9339 31.7528 51.74 32.0115 52.0133 31.5037C53.214 29.2681 49.2627 27.9647 47.6916 28.7352C47.365 28.8937 47.4265 29.5001 47.8429 29.4128Z" fill="#010A38"/>
<path d="M53.6877 34.741C54.6847 34.5445 55.7988 34.5105 56.4174 35.4468C56.9753 36.2918 56.8508 37.4828 56.8039 38.4377C56.7796 38.9568 57.5097 39.0554 57.6747 38.5865C58.1485 37.2443 57.956 35.6935 56.964 34.6245C56.0527 33.6413 54.6515 33.761 53.5802 34.3626C53.3983 34.4645 53.4516 34.7879 53.6877 34.741Z" fill="#010A38"/>
<path d="M63.1339 49.5157C61.1077 47.1216 58.3991 46.0713 55.7107 44.5213C51.6186 42.1611 47.1093 39.8762 42.7537 38.0513C42.1376 37.7933 41.6937 38.6965 42.3033 38.9916C45.8496 40.709 49.3523 42.5339 52.9551 44.1308C56.254 45.5934 60.1666 47.3933 62.7184 49.958C63.0005 50.241 63.3805 49.8068 63.1339 49.5157Z" fill="#010A38"/>
<path d="M27.9848 31.2882C23.1416 29.5336 18.212 28.113 13.2248 26.7861C10.1985 25.9808 6.5422 24.9176 3.85863 23.2859C2.96519 22.7426 2.20031 22.5978 1.24623 22.9593C0.468404 23.2536 0.777274 24.5109 1.5745 24.2246C2.95226 23.7298 6.78072 25.794 8.12452 26.2169C10.2364 26.8823 12.278 27.606 14.4272 28.1558C18.9251 29.3072 23.3972 30.5758 27.8401 31.8768C28.2226 31.9892 28.3438 31.4183 27.9848 31.2882Z" fill="#010A38"/>
<path d="M30.3449 50.3648C30.222 50.4481 30.5536 50.2071 30.5107 50.2451C31.1082 49.7123 29.8703 49.0533 29.7458 49.7915C29.5501 50.9502 30.3077 51.5121 30.9473 52.4242C31.9232 53.8165 32.3307 55.546 33.2525 56.9699C33.5896 57.4914 34.4022 57.0321 34.1985 56.4686C33.7117 55.1248 32.9751 53.8327 32.2846 52.5835C31.7834 51.6755 30.7929 50.8281 30.6352 49.8077C30.5139 49.025 29.1717 49.7721 29.9544 50.3131C29.9884 50.3365 30.0223 50.36 30.0563 50.3834C30.1517 50.4505 30.2568 50.4254 30.3449 50.3648Z" fill="#010A38"/>
<path d="M25.4834 54.3611C25.1923 55.6159 26.6785 56.114 27.6398 56.3574C28.5114 56.5781 29.3701 56.6614 30.2344 56.929C31.4634 57.3082 32.4547 58.3125 33.7185 57.892C34.2893 57.7028 34.2958 56.9185 33.8761 56.587C32.6358 55.6038 30.7576 55.0653 29.1639 55.071C28.6958 55.0726 26.3373 55.0702 26.2871 54.4249C26.2556 54.0166 25.5756 53.9608 25.4834 54.3611Z" fill="#010A38"/>
</svg>
