<svg width="64" height="64" viewBox="0 0 64 64" fill="none" xmlns="http://www.w3.org/2000/svg">
<path d="M18.6087 59.9067C21.4117 56.7579 22.3834 51.7266 23.9311 47.9298C25.8207 43.2954 27.9625 38.81 30.2009 34.3355C34.7405 25.2622 37.4558 15.1722 42.7667 6.47795C43.12 5.89952 42.2117 5.40834 41.8475 5.97147C39.3882 9.77394 37.658 14.3778 35.8997 18.5415C33.8834 23.318 32.0252 28.1747 29.8873 32.8996C27.8217 37.4665 25.5013 41.8844 23.5791 46.5239C21.8009 50.8143 20.762 55.7252 18.1741 59.6214C18.0064 59.8743 18.4173 60.1221 18.6087 59.9067Z" fill="#010A38"/>
<path d="M42.1252 6.57822C43.2409 7.03052 45.4972 9.11238 46.7474 8.23901C46.9183 8.11924 47.0309 7.83767 46.8325 7.67522C46.2846 7.22611 45.4262 7.23568 44.765 6.94837C43.9578 6.59864 43.2319 6.11702 42.3921 5.83928C41.9645 5.69785 41.7085 6.40941 42.1252 6.57822Z" fill="#010A38"/>
<path d="M45.4026 8.40091C45.8949 10.1477 44.9206 11.9313 44.1423 13.4449C43.1079 15.4573 42.0472 17.4201 41.1197 19.4955C38.8698 24.5288 36.4899 29.4492 34.5389 34.6111C32.712 39.4462 30.7444 44.1615 28.6103 48.8686C26.6561 53.1794 25.6677 57.8476 23.5849 62.1068C23.3519 62.5833 24.0886 62.9337 24.3293 62.4617C26.6548 57.9024 27.7334 52.873 29.8412 48.2233C32.1366 43.1595 34.1427 38.0288 36.1263 32.8357C38.2508 27.2725 40.8822 21.8589 43.387 16.4562C44.5346 13.9801 47.0189 11.1128 46.0133 8.21362C45.8949 7.87153 45.3047 8.05373 45.4026 8.40091Z" fill="#010A38"/>
<path d="M18.5658 59.8439C19.6712 61.9416 22.4537 63.6126 24.7517 63.9942C25.2394 64.0751 25.4705 63.2909 24.9815 63.1514C22.7949 62.5258 20.2915 61.6384 19.0708 59.5597C18.9037 59.2763 18.4128 59.5546 18.5658 59.8439Z" fill="#010A38"/>
<path d="M40.3725 8.99073C40.5319 9.45832 40.4814 9.34682 40.2202 8.65627C39.6326 8.25813 38.1879 7.87275 37.4102 7.50709C35.8233 6.76176 34.3159 5.86732 32.7202 5.14301C31.0431 4.38303 29.3661 3.62244 27.689 2.86245C26.1016 2.1426 24.9001 0.874873 23.2678 0.277334C22.7148 0.0753938 22.3839 0.926511 22.9395 1.12845C24.2721 1.6126 25.1036 2.68409 26.3518 3.24722C28.0276 4.00402 29.7034 4.76018 31.3792 5.51698C34.5144 6.93247 37.4748 8.48236 40.6977 9.6768C41.0549 9.8093 41.2834 9.25192 40.9275 9.14171C40.7476 9.08756 40.569 9.03024 40.3917 8.97036C40.3789 8.96654 40.3687 8.97799 40.3725 8.99073Z" fill="#010A38"/>
<path d="M23.0136 0.0265827C22.0035 0.268019 21.0267 -0.135247 20.0602 0.050767C19.0597 0.243789 17.9722 0.415788 17.012 0.750869C16.6388 0.880824 16.6491 1.42295 17.044 1.51532C17.8473 1.70388 18.6289 1.37072 19.397 1.14011C20.6689 0.757891 21.9356 1.06494 23.1947 0.533015C23.5199 0.395415 23.3483 -0.0543208 23.0136 0.0265827Z" fill="#010A38"/>
<path d="M17.0506 1.68823C17.8328 3.22285 17.9122 5.1696 18.8813 6.60994C19.1674 7.03548 19.8107 6.62333 19.5515 6.18314C18.6739 4.69248 18.6086 2.77755 17.589 1.34549C17.3771 1.04736 16.8887 1.36972 17.0506 1.68823Z" fill="#010A38"/>
<path d="M19.7557 6.99932C22.2092 9.13849 25.3918 10.5177 28.1884 12.1835C30.6618 13.657 33.4699 15.5668 36.1551 16.5752C36.6492 16.7612 37.0102 16.0197 36.5116 15.835C34.0882 14.9361 31.8165 13.1875 29.475 12.0402C26.4013 10.5355 22.7066 8.76074 20.0131 6.69165C19.8306 6.55214 19.5829 6.84834 19.7557 6.99932Z" fill="#010A38"/>
<path d="M36.1799 18.6003C30.8089 16.3248 25.7764 13.0364 20.2223 11.2062C19.853 11.0852 19.5893 11.6241 19.9317 11.8235C22.6764 13.4174 25.7079 14.4379 28.5404 15.8655C30.8735 17.0415 33.4832 18.5347 36.1006 18.9169C36.2907 18.9443 36.3483 18.6717 36.1799 18.6003Z" fill="#010A38"/>
<path d="M19.4924 11.3541C18.3434 11.2298 17.2329 10.9789 16.0743 10.94C15.1302 10.9075 14.1425 10.9394 13.2591 10.5616C12.8738 10.3966 12.4853 10.8553 12.8124 11.1719C13.4998 11.837 14.4568 11.758 15.367 11.7267C16.7496 11.6796 18.1284 11.7917 19.5091 11.7089C19.7184 11.6962 19.687 11.3751 19.4924 11.3541Z" fill="#010A38"/>
<path d="M12.881 11.0968C12.8803 12.0651 13.3214 12.8098 13.5947 13.724C13.9896 15.0465 14.6969 16.2823 15.1572 17.5812C15.2468 17.8348 15.6897 17.8125 15.7045 17.5246C15.7614 16.4212 15.0093 15.3408 14.6131 14.34C14.1932 13.2793 13.4878 12.1849 13.267 11.0688C13.2247 10.8567 12.8816 10.8752 12.881 11.0968Z" fill="#010A38"/>
<path d="M15.5413 17.8159C20.3293 21.8407 26.6298 25.3291 32.3228 27.8652C32.8579 28.104 33.1408 27.3256 32.6614 27.0517C27.0708 23.8512 21.0788 21.1635 15.7308 17.5655C15.5618 17.4521 15.3858 17.6859 15.5413 17.8159Z" fill="#010A38"/>
<path d="M35.9492 32.3207C37.6813 34.2209 40.1425 35.2516 42.3387 36.5174C43.6534 37.2749 44.9183 38.0839 46.2663 38.7942C47.4831 39.4357 48.401 40.4403 49.7203 40.8729C50.0013 40.9652 50.1421 40.525 49.8905 40.3983C48.6929 39.795 47.7859 38.8726 46.6369 38.2062C45.3062 37.4335 43.978 36.6748 42.7016 35.8135C40.6174 34.4082 38.315 33.4629 36.2891 31.9416C36.0235 31.7422 35.7297 32.0792 35.9492 32.3207Z" fill="#010A38"/>
<path d="M33.3798 38.8094C34.0544 40.2548 35.9152 40.8791 37.2216 41.6359C39.1445 42.7501 41.5545 43.8649 43.7142 44.4089C44.1469 44.5179 44.4023 43.8439 43.9811 43.6706C42.2522 42.9571 40.5546 42.2143 38.8552 41.432C37.2965 40.7154 34.8033 39.9751 33.7062 38.5768C33.559 38.3883 33.2876 38.6119 33.3798 38.8094Z" fill="#010A38"/>
<path d="M43.3232 44.7114C45.785 44.9822 48.4849 45.1472 50.9301 44.7044C51.4902 44.6032 51.3974 43.8336 50.8744 43.7585C49.776 43.6005 48.6584 43.8419 47.5574 43.9286C46.1563 44.0388 44.7525 44.0286 43.3533 44.1795C43.0607 44.2108 43.0082 44.6764 43.3232 44.7114Z" fill="#010A38"/>
<path d="M51.1856 44.1592C51.0691 43.5043 50.7791 42.952 50.7657 42.2602C50.7529 41.5601 50.7945 40.6294 50.3547 40.0599C50.1416 39.7847 49.7127 39.9063 49.5489 40.1548C49.1693 40.7294 49.4919 41.5282 49.5879 42.1602C49.6468 42.5488 49.6724 42.9399 49.8382 43.303C50.0219 43.7088 50.3221 44.0229 50.5308 44.4C50.726 44.7542 51.2541 44.5465 51.1856 44.1592Z" fill="#010A38"/>
<path d="M22.1623 58.697C22.2257 57.8058 22.4087 56.9445 22.588 56.0711C22.6769 55.636 22.7781 55.2271 22.9278 54.8098C22.9797 54.6646 23.5289 53.1089 24.0199 54.0702C24.0896 54.2065 24.3245 54.1919 24.3348 54.0212C24.3879 53.1344 23.2172 53.0083 22.812 53.7135C21.976 55.1697 21.8608 57.0484 21.9101 58.6855C21.9146 58.827 22.1527 58.8403 22.1623 58.697Z" fill="#010A38"/>
<path d="M23.4225 56.9349C23.7957 57.1496 24.1349 57.2388 24.5273 56.9776C24.7277 56.8451 24.857 56.452 24.9542 56.2412C25.0631 56.0067 25.0848 55.7207 25.0874 55.4665C25.09 55.1544 24.5612 55.1314 24.5375 55.4423C24.5107 55.7895 24.3743 56.1163 24.2437 56.4367C24.11 56.7667 23.8571 56.6858 23.5921 56.5724C23.379 56.4813 23.2253 56.8215 23.4225 56.9349Z" fill="#010A38"/>
<path d="M25.2414 52.5211C25.5211 50.3845 25.8098 48.3364 26.4128 46.2527C26.6746 45.3475 26.8461 44.3977 27.3563 43.5842C27.6686 43.0867 28.2524 42.5171 28.093 43.5797C28.0277 44.0186 28.7184 44.0511 28.7824 43.6173C29.0455 41.8368 27.8812 41.0774 26.9409 42.8873C25.5051 45.6514 24.5546 49.3908 24.8068 52.5129C24.8292 52.7925 25.2056 52.7976 25.2414 52.5211Z" fill="#010A38"/>
<path d="M28.2125 37.3887C29.476 38.8972 30.5629 37.3002 31.1678 36.058C31.7266 34.9081 32.1228 33.6481 32.3449 32.3969C32.5178 31.4248 32.5523 30.4572 32.7687 29.4863C32.9876 28.5027 33.5727 27.6517 33.7922 26.6674C33.8543 26.3897 33.4965 26.2776 33.348 26.4967C32.3117 28.0275 31.925 29.7258 31.7157 31.5318C31.644 32.1491 30.2544 38.5157 28.6138 37.0142C28.3834 36.8033 28.0108 37.1479 28.2125 37.3887Z" fill="#010A38"/>
<path d="M33.5399 30.3829C34.6287 30.4147 34.8566 28.961 35.0492 28.1201C35.2899 27.0729 34.9552 25.965 34.8355 24.9273C34.6748 23.5354 34.9961 22.2702 35.5261 20.9911C35.6689 20.6458 35.1849 20.4496 35.0051 20.7611C34.4648 21.6944 34.1697 22.7244 34.1883 23.8112C34.2024 24.6292 34.2952 25.4134 34.4341 26.2192C34.5282 26.762 34.6678 29.9051 33.5335 30.0567C33.3517 30.0816 33.3511 30.3778 33.5399 30.3829Z" fill="#010A38"/>
<path d="M33.7149 32.8983C34.9253 33.3952 36.1428 31.7147 36.3444 30.7031C36.3944 30.4533 36.0429 30.2884 35.9162 30.5317C35.5405 31.2547 34.8306 32.9091 33.7943 32.6288C33.6362 32.5855 33.569 32.8378 33.7149 32.8983Z" fill="#010A38"/>
<path d="M37.2719 25.1702C38.1796 23.3222 38.1982 21.1715 39.4598 19.4904C39.5763 19.3356 39.3529 19.1254 39.2082 19.2592C37.6477 20.7033 37.8928 23.2222 37.0998 25.0785C37.0518 25.1919 37.2156 25.2842 37.2719 25.1702Z" fill="#010A38"/>
</svg>
