<svg width="64" height="64" viewBox="0 0 64 64" fill="none" xmlns="http://www.w3.org/2000/svg">
<path d="M29.2533 63.9184C29.0047 63.9184 28.7561 63.9042 28.5106 63.92C26.7765 64.0412 25.205 63.5107 23.6507 62.8008C21.5569 61.8454 19.6133 60.6522 17.7557 59.3033C16.8613 58.6532 15.9012 58.0771 15.0771 57.3467C13.7574 56.1787 12.5408 54.899 11.5322 53.432C11.0241 52.6922 10.3751 52.0484 10.0124 51.2063C9.86537 50.8679 9.67306 50.5405 9.58706 50.188C9.12734 48.3054 8.6723 46.4228 8.26731 44.5277C8.1297 43.8855 8.20007 43.1992 8.07185 42.5538C7.89515 41.6566 8.10156 40.7783 8.08905 39.8921C8.07654 38.9776 8.04059 38.0599 8.1047 37.1501C8.15474 36.4559 8.37834 35.7759 8.46746 35.0818C8.6551 33.6305 9.28682 32.3304 9.84193 31.0145C10.3845 29.7285 11.0147 28.4692 11.7121 27.2603C12.2859 26.2655 12.988 25.3416 13.6823 24.4239C14.067 23.9139 14.4344 23.396 14.9723 22.9899C15.3977 22.6688 15.762 22.2171 16.0966 21.7528C16.719 20.8855 17.6181 20.2778 18.4734 19.6655C20.2153 18.4189 22.1277 17.476 24.1308 16.7268C24.6249 16.5426 25.1941 16.6371 25.6506 16.2782C25.9837 16.0169 26.0181 15.8784 25.6397 15.6501C25.0095 15.2692 24.3497 14.9402 23.8212 14.4082C23.1988 13.7817 22.775 13.0514 22.492 12.2046C22.1605 11.2113 21.9572 10.2166 22.0432 9.16824C22.2278 6.91105 22.8095 4.80024 24.3121 3.04045C24.7077 2.57768 25.1018 2.10859 25.5443 1.69304C25.7726 1.47897 26.1119 1.38768 26.3918 1.22555C26.85 0.957963 27.2941 0.663644 27.7585 0.408648C28.0055 0.27328 28.2823 0.111116 28.5513 0.10482C29.8147 0.0701906 31.0797 -0.189533 32.3369 0.266942C32.9858 0.503049 33.6926 0.583365 34.3759 0.720307C35.7582 0.99734 36.8997 1.71821 37.7801 2.78385C38.8824 4.12021 39.5392 5.66594 39.5282 7.44619C39.5267 7.77831 39.497 8.11515 39.5329 8.44255C39.683 9.77735 39.2218 10.9925 38.7104 12.1558C38.4055 12.8499 37.8113 13.415 37.3438 14.0368C37.2453 14.1674 37.1264 14.2839 37.0217 14.4098C36.3274 15.244 36.329 15.2425 37.336 15.5856C39.2749 16.2452 41.2326 16.8543 43.1434 17.5862C44.9776 18.2867 46.6914 19.2279 48.0627 20.6965C48.2285 20.8744 48.4177 21.0554 48.6319 21.1577C50.4896 22.0423 51.7077 23.5865 52.8335 25.2314C53.0196 25.5037 53.1978 25.7839 53.4027 26.042C54.1204 26.9424 54.7177 27.8994 55.2338 28.9477C55.7326 29.9582 56.05 31.0097 56.4503 32.0439C56.8224 33.0041 56.5676 34.0177 56.8553 34.9685C56.591 35.5398 56.9819 36.1081 56.8693 36.6763C56.7161 37.4444 57.1696 38.1606 56.9272 38.9854C56.713 39.7127 56.9085 40.5532 56.8647 41.3418C56.7224 43.9106 56.3174 46.4228 55.2572 48.7949C54.8366 49.7362 54.5442 50.7405 54.0751 51.6534C53.5872 52.601 52.9883 53.495 52.3769 54.3702C51.9797 54.94 51.4121 55.3917 51.0306 55.9694C50.2675 57.1279 49.173 57.959 48.2426 58.9507C47.9111 59.3048 47.4701 59.5708 47.0448 59.8164C45.3764 60.7813 43.6876 61.7021 41.8049 62.1979C40.9355 62.4262 40.0896 62.7504 39.2139 62.9456C38.1366 63.1849 37.0373 63.3234 35.9506 63.5265C34.4541 63.8066 32.9405 63.9263 31.4237 63.9861C30.7013 64.0144 29.9773 63.9908 29.2533 63.9908C29.2549 63.9656 29.2533 63.942 29.2533 63.9184ZM55.3463 38.2503C55.3135 38.2488 55.2807 38.2456 55.2478 38.2441C55.2478 37.2461 55.2697 36.2497 55.2431 35.2534C55.204 33.8068 55.0008 32.3965 54.5692 30.9971C54.1845 29.7521 53.5653 28.625 52.8679 27.5925C52.1189 26.4828 51.298 25.4014 50.4786 24.3295C50.3066 24.1044 50.0752 23.9186 49.85 23.7439C48.6538 22.8152 47.3998 21.9542 46.2661 20.9547C45.1825 19.9977 43.9456 19.4247 42.6024 18.995C41.4375 18.6219 40.285 18.2095 39.1326 17.794C37.3578 17.1549 35.5972 16.4671 33.6629 16.5237C33.5409 16.5269 33.3877 16.5442 33.3001 16.4828C32.806 16.1302 32.3338 16.3443 31.9132 16.5772C31.1532 16.9991 30.3511 17.0605 29.5176 17.0274C28.9438 17.0038 28.3965 17.0951 27.8257 17.2337C26.9 17.4587 26.0322 17.8208 25.1362 18.1088C23.4959 18.6377 21.9197 19.2862 20.4984 20.2731C19.6587 20.8571 18.7814 21.4033 18.0199 22.0786C16.1967 23.6936 14.6455 25.5572 13.3743 27.6476C12.9052 28.4204 12.4392 29.1964 12.0123 29.9929C11.7402 30.4981 11.5229 31.0349 11.3133 31.5685C10.8333 32.7868 10.3736 34.013 9.90916 35.2376C9.88102 35.3132 9.88728 35.4013 9.87946 35.4848C9.76531 36.755 9.42443 38.0048 9.53858 39.3002C9.57141 39.6654 9.45571 40.0401 9.45571 40.41C9.45727 41.4425 9.35718 42.4971 9.53075 43.5014C9.85287 45.3619 10.2688 47.2146 10.7848 49.031C11.1304 50.2462 11.5557 51.4677 12.3438 52.5002C12.5174 52.7285 12.7285 52.9299 12.8848 53.1692C13.8262 54.6 15.0568 55.7522 16.4031 56.7643C17.715 57.7512 19.0738 58.6815 20.4639 59.5535C22.5155 60.8395 24.5873 62.1067 27.0861 62.3396C27.4895 62.3774 27.8867 62.5883 28.2808 62.5757C29.9961 62.5222 31.7193 62.73 33.4315 62.3601C34.3103 62.1696 35.2453 62.2546 36.1257 62.0688C37.5658 61.7666 38.9825 61.3479 40.407 60.9717C42.6493 60.3815 44.7446 59.467 46.6507 58.1259C46.9478 57.9165 47.2481 57.7497 47.4795 57.427C47.8595 56.8981 48.3286 56.4306 48.7945 55.9726C50.2284 54.5654 51.409 52.9787 52.3754 51.2095C52.6912 50.6318 52.8976 50.0164 53.201 49.4434C54.1533 47.6395 54.7068 45.6987 54.9773 43.7028C55.2181 41.9021 55.2322 40.0684 55.3463 38.2503ZM37.8614 7.69016C37.902 6.58361 37.694 5.41724 37.0279 4.36577C37.006 4.33114 36.9794 4.29339 36.9732 4.25404C36.8387 3.36628 36.1914 2.93972 35.4815 2.56667C35.3001 2.47223 35.1062 2.3935 34.9435 2.27072C34.329 1.80795 33.6348 1.60335 32.8795 1.56872C32.5496 1.55298 32.2102 1.58289 31.8944 1.50733C30.4699 1.16576 29.0688 0.959556 27.771 1.91343C27.6428 2.00787 27.4411 1.99685 27.3128 2.08972C26.8469 2.42499 26.3136 2.71463 25.9603 3.14906C25.3457 3.90461 24.6108 4.61292 24.456 5.65809C23.338 7.45251 23.5053 9.3949 23.9259 11.3121C24.2418 12.7523 24.9923 13.9785 26.395 14.6538C26.5122 14.7104 26.753 14.7136 26.8062 14.6428C26.8875 14.5357 26.9125 14.3138 26.8547 14.1894C26.7546 13.969 26.592 13.7707 26.4262 13.5897C25.4114 12.4847 24.9955 11.1153 24.7875 9.67977C24.7187 9.20599 24.7562 8.66453 24.9188 8.2175C25.6397 6.23105 26.8062 4.60821 28.7342 3.59767C29.8069 3.03574 30.9046 2.82794 32.0695 3.05145C33.1688 3.26238 34.1727 3.65275 34.9326 4.57987C35.7879 5.62189 36.2398 6.83073 36.5322 8.10414C36.7809 9.18551 36.5463 10.1945 35.8004 11.0555C35.6128 11.2711 35.4861 11.5419 35.2922 11.7497C34.7809 12.2974 34.8263 12.9459 34.9248 13.6054C34.9701 13.9045 35.2547 14.0541 35.4517 13.8589C35.9427 13.3725 36.5322 12.9208 36.8434 12.3289C37.583 10.9327 38.049 9.43106 37.8614 7.69016ZM34.9326 8.59368C35.0765 7.45721 34.401 6.3176 33.763 5.24882C33.3627 4.57828 32.4886 4.27449 31.6833 4.03524C31.0094 3.83376 30.4636 4.1643 29.9242 4.40041C28.6936 4.93873 27.8257 5.95875 26.9297 6.92207C26.85 7.00864 26.7593 7.13453 26.7593 7.24314C26.7562 8.04276 26.2026 8.80303 26.6107 9.63885C26.6936 9.80884 26.6123 10.0528 26.6498 10.2543C26.7155 10.6179 26.778 10.9894 26.9094 11.3326C27.1174 11.8787 27.3425 11.8992 27.7851 11.534C28.2573 11.1421 28.7749 10.8052 29.2486 10.4165C30.7592 9.18083 32.5824 9.51924 33.8396 10.5644C34.1601 10.8304 34.3666 10.8162 34.5839 10.4983C34.9373 9.9867 34.9232 9.40274 34.9326 8.59368ZM29.8194 15.3322C30.1462 15.3086 30.4824 15.3275 30.7967 15.2535C31.4644 15.0977 32.082 14.7529 32.8201 14.8678C32.9858 14.893 33.3111 14.5562 33.3861 14.3279C33.4831 14.0336 33.4846 13.6495 33.3799 13.3583C33.1469 12.713 32.8858 12.0597 32.5183 11.4852C31.9882 10.6557 31.3956 10.5597 30.5418 11.0413C30.2213 11.2223 29.9335 11.4632 29.6099 11.6363C28.7639 12.0881 28.409 12.7838 28.398 13.7424C28.3824 15.0331 28.5763 15.2818 29.8194 15.3322Z" fill="#010A38"/>
<path d="M11.9531 40.5939C12.0938 39.1583 12.2064 37.7196 12.3925 36.2904C12.4659 35.7269 12.6129 35.1366 12.8819 34.6424C13.6512 33.2336 14.1156 31.6753 15.0507 30.3452C15.6152 29.5424 15.9811 28.5933 16.5784 27.822C17.5213 26.6053 18.2906 25.2327 19.637 24.3481C20.4235 23.8318 21.0802 23.1219 21.8402 22.56C23.7994 21.1103 26.0261 20.1533 28.2215 19.1411C28.4435 19.0388 28.6734 18.9381 28.8689 18.7933C29.4302 18.3777 30.0526 18.2313 30.7359 18.2911C32.1573 18.4155 33.5833 18.4895 34.9953 18.6784C36.0023 18.8137 36.9937 19.086 37.9851 19.33C38.8576 19.5441 39.7426 19.7377 40.5792 20.0572C41.4142 20.3768 42.2742 20.6081 43.0748 21.063C44.7229 22.0012 46.1568 23.2179 47.5829 24.4346C48.5758 25.2815 49.2779 26.4038 49.9518 27.545C51.0386 29.3882 51.4952 31.4219 51.9705 33.4618C52.0081 33.6208 52.0081 33.7924 52.0003 33.9577C51.9424 35.3161 52.1801 36.6792 51.994 38.0329C51.8658 38.9647 51.6656 39.8887 51.4811 40.8126C51.3216 41.617 51.0261 42.3914 50.9917 43.2272C50.9745 43.6349 50.8901 44.0583 50.7415 44.4377C50.1864 45.8575 49.6547 47.2788 48.8463 48.5963C47.353 51.0235 45.3656 52.9297 43.1186 54.6249C42.232 55.2939 41.3548 55.9392 40.3181 56.3422C39.9037 56.5027 39.4815 56.646 39.0624 56.7908C38.4463 57.0033 37.8318 57.2158 37.2126 57.4189C37.0187 57.4818 36.8154 57.5338 36.6122 57.5558C35.6349 57.6644 34.6576 57.7825 33.6771 57.8549C33.0642 57.9005 32.4465 57.8753 31.8305 57.8753C31.7085 57.8753 31.5818 57.8203 31.463 57.8328C29.9368 58.006 28.4357 57.6959 26.9315 57.5479C25.4491 57.4016 24.0668 56.8255 22.7768 56.0904C22.242 55.7866 21.7307 55.5001 21.1365 55.3081C20.0341 54.9523 19.1256 54.2078 18.2515 53.4743C17.2774 52.6573 16.3892 51.7334 15.4807 50.8378C14.1375 49.514 13.29 47.888 12.7677 46.0936C12.2439 44.3055 11.9234 42.4827 11.9531 40.5939ZM13.5965 40.4868H13.5918C13.5918 41.2329 13.6059 41.979 13.5887 42.7235C13.5699 43.5184 13.6731 44.2882 13.9436 45.0374C14.1391 45.5789 14.3205 46.1251 14.4956 46.6728C14.9334 48.0391 15.623 49.237 16.7066 50.194C17.1007 50.5419 17.4509 50.9432 17.8074 51.3304C18.9395 52.5582 20.3218 53.4113 21.8339 54.0677C22.2467 54.2472 22.7205 54.3353 23.0755 54.5918C24.6376 55.7141 26.4358 56.0447 28.2747 56.1911C29.7508 56.3092 31.2378 56.284 32.7186 56.3595C34.6779 56.4587 36.5418 55.9912 38.3901 55.4308C38.9358 55.2656 39.4753 55.0373 39.9709 54.754C41.655 53.7938 43.178 52.6038 44.5759 51.2627C45.131 50.7307 45.5892 50.0964 46.0896 49.5061C47.2623 48.1194 48.2256 46.6445 48.8338 44.88C49.3295 43.4382 49.6063 41.9522 49.9863 40.4947C50.3991 38.9127 50.5476 37.2506 50.4741 35.5789C50.3975 33.8428 50.1739 32.1695 49.6657 30.4869C48.9183 28.0109 47.4531 26.0937 45.5814 24.4488C43.9208 22.9912 41.9083 22.146 39.8411 21.455C38.756 21.093 37.6411 20.8128 36.5277 20.542C35.1736 20.2115 33.8163 19.8841 32.3996 20.01C32.0306 20.043 31.6569 20.0195 31.2847 20.0147C30.0244 19.999 28.8642 20.3752 27.7602 20.9481C26.8924 21.3983 26.0777 21.9728 25.177 22.3317C23.8166 22.8732 22.6799 23.7405 21.5806 24.6503C20.5126 25.5365 19.5244 26.5219 18.5299 27.4931C18.2421 27.7748 18.0326 28.1478 17.8262 28.502C17.268 29.4575 16.813 30.4837 16.1703 31.3762C14.8881 33.1565 14.3877 35.2547 13.6371 37.2521C13.5949 37.3655 13.5965 37.4977 13.5949 37.6221C13.5949 38.5791 13.5965 39.5329 13.5965 40.4868Z" fill="#010A38"/>
<path d="M53.922 44.4165C53.7047 45.2177 53.4608 46.041 53.2591 46.8721C53.0182 47.87 52.3553 48.5925 51.736 49.3464C51.6891 49.4047 51.6188 49.444 51.5593 49.4913C51.5437 49.4141 51.4983 49.3307 51.514 49.2631C51.8752 47.711 52.2348 46.1574 52.6179 44.6117C52.6946 44.3016 52.8431 43.9994 53.0073 43.724C53.0745 43.6106 53.3012 43.491 53.4045 43.5256C53.5655 43.5823 53.7141 43.7476 53.8079 43.9018C53.8876 44.0341 53.8829 44.2182 53.922 44.4165Z" fill="#010A38"/>
<path d="M44.5164 57.6582C44.4788 57.6362 44.4179 57.6094 44.3725 57.5669C44.3585 57.5543 44.3772 57.4819 44.4007 57.4567C45.0199 56.8145 45.6219 56.1518 46.2739 55.5443C46.5632 55.2751 46.9401 55.0894 47.3028 54.9194C47.5405 54.8076 47.8001 54.8973 47.9236 55.1523C48.0362 55.3853 48.0518 55.6592 47.8173 55.826C46.7899 56.558 45.747 57.2695 44.5164 57.6582Z" fill="#010A38"/>
<path d="M49.2244 52.0605C49.448 52.1896 49.631 52.2651 49.778 52.3879C49.9375 52.5186 49.8483 52.8318 49.6435 52.8696C49.4902 52.8995 49.3183 52.9074 49.1713 52.8664C48.9852 52.8129 48.735 52.7216 48.8163 52.4698C48.8664 52.3155 49.0665 52.2117 49.2244 52.0605Z" fill="#010A38"/>
<path d="M31.871 13.0962C31.7584 13.1481 31.5958 13.2804 31.4285 13.2867C31.0454 13.3024 30.8139 13.0049 30.9343 12.6287C30.9812 12.4807 31.1986 12.3013 31.3472 12.2919C31.6786 12.2714 31.9132 12.6193 31.871 13.0962Z" fill="#010A38"/>
<path d="M27.1953 38.2812C26.9733 36.6111 27.8677 35.5723 28.92 34.6845C29.3328 34.3366 29.9599 34.1477 30.5118 34.0848C31.278 33.9982 32.0974 33.9699 32.8339 34.1572C33.4469 34.3146 33.941 34.2123 34.3084 33.8566C35.9784 32.24 38.0112 31.1335 39.8767 29.7939C41.1714 28.8637 42.6037 28.127 44.0986 27.5383C44.4551 27.3982 44.7272 27.4659 45.0149 27.6784C45.6232 28.1254 45.803 28.7125 45.434 29.3673C45.0962 29.9686 44.8413 30.6234 44.2612 31.0783C43.9141 31.3506 43.6514 31.741 43.3887 32.1078C42.3473 33.5575 41.0463 34.7396 39.689 35.8745C38.7461 36.6631 37.847 37.5052 36.9213 38.3143C36.643 38.5567 36.335 38.7629 36.0457 38.9927C35.5641 39.3783 35.0481 39.7482 34.8651 40.3778C34.4883 41.6701 33.4312 42.1628 32.3054 42.4052C31.5642 42.5658 30.7433 42.4493 29.9739 42.3438C28.895 42.1959 28.2461 41.3664 27.7676 40.5069C27.3814 39.8175 26.8966 39.0667 27.1953 38.2812ZM28.3321 37.7161C28.3884 38.3678 28.3853 38.7865 28.4681 39.1878C28.9263 41.434 31.3844 41.741 32.7041 40.7021C33.6439 39.9623 33.916 38.788 33.7987 37.5855C33.7596 37.1841 33.6017 36.7921 33.4875 36.3986C33.2999 35.7533 32.5931 35.2165 31.9614 35.2496C31.3891 35.2795 30.8168 35.3172 30.2476 35.3786C29.5627 35.4526 28.9685 35.7029 28.7152 36.4112C28.5385 36.907 28.4181 37.4186 28.3321 37.7161ZM43.2448 29.9308C43.2245 29.8128 43.2292 29.7514 43.2073 29.7388C43.151 29.7058 43.0572 29.6554 43.0197 29.6775C42.6397 29.9167 42.2925 30.2205 41.8922 30.411C40.1863 31.22 38.7071 32.388 37.1387 33.4142C36.6321 33.7464 36.1802 34.1635 35.6892 34.5208C34.6931 35.2433 34.5711 35.1866 34.9933 36.6772C35.0481 36.874 35.1043 37.0707 35.1825 37.258C35.2717 37.4737 35.6469 37.5713 35.808 37.4123C36.0097 37.214 36.1505 36.9417 36.3741 36.7827C38.6242 35.1725 40.5178 33.1781 42.3817 31.1539C42.7319 30.7761 42.9821 30.3086 43.2448 29.9308Z" fill="#010A38"/>
<path d="M34.0693 27.4463C34.1037 28.5827 33.9754 29.4705 33.4813 30.2843C33.2999 30.5818 33.0529 30.7061 32.7589 30.577C32.429 30.4322 32.0803 30.2575 31.8379 30.0009C31.2484 29.3808 30.7152 28.7071 30.1648 28.0491C30.06 27.9248 30.01 27.7485 29.8927 27.6399C29.6581 27.4242 29.3767 27.0574 29.15 27.0811C28.7153 27.1283 28.9295 27.6084 28.8732 27.9043C28.7278 28.6693 28.598 29.4374 28.4541 30.2024C28.4244 30.3614 28.3947 30.5408 28.3024 30.6652C28.1367 30.8903 27.9725 31.1673 27.6082 31.0571C27.3251 30.9721 27.0077 30.6101 27.0421 30.3236C27.1563 29.3886 27.3064 28.4568 27.4299 27.5234C27.5159 26.8701 27.5894 26.2138 27.6567 25.5574C27.6864 25.2693 27.6754 24.9766 27.7051 24.6885C27.7364 24.3863 27.849 24.1203 28.157 24.0022C28.5104 23.8684 28.8075 23.9912 29.0452 24.2588C29.2641 24.5028 29.4783 24.7546 29.6691 25.0206C30.3884 26.0249 31.0983 27.0386 31.8129 28.046C31.8848 28.1467 31.9536 28.26 32.049 28.3293C32.1412 28.3954 32.2773 28.4568 32.3774 28.4364C32.4634 28.4175 32.5853 28.2821 32.5869 28.1971C32.5979 27.6178 32.6463 27.026 32.5556 26.4593C32.4321 25.6928 32.1882 24.9451 32.0068 24.1864C31.9693 24.0274 31.9646 23.859 31.9599 23.6937C31.9458 23.2026 32.0678 23.02 32.4337 22.9665C32.8699 22.9036 33.2937 23.0641 33.3453 23.4151C33.5564 24.8349 34.2725 26.1666 34.0693 27.4463Z" fill="#010A38"/>
<path d="M33.4346 52.212C33.15 53.0919 33.1203 53.997 32.3166 54.5463C31.8615 54.858 31.5582 54.9115 31.0828 54.6235C30.9421 54.5385 30.7842 54.4629 30.6763 54.3433C30.0993 53.7121 29.4691 53.1139 28.9875 52.4151C28.6013 51.8547 28.2854 51.2062 28.6998 50.4491C28.8687 50.1421 28.803 49.714 28.914 49.3646C29.2049 48.45 29.9069 48.003 30.792 48.1494C30.9859 48.1809 31.2142 48.2517 31.3409 48.3855C31.8475 48.9238 32.3385 49.4795 32.7998 50.0587C33.3158 50.7072 33.1813 51.5525 33.4346 52.212ZM32.0398 51.8783C32.0007 51.085 31.7536 50.3956 31.3815 49.7423C31.1798 49.3897 30.8373 49.3661 30.6294 49.6904C29.7428 51.0661 29.9945 52.1065 30.9874 53.1218C31.211 53.3516 31.5785 53.328 31.7067 53.0337C31.8647 52.6685 31.9335 52.2655 32.0398 51.8783Z" fill="#010A38"/>
<path d="M15.249 39.1539C15.3303 38.4534 15.3475 37.8584 15.5946 37.2571C15.8401 36.6606 16.2982 36.4906 16.7892 36.3033C16.9237 36.2529 17.1223 36.2844 17.2599 36.3474C18.4545 36.8983 19.435 37.6743 19.7665 39.0311C20.1198 40.4745 19.3146 41.8266 18.1434 42.1525C17.7181 42.2705 17.2411 42.5365 16.7454 42.217C16.0668 41.7794 15.5133 41.2521 15.3632 40.4257C15.2819 39.9802 15.2803 39.5191 15.249 39.1539ZM17.2067 40.9168C18.2278 40.9074 18.8783 39.7788 18.4358 38.8627C18.2747 38.529 18.0668 38.2174 17.8604 37.9073C17.5382 37.4225 17.2458 37.4618 16.9706 37.9781C16.7892 38.3196 16.625 38.6896 16.7705 39.0343C16.9941 39.5695 17.1066 40.0432 16.6751 40.5217C16.6454 40.5548 16.7204 40.7578 16.7939 40.7988C16.9331 40.8743 17.1035 40.8901 17.2067 40.9168Z" fill="#010A38"/>
<path d="M44.2568 37.6551C44.2631 36.6634 44.5445 36.0118 45.0371 35.4199C45.3764 35.0122 45.7971 34.9477 46.2552 35.0217C47.3732 35.2043 48.7211 36.6445 48.6523 37.7952C48.5945 38.7616 48.3114 39.7454 47.639 40.512C47.184 41.0299 46.4772 41.1463 45.9816 40.6898C45.0402 39.8257 44.3897 38.7585 44.2568 37.6551ZM47.3279 37.5339C47.2951 37.5244 47.2606 37.5166 47.2278 37.5071C47.2278 37.3844 47.2388 37.26 47.2263 37.1388C47.1825 36.7406 46.815 36.3108 46.4491 36.3171C46.1113 36.3219 45.8815 36.5406 45.7173 36.8586C45.3154 37.6362 45.439 38.5806 46.0644 39.2401C46.349 39.5408 46.7056 39.5313 46.8494 39.1583C47.0527 38.6325 47.1731 38.0754 47.3279 37.5339Z" fill="#010A38"/>
<path d="M47.0569 43.0379C46.9944 43.2787 46.9662 43.5321 46.8661 43.7525C46.3235 44.9488 45.684 46.0931 44.9209 47.1603C44.7802 47.3571 44.5941 47.5475 44.3861 47.6609C44.1438 47.7915 43.8545 47.834 43.584 47.9143C43.6559 47.6766 43.706 47.4279 43.806 47.2028C44.0328 46.6944 44.2564 46.1797 44.5331 45.6996C45.0679 44.7725 45.4119 43.7698 45.7419 42.7608C45.7935 42.605 45.7888 42.4145 45.8779 42.2918C45.9874 42.1422 46.1859 41.9345 46.3173 41.9534C46.5237 41.9817 46.7692 42.1391 46.8833 42.317C47.0084 42.509 47.0037 42.7876 47.0569 43.0379Z" fill="#010A38"/>
<path d="M42.3819 49.1531C42.7447 49.1232 42.9621 49.3436 42.9886 49.7591C43.0074 50.0519 42.8792 50.2345 42.5993 50.2959C42.2866 50.3651 42.0723 50.1762 42.0411 49.822C42.0035 49.3797 42.1083 49.1751 42.3819 49.1531Z" fill="#010A38"/>
<path d="M32.5902 37.9594C32.5902 38.6834 32.3072 39.1792 31.9647 39.642C31.8803 39.7569 31.7114 39.8073 31.5816 39.8892C31.5159 39.7601 31.4002 39.6341 31.3924 39.5035C31.3408 38.5653 31.4769 37.6131 31.1579 36.6923C31.1203 36.5821 31.2314 36.316 31.3283 36.283C31.494 36.2279 31.7583 36.2279 31.8818 36.3286C32.4307 36.7709 32.6496 37.3738 32.5902 37.9594Z" fill="#010A38"/>
</svg>
