<svg width="65" height="64" viewBox="0 0 65 64" fill="none" xmlns="http://www.w3.org/2000/svg">
<path d="M19.8148 10.6166C15.0964 10.8569 11.5169 14.9376 10.2873 19.195C8.9564 23.8053 14.0108 28.9943 18.4563 29.2132C23.5389 29.4635 27.9738 25.7457 27.9486 20.4467C27.926 15.6798 24.5252 9.23854 19.0261 10.9336C18.6903 11.0374 18.8626 11.5909 19.1997 11.5223C25.634 10.2128 27.6656 18.3547 26.3705 22.9374C25.3642 26.4992 21.9332 28.2263 18.4569 28.1943C14.0913 28.1534 10.4798 23.4324 11.1175 19.3309C11.7245 15.4269 16.036 11.4707 19.8519 10.9091C20.0425 10.8808 20.0029 10.6065 19.8148 10.6166Z" fill="#010A38"/>
<path d="M24.778 2.41972C22.6376 5.2532 24.2352 8.45148 27.0429 10.0566C29.8827 11.68 34.2081 10.9925 36.5742 8.85465C37.0793 8.39865 36.3459 7.78227 35.8453 8.03637C33.9181 9.01441 32.1671 9.80753 29.9556 9.72073C26.6668 9.59117 23.0616 6.25262 25.3164 2.78263C25.5453 2.43041 25.0296 2.087 24.778 2.41972Z" fill="#010A38"/>
<path d="M36.5497 8.8562C33.7735 9.34113 32.4395 12.1413 32.6854 14.7552C32.8986 17.0189 34.7239 20.1864 37.3485 19.8467C38.1045 19.7486 38.2291 18.536 37.407 18.4586C33.003 18.0454 32.8904 10.9217 36.7479 9.46755C37.0988 9.33484 36.9007 8.79456 36.5497 8.8562Z" fill="#010A38"/>
<path d="M24.422 2.66658C21.9684 5.67114 15.0266 5.75103 14.1831 1.37281C14.08 0.838191 13.2554 0.89417 13.2353 1.44074C13.024 7.1989 22.5207 6.65799 24.8013 2.94018C24.9403 2.71375 24.5919 2.45903 24.422 2.66658Z" fill="#010A38"/>
<path d="M12.6874 1.45423C12.5799 2.72222 12.6258 3.67636 11.9987 4.9129C11.3157 6.25888 10.0294 7.1778 8.95643 8.1854C7.3771 9.66787 4.08699 11.3415 1.86109 10.5692C1.46736 10.4327 1.0233 10.9283 1.34911 11.2698C3.16681 13.1762 7.4639 10.6843 9.06839 9.45088C11.8453 7.31681 13.7013 4.97642 13.3718 1.39259C13.334 0.985649 12.7189 1.08251 12.6874 1.45423Z" fill="#010A38"/>
<path d="M1.18684 12.1002C3.86182 13.0449 5.12352 17.0061 5.0361 19.5603C4.93798 22.4177 2.958 25.4908 0.257856 26.511C-0.0893318 26.6418 -0.105681 27.2142 0.330191 27.2092C3.32091 27.1752 5.6267 23.1668 5.91414 20.4975C6.24308 17.4445 4.97132 12.0719 1.251 11.6807C0.997524 11.6543 0.969847 12.0235 1.18684 12.1002Z" fill="#010A38"/>
<path d="M0.601885 27.944C4.15742 27.4717 6.3896 28.8529 8.28404 31.9002C9.94514 34.5714 9.6728 38.0106 7.6469 40.3227C7.18524 40.8497 7.94881 41.5196 8.44569 41.0441C10.7578 38.8314 11.1068 34.9211 9.57406 32.1147C7.5576 28.4233 4.69392 26.4628 0.530808 27.5817C0.301236 27.644 0.365395 27.9755 0.601885 27.944Z" fill="#010A38"/>
<path d="M8.10092 41.7016C11.0344 35.534 20.8708 35.9856 22.6985 42.7074C22.8696 43.3363 23.9414 43.0659 23.8049 42.43C22.1633 34.7799 10.1916 34.2729 7.53926 41.4796C7.40278 41.8482 7.93425 42.052 8.10092 41.7016Z" fill="#010A38"/>
<path d="M23.3635 41.7087C22.2069 40.2457 23.8774 37.4625 24.6932 36.1876C25.3542 35.1549 26.4423 34.4114 27.4826 33.8133C29.3469 32.7409 32.1388 32.1503 34.21 32.7887C34.7786 32.9642 35.0692 32.1535 34.5931 31.8553C32.142 30.3219 27.9392 32.2868 25.8832 33.7428C23.9592 35.1058 20.8986 39.8035 23.1038 41.9257C23.2579 42.0747 23.5025 41.8842 23.3635 41.7087Z" fill="#010A38"/>
<path d="M34.2049 32.1583C32.6678 31.8589 31.3105 27.2762 31.2123 26.3548C30.8595 23.0496 34.3974 20.4438 37.1799 19.8627C37.7303 19.7476 37.641 18.8242 37.0692 18.8745C33.9074 19.1532 30.328 22.1628 30.1745 25.5252C30.0915 27.3479 30.5337 29.1738 31.713 30.6211C32.3866 31.4475 32.886 32.8835 34.1188 32.8992C34.5433 32.9042 34.627 32.24 34.2049 32.1583Z" fill="#010A38"/>
<path d="M26.7373 43.6924C32.4829 43.8526 38.3081 42.7739 44.0319 42.3165C50.3929 41.8076 57.259 41.2923 63.4939 40.0128C64.1049 39.8874 63.9861 39.0146 63.3989 38.961C57.9354 38.4644 52.129 40.0266 46.7321 40.7805C40.158 41.6989 33.36 42.7862 26.7461 43.2669C26.5076 43.2828 26.493 43.6858 26.7373 43.6924Z" fill="#010A38"/>
<path d="M27.1635 42.8813C26.7198 42.7704 27.0859 40.3659 27.1178 40.0477C27.2526 38.6675 27.7195 37.4721 28.4103 36.2739C29.133 35.0205 30.0051 33.7491 31.2446 32.9633C33.3215 31.6476 34.772 33.9854 36.2797 34.9256C36.7806 35.2387 37.333 34.5965 37.051 34.1209C35.9275 32.226 34.0768 31.0126 31.8644 31.225C29.7419 31.4287 28.2725 33.8542 27.3055 35.4634C26.1298 37.4185 25.5803 39.6048 25.8587 41.886C25.9442 42.587 26.3436 43.8005 27.228 43.3358C27.4476 43.2205 27.3911 42.9378 27.1635 42.8813Z" fill="#010A38"/>
<path d="M36.632 34.3788C36.2145 34.3172 37.823 31.6866 38.1311 31.3785C39.1496 30.3651 40.5479 29.7873 41.9165 29.4459C45.9853 28.431 48.3202 31.8895 48.8392 35.3502C48.9733 36.241 50.4847 36.025 50.3977 35.1327C49.9933 31.003 47.3749 28.0171 43.1336 27.8366C39.5388 27.6829 34.6233 30.9551 35.7708 34.9594C35.8259 35.1508 36.0724 35.2617 36.2558 35.2349C36.3652 35.2189 36.4762 35.2023 36.5863 35.1863C37.0234 35.1211 37.1141 34.4498 36.632 34.3788Z" fill="#010A38"/>
<path d="M49.8993 32.7758C50.3661 32.0241 51.1809 31.9299 51.9667 31.861C52.5031 31.8146 53.0801 32.3213 53.5252 32.5787C54.1283 32.9281 54.3559 33.1317 54.6597 33.758C54.9032 34.2597 55.2439 34.6917 55.7231 34.9781C56.2921 35.318 57.038 34.8128 56.7633 34.1444C56.4668 33.4268 56.0775 32.3554 55.4549 31.8617C54.7372 31.2927 53.8014 30.9346 52.9692 30.5779C51.5875 29.9864 49.6724 31.1564 49.2759 32.5156C49.1671 32.8954 49.6985 33.0991 49.8993 32.7758Z" fill="#010A38"/>
<path d="M56.3057 33.5367C57.6243 32.3174 59.7112 32.4196 61.1132 33.4504C63.0922 34.9067 61.2821 37.3446 62.1991 39.0749C62.5681 39.7715 63.4169 39.8244 63.8142 39.1177C64.4086 38.0622 64.0911 36.2623 63.8562 35.1119C63.6199 33.9564 62.8928 32.9713 61.9222 32.3167C60.1107 31.0945 57.2227 31.4098 55.9048 33.1779C55.72 33.4243 56.0796 33.7469 56.3057 33.5367Z" fill="#010A38"/>
<path d="M13.5286 49.7892C13.102 47.8179 9.72991 48.5987 8.55669 49.2389C5.08916 51.1312 5.31603 57.2998 0.909853 58.1261C0.51156 58.2006 0.547532 58.8372 0.950597 58.7612C3.08999 58.36 4.26248 56.635 5.37476 54.9078C6.12509 53.7423 6.68931 52.4832 7.39375 51.292C8.13711 50.0351 9.33198 49.313 10.7589 49.1291C11.3884 49.048 12.8898 49.3046 13.3061 49.8747C13.3825 49.98 13.559 49.9312 13.5286 49.7892Z" fill="#010A38"/>
<path d="M0.82767 58.7594C3.73906 61.3584 8.38715 63.1902 12.0735 61.0835C15.8332 58.9345 17.0629 54.5313 15.4121 50.6607C15.3204 50.4456 14.9955 50.5931 15.0825 50.8082C16.7851 55.0342 15.1816 59.3563 10.9157 61.1815C9.23401 61.901 7.08617 61.3191 5.37921 60.9612C3.7273 60.6147 2.32613 59.5163 1.03361 58.4944C0.862178 58.3589 0.667252 58.6166 0.82767 58.7594Z" fill="#010A38"/>
<path d="M14.7259 50.9661C15.4557 50.5546 15.9113 49.82 16.6322 49.3997C17.2189 49.058 17.6183 48.6817 18.2838 48.4559C18.6292 48.3388 18.6461 48.3631 18.8935 48.1333C18.9754 48.0573 18.9757 47.8932 18.8851 47.8227C18.6813 47.663 18.5389 47.4736 18.3866 47.2739C18.2985 47.166 18.2122 47.0555 18.1292 46.9432C17.8906 46.7211 17.8591 46.4685 18.0345 46.1855C18.5073 46.4079 19.033 47.6054 18.6142 48.0246C18.4475 48.1916 18.6824 48.4746 18.8535 48.3069C19.9067 47.2743 17.7882 44.9407 17.3752 45.8738C17.1847 46.3033 17.3099 46.6561 17.5467 47.0423C17.5786 47.0948 18.3414 48.0826 18.4886 47.924C18.2529 48.178 17.5665 48.312 17.246 48.4912C16.9399 48.6622 16.6825 48.8946 16.4303 49.1339C16.2248 49.3292 15.981 49.468 15.7802 49.6787C15.3794 50.0986 15.1944 50.5248 14.6661 50.8714C14.6059 50.9114 14.6632 51.0013 14.7259 50.9661Z" fill="#010A38"/>
<path d="M13.3701 50.2888C14.5037 48.8696 15.7276 46.8943 17.7972 46.8767C18.0259 46.8749 18.0714 46.5526 17.8358 46.5173C15.6776 46.1958 14.1003 48.5506 13.0856 50.0799C12.9597 50.269 13.2273 50.4669 13.3701 50.2888Z" fill="#010A38"/>
<path d="M12.799 52.5398C11.8083 54.1884 10.5756 55.4971 9.11603 56.7338C7.71264 57.9232 3.93786 60.5292 2.24044 58.0737C2.05653 57.8079 1.64685 58.1097 1.78121 58.3843C2.81933 60.502 5.34234 59.2884 6.94432 58.6779C8.21775 58.1926 9.30654 56.9453 10.3094 56.0606C11.4401 55.0632 12.284 53.9619 12.9224 52.6008C12.9606 52.5189 12.8438 52.4649 12.799 52.5398Z" fill="#010A38"/>
<path d="M8.17621 53.9026C8.76171 54.9172 10.211 54.9437 11.2333 54.7634C11.4316 54.7286 11.4294 54.4441 11.23 54.4136C10.2903 54.2693 9.02528 54.6427 8.35277 53.7833C8.27825 53.6875 8.11527 53.7969 8.17621 53.9026Z" fill="#010A38"/>
<path d="M11.2495 54.4542C11.6364 55.9244 11.4525 57.3271 11.0054 58.7543C10.9224 59.0197 11.3126 59.1122 11.4118 58.867C12.0119 57.3836 12.1724 55.8591 11.5347 54.357C11.4591 54.1786 11.2003 54.2663 11.2495 54.4542Z" fill="#010A38"/>
<path d="M5.74165 57.2912C6.2787 57.1987 6.81833 57.4699 7.30913 57.6612C7.76285 57.8378 8.31752 57.9394 8.79694 58.0547C8.95772 58.0932 9.05353 57.8601 8.92542 57.7654C8.41296 57.3888 7.82783 57.413 7.24893 57.2089C6.72656 57.025 6.21446 56.8672 5.6642 57.0269C5.48873 57.0783 5.57169 57.3205 5.74165 57.2912Z" fill="#010A38"/>
<path d="M9.04371 57.8998C8.9501 59.0124 8.1605 59.9349 7.38924 60.6805C7.21965 60.8442 7.4388 61.1412 7.64216 61.0131C8.64615 60.3806 9.34068 59.0697 9.33628 57.8862C9.33518 57.6928 9.05913 57.7185 9.04371 57.8998Z" fill="#010A38"/>
</svg>
