<svg width="355" height="228" viewBox="0 0 355 228" fill="none" xmlns="http://www.w3.org/2000/svg">
<path d="M281.389 104.334C281.575 104.003 281.191 103.617 280.825 103.792C277.859 105.218 275.486 107.904 276.52 111.362C277.413 114.344 280.385 116.194 283.424 115.292C286.204 114.465 288.31 111.606 287.621 108.67C287.018 106.094 284.14 103.608 281.389 104.334ZM282.358 113.645C280.124 113.972 278.378 112.166 278.053 110.066C277.704 107.823 279.17 106.445 280.643 105.09C280.694 105.335 280.89 105.558 281.214 105.601C283.251 105.864 285.25 106.724 285.835 108.919C286.442 111.18 284.539 113.324 282.358 113.645Z" fill="#010A38"/>
<path d="M267.737 117.536C266.028 115.994 262.782 115.858 261.403 117.909C261.261 118.119 261.346 118.372 261.515 118.531C260.75 119.688 260.681 121.337 261.275 122.617C262.387 125.013 265.303 125.308 267.255 123.743C269.191 122.188 269.691 119.301 267.737 117.536ZM266.363 122.613C265.067 123.647 263.225 123.504 262.498 121.887C261.908 120.574 262.174 119.039 263.14 118.016C264.287 117.55 265.565 117.61 266.644 118.463C268.091 119.608 267.682 121.559 266.363 122.613Z" fill="#010A38"/>
<path d="M253.076 133.772C252.218 131.761 249.55 130.567 247.636 131.855C247.521 131.932 247.453 132.042 247.415 132.162C246.161 133.075 245.561 134.758 245.953 136.304C246.483 138.395 248.707 139.26 250.647 138.58C252.619 137.889 253.945 135.808 253.076 133.772ZM250.031 137.247C247.302 138.051 246.278 134.697 247.705 132.931C247.814 132.98 247.945 132.993 248.096 132.934C249.454 132.405 251.225 132.959 251.773 134.411C252.266 135.716 251.237 136.892 250.031 137.247Z" fill="#010A38"/>
<path d="M327.255 82.8996C319.931 79.8497 311.746 79.2576 303.947 80.3717C289.083 82.4963 276.552 91.0813 265.636 101.103C265.52 100.762 265.238 100.468 264.793 100.42C257.24 99.5836 249.895 100.448 242.568 102.38C239.005 103.319 230.388 104.392 228.596 108.488C225.29 116.044 241.723 119.753 247.129 120.076C242.895 124.611 238.618 129.105 234.055 133.313C229.532 137.484 224.882 141.496 219.185 143.507C217.357 141.401 216.096 137.16 212.613 137.796C209.879 138.296 208.053 142.191 207.148 144.985C204.698 145.04 202.259 145.196 199.793 145.949C199.199 146.13 198.95 146.676 199.047 147.26C200.488 155.835 204.258 175.099 216.375 172.845C223.517 171.517 231.246 167.015 237.451 163.452C243.942 159.725 250.328 155.372 255.841 150.24C255.562 155.794 254.948 161.329 253.911 166.824C253.307 170.026 250.892 174.956 253.949 177.621C261.331 184.057 274.063 163.921 276.908 159.189C280.577 153.086 283.46 146.545 286.093 139.943C287.427 136.6 289.303 132.481 289.535 128.521C289.853 128.791 290.31 128.906 290.787 128.671C301.204 123.513 311.168 117.461 320.571 110.627C325.482 107.057 337.463 100.561 338.453 94.0808C339.356 88.1744 331.625 84.7187 327.255 82.8996ZM306.935 82.6442C307.029 82.5617 307.092 82.473 307.136 82.3829C309.875 82.1535 312.677 82.1555 315.553 82.4429C318.296 82.7183 321.608 83.2569 324.714 84.2385C320.913 90.8203 315.205 94.9116 308.654 98.6012C306.101 100.039 304.771 100.486 301.649 101.031C296.744 103.165 294.592 100.687 295.193 93.5944C296.156 92.4692 297.12 91.3437 298.084 90.2185C300.825 87.5068 304.031 85.1854 306.935 82.6442ZM236.268 115.31C233.853 114.02 229.503 111.303 232.329 107.877C233.438 106.533 237.89 105.82 239.508 105.322C247.641 102.819 255.864 101.482 264.359 102.288C261.547 104.927 258.84 107.646 256.233 110.366C253.428 113.292 250.677 116.272 247.912 119.24C247.876 119.22 247.861 119.181 247.814 119.172C243.76 118.358 239.938 117.27 236.268 115.31ZM209.238 143.332C209.804 142.367 210.715 140.453 211.755 139.939C212.81 139.99 213.864 140.043 214.92 140.094C215.169 140.392 215.416 140.69 215.665 140.986C215.963 141.41 216.188 141.889 216.451 142.336C216.813 142.952 217.165 143.501 217.579 144.018C216.652 144.273 215.697 144.475 214.711 144.616C212.564 144.922 210.456 144.937 208.362 144.966C208.636 144.413 208.923 143.866 209.238 143.332ZM321.676 106.833C311.575 114.413 300.815 120.886 289.652 126.766C289.6 126.792 289.577 126.832 289.534 126.863C289.457 125.774 289.232 124.707 288.801 123.684C286.741 118.804 283.671 119.623 279.507 121.5C271.487 125.115 264.136 129.606 257.434 135.295C256.898 135.75 257.611 136.642 258.195 136.261C262.608 133.382 267.073 130.559 271.674 127.992C273.469 126.99 275.973 124.987 278.058 124.662C278.972 123.877 279.792 123.497 280.527 123.472C281.356 123.024 282.312 122.826 283.298 122.955C285.035 123.183 286.731 124.485 287.145 126.261C287.461 127.62 287.483 128.912 287.16 130.27C287.084 130.591 286.971 130.904 286.877 131.22C286.821 131.412 286.774 131.605 286.725 131.798C286.709 131.863 286.698 131.905 286.688 131.938C286.572 132.62 286.333 133.237 286.005 133.783C285.46 138.083 282.309 143.147 280.503 147.027C278.591 151.133 276.494 155.155 274.072 158.988C271.861 162.485 269.364 165.793 266.547 168.82C266.381 169.117 266.203 169.408 265.973 169.674C265.812 169.859 265.642 170.037 265.479 170.221C264.298 171.988 262.883 173.577 260.848 174.803C258.939 175.955 256.906 175.437 255.519 174.193C255.705 172.991 255.829 171.777 255.898 170.556C256.397 169.299 256.322 167.39 256.282 166.557C256.294 166.544 256.307 166.533 256.32 166.521C256.527 165.607 256.687 164.91 256.714 164.752C258.197 155.625 258.599 146.43 258.175 137.2C258.109 135.743 255.844 135.736 255.904 137.2C256.052 140.872 256.069 144.541 255.941 148.2C246.766 154.748 237.765 161.123 227.463 165.906C224.843 167.121 219.874 170.379 216.732 170.266C216.661 170.263 216.598 170.244 216.527 170.239C221.292 169.614 219.961 163.056 221.599 160.066C221.955 159.414 221.341 158.831 220.778 158.88C220.668 158.597 220.397 158.359 220.019 158.413C217.247 158.82 214.49 159.399 211.755 159.999C211.457 160.065 211.518 160.561 211.828 160.537C214.56 160.335 217.302 160.094 220.016 159.713C218.929 162.312 219.679 166.407 217.388 168.137C213.432 171.125 212.213 162.544 211.319 160.498C211.111 160.021 210.323 160.368 210.479 160.858C211.251 163.269 211.387 168.07 213.882 169.712C210.121 168.466 207.283 165.199 205.696 161.775C204.358 158.891 202.511 155.142 202.204 151.95C201.781 147.56 201.475 147.093 207.262 146.909C216.682 146.611 222.663 145.427 230.368 139.416C239.484 132.303 247.159 123.419 255.05 115.031C268.402 100.835 284.507 85.6312 304.195 82.7137C299.552 86.1536 292.977 90.4352 292.362 96.2513C291.949 100.164 294.487 102.966 298.19 103.71C304.032 104.885 310.309 100.151 314.837 97.0923C319.598 93.8756 323.737 90.0428 325.586 84.5273C328.095 85.4028 330.416 86.5873 332.116 88.1887C340.328 95.9208 326.36 103.318 321.676 106.833Z" fill="#010A38"/>
<path d="M194.498 170.012C194.339 169.688 193.874 169.976 194.019 170.297C198.016 179.128 184.038 186.787 178.012 189.887C170.306 193.85 161.056 196.342 152.442 194.102C149.685 193.385 146.923 191.911 144.407 189.95C146.874 188.26 149.167 186.398 151.211 184.339C158.021 177.47 164.178 161.697 151.189 157.571C139.651 153.906 131.428 166.912 133.729 177.071C134.876 182.13 137.576 186.255 141.177 189.353C140.035 190.004 138.882 190.63 137.721 191.215C125.65 197.285 111.85 201.608 98.4074 203.084C68.9611 206.321 40.8341 189.753 34.8438 159.532C31.9037 144.697 35.117 129.904 42.3977 116.827C47.7568 107.202 54.7523 98.0739 57.4681 87.2207C64.6932 58.344 35.5983 41.3791 11.4087 37.6326C10.7424 37.5294 10.4625 38.5459 11.1359 38.6551C30.5863 41.8321 52.3069 51.3025 56.7889 72.7281C60.7088 91.4677 45.3911 106.386 37.8962 121.944C24.1807 150.416 34.5566 186.832 63.9742 200.527C78.0476 207.078 94.0521 206.895 108.952 203.618C120.049 201.177 132.891 197.376 143.063 190.825C149.088 195.085 157.022 196.834 164.47 195.678C173.396 194.295 200.965 183.132 194.498 170.012ZM141.726 159.613C147.262 156.428 155.163 158.56 157.119 165.003C158.469 169.446 156.272 174.707 153.822 178.383C151 182.615 146.996 185.845 142.663 188.484C133.942 180.501 129.392 166.708 141.726 159.613Z" fill="#010A38"/>
</svg>
