<svg width="38" height="64" viewBox="0 0 38 64" fill="none" xmlns="http://www.w3.org/2000/svg">
<path d="M21.8022 0C22.5066 0.0973913 23.228 0.131358 23.9109 0.311419C24.5836 0.489215 25.2166 0.805188 25.7579 1.28535C26.0965 1.58545 26.1973 1.98068 26.3411 2.36459C26.3808 2.46877 26.391 2.62051 26.3434 2.7145C26.0648 3.26148 25.9572 3.91832 25.3457 4.25919C25.1419 4.37357 24.9494 4.53095 24.7976 4.70875C24.6889 4.83558 24.5688 5.0519 24.6062 5.18553C24.7795 5.80952 24.5032 6.40857 24.5632 7.02802C24.6209 7.6203 24.5756 8.22277 24.5756 8.82071C24.5756 9.44809 24.5756 10.0766 24.5756 10.704C24.5756 10.9135 24.5643 11.1241 24.5847 11.3314C24.6187 11.6768 24.7772 11.7844 25.1611 11.8002C26.3774 11.8546 27.5936 11.9101 28.8088 11.9837C29.0692 11.9995 29.324 12.0969 29.5822 12.1569C30.9434 12.4718 32.1506 13.0754 33.1676 14.0447C33.7168 14.5679 34.0894 15.2123 34.3374 15.9099C34.6749 16.86 35.0044 17.8215 35.2162 18.8045C35.5446 20.3344 35.993 21.8417 36.0248 23.4339C36.0406 24.2527 36.2977 25.0635 36.3894 25.8846C36.4925 26.8007 36.5333 27.7248 36.5989 28.6444C36.6669 29.5889 36.7337 30.5333 36.8028 31.4778C36.8333 31.8934 36.8741 32.3079 36.8968 32.7235C36.9194 33.138 36.8526 33.557 37.0395 33.9579C37.0984 34.0836 37.0429 34.258 37.0814 34.3984C37.2014 34.84 36.8764 35.2398 37.0157 35.7064C37.1312 36.0937 37.0689 36.5353 37.0757 36.9521C37.0825 37.4005 37.0961 37.8501 37.07 38.2974C37.0542 38.5556 36.9523 38.8082 36.9126 39.0664C36.8571 39.4378 36.8084 39.8115 36.7824 40.1875C36.7042 41.2826 36.6272 42.3777 36.5729 43.4728C36.5095 44.7547 36.4777 46.0366 36.4155 47.3186C36.3973 47.7014 36.317 48.0796 36.2818 48.4624C36.2547 48.7591 36.2467 49.0569 36.2422 49.3548C36.232 50.1588 36.2275 50.9538 36.035 51.751C35.89 52.3512 35.9602 52.999 35.8526 53.6128C35.685 54.5754 35.4586 55.5334 34.9795 56.3986C34.7213 56.8641 34.4144 57.3057 34.0973 57.7349C33.8561 58.0633 33.5186 58.2208 33.0872 58.1857C32.761 58.1596 32.4292 58.1777 32.1019 58.2061C31.7328 58.2366 31.7112 58.3034 31.82 58.7066C31.8585 58.8481 31.8687 58.9999 31.8698 59.1483C31.8743 59.8957 31.9049 60.6454 31.8607 61.3894C31.8279 61.9477 31.7226 62.506 31.3862 62.9884C30.8121 63.8128 29.6298 64.0654 28.7838 63.5048C28.4645 63.293 28.1836 63.0178 27.9107 62.7472C27.819 62.6566 27.7737 62.489 27.7635 62.3531C27.6956 61.463 27.6185 60.5718 27.5914 59.6805C27.5563 58.5152 27.7001 58.6024 26.5268 58.6307C25.6696 58.6511 24.8135 58.7564 23.9573 58.8221C23.6006 58.8493 23.2439 58.8629 22.8883 58.9014C22.4466 58.9489 22.0095 59.0475 21.5667 59.0701C20.6131 59.1188 19.6574 59.1267 18.7027 59.163C18.3177 59.1777 17.9326 59.2082 17.5499 59.2569C17.2894 59.2898 17.0425 59.3917 16.7866 59.2128C16.7028 59.1539 16.5499 59.155 16.4401 59.1799C14.9067 59.5299 13.3541 59.2649 11.8117 59.3385C11.1741 59.0135 10.4879 59.2864 9.82763 59.1766C9.27386 59.0837 9.15383 59.2434 9.14138 59.8232C9.13911 59.9421 9.14138 60.0621 9.14704 60.1822C9.18328 60.8651 9.21044 61.549 9.2614 62.2308C9.34067 63.31 8.59326 63.891 7.53894 63.9895C6.63184 64.0744 5.93652 63.6407 5.52883 62.8038C5.20042 62.13 4.98411 61.4313 5.02941 60.6669C5.04753 60.369 5.03735 60.0689 5.03169 59.77C5.02603 59.4415 5.12115 59.0407 4.96713 58.8074C4.82218 58.5888 4.40544 58.556 4.11326 58.4314C2.45988 57.7225 1.36253 56.4371 0.955978 54.7135C0.847263 54.256 0.968437 53.7555 0.717032 53.3206C0.770257 52.5642 0.364826 51.8914 0.344442 51.135C0.32519 50.417 0.121358 49.7047 0.0432181 48.9856C-0.00547757 48.5428 -0.021356 48.0841 0.0397967 47.6459C0.167764 46.7229 0.124758 45.8124 0.0534132 44.8883C-0.0201965 43.9405 0.034164 42.9824 0.0488859 42.03C0.0556807 41.585 0.125896 41.1399 0.122498 40.6948C0.119101 40.2906 0.324066 39.8919 0.140608 39.4797C0.0964419 39.3801 0.100969 39.2283 0.145135 39.1264C0.420322 38.4945 0.299131 37.832 0.303661 37.1842C0.317251 34.8219 0.304815 32.4608 0.31161 30.0985C0.313875 29.4122 0.270834 28.7112 0.388609 28.0419C0.600379 26.8358 0.544906 25.6139 0.70345 24.4079C0.714774 24.3195 0.728335 24.2289 0.723805 24.1406C0.66605 22.9708 0.949162 21.8462 1.16773 20.7127C1.19604 20.5677 1.19833 20.4159 1.20626 20.2676C1.25496 19.228 1.47123 18.2269 1.75435 17.2247C1.87552 16.7977 1.96952 16.3753 2.16996 15.9744C2.41797 15.4784 2.7747 15.0911 3.23447 14.7967C3.93094 14.3494 4.66024 13.987 5.44164 13.6846C6.34987 13.3336 7.25696 13.1693 8.21275 13.1603C8.33166 13.1592 8.45623 13.1648 8.56948 13.132C9.2297 12.944 9.90352 12.8557 10.5864 12.8138C10.7336 12.8047 10.8842 12.773 11.0213 12.7209C11.2942 12.6178 11.4663 12.4389 11.4357 12.1139C11.361 11.3155 11.2964 10.5171 11.2251 9.71875C11.1798 9.21594 11.1039 8.71427 11.0869 8.21146C11.0631 7.49688 11.045 6.77888 11.096 6.06657C11.1254 5.66455 10.9907 5.43466 10.651 5.29536C10.1742 5.10058 9.90804 4.72574 9.74044 4.26596C9.69061 4.13007 9.62721 3.97153 9.65552 3.84129C9.72234 3.52873 9.87749 3.22749 9.67025 2.91267C9.84917 2.4812 9.94089 2.03048 10.3463 1.69188C11.3293 0.868581 12.4731 0.563977 13.712 0.494897C14.8671 0.430347 16.0222 0.359008 17.1784 0.29559C17.6257 0.270676 18.073 0.24802 18.5204 0.245755C19.3165 0.241225 20.1104 0.231025 20.8997 0.088335C21.1884 0.0362419 21.4954 0.0804208 21.7943 0.0804208C21.7966 0.0509769 21.7988 0.0260465 21.8022 0ZM1.24701 44.6086C1.22662 44.6086 1.20625 44.6086 1.18587 44.6086C1.18587 45.5327 1.17001 46.4568 1.1904 47.3798C1.21644 48.5134 1.21079 49.6537 1.3331 50.7794C1.44181 51.7782 1.70451 52.76 1.90496 53.7476C1.95139 53.9774 2.08504 54.2062 2.06919 54.4282C2.02049 55.0771 2.32283 55.5289 2.69088 56.034C3.25032 56.8018 4.00793 57.2072 4.82896 57.5549C5.79948 57.966 6.85607 58.0011 7.87642 58.1302C8.95791 58.2672 10.0643 58.1936 11.1594 58.2253C14.8557 58.3351 16.7175 58.2887 20.0911 58.035C21.0424 57.9637 21.9982 57.9569 22.9517 57.9184C23.2201 57.9082 23.4885 57.9014 23.7557 57.8753C24.4352 57.8108 25.1124 57.6896 25.793 57.676C27.5178 57.6421 29.2493 57.7395 30.9548 57.3782C31.7328 57.2129 32.5504 57.1789 33.231 56.6863C33.5424 56.4609 33.872 56.2628 34.1811 56.034C34.291 55.9525 34.3974 55.8335 34.445 55.709C34.7247 54.9899 35.009 54.2753 35.0124 53.478C35.0146 53.0658 35.1097 52.6547 35.1709 52.2436C35.3 51.3683 35.5004 50.4974 35.5514 49.6186C35.6375 48.1362 35.6273 46.6493 35.6613 45.1646C35.6658 44.9574 35.6839 44.7491 35.7077 44.5429C35.7462 44.2213 35.8221 43.902 35.8334 43.5804C35.8685 42.5951 35.873 41.6088 35.907 40.6235C35.9263 40.0596 35.9546 39.4922 36.0282 38.9339C36.1007 38.3846 36.3498 37.8467 36.0531 37.2918C36.0327 37.2533 36.0836 37.1809 36.0882 37.1242C36.1108 36.8966 36.1527 36.6667 36.1437 36.4391C36.112 35.6996 36.0372 34.9612 36.0237 34.2217C36.001 32.976 36.0338 31.7303 35.9036 30.488C35.8504 29.9841 35.9195 29.4564 35.7994 28.9728C35.6771 28.4824 35.9489 27.974 35.6646 27.5153C35.4789 26.076 35.2932 24.6378 35.1098 23.1984C35.0452 22.6956 35.0214 22.186 34.9206 21.6911C34.7315 20.7636 34.4937 19.8463 34.2865 18.9222C34.1777 18.433 34.1347 17.9257 33.9864 17.45C33.7383 16.6562 33.3442 15.9359 32.8539 15.2485C31.9819 14.0255 30.7509 13.4559 29.358 13.1693C28.7499 13.0436 28.0919 13.1444 27.4928 12.9983C27.0161 12.8817 26.554 12.8681 26.0818 12.8647C25.2234 12.8591 24.3718 12.9315 23.5156 12.9972C22.1544 13.1025 20.7796 13.0334 19.4116 13.0663C18.8545 13.0799 18.2996 13.1818 17.7412 13.2158C17.1512 13.252 16.568 13.2588 15.9723 13.3641C15.1287 13.5136 14.2465 13.44 13.3847 13.5034C12.4368 13.5725 11.4822 13.628 10.5513 13.8024C9.76082 13.9496 8.9647 14.0074 8.17311 14.1217C7.50043 14.2191 6.81529 14.2837 6.16639 14.4706C5.57185 14.6416 5.02377 14.9654 4.44735 15.2032C3.52553 15.5826 3.04195 16.3119 2.78489 17.2315C2.70561 17.5169 2.5935 17.7977 2.55499 18.0887C2.44401 18.9437 2.07824 19.7512 2.12241 20.6368C2.14392 21.0807 2.12241 21.5393 2.02955 21.9719C1.87327 22.7035 1.77928 23.4351 1.78154 24.1814C1.78154 24.4203 1.8393 24.6887 1.7521 24.8925C1.55279 25.358 1.61846 25.8313 1.60487 26.3036C1.57996 27.1699 1.56411 28.0362 1.54146 28.9026C1.53693 29.0509 1.51541 29.1993 1.49729 29.3465C1.45426 29.6976 1.37159 30.0498 1.37045 30.4008C1.36932 31.5061 1.42707 32.6125 1.40781 33.7167C1.37611 35.5558 1.27985 37.3949 1.25153 39.2351C1.22549 41.0233 1.24701 42.8159 1.24701 44.6086ZM21.5305 9.7765C21.5339 9.7765 21.5384 9.7765 21.5418 9.7765C21.5418 9.35862 21.5588 8.93962 21.5384 8.52287C21.4908 7.5467 21.2179 6.58979 21.287 5.60115C21.3051 5.34748 21.1228 5.22631 20.8748 5.26481C20.5531 5.31464 20.2349 5.39842 19.9122 5.42787C18.7027 5.53771 17.4921 5.63624 16.2804 5.73023C15.8942 5.75968 15.5069 5.76081 15.1196 5.78007C14.9124 5.79026 14.7029 5.80158 14.4979 5.83329C14.3031 5.86273 14.1729 5.97486 14.174 6.1923C14.1751 6.37122 14.1321 6.56599 14.1876 6.7268C14.5455 7.76753 14.1853 8.86375 14.4469 9.91014C14.311 10.5941 14.5273 11.2623 14.5409 11.9406C14.5477 12.269 14.7221 12.3936 15.063 12.4378C15.4865 12.4921 15.8863 12.3064 16.2917 12.2906C17.7752 12.2339 19.2384 11.8976 20.7298 11.978C20.8782 11.9859 21.0288 11.9769 21.1783 11.9723C21.4444 11.9655 21.535 11.8115 21.5327 11.5635C21.5282 10.9667 21.5305 10.3722 21.5305 9.7765ZM13.8286 4.80389C14.8546 4.7835 15.7651 4.77443 16.6847 4.64533C17.6473 4.50943 18.6393 4.63515 19.6087 4.42338C20.0673 4.3226 20.5452 4.27728 21.0152 4.26935C21.9393 4.25236 22.8498 4.15385 23.7342 3.88999C24.3027 3.72125 24.8644 3.51403 25.2687 3.0384C25.5303 2.73037 25.4895 2.38723 25.1577 2.13922C24.9924 2.01578 24.8338 1.87537 24.6515 1.77911C24.1872 1.53336 23.7331 1.18567 23.2371 1.10187C22.5281 0.981831 21.7853 1.04072 21.0582 1.0577C19.7242 1.09055 18.3913 1.14719 17.0572 1.19702C16.9089 1.20268 16.7617 1.21967 16.6145 1.24118C16.3246 1.28195 16.0358 1.35554 15.7447 1.37026C14.8524 1.41669 13.9588 1.41672 13.0687 1.48127C12.2828 1.53903 11.5648 1.82438 10.9861 2.37136C10.207 3.10632 10.4154 4.155 11.3859 4.591C11.7222 4.74162 12.0552 4.81294 12.4176 4.80728C12.9227 4.79822 13.43 4.80389 13.8286 4.80389ZM13.4696 9.72556C13.4696 9.48434 13.4775 9.33484 13.4685 9.18649C13.4085 8.18314 13.3428 7.17979 13.2828 6.17643C13.2692 5.9556 13.1401 5.87633 12.9453 5.83443C12.2556 5.68608 11.9431 5.88766 11.9986 6.5626C12.0835 7.59427 11.8389 8.64291 12.1662 9.65986C11.9872 10.0811 12.2556 10.4571 12.2873 10.8557C12.3224 11.2997 12.3247 11.747 12.3406 12.1932C12.3485 12.4151 12.4776 12.5046 12.6837 12.5091C12.8026 12.5114 12.9227 12.517 13.0416 12.5136C13.5376 12.4989 13.7335 12.3246 13.6055 11.8546C13.4039 11.1151 13.5104 10.3733 13.4696 9.72556ZM23.6368 8.46627C23.6379 8.46627 23.6379 8.46627 23.6368 8.46627C23.6379 7.66109 23.6379 6.85703 23.6368 6.05299C23.6368 5.84461 23.6334 5.63624 23.6266 5.42787C23.6187 5.22063 23.51 5.09831 23.3016 5.08019C23.1838 5.06887 23.0627 5.06323 22.9449 5.07342C22.3243 5.12891 22.1193 5.42107 22.2484 6.02354C22.3039 6.28061 22.3402 6.54449 22.3583 6.80722C22.3888 7.25228 22.4047 7.69846 22.4126 8.14465C22.4228 8.73466 22.4206 9.32466 22.4228 9.91467C22.4251 10.3914 22.4058 10.8693 22.433 11.345C22.4591 11.7968 22.6855 11.9803 23.1238 11.9746C23.527 11.9689 23.6289 11.858 23.6346 11.3269C23.6448 10.3733 23.6368 9.41979 23.6368 8.46627ZM28.5313 60.0418C28.5302 60.0418 28.5302 60.0418 28.529 60.0418C28.529 60.3385 28.5143 60.6363 28.5336 60.933C28.5528 61.2274 28.6094 61.5185 28.6445 61.8129C28.7159 62.4018 29.1768 62.8389 29.7589 62.865C30.1484 62.8819 30.5686 62.6339 30.6354 62.25C30.7317 61.6997 30.7792 61.1357 30.7917 60.5763C30.8019 60.1063 30.7181 59.6352 30.6999 59.1641C30.6739 58.4971 30.683 58.496 30.0273 58.5424C29.6785 58.5673 29.3297 58.6058 28.9798 58.6205C28.6842 58.633 28.5449 58.7893 28.5347 59.0633C28.5222 59.3883 28.5313 59.7145 28.5313 60.0418ZM5.92292 60.4381C5.91952 60.4381 5.91612 60.4381 5.91273 60.4381C5.91273 60.7054 5.92859 60.9749 5.90934 61.241C5.86404 61.8945 6.2434 62.3576 6.62504 62.8015C6.89456 63.1141 7.29772 63.1787 7.69408 63.105C7.81412 63.0824 7.94436 62.9612 8.01231 62.8502C8.30901 62.3678 8.31241 61.8424 8.21275 61.3011C8.155 60.984 8.11425 60.6623 8.0882 60.3407C8.06668 60.0746 8.08592 59.8051 8.0712 59.539C8.05647 59.2615 7.89567 59.1165 7.61822 59.0871C7.23771 59.0463 6.85833 58.9988 6.47895 58.9489C6.16753 58.907 5.95123 59.0474 5.92745 59.3691C5.90253 59.7224 5.92292 60.0814 5.92292 60.4381Z" fill="#010A38"/>
<path d="M15.6032 37.628C15.6032 38.5543 15.6044 39.2123 15.6032 39.8691C15.601 40.8204 15.6429 41.7682 15.8841 42.6957C15.8988 42.7523 15.8977 42.8146 15.8988 42.8735C15.909 44.1532 16.0562 45.417 16.2408 46.6842C16.4243 47.9537 16.687 49.1881 17.1037 50.3998C17.2963 50.9615 17.4967 51.5074 17.7787 52.0317C17.9429 52.3375 18.1569 52.4711 18.4763 52.4983C18.6541 52.513 18.8319 52.5277 19.0096 52.5515C19.9688 52.6783 20.2599 52.5107 20.6642 51.6263C20.9122 51.085 21.0628 50.5244 21.1466 49.9321C21.2553 49.1711 21.4161 48.4169 21.5815 47.6649C21.6052 47.5585 21.7842 47.4045 21.877 47.4147C22.0333 47.4305 22.2032 47.5347 22.321 47.6491C22.3889 47.7159 22.3832 47.8756 22.3832 47.9934C22.381 48.5845 22.4116 49.17 22.202 49.7532C22.0333 50.2209 21.9767 50.7317 21.8895 51.2265C21.6732 52.4496 21.0911 53.0385 19.8352 53.3578C18.5929 53.6738 17.6303 53.1902 16.824 52.3182C16.5953 52.0702 16.4673 51.6976 16.3767 51.3601C16.1321 50.4485 15.9837 49.5086 15.7006 48.6094C15.4549 47.8269 15.3609 47.0466 15.3779 46.2369C15.3813 46.092 15.3405 45.9402 15.2907 45.8021C15.0936 45.263 15.037 44.7058 15.0177 44.1362C15.0087 43.8769 14.9034 43.6221 14.8626 43.3616C14.7528 42.6595 14.6225 41.9585 14.5625 41.2518C14.5296 40.877 14.6225 40.4897 14.6633 40.1092C14.6758 39.9925 14.7256 39.8759 14.7199 39.7615C14.7063 39.4433 14.6067 39.1126 14.6655 38.8114C14.7278 38.4943 14.5965 38.2361 14.5772 37.9541C14.4934 36.7685 14.3371 35.576 14.6769 34.3982C14.7335 34.2023 14.7222 33.9837 14.7244 33.7765C14.7301 33.1785 14.7154 32.5806 14.729 31.9838C14.7618 30.5535 14.7879 29.1221 14.8569 27.6929C14.8852 27.1041 15.0121 26.5208 15.1004 25.9354C15.2114 25.2027 15.2974 24.4643 15.4503 23.7406C15.6825 22.6433 15.8218 21.4972 16.559 20.5879C16.9678 20.0851 17.4639 19.6525 17.9236 19.1905C17.9633 19.1508 18.0233 19.1259 18.0788 19.1078C18.5601 18.9492 19.474 19.2085 19.7967 19.606C19.842 19.6627 19.8635 19.7827 19.8341 19.8439C19.8046 19.9039 19.6948 19.9605 19.6235 19.956C19.4774 19.9469 19.3313 19.905 19.1897 19.8597C18.4355 19.6242 17.8863 19.8393 17.4446 20.5143C17.063 21.0975 16.79 21.7124 16.6417 22.3806C16.3144 23.8539 16.0438 25.3385 15.943 26.8458C15.8898 27.642 15.8218 28.4403 15.8909 29.2433C15.9158 29.5298 15.8308 29.8253 15.7923 30.1164C15.7731 30.2625 15.7459 30.4085 15.7244 30.5546C15.7199 30.5841 15.7233 30.6147 15.7233 30.6441C15.6814 33.063 15.6395 35.4797 15.6032 37.628Z" fill="#010A38"/>
<path d="M24.7884 35.0296C24.7533 34.349 24.785 33.6763 24.6254 32.9923C24.4997 32.4532 24.5755 31.861 24.6004 31.2947C24.6469 30.2619 24.5733 29.2337 24.5484 28.2031C24.5189 27.0095 24.4906 25.8046 24.6231 24.6234C24.742 23.5623 24.7941 22.4967 24.9254 21.439C25.0942 20.0777 25.802 18.9974 26.8031 18.096C26.9979 17.9204 27.2176 17.7664 27.4429 17.6316C28.341 17.0926 29.3658 17.4154 29.812 18.3655C30.077 18.9294 30.2899 19.5013 30.3862 20.1298C30.5289 21.0618 30.8357 21.9735 30.9309 22.9078C31.0328 23.9122 31.2797 24.8964 31.3227 25.902C31.3624 26.8261 31.5016 27.7343 31.5945 28.6493C31.6704 29.3888 31.6919 30.1374 31.676 30.8803C31.6692 31.1555 31.4994 31.4352 31.3714 31.6968C31.3318 31.7783 31.1812 31.861 31.094 31.8485C31.0034 31.8361 30.8742 31.7205 30.8573 31.6311C30.7848 31.2528 30.7168 30.8689 30.7055 30.485C30.6727 29.4171 30.7531 28.3503 30.4824 27.2904C30.3522 26.7808 30.4303 26.2213 30.3578 25.6913C30.2208 24.6959 30.0396 23.705 29.8811 22.7118C29.8437 22.4774 29.8109 22.2408 29.7984 22.0029C29.7441 20.9871 29.4292 20.0256 29.1824 19.0506C29.1608 18.9657 29.1235 18.8807 29.0782 18.806C28.6569 18.1005 28.1654 17.669 27.3025 18.498C26.6071 19.165 26.1145 19.926 25.9832 20.9475C25.8654 21.8636 25.802 22.7753 25.768 23.6937C25.7533 24.0923 25.717 24.4864 25.7204 24.8873C25.7227 25.278 25.5891 25.697 25.5925 26.1149C25.5959 26.5339 25.5936 26.9518 25.5936 27.3708C25.5936 27.7898 25.5777 28.2088 25.5981 28.6255C25.6174 29.0355 25.4996 29.4602 25.734 29.8543C25.7839 29.9369 25.7589 30.0955 25.7159 30.1963C25.4951 30.7217 25.5823 31.2483 25.6819 31.7783C25.7204 31.9821 25.7975 32.1984 25.7623 32.3921C25.6446 33.0387 25.7759 33.6774 25.7748 34.3195C25.7737 34.9775 25.785 35.6343 25.7873 36.2923C25.7873 36.4089 25.8155 36.5641 25.7544 36.6366C25.6094 36.8064 25.5279 37.0793 25.2267 37.0578C25.0274 37.0431 24.8111 36.8325 24.7975 36.5539C24.7703 36.0465 24.7884 35.5381 24.7884 35.0296Z" fill="#010A38"/>
<path d="M29.4428 52.7948C28.0034 52.668 26.7249 51.8775 26.2436 50.428C26.1235 50.0656 26.3138 49.7927 26.5244 49.5379C26.5584 49.4971 26.7079 49.4914 26.7543 49.5299C26.9129 49.6613 27.0737 49.8029 27.1869 49.9716C27.3172 50.1664 27.4406 50.3861 27.4916 50.6115C27.666 51.3815 28.3499 51.5435 28.9241 51.7779C29.308 51.9342 29.6998 51.8356 29.9988 51.4042C30.3114 50.9546 30.5696 50.5095 30.6783 49.9716C30.8493 49.1336 31.1256 48.3058 31.1958 47.461C31.2558 46.7316 31.3759 45.9888 31.2547 45.2459C31.2219 45.0409 31.2355 44.8291 31.2343 44.6196C31.2321 43.9922 31.2332 43.3649 31.2332 42.7375C31.2332 41.8406 31.2592 40.9437 31.2253 40.0479C31.1924 39.1895 31.0769 38.3345 31.0361 37.475C31.0089 36.8815 31.0463 36.2847 31.0577 35.6891C31.0611 35.4988 31.0996 35.3244 31.3408 35.3165C31.5446 35.3108 31.779 35.2565 31.8855 35.5056C32.0372 35.8578 32.2082 36.2055 32.0474 36.6166C31.9749 36.8023 31.9432 37.0208 31.9602 37.219C32.0304 38.0434 32.1256 38.8656 32.2116 39.6889C32.2207 39.7772 32.2388 39.8701 32.2252 39.9561C32.0146 41.323 32.3011 42.6865 32.2422 44.0545C32.1765 45.5981 32.3215 47.1529 31.9353 48.6749C31.9829 49.736 31.4778 50.6182 31.0305 51.5231C30.8085 51.9715 30.4461 52.2784 30.0656 52.557C29.8629 52.7076 29.5775 52.7473 29.4428 52.7948Z" fill="#010A38"/>
<path d="M11.6544 32.4414C11.6544 32.8083 11.642 33.4651 11.6578 34.1208C11.6748 34.8275 11.7269 35.533 11.7416 36.2396C11.7473 36.5024 11.6646 36.7651 11.6635 37.0289C11.6544 38.4038 11.5819 39.7853 11.6839 41.1534C11.7586 42.1692 11.7439 43.1793 11.7722 44.1929C11.7767 44.3718 11.7869 44.5598 11.7382 44.7274C11.6782 44.9346 11.5423 45.0954 11.2796 45.0626C11.0406 45.032 10.8957 44.921 10.9013 44.6628C10.9217 43.7988 10.9432 42.9347 10.9625 42.0706C10.9648 41.9585 10.9942 41.8306 10.9512 41.7366C10.6907 41.1704 10.7496 40.56 10.7337 39.9745C10.7009 38.8115 10.8096 37.6439 10.7507 36.4831C10.7009 35.5092 10.8877 34.516 10.5605 33.5602C10.6567 32.9453 10.5367 32.3338 10.5299 31.72C10.5174 30.6464 10.5197 29.566 10.3827 28.5049C10.3136 27.9761 10.2921 27.4721 10.3125 26.9444C10.3317 26.445 10.2218 25.9399 10.1833 25.4371C10.1698 25.2605 10.1698 25.0725 10.2174 24.9037C10.2389 24.8279 10.3849 24.7418 10.4789 24.7373C10.7779 24.7237 11.0078 24.8596 11.0758 25.1665C11.1641 25.5707 11.2535 25.9773 11.2943 26.3884C11.3577 27.0339 11.3011 27.6998 11.4347 28.3283C11.7031 29.5978 11.5117 30.882 11.6544 32.4414Z" fill="#010A38"/>
<path d="M21.519 36.7828C21.519 34.7546 21.5451 32.7264 21.5077 30.6993C21.4896 29.739 21.3492 28.7809 21.2654 27.8217C21.2348 27.4673 21.2167 27.1105 21.1759 26.7572C21.0751 25.8728 20.963 24.9906 20.8622 24.1061C20.8464 23.9612 20.8452 23.8083 20.8747 23.6679C20.8894 23.5988 20.9845 23.5139 21.0559 23.498C21.3469 23.4335 21.7444 23.7007 21.8044 23.9872C21.8226 24.0744 21.8169 24.165 21.8225 24.2545C21.9233 25.9124 22.0706 27.5647 22.2914 29.2113C22.126 29.6801 22.4307 30.1184 22.3741 30.5917C22.3186 31.0628 22.3582 31.5453 22.3684 32.0232C22.3786 32.4999 22.4046 32.9756 22.4216 33.4523C22.4386 33.9257 22.4307 34.39 22.5552 34.8656C22.6651 35.2846 22.6764 35.7806 22.5598 36.194C22.4239 36.6696 22.4476 37.1328 22.4205 37.6039C22.3865 38.1973 22.3424 38.7907 22.3072 39.3852C22.3005 39.494 22.2982 39.6083 22.3242 39.7125C22.4556 40.2357 22.2789 40.7102 22.0887 41.1757C22.0388 41.298 21.903 41.4056 21.7795 41.4679C21.7252 41.495 21.5961 41.4044 21.5202 41.3433C21.4873 41.3172 21.4998 41.23 21.4998 41.1711C21.4987 39.7091 21.4987 38.2471 21.4987 36.7851C21.5066 36.7829 21.5122 36.7828 21.519 36.7828Z" fill="#010A38"/>
<path d="M6.39067 24.9404C6.39067 25.4466 6.40199 25.9539 6.38614 26.4601C6.37708 26.7228 6.32047 26.9844 6.28084 27.246C6.26725 27.3321 6.20608 27.4261 6.22533 27.5008C6.45409 28.4125 6.12344 29.315 6.19478 30.2289C6.2514 30.9616 6.14946 31.7045 6.14266 32.4429C6.13927 32.7951 6.12568 33.1722 6.24119 33.4938C6.4088 33.9626 6.37821 34.4292 6.39067 34.9015C6.41445 35.7961 6.44502 36.6907 6.45408 37.5854C6.45635 37.8164 6.4088 38.0554 6.33858 38.275C6.31141 38.3622 6.1608 38.4528 6.06228 38.4585C5.99546 38.4619 5.87653 38.3271 5.85841 38.2388C5.75083 37.7201 5.62288 37.1992 5.58324 36.6738C5.52662 35.9331 5.54926 35.1868 5.51869 34.444C5.50623 34.1506 5.44167 33.8596 5.39977 33.5674C5.39524 33.538 5.36696 33.5063 5.37488 33.4825C5.61949 32.7226 5.16878 31.9571 5.36016 31.221C5.51417 30.6276 5.5051 30.0443 5.51416 29.4521C5.53568 28.0218 5.51641 26.5892 5.58549 25.1612C5.63985 24.048 5.77235 22.9348 5.93202 21.8306C6.01809 21.2316 6.38162 20.7174 6.84706 20.3471C7.21058 20.0583 7.65677 19.8477 8.1743 20.0968C8.51744 20.2622 8.89794 20.3494 9.25239 20.4932C9.48002 20.5861 9.50835 20.7967 9.49476 21.0209C9.48231 21.218 9.37696 21.3063 9.21728 21.2225C9.05987 21.141 8.90813 21.0447 8.75978 20.9473C8.63634 20.8658 8.52762 20.7571 8.39738 20.6891C7.68847 20.3211 7.0758 20.5023 6.84931 21.2531C6.62055 22.0118 6.31709 22.7672 6.38503 23.5973C6.42127 24.0423 6.39067 24.4931 6.39067 24.9404Z" fill="#010A38"/>
<path d="M6.4508 45.3002C6.4508 46.1642 6.44287 47.0271 6.45532 47.8901C6.45985 48.1551 6.51988 48.4201 6.55838 48.685C6.62973 49.1811 6.71127 49.6748 6.77469 50.172C6.8551 50.8062 7.07026 51.3724 7.5255 51.8401C7.73048 52.0519 7.90035 52.2976 8.08721 52.5275C8.1812 52.643 8.25934 52.78 8.37485 52.8695C8.88785 53.2704 9.31479 53.3621 9.78589 52.6928C10.0192 52.361 10.1958 51.9941 10.2547 51.5558C10.3567 50.7971 10.5537 50.0508 10.7145 49.2988C10.7394 49.1833 10.77 49.0667 10.8198 48.9614C10.9036 48.7859 11.1471 48.7168 11.2671 48.8527C11.3985 49.001 11.5446 49.1799 11.5741 49.3645C11.6216 49.6544 11.6227 49.9681 11.5627 50.2547C11.4234 50.916 11.2105 51.5626 11.0723 52.2251C10.8832 53.1299 10.2219 53.5773 9.44842 53.8185C8.8165 54.0155 8.20497 53.6985 7.74859 53.2613C7.28202 52.8151 6.89018 52.2851 6.49382 51.771C6.10426 51.2659 5.88459 50.6861 5.87779 50.0395C5.86874 49.2966 5.83135 48.5594 5.59693 47.8425C5.5437 47.6794 5.57087 47.4869 5.5754 47.308C5.60371 46.2401 5.49389 45.1676 5.68754 44.1031C5.72831 43.8812 5.70223 43.6275 5.63429 43.4112C5.48707 42.939 5.589 42.5256 5.87099 42.1519C5.94233 42.0579 6.10992 42.0002 6.23449 41.999C6.29451 41.9979 6.40665 42.1655 6.40891 42.2584C6.42703 42.9741 6.43041 43.6898 6.42588 44.4066C6.42361 44.7045 6.39306 45.0012 6.37494 45.299C6.40098 45.3001 6.42588 45.3002 6.4508 45.3002Z" fill="#010A38"/>
<path d="M3.36027 20.4975C3.36706 19.75 3.41804 19.0162 3.74872 18.3197C4.00239 17.7852 4.39872 17.4059 4.86756 17.0763C5.0714 16.9325 5.25488 16.9472 5.42249 17.1318C5.59236 17.3186 5.59235 17.5214 5.41682 17.6856C5.06349 18.0174 4.8404 18.4285 4.63089 18.8565C4.29342 19.5473 4.19152 20.2778 4.24248 21.0297C4.26626 21.3819 4.16093 21.6695 3.96275 21.9402C3.83025 22.1214 3.60716 22.1101 3.5528 21.9062C3.46787 21.5914 3.41352 21.2675 3.36369 20.9459C3.34217 20.7998 3.36027 20.6481 3.36027 20.4975Z" fill="#010A38"/>
<path d="M34.2808 52.0398C34.2038 53.0669 33.889 53.9253 33.4054 54.7044C33.2752 54.9139 32.9139 54.9943 32.6444 55.0951C32.5696 55.1234 32.4066 55.0397 32.3499 54.9592C32.2922 54.8777 32.3126 54.7384 32.3069 54.6241C32.3058 54.6014 32.3397 54.5776 32.359 54.555C33.0974 53.7158 33.1472 52.6355 33.3828 51.6219C33.4281 51.4249 33.3737 51.1712 33.6466 51.1282C33.9331 51.0829 34.077 51.298 34.1596 51.5302C34.2298 51.7227 34.2559 51.9288 34.2808 52.0398Z" fill="#010A38"/>
<path d="M25.459 42.2323C25.4963 41.8495 25.5722 41.4656 25.5586 41.0851C25.5462 40.7397 25.4511 40.3932 25.3639 40.0557C25.3061 39.8338 25.3887 39.7047 25.5745 39.6435C25.7568 39.5835 25.9799 39.7862 25.9946 39.9969C25.9969 40.0263 26.0116 40.0648 25.9991 40.0852C25.6322 40.6752 25.998 41.229 26.0841 41.7952C26.1679 42.349 26.2845 42.8982 26.3615 43.452C26.4023 43.7475 26.3921 44.0454 26.1135 44.2594C25.9958 44.35 25.9255 44.3636 25.8542 44.2175C25.5462 43.5901 25.391 42.9367 25.459 42.2323Z" fill="#010A38"/>
<path d="M4.08824 25.3336C4.04634 25.5601 4.03503 25.8025 3.95349 26.0176C3.87309 26.2317 3.72359 26.4208 3.60468 26.6212C3.30797 26.5136 3.44954 26.2192 3.35215 26.0278C3.15623 25.6405 3.16302 25.2294 3.1902 24.815C3.20379 24.5998 3.3363 24.5081 3.53787 24.4888C3.73266 24.4707 3.90818 24.5205 3.9716 24.7153C4.03502 24.9078 4.04974 25.1173 4.08824 25.3336Z" fill="#010A38"/>
<path d="M31.3838 56.0405C31.3714 56.2511 31.1958 56.4244 30.9829 56.4357C30.6964 56.4516 30.4145 56.0609 30.4858 55.7314C30.5368 55.4924 30.7452 55.5162 30.9128 55.5264C31.2468 55.5456 31.402 55.7279 31.3838 56.0405Z" fill="#010A38"/>
<path d="M20.8283 21.7442C20.7615 21.7442 20.7321 21.7476 20.7026 21.7442C20.5214 21.7226 20.3346 21.6932 20.3187 21.461C20.3051 21.2697 20.5237 21.0896 20.7468 21.1111C20.86 21.1225 20.9925 21.1542 21.073 21.2244C21.1545 21.2957 21.2349 21.435 21.2201 21.5301C21.2077 21.6094 21.0627 21.6774 20.9665 21.7317C20.9212 21.7578 20.851 21.7419 20.8283 21.7442Z" fill="#010A38"/>
<path d="M26.6401 46.9064C26.6174 46.9766 26.6152 47.049 26.5789 47.0785C26.5132 47.1328 26.4306 47.1793 26.349 47.1963C26.135 47.2416 25.9176 47.2359 25.8508 46.9766C25.827 46.886 25.8723 46.7342 25.9413 46.6708C26.1214 46.5066 26.3207 46.5451 26.4895 46.7116C26.5495 46.7716 26.5936 46.8464 26.6401 46.9064Z" fill="#010A38"/>
<path d="M6.52529 40.5314C6.46867 40.8089 6.25123 40.9674 6.05531 40.9142C5.86506 40.8621 5.86845 40.7013 5.89789 40.5563C5.94432 40.3208 6.1357 40.3117 6.31237 40.3582C6.40183 40.3819 6.4698 40.485 6.52529 40.5314Z" fill="#010A38"/>
<path d="M22.7185 1.57684C22.9835 1.55985 23.2848 1.87013 23.3969 2.27329C23.4535 2.47939 23.3165 2.90293 23.1387 2.95163C23.0152 2.9856 22.8216 2.96863 22.7344 2.89049C22.466 2.64928 22.3641 2.30501 22.3143 1.95734C22.2871 1.77049 22.4988 1.59043 22.7185 1.57684Z" fill="#010A38"/>
<path d="M29.246 61.1936C29.2755 61.0497 29.2879 60.9014 29.3355 60.7644C29.4363 60.4756 29.6288 60.3521 29.8655 60.4042C30.1078 60.4574 30.3456 60.7451 30.2958 60.9954C30.2267 61.3396 30.1158 61.676 30.0059 62.01C29.9617 62.1437 29.7103 62.1811 29.6265 62.0678C29.4329 61.8107 29.195 61.5661 29.246 61.1936Z" fill="#010A38"/>
<path d="M7.17648 61.3193C7.16289 61.4858 7.18441 61.65 7.12778 61.7779C7.07343 61.9002 6.95115 62.0146 6.82884 62.0712C6.77675 62.095 6.63066 61.9795 6.56498 61.8968C6.45513 61.7576 6.36225 61.6013 6.28864 61.4404C6.17313 61.189 6.25466 60.8878 6.46417 60.7089C6.67707 60.5266 7.0474 60.6262 7.11648 60.8946C7.15385 61.0362 7.15949 61.1879 7.17648 61.3193Z" fill="#010A38"/>
</svg>
