<svg width="99" height="100" viewBox="0 0 99 100" fill="none" xmlns="http://www.w3.org/2000/svg">
<path d="M50.0457 32.7173C34.7476 31.508 23.6925 46.326 24.8578 60.815C26.0743 75.9426 40.6484 84.0814 54.8547 82.2518C68.614 80.48 80.0145 67.9548 78.5144 53.7581C76.9393 38.8554 63.8716 31.4662 50.0457 32.7173ZM26.6358 60.7906C25.4143 46.4724 35.4142 35.4379 49.1513 33.8233C49.2404 33.9043 49.3527 33.9598 49.4995 33.9526C55.9619 33.6521 62.1953 34.9419 67.1063 38.0605C53.7989 33.9397 37.3456 36.246 32.2279 51.2074C28.6092 61.7881 33.7284 74.5004 43.3143 79.7594C34.6126 77.3407 27.4841 70.7329 26.6358 60.7906ZM57.1746 80.0917C53.8761 80.8397 50.4724 80.973 47.1841 80.5422C35.3824 75.923 28.7936 61.0843 34.4073 49.3438C40.949 35.6592 57.4575 35.5202 69.7777 40.3087C69.8985 40.3563 70.0044 40.3539 70.1033 40.3335C73.2579 43.2262 75.563 47.1445 76.5689 52.1991C79.1106 64.9714 69.3896 77.3197 57.1746 80.0917Z" fill="#010A38"/>
<path d="M88.8853 42.4569C83.9853 33.9615 74.6789 29.2663 65.4013 27.2269C65.3423 27.214 65.2898 27.2172 65.2356 27.2177C65.3269 26.9442 65.3877 26.6814 65.4458 26.4202C65.4767 26.4258 65.4983 26.4406 65.5317 26.4436C71.2354 26.8074 75.3851 21.7441 73.9912 16.1299C72.2995 9.31856 65.0038 6.74017 58.7373 6.39979C52.7339 6.07416 42.819 6.56151 39.5467 12.6496C36.68 17.9828 40.1291 23.6049 45.669 24.574C45.6297 25.0215 45.6245 25.485 45.6921 25.982C44.8469 26.1095 44.0037 26.2601 43.1657 26.4443C42.948 26.4924 42.8775 26.6683 42.9011 26.834C30.951 29.1232 20.5162 38.137 16.9929 49.9299C13.2956 62.3048 18.2533 76.5181 28.511 84.2735C30.5509 85.8152 32.7104 87.0538 34.9465 88.0221C34.9496 88.1217 34.987 88.219 35.1117 88.2606C35.8806 88.5189 36.66 88.7545 37.4443 88.9799C39.6108 89.7064 41.8336 90.1916 44.0799 90.4548C62.0562 93.3329 81.841 87.6309 89.9047 69.7141C93.7567 61.1588 93.6146 50.6546 88.8853 42.4569ZM87.5583 43.1521C88.2455 44.3478 88.8188 45.5938 89.3035 46.8702C87.4505 46.5056 85.5714 46.2182 83.6812 46.1972C82.6054 43.384 81.1673 40.8446 79.4411 38.5864C81.2471 38.8527 83.0537 39.1261 84.8611 39.3747C85.8598 40.5205 86.7662 41.7743 87.5583 43.1521ZM83.9349 38.3657C82.216 38.1572 80.4956 37.9604 78.7761 37.7541C75.9538 34.3159 72.4473 31.5699 68.5247 29.5636C74.2551 31.442 79.7796 34.0954 83.9349 38.3657ZM46.9473 21.5383C43.2568 17.9604 42.8453 15.1909 45.7143 13.2282C46.7422 11.9777 48.0839 11.2272 49.7404 10.9765C51.8744 10.4128 54.4473 10.4683 56.6769 10.5786C60.6304 10.7735 64.1531 11.5925 67.3009 13.9004C67.2977 14.0464 67.348 14.1941 67.4831 14.2887C69.2073 15.5109 70.3466 17.6904 69.6711 19.809C69.0338 21.8109 67.2144 22.8457 65.2777 23.2103C63.146 17.4681 50.977 16.767 46.9473 21.5383ZM64.0708 27.4327C63.51 27.3043 62.9601 27.1367 62.4441 26.8698C62.2159 26.7513 62.0244 26.8357 61.9221 26.9826C57.0533 25.6065 51.8516 25.2221 46.7214 25.8546C47.2465 17.2768 65.7504 17.9864 63.9118 26.8062C63.8589 27.0631 63.9375 27.2753 64.0708 27.4327ZM40.1384 14.6006C41.8516 11.2529 44.4639 9.30485 47.9734 8.75681C51.1153 7.93832 54.4781 7.59694 57.715 7.71864C61.3168 7.8535 65.0938 8.41496 68.1324 10.5347C73.2354 14.0967 75.5294 25.4258 65.6107 25.0157C65.6076 25.0153 65.6061 25.0177 65.6029 25.0173C65.6014 24.5511 65.5425 24.1086 65.4336 23.6902C67.8305 23.9444 70.1984 22.2763 70.8843 19.9641C71.5113 17.8529 70.7357 15.6521 69.1373 14.2973C69.1481 14.1773 69.1057 14.0473 68.9875 13.9266C63.9522 8.77536 52.6222 7.35061 46.3878 10.9392C41.9212 13.5102 40.5289 20.7745 46.4268 22.2586C46.1378 22.7344 45.9136 23.2494 45.7841 23.8146C41.763 22.7912 39.8694 19.7303 40.1384 14.6006ZM17.1768 58.4178C17.1853 41.9572 31.0949 29.6896 46.5696 27.3954C46.9285 27.3424 47.0319 27.054 46.9612 26.7931C63.8851 25.8216 81.855 34.9071 83.9964 53.4135C86.3028 73.3453 68.6121 88.624 49.7526 89.038C32.168 89.4239 17.1671 76.4818 17.1768 58.4178ZM55.5177 89.9646C60.0289 89.072 64.396 87.3799 68.3485 85.0531C69.3072 85.432 70.2675 85.8086 71.2306 86.1794C66.358 88.3819 61.0002 89.5987 55.5177 89.9646ZM72.0862 85.7786C71.0486 85.4085 70.006 85.0487 68.9627 84.6952C71.2676 83.2842 73.4211 81.6512 75.3677 79.8277C75.3873 79.8756 75.4081 79.9243 75.4627 79.9545C76.5036 80.5387 77.5974 81.2015 78.7196 81.6505C76.6576 83.276 74.4329 84.646 72.0862 85.7786ZM87.3644 71.4512C85.2081 75.3377 82.4753 78.5221 79.353 81.1114C78.2554 80.4259 76.946 79.9489 75.7501 79.4575C77.8414 77.442 79.677 75.1994 81.1893 72.773C82.1221 73.6282 83.2726 74.1938 84.5149 74.4787C85.1779 74.6301 85.3643 73.6372 84.6874 73.5636C83.5064 73.4343 82.4479 72.9204 81.5202 72.2073C83.1252 69.5133 84.3281 66.5972 85.0357 63.5151C85.0381 63.5166 85.0377 63.5197 85.0401 63.5213C86.5626 64.3687 88.1483 65.1584 89.7228 65.9106C89.1217 67.829 88.3398 69.6923 87.3644 71.4512ZM90.0036 64.9618C88.4561 64.2682 86.8716 63.5929 85.2881 62.9981C85.2347 62.9779 85.188 62.9941 85.1413 63.0052C85.7006 60.349 85.8771 57.569 85.6356 54.7012C86.439 54.8917 87.2425 55.0781 88.0396 55.3007C89.062 55.5861 90.0645 55.9924 91.0984 56.2272C91.1602 59.1676 90.7911 62.1213 90.0036 64.9618ZM91.0675 55.2988C89.4029 54.6079 87.4006 54.2664 85.5823 54.1142C85.3597 51.9821 84.9102 49.8039 84.1793 47.5873C84.0819 47.2933 83.9731 47.0078 83.8676 46.7186C85.8295 47.0003 87.7654 47.3133 89.6713 47.8946C90.4693 50.2891 90.9347 52.782 91.0675 55.2988Z" fill="#010A38"/>
<path d="M71.1629 66.4416C67.4556 62.4735 63.0721 59.424 58.0788 57.3013C57.3433 55.5512 55.8842 54.4149 54.0399 55.2209C53.5734 55.2071 53.1275 55.3025 52.6966 55.4438C52.6732 55.4345 52.6586 55.4192 52.6318 55.4138C47.5992 54.2449 42.5695 53.0663 37.5405 51.8864C37.0793 51.7784 36.5301 52.3709 36.9775 52.7602C40.905 56.1712 45.0381 59.416 49.313 62.3795C49.5489 62.5433 49.8596 62.1917 49.6427 61.988C46.4574 59.0007 43.0933 56.1564 39.6374 53.469C43.5361 54.3664 47.435 55.2647 51.332 56.1685C50.2005 57.0444 49.4141 58.4136 49.3347 59.8252C49.181 62.5595 51.4077 65.1259 54.2 65.004C54.5203 64.99 54.8144 64.9448 55.0951 64.8851C55.0982 64.8855 55.0996 64.8872 55.103 64.8886C60.2657 65.8779 65.4707 66.6421 70.654 67.5185C71.2251 67.614 71.5184 66.8221 71.1629 66.4416ZM68.8548 65.9258C64.7785 65.253 60.6885 64.6538 56.574 64.282C58.2888 63.1561 58.8214 60.9109 58.5177 58.9007C62.3751 60.653 65.821 62.9906 68.8548 65.9258ZM53.0284 63.4229C51.3401 62.8497 50.4579 60.8418 50.8782 59.1754C51.2822 57.5707 52.5554 56.7307 53.9491 56.1214C54.0034 56.1311 54.0617 56.1308 54.1263 56.1128C58.6088 54.8602 58.5938 65.3144 53.0284 63.4229Z" fill="#010A38"/>
<path d="M32.8 24.0097C18.4471 29.1736 8.01689 43.5649 8.97939 59.0369C8.99643 59.3003 9.39341 59.3383 9.40086 59.0604C9.77349 43.891 18.7223 30.2856 33.1703 25.0316C33.7441 24.8226 33.3818 23.8 32.8 24.0097Z" fill="#010A38"/>
</svg>
