<svg width="221" height="183" viewBox="0 0 221 183" fill="none" xmlns="http://www.w3.org/2000/svg">
<path d="M219.86 69.1824C219.706 68.8546 219.401 68.6095 218.918 68.6375L191.815 70.2283C183.077 70.741 172.087 73.5711 164.999 67.526C158.564 62.0388 152.489 56.069 146.241 50.369C141.877 46.3866 136.72 39.4043 130.993 37.3803C128.527 36.5086 125.493 36.9751 122.977 37.017C118.686 37.0901 114.395 37.1213 110.103 37.1137C101.091 37.0987 92.0795 36.9063 83.0753 36.5312C76.9797 36.2775 73.3918 34.4631 69.4331 29.8251C66.7792 26.7165 64.1265 23.608 61.4683 20.5027C55.6253 13.6784 49.7834 6.84976 43.734 0.206003C43.4234 -0.13473 43.0375 -0.0100462 42.8301 0.270494C42.3174 0.113564 41.6768 0.281243 41.4479 0.930463C27.7788 39.7386 13.0047 78.3757 0.819958 117.678C0.79846 117.748 0.79629 117.812 0.798439 117.872C0.284652 117.617 -0.298954 118.397 0.175063 118.802C7.09614 124.694 14.3074 130.217 21.4864 135.788C28.0001 140.842 34.373 146.676 41.3048 151.138C46.9113 154.746 55.7995 152.192 62.1111 151.761C67.0265 151.426 71.9429 151.091 76.8583 150.754C82.0682 150.398 87.4458 149.073 91.8549 152.504C98.6416 157.787 104.522 165.276 110.582 171.386C114.349 175.184 117.858 180.334 123.433 181.238C132.112 182.646 141.667 181.864 150.451 182.111C160.335 182.39 170.218 182.666 180.103 182.933C180.368 182.941 180.573 182.859 180.731 182.731C182.595 182.282 182.38 180.185 182.569 178.424C186.407 171.279 188.26 162.128 190.813 154.729C194.163 145.022 197.519 135.311 201.215 125.729C208.266 107.448 217.338 89.8586 220.979 70.4507C221.128 69.6715 220.461 69.1717 219.86 69.1824ZM199.344 125.213C195.814 134.418 192.589 143.737 189.385 153.06C186.395 161.756 181.195 171.752 180.554 181.003C180.426 180.937 180.279 180.894 180.106 180.89C171.081 180.626 162.058 180.368 153.033 180.113C144.23 179.865 134.661 180.652 125.96 179.35C117.314 178.056 111.139 169.037 105.213 163.084C102.37 160.228 99.5283 157.372 96.6853 154.517C94.8 152.623 92.6771 149.551 90.0942 148.456C85.3519 146.446 76.9658 148.758 71.9461 149.104C63.4654 149.689 51.8493 152.585 43.9522 149.437C36.1509 146.328 29.3362 139.412 22.6656 134.266C15.6564 128.859 8.6805 123.418 1.44556 118.316C1.61969 118.28 1.78411 118.175 1.86688 117.968C16.9913 79.7817 29.7081 40.5039 43.3751 1.77531C48.8214 8.58137 54.4569 15.2316 60.0946 21.8796C63.2666 25.6202 66.4213 29.379 69.6255 33.0937C71.0465 34.7415 72.3771 36.7676 74.4484 37.6791C77.7139 39.1162 82.1735 38.5089 85.6507 38.6476C89.9394 38.8185 94.2292 38.9464 98.519 39.0334C103.668 39.1388 108.817 39.185 113.967 39.1689C118.753 39.1549 124.503 38.2047 129.121 39.429C133.838 40.6791 137.385 45.1376 140.983 48.4471C144.413 51.6019 147.846 54.7534 151.281 57.9006C156.368 62.5612 161.93 69.8359 168.365 72.5908C174.368 75.1608 182.952 72.9337 189.235 72.5682C199.099 71.9964 208.962 71.4235 218.826 70.8517C215.077 89.865 206.239 107.229 199.344 125.213Z" fill="#010A38"/>
<path d="M45.1832 11.8028C50.7683 18.669 56.5908 25.3214 62.4123 31.9888C65.9024 35.9852 70.3126 43.9198 75.6321 45.4494C78.9459 46.4017 83.1368 45.3086 86.5291 45.0968C90.8006 44.8313 95.0754 44.6249 99.3523 44.4777C108.995 44.1466 123.916 41.6175 132.395 46.9703C139.026 51.1569 145.015 58.0672 150.474 63.6458C153.479 66.7167 156.403 69.865 159.242 73.0907C161.07 75.1684 162.802 77.9147 165.127 79.484C170.287 82.9644 179.153 79.9021 184.783 79.2443C194.003 78.1662 203.222 77.0741 212.441 75.9885C213.44 75.8703 213.453 74.2891 212.441 74.4063C204.059 75.3812 195.678 76.3529 187.297 77.3332C183.106 77.8233 178.917 78.336 174.725 78.81C169.225 79.4324 165.542 77.891 161.908 73.7302C156.768 67.8432 151.411 62.1625 145.755 56.7666C141.228 52.4478 135.796 45.8041 129.886 43.4437C124.162 41.1574 115.655 42.5709 109.619 42.6418C101.489 42.7385 93.362 43.0503 85.2478 43.5716C79.3909 43.9478 74.9646 43.9166 70.8006 39.141C68.1188 36.0668 65.438 32.9927 62.7563 29.9175C57.1261 23.4619 51.5045 17.0159 45.6433 10.7688C45.4992 10.6161 45.338 10.5893 45.1929 10.629C44.836 10.2926 44.1062 10.3033 43.888 10.9225C37.7215 28.4063 31.5732 45.8976 25.4024 63.3792C19.2714 80.7491 11.9988 98.1286 7.18341 115.909C7.14686 116.046 7.19309 116.168 7.27263 116.263C7.28123 116.328 7.3135 116.394 7.37799 116.443C20.2904 126.354 33.0146 136.08 44.7199 147.442C44.8876 147.605 45.079 147.629 45.2531 147.585C57.4873 147.13 69.7009 145.857 81.9007 144.85C86.2711 144.489 89.9246 143.586 94.0059 146.314C96.3996 147.914 98.4795 150.701 100.5 152.746C104.865 157.16 109.163 161.64 113.394 166.183C116.532 169.551 119.686 174.556 123.985 176.554C127.787 178.322 132.751 177.581 136.791 177.618C150.083 177.742 163.375 177.835 176.665 177.942C176.72 177.943 176.76 177.922 176.808 177.914C177.014 177.969 177.263 177.889 177.361 177.63C183.676 160.816 188.913 143.57 194.898 126.632C200.749 110.074 206.828 93.597 212.817 77.0881C213.155 76.1573 211.67 75.7553 211.336 76.6796C199.426 109.661 186.152 142.674 176.775 176.493C176.737 176.486 176.707 176.47 176.665 176.469C163.802 176.347 150.939 176.215 138.077 176.105C134.967 176.078 131.372 176.551 128.311 175.993C122.659 174.962 120.41 171.593 116.974 167.866C112.767 163.302 108.494 158.797 104.154 154.359C100.944 151.076 97.5766 146.455 93.5727 144.122C90.3126 142.223 86.7194 142.982 83.1228 143.28C70.6189 144.316 58.0548 145.086 45.6067 146.665C45.5895 146.644 45.5831 146.62 45.5616 146.6C34.0616 135.49 21.6049 124.62 7.94764 116.205C15.2041 99.6786 20.3667 81.9723 26.3773 64.9561C32.6374 47.2358 38.9189 29.522 45.1832 11.8028Z" fill="#010A38"/>
<path d="M70.3737 65.8448C63.6118 91.4987 55.1752 116.453 46.2183 141.406C46.1903 141.484 46.3107 141.513 46.3408 141.44C56.3414 116.997 64.1729 91.5116 70.8736 65.9835C70.9574 65.6599 70.4587 65.5224 70.3737 65.8448Z" fill="#010A38"/>
<path d="M123.512 49.37C112.032 77.7949 101.521 106.83 93.1263 136.327C93.094 136.44 93.266 136.486 93.3014 136.375C102.853 107.118 112.889 78.1625 124.467 49.6323C124.707 49.0433 123.748 48.7853 123.512 49.37Z" fill="#010A38"/>
<path d="M159.171 84.4005C148.039 112.102 136.969 139.891 126.545 167.867C126.485 168.028 126.735 168.09 126.8 167.937C138.306 140.365 149.218 112.49 160.023 84.6348C160.228 84.1028 159.38 83.8814 159.171 84.4005Z" fill="#010A38"/>
<path d="M132.407 98.4856C128.84 96.5336 124.945 98.8403 123.063 101.998C120.043 107.067 120.355 114.393 121.523 119.913C121.537 119.982 121.585 120.019 121.628 120.059C121.61 120.148 121.58 120.231 121.573 120.326C121.545 120.697 121.902 120.98 122.242 120.993L122.593 121.008C122.936 121.022 123.175 120.731 123.216 120.418C123.514 120.159 123.812 119.899 124.111 119.638C124.307 119.505 124.494 119.344 124.67 119.145C125.188 118.688 125.701 118.222 126.207 117.753C126.604 117.475 126.999 117.196 127.399 116.922C128.565 116.095 129.758 115.285 130.841 114.346C132.652 112.777 134.338 110.929 135.262 108.683C136.717 105.14 136.04 100.475 132.407 98.4856ZM134.389 107.043C133.089 111.938 128.206 114.533 124.433 117.283C123.704 117.815 122.758 118.317 122.156 119.019C121.823 114.854 121.751 110.525 122.868 106.474C123.664 103.591 125.096 100.004 128.497 99.3315C133.328 98.3749 135.351 103.417 134.389 107.043Z" fill="#010A38"/>
<path d="M130.608 102.775C129.182 101.846 127.005 103.04 126.273 104.368C125.289 106.154 126.343 108.184 128.134 108.9C129.882 109.597 131.939 108.829 132.468 106.941C132.898 105.409 132.186 103.328 130.608 102.775ZM131.447 106.438C131.179 107.799 129.818 108.228 128.62 107.747C127.414 107.265 126.675 105.979 127.451 104.79C128.072 103.841 129.024 103.594 130.028 103.596C131.059 104.172 131.687 105.216 131.447 106.438Z" fill="#010A38"/>
</svg>
