<svg width="107" height="116" viewBox="0 0 107 116" fill="none" xmlns="http://www.w3.org/2000/svg">
<path d="M85.9384 45.0426C86.9344 41.7989 87.859 38.5327 88.7242 35.2518C89.0016 34.1973 90.2384 31.3906 89.671 30.0819C89.2458 29.0996 88.3364 28.3386 87.2417 27.7138C87.8071 26.0088 88.3578 24.3019 88.8868 22.5843C88.9727 22.3048 88.8202 22.0207 88.5491 21.9217C88.5024 21.9042 88.4551 21.8889 88.4083 21.8713C88.7877 21.4067 89.167 20.942 89.5464 20.4773C89.8801 20.2272 89.7145 19.6931 89.357 19.5729C88.6608 19.3388 87.9582 19.1224 87.2593 18.8949C87.3149 18.3714 87.4208 17.8625 87.5996 17.3552C88.0715 17.1243 88.189 16.3193 87.545 16.1229C76.8642 12.8789 65.9437 10.5563 54.8431 9.34078C51.7005 8.99716 46.9957 7.75026 43.9009 9.09466C43.1789 9.40833 42.5787 9.85936 42.0584 10.3964C41.9686 10.3739 41.8797 10.3461 41.79 10.3235C41.1953 10.1759 40.9173 10.9153 41.3631 11.2261C39.9973 13.1195 39.3172 15.6852 38.4675 17.7126C33.5794 29.3781 28.686 41.0427 23.7789 52.701C21.6314 57.802 19.4717 62.8986 17.3221 67.9991C15.7157 71.8076 12.2611 76.9109 13.5963 81.2313C15.6225 87.7821 27.2219 90.9922 32.7944 93.3989C37.8939 95.601 43.0944 97.5602 48.3825 99.2621C51.6284 100.306 56.1082 102.362 59.5206 100.731C62.3849 99.3622 63.8745 95.5196 65.3215 92.9375C67.9357 88.2726 70.3897 83.5196 72.6984 78.6958C77.9082 67.813 82.3985 56.5793 85.9384 45.0426ZM87.4182 21.5176C76.1953 17.4464 64.588 13.9535 52.8176 11.6797C59.4998 12.7926 66.1511 14.0473 72.7265 15.7123C76.3935 16.6403 80.0313 17.6749 83.6404 18.8088C84.5898 19.1069 85.4651 19.2511 86.1478 19.4371C86.1498 19.631 86.1417 19.8251 86.1716 20.0202C86.2573 20.6012 87.1776 20.5138 87.1913 19.9338C87.1914 19.9246 87.1924 19.9151 87.1925 19.9059C87.5616 20.222 87.6745 20.6969 87.4182 21.5176ZM52.5738 10.519C64.1322 11.6324 75.4963 13.9676 86.6263 17.2495C86.4324 17.668 86.3035 18.1082 86.2218 18.5586C73.5509 14.4997 60.5014 11.5151 47.221 10.4578C47.0825 10.4468 47.0442 10.5769 47.0877 10.6739C46.6671 10.6073 46.2474 10.5261 45.8257 10.4638C47.8085 9.84377 49.9064 10.2629 52.5738 10.519ZM44.9402 10.821C52.8855 12.5663 60.8314 14.2195 68.664 16.4423C72.3351 17.4841 75.9776 18.6302 79.5926 19.8528C80.9624 20.3158 85.0081 21.1598 86.0749 22.1283C87.7498 23.6476 87.0176 25.4757 86.4088 27.278C84.6097 26.4147 82.5306 25.832 81.2202 25.2416C69.3828 19.9087 57.0692 14.4835 44.4764 11.0512C44.6315 10.9594 44.7869 10.8972 44.9402 10.821ZM81.547 53.1283C77.5953 64.4543 72.8427 75.4971 67.2654 86.1186C65.0478 90.3417 61.8795 99.5277 56.2148 99.7417C51.1174 99.9343 44.154 96.2005 39.4643 94.3795C33.6677 92.1287 27.9664 89.5994 22.4517 86.7219C18.7982 84.8149 18.1465 84.7348 16.6629 80.5181C15.0812 76.0229 16.1597 74.8689 17.9062 70.672C22.4618 59.726 27.0088 48.7778 31.5759 37.8376C33.707 32.7319 35.8456 27.6276 37.9823 22.5238C39.0828 19.8959 39.9529 16.0511 41.6447 13.7732C42.1821 13.0503 42.7055 12.4757 43.2235 11.9994C53.5068 16.1541 64.0687 19.5865 74.2859 23.9417C77.0278 25.1106 80.3681 26.0939 82.8651 27.7199C87.3783 30.6595 87.6789 33.2658 86.3304 38.0355C84.8946 43.1157 83.2862 48.1452 81.547 53.1283Z" fill="#010A38"/>
<path d="M59.2175 54.9446C59.1657 54.8473 59.0875 54.7599 58.9646 54.7026C58.8326 54.6411 58.6996 54.589 58.5678 54.5285C58.0109 54.2049 57.4364 53.9045 56.8365 53.6424C56.6929 53.5793 56.5577 53.588 56.4323 53.6233C46.5161 49.728 36.359 50.2595 30.1502 60.4631C29.7396 61.1381 29.3757 61.8164 29.0453 62.4935C29.0376 62.4911 29.0301 62.4896 29.0225 62.4872C28.5938 62.3834 28.3829 62.9692 28.7587 63.1458C24.6226 72.36 27.8655 81.5574 37.7744 86.1572C40.7063 87.5183 43.8939 88.1366 47.0588 88.0959L47.0608 88.0955C54.5353 87.9997 61.8893 84.1567 65.4828 77.2166C69.6212 69.2245 66.4579 59.5955 59.2175 54.9446ZM65.4773 68.4467C64.8463 67.8659 64.1989 67.3132 63.5426 66.7717C63.7813 65.609 63.9524 64.4179 64.0438 63.1939C64.8108 64.8625 65.3219 66.6305 65.4773 68.4467ZM56.3362 55.0243C59.1248 56.5177 61.3876 58.6977 62.9837 61.2296C62.9346 61.3098 62.8986 61.4035 62.8919 61.5195C62.8037 63.0232 62.6182 64.4506 62.3473 65.8147C59.5701 63.6732 56.5914 61.8731 53.4512 60.4618C54.4478 58.6738 55.426 56.8714 56.3362 55.0243ZM58.6045 75.2436C55.3358 73.0723 51.8917 71.1262 48.3323 69.4036C49.7997 66.8262 51.3079 64.2667 52.7755 61.676C56.0218 63.1472 59.1033 65.0254 61.9962 67.328C61.2537 70.2346 60.094 72.8395 58.6045 75.2436ZM47.5264 70.8342C50.9935 72.584 54.3958 74.4839 57.7689 76.5323C56.3137 78.6456 54.5982 80.6105 52.6856 82.5014C49.6364 81.7713 46.3481 80.7583 43.1672 79.4378C44.4664 76.4845 45.9579 73.64 47.5264 70.8342ZM38.5297 65.324C40.133 62.9301 42.1508 60.7924 44.5413 58.9066C46.899 59.4578 49.1927 60.1763 51.4089 61.0906C49.7937 63.5331 48.2016 66.0453 46.7188 68.6178C44.0409 67.3859 41.3023 66.294 38.5297 65.324ZM52.4118 54.1735C52.4714 54.1462 52.5102 54.1082 52.5526 54.0724C53.5853 54.3013 54.6234 54.5598 55.6659 54.8388C54.5201 56.4861 53.3526 58.1934 52.189 59.9285C50.1441 59.0877 48.0344 58.4154 45.8779 57.9056C47.8433 56.5097 50.0228 55.2619 52.4118 54.1735ZM50.4715 53.6558C48.1824 54.6521 45.9697 55.95 43.9305 57.4918C41.2539 56.9942 38.5096 56.7517 35.7184 56.7935C40.1007 53.0048 45.1717 52.7371 50.4715 53.6558ZM33.697 58.8389C34.0571 58.408 34.4248 58.0124 34.7964 57.6394C37.4854 57.7261 40.1045 58.0192 42.6529 58.5057C40.4623 60.3411 38.5155 62.4665 36.9531 64.8035C34.9265 64.1326 32.8895 63.508 30.84 62.972C31.6829 61.4669 32.6716 60.0632 33.697 58.8389ZM30.4463 63.7303C32.4314 64.3846 34.372 65.0976 36.2931 65.8394C34.8201 68.2777 33.7696 70.9235 33.2785 73.6918C31.3812 72.1141 29.7865 70.3554 28.7013 68.3883C29.0585 66.7989 29.6756 65.224 30.4463 63.7303ZM28.3623 71.1974C28.3664 70.6675 28.4139 70.1345 28.487 69.602C29.5871 71.6948 31.2366 73.324 33.1195 74.7165C32.856 76.8197 32.9289 78.9883 33.3846 81.1856C30.4778 78.6108 28.3324 75.1756 28.3623 71.1974ZM38.4394 84.5105C36.9733 83.8197 35.5165 82.9213 34.179 81.8549C34.0951 79.6927 34.1948 77.627 34.5056 75.6763C36.228 76.7956 38.0709 77.7762 39.8527 78.7394C40.3715 79.0191 40.8945 79.2846 41.4176 79.5511C40.7414 81.326 40.1571 83.1139 39.6986 84.9114C39.6875 84.9547 39.6945 84.9921 39.692 85.0325C39.2709 84.8688 38.8506 84.7039 38.4394 84.5105ZM41.7081 78.8079C39.1837 77.6707 36.7895 76.3263 34.6811 74.7891C35.269 71.74 36.3339 68.9571 37.8378 66.4395C40.5862 67.5436 43.2807 68.734 45.9239 70.0236C44.3294 72.8933 42.8897 75.8309 41.7081 78.8079ZM40.9212 85.309C41.4762 83.5746 42.1201 81.8915 42.8213 80.242C45.6569 81.6025 48.5673 82.7319 51.5716 83.5812C50.5986 84.4944 49.5817 85.3937 48.5278 86.2876C45.9652 86.4969 43.3518 86.2301 40.8526 85.4364C40.8761 85.3935 40.9048 85.3607 40.9212 85.309ZM50.251 86.0757C51.189 85.3981 52.0919 84.6862 52.9592 83.9421C53.7551 84.1404 54.5514 84.3406 55.3625 84.4957C53.7408 85.2525 52.0169 85.7777 50.251 86.0757ZM63.0964 77.8389C61.5773 80.1727 59.5983 82.0452 57.3477 83.4373C56.3498 83.2796 55.2911 83.0819 54.1914 82.846C56.006 81.1502 57.6254 79.2991 59.0069 77.299C59.8421 77.8162 60.677 78.3324 61.5092 78.8686C62.2153 79.3237 62.8829 78.2851 62.222 77.7886C61.4329 77.196 60.6189 76.6343 59.8046 76.0717C61.2938 73.68 62.4468 71.0918 63.185 68.312C63.7193 68.7674 64.2489 69.234 64.7694 69.72C65.0078 69.9426 65.296 69.9601 65.5392 69.8687C65.5134 72.565 64.75 75.2991 63.0964 77.8389Z" fill="#010A38"/>
<path d="M46.1 27.1718C46.4491 25.1759 44.92 23.3089 43.0028 23.1392C42.9636 22.6311 42.1247 22.4564 41.8775 23.0357C40.204 26.9549 38.5186 30.9421 37.3019 35.0296C37.2203 35.3051 37.632 35.5342 37.778 35.2581C38.7678 33.3867 39.659 31.4516 40.4961 29.4935C42.4778 30.8892 45.6832 29.5547 46.1 27.1718ZM41.087 28.5166C41.0314 28.4867 40.9771 28.4769 40.9241 28.4638C41.5757 26.9018 42.2019 25.331 42.8156 23.7639C44.1461 24.1494 45.2959 25.4877 45.069 26.9128C44.7716 28.7788 42.5491 29.3023 41.087 28.5166Z" fill="#010A38"/>
<path d="M49.5069 26.666C49.5799 26.1141 48.7567 25.8746 48.4802 26.3324C46.1797 30.1436 43.7095 34.1072 42.0314 38.2371C41.8905 38.5837 42.393 38.783 42.5978 38.5096C43.0417 37.9174 43.4634 37.3034 43.8796 36.6824C44.699 37.027 45.5497 37.3751 46.4095 37.5943C46.9424 37.7308 47.1854 36.9857 46.6738 36.7822C45.909 36.4769 45.0855 36.2692 44.2778 36.0776C45.6117 34.0182 46.8198 31.8407 47.976 29.6693C47.5208 32.9537 47.0449 36.2415 46.7413 39.5361C46.6781 40.223 47.6807 40.2323 47.7891 39.5838C48.5097 35.3079 48.9422 30.9674 49.5069 26.666Z" fill="#010A38"/>
<path d="M56.6534 38.359C56.4249 37.1081 55.4183 36.2003 54.5579 35.3489C54.0591 34.8541 52.8886 33.9265 52.8957 33.1454C52.9085 31.7614 54.5071 30.9165 55.6865 30.9674C56.5714 31.0052 57.5529 31.4468 58.3848 31.755C58.693 31.8694 58.9348 31.3884 58.6398 31.2261C56.55 30.0778 51.4311 28.8652 51.5523 32.9325C51.5905 34.2256 52.5578 35.193 53.4143 36.0453C53.9772 36.605 54.731 37.1571 55.084 37.886C56.7494 41.3206 51.9996 41.1148 50.3386 40.8805C50.0284 40.8371 49.9501 41.3267 50.2406 41.4163C52.5929 42.1457 57.3474 42.1602 56.6534 38.359Z" fill="#010A38"/>
<path d="M62.9199 32.7937C63.0706 32.0757 62.0855 31.7597 61.8007 32.4535C60.3062 36.0936 59.0113 40.1836 58.3386 44.0614C58.2887 44.3463 58.7611 44.501 58.8889 44.2401C59.7657 42.4565 60.5455 40.5363 61.2228 38.5821C61.2356 38.6458 61.2519 38.7119 61.2934 38.7807C62.4732 40.7355 65.3771 40.3398 66.2101 38.2772C67.2342 35.7456 65.1522 33.593 62.9199 32.7937ZM62.3571 38.2396C62.1116 37.8425 61.6204 37.8894 61.366 38.1368C61.8938 36.5749 62.3531 35.0034 62.7472 33.4572C64.1499 34.1197 65.4964 35.2558 65.4233 36.9475C65.3594 38.4172 63.374 39.8859 62.3571 38.2396Z" fill="#010A38"/>
<path d="M71.8231 36.8825C71.9171 36.8631 72.0033 36.8312 72.1022 36.82C72.2649 36.8012 72.3458 36.5556 72.2246 36.4447C71.9954 36.2364 71.7479 36.114 71.4881 36.0525C71.3584 35.9966 71.2112 35.9834 71.0689 36.0111C67.7478 36.1102 62.8304 45.7379 64.1975 48.0103C65.6024 50.3441 68.2081 48.2798 69.2409 46.8155C71.2838 43.9183 72.1178 40.3843 71.8231 36.8825ZM68.8726 45.074C68.5167 45.6901 66.5794 49.0658 65.4444 46.0403C65.2731 45.5842 66.2674 43.899 66.4396 43.5221C66.9148 42.4832 67.4677 41.4725 68.0679 40.5007C68.7802 39.3472 69.5115 38.0636 70.6382 37.3504C70.6967 38.9789 70.5818 40.5721 70.1124 42.1632C69.8162 43.1685 69.3949 44.1682 68.8726 45.074Z" fill="#010A38"/>
<path d="M73.6356 45.374C77.9723 45.3683 79.3687 39.4383 75.2761 37.6631C75.4949 36.9293 74.3565 36.5616 74.1156 37.3022C72.7088 41.6272 71.3336 45.9607 70.2206 50.3716C70.1353 50.7103 70.6052 50.8634 70.7355 50.5385C71.3603 48.9803 71.9431 47.4076 72.5101 45.8281C72.889 47.4005 73.2688 48.9728 73.6979 50.5313C73.8985 51.2604 75.0241 51.0293 74.8557 50.2789C74.4844 48.6373 74.0577 47.0046 73.6356 45.374ZM75.0292 38.4235C78.0271 40.0804 76.6819 44.5864 73.1111 44.1502C73.7733 42.2493 74.4046 40.3377 75.0292 38.4235Z" fill="#010A38"/>
<path d="M82.6976 40.6302C82.2266 40.3207 81.6718 40.1491 81.1442 39.947C80.9982 39.7259 80.7286 39.6102 80.467 39.6729C80.0429 39.4955 79.6191 39.3191 79.1848 39.1706C78.7773 39.0315 78.4651 39.6413 78.8503 39.866C79.1757 40.0555 79.5125 40.2272 79.8508 40.3955C78.1103 44.0713 76.7304 47.9526 76.234 52.0071C76.1954 52.3254 76.6806 52.3975 76.7783 52.1063C78.0491 48.3264 79.2908 44.6008 81.0097 40.9951C81.4087 41.2178 81.8116 41.4438 82.2476 41.5674C82.8055 41.7251 83.2055 40.9633 82.6976 40.6302Z" fill="#010A38"/>
<path d="M83.3743 68.9148C79.4036 77.6922 75.2256 86.3344 70.5658 94.7686C68.4444 98.6087 65.8664 105.868 60.6051 106.193C55.79 106.489 49.5393 103.363 45.381 101.284C45.155 101.171 44.935 101.493 45.1641 101.621C49.4575 104.007 54.1917 106.048 59.0819 106.785C63.4116 107.438 65.1578 105.955 67.3429 102.382C73.812 91.8057 79.4992 80.6376 84.3894 69.2468C84.6651 68.6102 83.6545 68.2987 83.3743 68.9148Z" fill="#010A38"/>
</svg>
