<svg width="146" height="87" viewBox="0 0 146 87" fill="none" xmlns="http://www.w3.org/2000/svg">
<path d="M139.503 79.7019C143.894 68.2713 146.705 53.5624 145.097 41.378C144.585 37.5054 143.813 33.9822 140.519 31.5501C135.414 27.7795 127.038 26.4554 121.07 24.5179C90.0146 14.4367 57.9223 5.8164 25.543 1.04707C17.6921 -0.343027 6.2832 -1.62869 6.05152 6.16452C4.22086 10.5245 3.69506 15.6719 2.89437 20.2204C1.5967 27.5958 0.415486 35.0901 0.0397506 42.5784C-0.632492 55.9681 7.28316 59.4698 19.1218 62.1287C34.9388 65.6808 50.7737 69.1548 66.6002 72.6685C83.3582 76.3887 100.119 80.098 116.882 83.7965C125.754 85.7544 135.389 90.4121 139.503 79.7019ZM106.367 79.3393C98.9243 77.6707 91.4804 76.0081 84.0365 74.3431C69.1487 71.0131 54.2573 67.6975 39.3671 64.3759C31.9257 62.7157 24.4458 61.172 17.0319 59.3941C13.7211 58.6006 10.0406 57.884 7.16311 55.9501C1.51867 52.1567 1.89319 46.1473 2.34815 40.2148C2.85954 33.556 3.81269 26.9284 4.9519 20.3512C5.60014 16.6095 6.04912 12.6637 7.19074 9.04435C7.53286 7.95796 8.06703 6.63508 8.76088 5.31221C8.63484 5.27259 8.51721 5.20777 8.39597 5.15375C8.86054 4.37467 9.44392 3.66282 10.121 3.01938C15.5769 0.383232 26.3112 3.15863 31.0625 3.42633C31.1862 3.43353 31.2906 3.40952 31.3818 3.37231C33.7647 3.87769 36.1452 4.38788 38.5257 4.89806C38.2376 5.38664 38.1067 6.00726 38.0071 6.54025C37.8558 7.35054 37.8054 8.17164 37.9446 8.98674C38.0371 9.52693 38.9242 9.48732 38.9194 8.92191C38.9134 8.22446 38.8942 7.52821 38.9854 6.83436C39.061 6.25335 39.3047 5.66033 39.3659 5.07812C60.658 9.65657 81.8325 14.5243 102.776 20.7222C109.558 22.7293 116.31 24.8361 123.029 27.0437C126.361 28.1384 129.84 29.0904 133.083 30.4301C139.344 33.0182 142.415 35.1202 143.343 41.7273C144.44 49.5494 143.148 57.6319 141.423 65.2534C139.623 73.2111 138.643 84.8073 127.298 84.039C120.453 83.5757 113.071 80.8423 106.367 79.3393Z" fill="#010A38"/>
<path d="M37.9831 19.0391C38.0311 17.6105 37.9242 16.0692 37.7286 14.6527C37.6841 14.3297 37.2063 14.385 37.1763 14.6899C37.0347 16.1208 36.9975 17.6634 37.0995 19.0991C37.1343 19.6057 37.9663 19.5372 37.9831 19.0391Z" fill="#010A38"/>
<path d="M37.114 28.2956C37.2989 27.9763 37.0757 27.6762 36.8032 27.6246C36.8068 27.5778 36.8091 27.5298 36.8139 27.4973C36.9004 26.9728 37.0024 26.4494 37.0588 25.92C37.0984 25.555 36.527 25.441 36.4262 25.7975C36.1993 26.603 35.7516 27.4757 35.7492 28.3256C35.748 28.6558 35.8944 29.0111 36.275 29.0327C36.6927 29.0567 36.9388 28.5993 37.114 28.2956Z" fill="#010A38"/>
<path d="M34.8477 41.7684C35.8201 39.7361 35.9533 37.478 35.3831 35.3088C35.2522 34.8131 34.4924 34.9559 34.5968 35.4661C35.0146 37.5177 34.7421 39.5452 33.9522 41.4719C33.7169 42.0457 34.5932 42.3002 34.8477 41.7684Z" fill="#010A38"/>
<path d="M33.0099 49.6252C33.1539 48.8305 33.1827 48.0442 33.2632 47.246C33.2992 46.8834 32.7254 46.7634 32.6305 47.1235C32.4145 47.9398 32.1588 48.7261 32.0063 49.5616C31.8899 50.1978 32.8946 50.2543 33.0099 49.6252Z" fill="#010A38"/>
<path d="M30.9968 59.8659C31.2297 58.6931 31.2069 57.4686 31.2609 56.2766C31.2825 55.7988 30.6247 55.788 30.5406 56.231C30.3282 57.3606 30.0173 58.5166 29.9776 59.6678C29.9596 60.2344 30.8768 60.4709 30.9968 59.8659Z" fill="#010A38"/>
<path d="M132.657 40.2135C104.318 34.3482 76.5003 27.0508 48.7463 18.8686C47.6131 18.5349 47.0477 20.2215 48.1689 20.6129C75.4704 30.1455 103.765 37.3397 132.179 42.6756C133.576 42.9373 134.062 40.504 132.657 40.2135Z" fill="#010A38"/>
<path d="M72.9226 35.6902C68.4114 34.1176 63.7093 32.9964 59.1117 31.6988C55.0278 30.5463 50.717 28.8309 46.4675 28.5596C45.9597 28.5272 45.6632 29.2727 46.1434 29.5392C49.8683 31.6015 54.3831 32.4814 58.443 33.7131C63.0131 35.1008 67.5771 36.6914 72.2228 37.8006C73.5973 38.1283 74.2947 36.1692 72.9226 35.6902Z" fill="#010A38"/>
<path d="M129.204 48.7387C123.34 45.8793 117.232 45.5516 110.852 44.6921C101.088 43.3776 91.6883 40.535 82.1664 38.1245C81.4246 37.9373 81.0549 39.0008 81.7895 39.2613C89.4831 42.0007 97.3292 44.428 105.342 46.039C112.834 47.5455 120.92 47.3558 127.892 50.7567C129.267 51.4265 130.598 49.4182 129.204 48.7387Z" fill="#010A38"/>
<path d="M91.7058 53.6749C91.7899 53.5945 91.8739 53.5129 91.9591 53.4325C92.4753 52.9379 92.3901 52.1588 91.8247 51.7458C89.5187 50.0652 85.897 49.9824 83.1672 49.3138C78.8612 48.2598 74.5684 47.1518 70.2877 46.0042C61.719 43.7077 53.2367 41.1508 44.7257 38.6575C43.8673 38.4066 43.4412 39.6803 44.2887 39.978C51.807 42.6213 59.4526 44.949 67.1126 47.1482C70.5194 48.1265 73.9406 49.0557 77.3667 49.962C79.5082 50.5286 81.6534 51.0796 83.8022 51.6198C84.6605 51.8383 85.52 52.052 86.3819 52.2632C87.5403 52.6822 88.7107 52.7278 89.8908 52.4337C89.7563 52.7986 89.8224 53.2452 90.2389 53.5969C90.3098 53.6569 90.3793 53.7158 90.4502 53.7758C90.7851 54.0579 91.4069 53.9606 91.7058 53.6749Z" fill="#010A38"/>
<path d="M89.9317 60.3276C75.4605 54.6279 58.7205 51.8693 43.5134 48.7818C42.7139 48.6198 42.2793 49.801 43.1052 50.0159C58.2199 53.9485 74.7258 56.6158 89.2643 62.3419C90.5379 62.8437 91.1993 60.827 89.9317 60.3276Z" fill="#010A38"/>
<path d="M32.9014 14.7407C29.4201 13.5918 25.7468 12.874 22.1839 12.0085C19.3881 11.3302 16.2934 10.0842 13.4039 10.3423C13.129 10.3675 13.1014 10.7528 13.2995 10.8873C15.9116 12.6591 19.7446 13.1117 22.7709 13.9292C26.0169 14.8067 29.2629 15.8379 32.5677 16.4621C33.5688 16.6505 33.8293 15.048 32.9014 14.7407Z" fill="#010A38"/>
<path d="M32.3677 23.1491C25.1495 21.6401 17.9577 19.9811 10.7083 18.6306C10.2605 18.5466 10.1225 19.2897 10.557 19.4109C17.0022 21.2176 23.5181 22.7733 30.0077 24.4179C29.8 25.0169 30.3486 25.7276 31.118 25.4239C31.591 25.2582 32.0484 25.0565 32.4901 24.8201C33.1408 24.5019 33.1624 23.3159 32.3677 23.1491Z" fill="#010A38"/>
<path d="M29.2355 29.4411C22.2322 28.4579 15.3429 26.8818 8.40442 25.5481C7.95066 25.4617 7.8294 26.1927 8.25316 26.3296C14.9924 28.5 21.9441 29.9129 28.8574 31.3894C30.2643 31.6895 30.6749 29.6428 29.2355 29.4411Z" fill="#010A38"/>
<path d="M27.155 46.4783C20.7771 46.1013 14.6644 44.5432 8.66587 42.416C8.00083 42.1807 7.70795 43.1615 8.32737 43.4376C14.2779 46.0941 20.597 47.4938 27.0421 48.2513C28.1753 48.3845 28.3014 46.5455 27.155 46.4783Z" fill="#010A38"/>
</svg>
