<svg width="64" height="61" viewBox="0 0 64 61" fill="none" xmlns="http://www.w3.org/2000/svg">
<path d="M19.7673 9.59304C15.0602 9.83273 11.4893 13.9037 10.2627 18.1509C8.93497 22.7501 13.9772 27.9267 18.412 28.145C23.4824 28.3947 27.9066 24.6858 27.8815 19.3995C27.8589 14.6441 24.4663 8.21829 18.9805 9.90928C18.6454 10.0128 18.8173 10.565 19.1536 10.4966C25.5725 9.19022 27.5991 17.3126 26.3072 21.8843C25.3033 25.4375 21.8805 27.1605 18.4126 27.1285C14.0575 27.0877 10.4547 22.3781 11.0909 18.2864C11.6964 14.3918 15.9976 10.4451 19.8043 9.88481C19.9944 9.85657 19.9549 9.583 19.7673 9.59304Z" fill="#010A38"/>
<path d="M24.7184 1.4161C22.5831 4.24278 24.1769 7.43339 26.9778 9.03466C29.8108 10.6541 34.1257 9.96831 36.4862 7.83559C36.9901 7.38069 36.2585 6.76579 35.759 7.01928C33.8365 7.99497 32.0897 8.78619 29.8836 8.6996C26.6026 8.57034 23.0061 5.23981 25.2555 1.77814C25.4839 1.42676 24.9693 1.08417 24.7184 1.4161Z" fill="#010A38"/>
<path d="M36.4618 7.8369C33.6923 8.32067 32.3614 11.1141 32.6068 13.7218C32.8195 15.98 34.6403 19.1399 37.2587 18.801C38.0129 18.7032 38.1371 17.4934 37.317 17.4163C32.9236 17.004 32.8113 9.89746 36.6595 8.44679C37.0096 8.31439 36.8119 7.77541 36.4618 7.8369Z" fill="#010A38"/>
<path d="M24.3633 1.66259C21.9156 4.65994 14.9904 4.73963 14.149 0.371916C14.0461 -0.161421 13.2235 -0.105576 13.2034 0.439682C12.9926 6.18403 22.4665 5.64441 24.7416 1.93553C24.8803 1.70964 24.5327 1.45553 24.3633 1.66259Z" fill="#010A38"/>
<path d="M12.6569 0.452962C12.5496 1.71791 12.5954 2.66976 11.9699 3.90333C11.2884 5.24609 10.0053 6.1628 8.93487 7.16798C7.35934 8.6469 4.07715 10.3166 1.8566 9.54604C1.46381 9.40989 1.02083 9.90432 1.34585 10.245C3.15918 12.1468 7.44593 9.66087 9.04656 8.43043C11.8168 6.30147 13.6684 3.96671 13.3396 0.391466C13.3019 -0.014497 12.6883 0.0821356 12.6569 0.452962Z" fill="#010A38"/>
<path d="M1.18398 11.0732C3.85253 12.0156 5.1112 15.9673 5.02398 18.5154C4.9261 21.366 2.95088 24.4317 0.257236 25.4494C-0.0891169 25.5799 -0.105427 26.1509 0.329397 26.1459C3.31293 26.112 5.61317 22.1133 5.89991 19.4503C6.22807 16.4047 4.95936 11.0449 1.24799 10.6547C0.995125 10.6283 0.967514 10.9966 1.18398 11.0732Z" fill="#010A38"/>
<path d="M0.600394 26.8793C4.14738 26.4081 6.37419 27.786 8.26408 30.826C9.92118 33.4908 9.64949 36.9217 7.62847 39.2282C7.16792 39.754 7.92965 40.4223 8.42533 39.9479C10.7318 37.7405 11.0801 33.8396 9.55099 31.0399C7.53938 27.3574 4.68259 25.4016 0.529488 26.5179C0.300468 26.58 0.364472 26.9107 0.600394 26.8793Z" fill="#010A38"/>
<path d="M8.08157 40.6029C11.008 34.4501 20.8207 34.9006 22.6441 41.6062C22.8148 42.2337 23.8839 41.9639 23.7478 41.3295C22.1101 33.6978 10.1672 33.192 7.52127 40.3814C7.38511 40.7491 7.9153 40.9524 8.08157 40.6029Z" fill="#010A38"/>
<path d="M23.3072 40.6101C22.1534 39.1506 23.8199 36.3741 24.6337 35.1023C25.2931 34.072 26.3786 33.3304 27.4164 32.7336C29.2762 31.6638 32.0614 31.0747 34.1276 31.7115C34.6948 31.8866 34.9847 31.0778 34.5098 30.7804C32.0646 29.2506 27.8719 31.2108 25.8208 32.6634C23.9014 34.0231 20.8482 38.7095 23.0481 40.8266C23.2018 40.9753 23.4459 40.7852 23.3072 40.6101Z" fill="#010A38"/>
<path d="M34.1226 31.0829C32.5891 30.7843 31.2351 26.2126 31.1372 25.2934C30.7852 21.9961 34.3146 19.3966 37.0904 18.8168C37.6395 18.702 37.5504 17.7809 36.98 17.8311C33.8258 18.109 30.255 21.1114 30.1019 24.4658C30.0191 26.2842 30.4602 28.1057 31.6366 29.5494C32.3086 30.3739 32.8068 31.8064 34.0366 31.8221C34.4602 31.8271 34.5436 31.1645 34.1226 31.0829Z" fill="#010A38"/>
<path d="M26.6731 42.5889C32.4048 42.7487 38.2161 41.6726 43.9261 41.2163C50.2718 40.7087 57.1214 40.1945 63.3412 38.9181C63.9509 38.793 63.8323 37.9223 63.2465 37.8688C57.7961 37.3735 52.0037 38.9319 46.6198 39.684C40.0616 40.6002 33.2799 41.6849 26.6818 42.1644C26.4439 42.1803 26.4294 42.5824 26.6731 42.5889Z" fill="#010A38"/>
<path d="M27.0983 41.7793C26.6557 41.6686 27.0209 39.2699 27.0527 38.9525C27.1872 37.5756 27.6529 36.3831 28.3421 35.1877C29.0631 33.9374 29.933 32.669 31.1696 31.8851C33.2414 30.5725 34.6885 32.9047 36.1926 33.8427C36.6923 34.1551 37.2434 33.5143 36.9621 33.0399C35.8412 31.1496 33.995 29.9391 31.7879 30.1509C29.6705 30.3541 28.2047 32.7738 27.24 34.3792C26.067 36.3296 25.5189 38.5106 25.7966 40.7864C25.8819 41.4857 26.2804 42.6963 27.1626 42.2327C27.3817 42.1177 27.3253 41.8357 27.0983 41.7793Z" fill="#010A38"/>
<path d="M36.5438 33.2983C36.1273 33.2368 37.732 30.6125 38.0393 30.3051C39.0553 29.2942 40.4503 28.7178 41.8156 28.3772C45.8746 27.3648 48.2039 30.8149 48.7217 34.2673C48.8555 35.1561 50.3632 34.9406 50.2765 34.0504C49.8729 29.9305 47.2609 26.9519 43.0298 26.7718C39.4437 26.6185 34.54 29.8828 35.6847 33.8775C35.7397 34.0684 35.9856 34.1791 36.1685 34.1523C36.2777 34.1364 36.3884 34.1198 36.4983 34.1039C36.9343 34.0388 37.0247 33.3691 36.5438 33.2983Z" fill="#010A38"/>
<path d="M49.7791 31.6993C50.2449 30.9493 51.0577 30.8553 51.8416 30.7866C52.3767 30.7403 52.9523 31.2458 53.3964 31.5026C53.998 31.8511 54.2251 32.0543 54.5281 32.6791C54.7711 33.1795 55.1109 33.6106 55.5889 33.8962C56.1566 34.2354 56.9007 33.7313 56.6267 33.0646C56.3309 32.3486 55.9426 31.2798 55.3214 30.7873C54.6055 30.2197 53.6719 29.8624 52.8417 29.5066C51.4633 28.9165 49.5528 30.0837 49.1572 31.4396C49.0488 31.8186 49.5788 32.0218 49.7791 31.6993Z" fill="#010A38"/>
<path d="M56.1704 32.4581C57.4858 31.2418 59.5677 31.3438 60.9663 32.3721C62.9405 33.8249 61.1349 36.2569 62.0496 37.9831C62.4177 38.678 63.2645 38.7308 63.6608 38.0257C64.2538 36.9728 63.937 35.1772 63.7027 34.0296C63.467 32.8769 62.7417 31.8941 61.7734 31.2411C59.9662 30.0218 57.0852 30.3364 55.7705 32.1002C55.5861 32.3461 55.9448 32.6679 56.1704 32.4581Z" fill="#010A38"/>
<path d="M13.4962 48.6703C13.0707 46.7037 9.70668 47.4827 8.53628 48.1213C5.07709 50.0092 5.30341 56.1629 0.907834 56.9873C0.5105 57.0616 0.546386 57.6966 0.94848 57.6208C3.08273 57.2205 4.2524 55.4997 5.362 53.7767C6.11053 52.614 6.67339 51.3579 7.37614 50.1696C8.11771 48.9157 9.30971 48.1953 10.7332 48.0119C11.3612 47.9309 12.859 48.1869 13.2743 48.7556C13.3504 48.8607 13.5266 48.812 13.4962 48.6703Z" fill="#010A38"/>
<path d="M0.825451 57.6189C3.72984 60.2116 8.36675 62.039 12.0442 59.9373C15.7949 57.7936 17.0217 53.4009 15.3748 49.5396C15.2833 49.325 14.9592 49.4722 15.046 49.6868C16.7445 53.9026 15.1449 58.2143 10.8892 60.0351C9.21158 60.7529 7.0689 60.1724 5.36604 59.8154C3.71811 59.4697 2.32031 58.374 1.03089 57.3545C0.859876 57.2193 0.665419 57.4764 0.825451 57.6189Z" fill="#010A38"/>
<path d="M14.6905 49.8451C15.4185 49.4346 15.8729 48.7018 16.5922 48.2825C17.1774 47.9415 17.5758 47.5662 18.2397 47.3409C18.5843 47.2241 18.6012 47.2483 18.848 47.019C18.9297 46.9432 18.93 46.7795 18.8396 46.7092C18.6363 46.5499 18.4943 46.361 18.3423 46.1617C18.2544 46.0541 18.1683 45.9439 18.0856 45.8318C17.8475 45.6102 17.816 45.3583 17.9911 45.0759C18.4628 45.2979 18.9872 46.4924 18.5693 46.9106C18.4031 47.0773 18.6374 47.3596 18.8081 47.1923C19.8587 46.1621 17.7454 43.8341 17.3334 44.765C17.1433 45.1935 17.2682 45.5454 17.5044 45.9307C17.5363 45.983 18.2972 46.9685 18.4441 46.8103C18.209 47.0637 17.5242 47.1974 17.2045 47.3761C16.8991 47.5467 16.6423 47.7786 16.3908 48.0173C16.1857 48.2121 15.9425 48.3506 15.7422 48.5608C15.3423 48.9797 15.1577 49.4049 14.6308 49.7506C14.5707 49.7905 14.6278 49.8802 14.6905 49.8451Z" fill="#010A38"/>
<path d="M13.338 49.1691C14.4688 47.7533 15.6898 45.7828 17.7544 45.7652C17.9826 45.7634 18.028 45.4418 17.7929 45.4067C15.64 45.0859 14.0664 47.4351 13.0542 48.9607C12.9286 49.1493 13.1955 49.3467 13.338 49.1691Z" fill="#010A38"/>
<path d="M12.7682 51.4145C11.7798 53.0591 10.5501 54.3647 9.09405 55.5984C7.69404 56.7849 3.92834 59.3847 2.235 56.9351C2.05153 56.67 1.64284 56.971 1.77687 57.2449C2.8125 59.3576 5.32944 58.1469 6.92757 57.5379C8.19794 57.0537 9.2841 55.8094 10.2846 54.9268C11.4125 53.9318 12.2544 52.8332 12.8912 51.4753C12.9293 51.3936 12.8129 51.3398 12.7682 51.4145Z" fill="#010A38"/>
<path d="M8.15664 52.7749C8.74074 53.7871 10.1865 53.8135 11.2064 53.6337C11.4042 53.5989 11.402 53.3151 11.2031 53.2847C10.2656 53.1408 9.00367 53.5132 8.33278 52.6559C8.25844 52.5603 8.09585 52.6694 8.15664 52.7749Z" fill="#010A38"/>
<path d="M11.2224 53.3249C11.6084 54.7915 11.425 56.1908 10.9789 57.6146C10.8962 57.8794 11.2854 57.9717 11.3843 57.7271C11.9831 56.2472 12.1431 54.7263 11.507 53.2278C11.4316 53.0498 11.1734 53.1374 11.2224 53.3249Z" fill="#010A38"/>
<path d="M5.72792 56.1546C6.26369 56.0623 6.80202 56.333 7.29163 56.5238C7.74427 56.6999 8.2976 56.8013 8.77586 56.9163C8.93626 56.9548 9.03184 56.7223 8.90404 56.6278C8.39281 56.252 7.80908 56.2762 7.23158 56.0726C6.71046 55.8891 6.1996 55.7317 5.65066 55.891C5.47561 55.9422 5.55837 56.1839 5.72792 56.1546Z" fill="#010A38"/>
<path d="M9.02207 56.7616C8.92868 57.8716 8.14098 58.7919 7.37158 59.5357C7.20239 59.699 7.42101 59.9952 7.62389 59.8674C8.62547 59.2365 9.31833 57.9287 9.31393 56.7481C9.31283 56.5551 9.03745 56.5807 9.02207 56.7616Z" fill="#010A38"/>
</svg>
