<svg width="64" height="52" viewBox="0 0 64 52" fill="none" xmlns="http://www.w3.org/2000/svg">
<path d="M42.091 16.6959C43.7186 21.5302 49.5498 25.2843 52.9902 28.8896C55.1328 31.1358 57.1008 33.4054 58.84 35.9822C60.3738 38.2526 63.2337 40.253 61.7508 43.2357C61.3287 44.0863 62.7073 44.6749 63.114 43.8106C63.7754 42.4021 64.2484 41.503 63.8595 39.9942C63.6743 39.2795 61.6473 37.4651 61.433 37.208C60.3876 35.9491 59.5087 34.5349 58.5861 33.1871C57.0167 30.8956 54.8709 28.9939 52.9344 27.0162C49.7414 23.7562 44.7026 20.4888 42.6675 16.4186C42.5009 16.0879 41.9778 16.3596 42.091 16.6959Z" fill="#010A38"/>
<path d="M62.6612 43.0758C57.0241 39.8789 51.0433 37.2826 45.529 33.8697C42.7985 32.1799 39.5829 31.3333 37.0554 29.3766C36.6244 29.0427 35.955 29.2731 35.8749 29.8318C35.4852 32.5486 41.6099 33.5625 43.2844 34.6362C49.1011 38.3628 55.7271 41.9439 62.3241 44.0122C62.8901 44.1908 63.1375 43.3451 62.6612 43.0758Z" fill="#010A38"/>
<path d="M34.08 13.7115C28.5504 13.5732 22.7579 14.305 17.2194 14.6995C11.8749 15.0803 6.42686 14.8273 1.12521 15.5744C0.863243 15.6116 0.563272 15.9156 0.529313 16.1784C0.346581 17.561 0.44929 18.3461 0.947355 19.7117C1.3112 20.7119 2.92505 20.3141 2.56282 19.2977C1.48745 16.2859 7.0454 16.8794 8.90748 16.6756C11.6905 16.3716 14.5018 16.2883 17.2929 16.0846C22.8226 15.6803 28.5123 14.7408 34.0339 14.5831C34.5878 14.5661 34.6484 13.7252 34.08 13.7115Z" fill="#010A38"/>
<path d="M29.6271 26.5591C27.6171 26.741 23.5072 25.3066 21.4454 24.7479C18.3786 23.9184 15.2528 22.8422 12.3347 21.6011C10.2729 20.7246 8.15777 20.085 5.97388 19.5959C4.13605 19.1843 2.68552 18.1841 0.812928 18.2787C-0.201799 18.3297 -0.304476 19.9266 0.719953 19.8683C2.09853 19.7899 3.051 20.613 4.33416 20.8103C7.71631 21.3294 10.8147 22.4428 13.9494 23.7833C16.6039 24.9185 19.6877 25.6414 22.4812 26.3739C24.8147 26.986 27.3398 27.8681 29.7225 27.3126C30.1907 27.2019 30.122 26.5146 29.6271 26.5591Z" fill="#010A38"/>
<path d="M40.887 1.35462C41.7683 1.5414 42.4548 1.46216 43.3288 1.2673C45.7246 0.732849 43.7517 4.62762 43.6789 5.05777C43.2682 7.4438 43.1259 10.1904 42.1597 12.4261C41.4344 14.103 41.1409 15.5163 41.5484 17.2539C41.7295 18.0236 42.7636 17.7932 42.8356 17.0922C43.1348 14.1612 44.2037 11.4105 44.6694 8.48924C44.9815 6.52933 45.5362 4.71575 46.0124 2.80677C47.0029 -1.16158 43.1501 0.313212 41.0722 0.0908613C40.3437 0.0124322 40.1755 1.20343 40.887 1.35462Z" fill="#010A38"/>
<path d="M41.5952 0.267039C39.7315 1.86554 38.3756 3.96291 36.9477 5.9293C36.3114 6.80657 35.9208 7.94743 35.4664 8.92901C34.9344 10.0788 34.0668 10.9479 33.4483 12.0395C32.8977 13.0097 34.4016 13.8102 34.9659 12.8577C36.0057 11.1032 36.8976 9.66559 37.6342 7.72912C38.5535 5.31399 40.2765 2.58838 41.9445 0.641394C42.1547 0.395596 41.8523 0.0471137 41.5952 0.267039Z" fill="#010A38"/>
<path d="M35.8514 29.2271C35.7042 30.6259 34.9013 30.9954 34.2626 32.3659C33.5753 33.8383 32.8509 35.2136 31.8038 36.4709C30.173 38.4276 29.4922 41.2535 28.6327 43.5934C28.2785 44.5588 29.7105 45.0173 30.1204 44.1068C31.3146 41.4548 32.1232 38.9329 33.6667 36.4426C34.9709 34.3372 36.8928 31.8282 36.7796 29.2401C36.7537 28.6345 35.9128 28.6369 35.8514 29.2271Z" fill="#010A38"/>
<path d="M29.4961 26.667C27.4359 27.7189 26.9266 30.5052 26 32.453C24.4257 35.7591 22.3874 39.2973 21.5044 42.8461C21.3395 43.5066 22.2127 43.978 22.6081 43.3692C23.9802 41.2556 24.7685 38.7403 25.7348 36.4181C26.6395 34.2439 28.0892 28.4596 29.8511 27.2039C30.1971 26.9581 29.86 26.4811 29.4961 26.667Z" fill="#010A38"/>
<path d="M22.1198 42.2664C21.0816 42.889 19.8 42.9868 18.6147 43.0483C17.3728 43.1122 16.2263 43.7339 14.9617 43.8124C14.1645 43.8625 13.8014 44.8319 14.5008 45.3155C15.6522 46.1119 16.9014 46.5647 18.2396 46.9471C19.6206 47.3409 21.0719 47.8705 22.4796 48.109C23.221 48.2343 23.6318 47.167 23.0181 46.7482C20.7913 45.2265 17.7237 45.3518 15.3692 43.9369C15.2851 44.4317 15.2002 44.9257 15.1153 45.4206C16.5246 45.237 17.7383 44.4883 19.1217 44.2765C20.32 44.0921 21.5797 43.6264 22.4925 42.8154C22.8046 42.5373 22.4957 42.04 22.1198 42.2664Z" fill="#010A38"/>
<path d="M25.2966 49.0015C25.9272 49.426 25.5343 49.8359 25.0257 50.1334C24.5357 50.4205 23.7595 50.3687 23.2315 50.2321C22.8685 50.1375 22.4068 50.0259 22.2111 49.7122C22.0066 49.3823 22.2257 48.9125 22.3316 48.581C22.6082 47.7094 21.287 47.0941 20.8471 47.9188C20.3272 48.8931 20.2084 49.8068 20.8754 50.7471C21.5619 51.7142 23.1248 51.9284 24.2301 51.8484C25.2198 51.7772 26.2304 51.1749 26.6727 50.2774C27.1506 49.3071 26.5999 48.5697 25.6653 48.2414C25.2036 48.0781 24.8971 48.733 25.2966 49.0015Z" fill="#010A38"/>
<path d="M24.4969 14.4562C25.1477 14.8152 26.0509 14.7764 26.5109 14.0972C26.9864 13.3962 26.3509 12.5521 25.7412 12.1567C24.1063 11.0975 22.5467 11.8866 21.7454 13.528C21.3185 14.4012 22.7472 14.9688 23.1571 14.0802C23.3592 13.642 23.7336 13.0542 24.2891 13.0792C24.7831 13.1019 25.2682 13.5207 25.4954 13.9218C25.4979 13.7091 25.5011 13.4965 25.5043 13.283C25.3709 13.5765 25.0734 13.8846 24.7119 13.8538C24.361 13.8247 24.1548 14.2686 24.4969 14.4562Z" fill="#010A38"/>
<path d="M18.4756 15.2868C17.4973 13.8185 16.5561 12.6776 14.7539 12.2394C13.2144 11.8643 11.7169 12.6914 12.0873 14.4079C12.2878 15.3345 13.6041 15.1979 13.5556 14.2349C13.5063 13.2493 14.6981 13.5549 15.3239 13.7352C16.4688 14.0651 17.1795 14.9311 17.9759 15.742C18.2549 16.0275 18.6834 15.5981 18.4756 15.2868Z" fill="#010A38"/>
<path d="M47.843 23.4129C48.7688 23.2173 51.3335 23.814 51.0529 25.1731C50.934 25.7529 51.7402 26.0116 52.0135 25.5038C53.2141 23.2682 49.2628 21.9648 47.6918 22.7354C47.3651 22.8938 47.4266 23.5002 47.843 23.4129Z" fill="#010A38"/>
<path d="M53.6879 28.7404C54.6848 28.5439 55.799 28.5099 56.4176 29.4462C56.9755 30.2912 56.8509 31.4821 56.804 32.437C56.7798 32.9561 57.5099 33.0548 57.6748 32.5858C58.1487 31.2436 57.9562 29.6928 56.9641 28.6239C56.0529 27.6407 54.6517 27.7604 53.5804 28.362C53.3984 28.4638 53.4518 28.7873 53.6879 28.7404Z" fill="#010A38"/>
<path d="M63.1343 43.516C61.108 41.1219 58.3994 40.0716 55.711 38.5216C51.6189 36.1615 47.1097 33.8765 42.754 32.0516C42.1379 31.7937 41.694 32.6969 42.3036 32.992C45.8499 34.7093 49.3526 36.5342 52.9555 38.1311C56.2543 39.5938 60.1669 41.3936 62.7187 43.9583C63.0009 44.2413 63.3809 43.8071 63.1343 43.516Z" fill="#010A38"/>
<path d="M27.9849 25.2874C23.1417 23.5328 18.212 22.1122 13.2249 20.7854C10.1985 19.9801 6.54226 18.9168 3.85869 17.2852C2.96525 16.7418 2.20037 16.5971 1.24629 16.9585C0.468465 17.2528 0.777335 18.5101 1.57456 18.2239C2.95233 17.7291 6.78078 19.7933 8.12459 20.2162C10.2365 20.8816 12.2781 21.6052 14.4272 22.1551C18.9252 23.3064 23.3972 24.575 27.8402 25.876C28.2227 25.9884 28.3439 25.4175 27.9849 25.2874Z" fill="#010A38"/>
<path d="M30.3451 44.3646C30.2222 44.4478 30.5537 44.2069 30.5109 44.2449C31.1084 43.7121 29.8705 43.0531 29.746 43.7913C29.5503 44.9499 30.3079 45.5119 30.9475 46.4239C31.9234 47.8163 32.3309 49.5457 33.2527 50.9696C33.5898 51.4911 34.4024 51.0318 34.1987 50.4683C33.7119 49.1245 32.9753 47.8324 32.2848 46.5832C31.7835 45.6752 30.7931 44.8279 30.6354 43.8075C30.5141 43.0248 29.1719 43.7719 29.9546 44.3128C29.9885 44.3363 30.0225 44.3597 30.0565 44.3832C30.1519 44.4503 30.257 44.4252 30.3451 44.3646Z" fill="#010A38"/>
<path d="M25.4833 48.3608C25.1922 49.6157 26.6784 50.1137 27.6397 50.3571C28.5113 50.5778 29.37 50.6611 30.2343 50.9288C31.4633 51.308 32.4546 52.3122 33.7184 51.8917C34.2892 51.7025 34.2957 50.9182 33.876 50.5867C32.6357 49.6035 30.7575 49.0651 29.1638 49.0707C28.6957 49.0723 26.3371 49.0699 26.287 48.4247C26.2555 48.0164 25.5755 47.9606 25.4833 48.3608Z" fill="#010A38"/>
</svg>
