<svg width="64" height="46" viewBox="0 0 64 46" fill="none" xmlns="http://www.w3.org/2000/svg">
<path d="M63.3787 7.67664C44.3573 3.33572 24.5795 2.47785 5.28015 0.00652716C4.63332 -0.0764408 3.99214 0.647723 4.02758 1.25911C4.12988 3.02802 4.29501 4.76713 4.45772 6.51429C2.6002 10.9406 2.07579 16.0451 1.40641 20.7566C0.689504 25.8023 0.0193383 30.9423 5.92621e-06 36.0436C-0.0016051 36.481 0.325421 36.9652 0.772482 37.0578C19.7907 41.0322 39.3252 42.8132 58.5939 45.382C59.049 45.4424 59.4075 44.9534 59.4212 44.5539C59.8538 32.5195 60.9493 20.4271 63.9732 8.72461C64.086 8.29366 63.8346 7.77975 63.3787 7.67664ZM62.1897 9.24256C62.0898 9.94255 61.9876 10.6401 61.8869 11.3385C52.5405 10.4162 43.1957 9.47051 33.8606 8.43946C24.6817 7.42531 15.1565 5.43812 5.92534 5.46632C6.07275 4.50131 6.21291 3.53387 6.34663 2.56484C25.124 3.42674 43.5517 7.19414 62.1897 9.24256ZM5.91649 6.25733C5.9181 6.18644 5.90037 6.1228 5.87701 6.06239C14.575 8.16156 24.0365 8.37906 32.9198 9.31668C42.5279 10.3308 52.1353 11.3425 61.7491 12.293C61.327 15.2082 60.9082 18.1218 60.4982 21.0345C51.002 20.1508 41.5138 19.1528 32.0442 18.0122C23.0393 16.9272 13.8758 14.9182 4.79037 14.4985C5.33731 11.7598 5.8593 9.01058 5.91649 6.25733ZM58.5867 36.3892C58.4095 38.142 58.7003 42.0842 57.3051 43.1289C55.9003 44.1801 51.8526 42.9823 50.1151 42.7898C44.7761 42.1994 39.4372 41.6098 34.0982 41.0193C29.0718 40.4635 24.0454 39.9101 19.0238 39.3076C16.6113 39.0184 14.194 38.7558 11.7855 38.436C9.82163 38.175 4.2225 37.8464 2.84507 36.1065C1.58041 34.5099 2.53654 30.8207 2.70731 28.9753C2.9973 25.8418 3.38317 22.718 3.84714 19.6055C4.05738 18.1975 4.33448 16.7846 4.61721 15.3685C13.237 17.3219 22.3707 17.6642 31.1219 18.6542C40.8726 19.7569 50.629 20.7936 60.391 21.7812C59.7144 26.6352 59.0813 31.4957 58.5867 36.3892Z" fill="#010A38"/>
<path d="M50.824 26.1431C50.7652 26.1166 50.7056 26.1117 50.6468 26.1149C49.3201 25.2224 47.5375 25.9466 46.1617 27.1017C45.1306 25.5479 43.6549 24.512 42.023 25.6171C40.0962 25.0138 37.8415 28.5573 37.4009 30.0877C36.572 32.9683 38.581 36.3152 41.5968 36.784C42.6617 36.9491 43.6774 36.755 44.5651 36.3144C44.9719 36.8782 45.4907 37.3793 46.1423 37.7772C48.935 39.4841 52.6703 37.9367 53.9631 35.0876C55.3832 31.9541 54.0348 27.6035 50.824 26.1431ZM44.4548 31.5916C44.6191 30.7217 45.2555 29.4893 46.1149 28.4332C47.3877 30.6025 47.2161 33.8576 45.1894 35.4992C44.4854 34.3675 44.2027 32.928 44.4548 31.5916ZM43.2546 36.4022C40.8509 36.9056 38.3876 35.2092 37.856 32.8426C37.5306 31.3951 38.034 29.9846 38.7429 28.7377C39.2447 27.8549 40.3781 26.1125 41.7281 26.0972C41.7531 26.2285 41.8457 26.334 42.0213 26.3139C42.1865 26.2954 42.3468 26.2865 42.5038 26.2857C42.6416 26.3558 42.7801 26.4404 42.9195 26.5548C42.9968 26.6184 43.141 26.5338 43.0717 26.4372C43.0347 26.3856 42.9952 26.3534 42.9573 26.3067C44.0303 26.4114 44.9051 26.9213 45.5591 27.6599C45.212 28.0151 44.9067 28.3897 44.665 28.7578C43.2417 30.9295 43.0218 33.8817 44.3637 36.022C44.027 36.1847 43.6614 36.3168 43.2546 36.4022ZM48.7957 37.5581C47.3272 37.575 46.1649 36.8565 45.3972 35.8053C46.7666 34.7774 47.6624 33.102 47.643 31.3121C47.6334 30.4244 47.2524 29.0736 46.6152 27.8629C47.7139 26.7215 49.0615 25.9643 50.2617 26.4734C50.2617 26.5548 50.2964 26.6393 50.3818 26.7159C52.1805 28.3229 53.6908 29.8936 53.6175 32.5228C53.5442 35.1633 51.5465 37.5267 48.7957 37.5581Z" fill="#010A38"/>
</svg>
