<svg width="50" height="64" viewBox="0 0 50 64" fill="none" xmlns="http://www.w3.org/2000/svg">
<path d="M21.3944 63.9184C21.1441 63.9184 20.8938 63.9042 20.6467 63.92C18.9011 64.0412 17.3192 63.5107 15.7546 62.8008C13.6469 61.8454 11.6904 60.6522 9.82042 59.3033C8.92007 58.6532 7.95361 58.0771 7.12408 57.3467C5.79558 56.1787 4.57095 54.899 3.55569 53.432C3.04412 52.6922 2.39089 52.0484 2.02571 51.2063C1.87775 50.8679 1.68416 50.5405 1.59759 50.188C1.13482 48.3054 0.676758 46.4228 0.269079 44.5277C0.130563 43.8855 0.201395 43.1992 0.072323 42.5538C-0.105545 41.6566 0.102232 40.7783 0.0896401 39.8921C0.0770477 38.9776 0.0408599 38.0599 0.105396 37.1501C0.155766 36.4559 0.380846 35.7759 0.470567 35.0818C0.659453 33.6305 1.29537 32.3304 1.85415 31.0145C2.40035 29.7285 3.03469 28.4692 3.73671 27.2603C4.31439 26.2655 5.02113 25.3416 5.72001 24.4239C6.10722 23.9139 6.47714 23.396 7.01862 22.9899C7.44676 22.6688 7.8135 22.2171 8.15035 21.7528C8.77682 20.8855 9.68191 20.2778 10.5429 19.6655C12.2964 18.4189 14.2215 17.476 16.2378 16.7268C16.7352 16.5426 17.3082 16.6371 17.7678 16.2782C18.1031 16.0169 18.1377 15.8784 17.7568 15.6501C17.1224 15.2692 16.4582 14.9402 15.9262 14.4082C15.2997 13.7817 14.8731 13.0514 14.5882 12.2046C14.2545 11.2113 14.0499 10.2166 14.1364 9.16824C14.3222 6.91105 14.9077 4.80024 16.4204 3.04045C16.8186 2.57768 17.2153 2.10859 17.6608 1.69304C17.8906 1.47897 18.2321 1.38768 18.5139 1.22555C18.9751 0.957963 19.4221 0.663644 19.8896 0.408648C20.1383 0.27328 20.4169 0.111116 20.6876 0.10482C21.9595 0.0701906 23.2329 -0.189533 24.4984 0.266942C25.1517 0.503049 25.8631 0.583365 26.551 0.720307C27.9425 0.99734 29.0915 1.71821 29.9777 2.78385C31.0874 4.12021 31.7485 5.66594 31.7375 7.44619C31.7359 7.77831 31.706 8.11515 31.7422 8.44255C31.8933 9.77735 31.429 10.9925 30.9143 12.1558C30.6073 12.8499 30.0092 13.415 29.5385 14.0368C29.4394 14.1674 29.3197 14.2839 29.2143 14.4098C28.5154 15.244 28.517 15.2425 29.5307 15.5856C31.4825 16.2452 33.4532 16.8543 35.3767 17.5862C37.223 18.2867 38.9482 19.2279 40.3286 20.6965C40.4955 20.8744 40.686 21.0554 40.9016 21.1577C42.7716 22.0423 43.9978 23.5865 45.1311 25.2314C45.3184 25.5037 45.4978 25.7839 45.704 26.042C46.4265 26.9424 47.0278 27.8994 47.5472 28.9477C48.0494 29.9582 48.3689 31.0097 48.7719 32.0439C49.1465 33.0041 48.8899 34.0177 49.1795 34.9685C48.9135 35.5398 49.307 36.1081 49.1937 36.6763C49.0394 37.4444 49.4959 38.1606 49.2519 38.9854C49.0363 39.7127 49.2331 40.5532 49.189 41.3418C49.0457 43.9106 48.6381 46.4228 47.5709 48.7949C47.1474 49.7362 46.8531 50.7405 46.3809 51.6534C45.8898 52.601 45.2869 53.495 44.6714 54.3702C44.2716 54.94 43.7003 55.3917 43.3162 55.9694C42.5481 57.1279 41.4462 57.959 40.5097 58.9507C40.176 59.3048 39.7321 59.5708 39.3039 59.8164C37.6244 60.7813 35.9244 61.7021 34.0293 62.1979C33.1541 62.4262 32.3026 62.7504 31.4211 62.9456C30.3366 63.1849 29.23 63.3234 28.1361 63.5265C26.6297 63.8066 25.106 63.9263 23.5792 63.9861C22.852 64.0144 22.1232 63.9908 21.3944 63.9908C21.396 63.9656 21.3944 63.942 21.3944 63.9184ZM47.6606 38.2503C47.6275 38.2488 47.5944 38.2456 47.5614 38.2441C47.5614 37.2461 47.5834 36.2497 47.5567 35.2534C47.5173 33.8068 47.3127 32.3965 46.8783 30.9971C46.4911 29.7521 45.8677 28.625 45.1657 27.5925C44.4117 26.4828 43.5854 25.4014 42.7606 24.3295C42.5874 24.1044 42.3544 23.9186 42.1278 23.7439C40.9236 22.8152 39.6613 21.9542 38.5201 20.9547C37.4293 19.9977 36.1842 19.4247 34.8321 18.995C33.6594 18.6219 32.4993 18.2095 31.3392 17.794C29.5527 17.1549 27.7803 16.4671 25.8332 16.5237C25.7104 16.5269 25.5562 16.5442 25.468 16.4828C24.9706 16.1302 24.4953 16.3443 24.0719 16.5772C23.3069 16.9991 22.4994 17.0605 21.6604 17.0274C21.0828 17.0038 20.5318 17.0951 19.9573 17.2337C19.0255 17.4587 18.1519 17.8208 17.2499 18.1088C15.5988 18.6377 14.0121 19.2862 12.5813 20.2731C11.736 20.8571 10.853 21.4033 10.0864 22.0786C8.25108 23.6936 6.68964 25.5572 5.40993 27.6476C4.93772 28.4204 4.46865 29.1964 4.03893 29.9929C3.76505 30.4981 3.54625 31.0349 3.33532 31.5685C2.85209 32.7868 2.38933 34.013 1.92184 35.2376C1.8935 35.3132 1.8998 35.4013 1.89193 35.4848C1.77703 36.755 1.43388 38.0048 1.54879 39.3002C1.58184 39.6654 1.46537 40.0401 1.46537 40.41C1.46695 41.4425 1.36619 42.4971 1.54091 43.5014C1.86516 45.3619 2.28386 47.2146 2.8033 49.031C3.15116 50.2462 3.57932 51.4677 4.37264 52.5002C4.54736 52.7285 4.75985 52.9299 4.91725 53.1692C5.86483 54.6 7.10361 55.7522 8.45886 56.7643C9.77949 57.7512 11.1473 58.6815 12.5467 59.5535C14.6118 60.8395 16.6974 62.1067 19.2128 62.3396C19.6189 62.3774 20.0187 62.5883 20.4154 62.5757C22.1421 62.5222 23.8767 62.73 25.6003 62.3601C26.4849 62.1696 27.4262 62.2546 28.3124 62.0688C29.7621 61.7666 31.1881 61.3479 32.6221 60.9717C34.8793 60.3815 36.9885 59.467 38.9073 58.1259C39.2063 57.9165 39.5086 57.7497 39.7415 57.427C40.124 56.8981 40.5962 56.4306 41.0653 55.9726C42.5087 54.5654 43.6971 52.9787 44.6699 51.2095C44.9878 50.6318 45.1956 50.0164 45.501 49.4434C46.4596 47.6395 47.0168 45.6987 47.2891 43.7028C47.5315 41.9021 47.5457 40.0684 47.6606 38.2503ZM30.0596 7.69016C30.1005 6.58361 29.8911 5.41724 29.2206 4.36577C29.1985 4.33114 29.1718 4.29339 29.1655 4.25404C29.0301 3.36628 28.3785 2.93972 27.6638 2.56667C27.4813 2.47223 27.2861 2.3935 27.1224 2.27072C26.5038 1.80795 25.8049 1.60335 25.0446 1.56872C24.7125 1.55298 24.3709 1.58289 24.053 1.50733C22.619 1.16576 21.2087 0.959556 19.9022 1.91343C19.7731 2.00787 19.5701 1.99685 19.441 2.08972C18.9719 2.42499 18.4352 2.71463 18.0795 3.14906C17.4608 3.90461 16.7211 4.61292 16.5652 5.65809C15.4398 7.45251 15.6082 9.3949 16.0316 11.3121C16.3496 12.7523 17.1051 13.9785 18.517 14.6538C18.6351 14.7104 18.8775 14.7136 18.931 14.6428C19.0129 14.5357 19.0381 14.3138 18.9798 14.1894C18.8791 13.969 18.7154 13.7707 18.5485 13.5897C17.527 12.4847 17.1083 11.1153 16.8989 9.67977C16.8297 9.20599 16.8674 8.66453 17.0311 8.2175C17.7568 6.23105 18.931 4.60821 20.8718 3.59767C21.9516 3.03574 23.0566 2.82794 24.2293 3.05145C25.3358 3.26238 26.3464 3.65275 27.1114 4.57987C27.9724 5.62189 28.4273 6.83073 28.7216 8.10414C28.9719 9.18551 28.7358 10.1945 27.9849 11.0555C27.7961 11.2711 27.6686 11.5419 27.4734 11.7497C26.9587 12.2974 27.0043 12.9459 27.1035 13.6054C27.1491 13.9045 27.4356 14.0541 27.6339 13.8589C28.1282 13.3725 28.7216 12.9208 29.0348 12.3289C29.7794 10.9327 30.2484 9.43106 30.0596 7.69016ZM27.1114 8.59368C27.2562 7.45721 26.5762 6.3176 25.934 5.24882C25.531 4.57828 24.6511 4.27449 23.8405 4.03524C23.1621 3.83376 22.6127 4.1643 22.0697 4.40041C20.8309 4.93873 19.9573 5.95875 19.0554 6.92207C18.9751 7.00864 18.8838 7.13453 18.8838 7.24314C18.8806 8.04276 18.3234 8.80303 18.7343 9.63885C18.8177 9.80884 18.7358 10.0528 18.7736 10.2543C18.8397 10.6179 18.9027 10.9894 19.0349 11.3326C19.2442 11.8787 19.4709 11.8992 19.9164 11.534C20.3917 11.1421 20.9127 10.8052 21.3897 10.4165C22.9102 9.18083 24.7456 9.51924 26.0111 10.5644C26.3338 10.8304 26.5415 10.8162 26.7603 10.4983C27.1161 9.9867 27.1019 9.40274 27.1114 8.59368ZM21.9642 15.3322C22.2932 15.3086 22.6316 15.3275 22.948 15.2535C23.6201 15.0977 24.2419 14.7529 24.9848 14.8678C25.1517 14.893 25.4791 14.5562 25.5546 14.3279C25.6522 14.0336 25.6538 13.6495 25.5483 13.3583C25.3138 12.713 25.0509 12.0597 24.681 11.4852C24.1474 10.6557 23.5509 10.5597 22.6914 11.0413C22.3687 11.2223 22.0791 11.4632 21.7533 11.6363C20.9017 12.0881 20.5444 12.7838 20.5334 13.7424C20.5177 15.0331 20.7128 15.2818 21.9642 15.3322Z" fill="#010A38"/>
<path d="M3.97933 40.5939C4.121 39.1583 4.23431 37.7196 4.42162 36.2904C4.4956 35.7269 4.64357 35.1366 4.91431 34.6424C5.68874 33.2336 6.15622 31.6753 7.0975 30.3452C7.66573 29.5424 8.03407 28.5933 8.63536 27.822C9.58451 26.6053 10.359 25.2327 11.7142 24.3481C12.506 23.8318 13.1671 23.1219 13.932 22.56C15.9043 21.1103 18.1458 20.1533 20.3557 19.1411C20.5792 19.0388 20.8106 18.9381 21.0074 18.7933C21.5725 18.3777 22.1989 18.2313 22.8868 18.2911C24.3176 18.4155 25.7531 18.4895 27.1745 18.6784C28.1882 18.8137 29.1861 19.086 30.1841 19.33C31.0624 19.5441 31.9533 19.7377 32.7954 20.0572C33.636 20.3768 34.5017 20.6081 35.3076 21.063C36.9667 22.0012 38.4101 23.2179 39.8456 24.4346C40.8451 25.2815 41.5519 26.4038 42.2303 27.545C43.3243 29.3882 43.7839 31.4219 44.2624 33.4618C44.3002 33.6208 44.3002 33.7924 44.2923 33.9577C44.2341 35.3161 44.4733 36.6792 44.286 38.0329C44.1569 38.9647 43.9554 39.8887 43.7697 40.8126C43.6092 41.617 43.3117 42.3914 43.277 43.2272C43.2597 43.6349 43.1747 44.0583 43.0252 44.4377C42.4664 45.8575 41.9312 47.2788 41.1174 48.5963C39.6142 51.0235 37.6136 52.9297 35.3517 54.6249C34.4592 55.2939 33.5762 55.9392 32.5326 56.3422C32.1155 56.5027 31.6905 56.646 31.2686 56.7908C30.6484 57.0033 30.0298 57.2158 29.4065 57.4189C29.2113 57.4818 29.0067 57.5338 28.8021 57.5558C27.8183 57.6644 26.8345 57.7825 25.8476 57.8549C25.2306 57.9005 24.6088 57.8753 23.9886 57.8753C23.8659 57.8753 23.7384 57.8203 23.6187 57.8328C22.0825 58.006 20.5714 57.6959 19.0571 57.5479C17.5649 57.4016 16.1735 56.8255 14.8749 56.0904C14.3366 55.7866 13.8219 55.5001 13.2237 55.3081C12.114 54.9523 11.1995 54.2078 10.3196 53.4743C9.33897 52.6573 8.4449 51.7334 7.53038 50.8378C6.17827 49.514 5.32514 47.888 4.7994 46.0936C4.2721 44.3055 3.94942 42.4827 3.97933 40.5939ZM5.63365 40.4868H5.62892C5.62892 41.2329 5.64309 41.979 5.62577 42.7235C5.60688 43.5184 5.71078 44.2882 5.98309 45.0374C6.17984 45.5789 6.36243 46.1251 6.53872 46.6728C6.97946 48.0391 7.67361 49.237 8.76443 50.194C9.16109 50.5419 9.51367 50.9432 9.87255 51.3304C11.0122 52.5582 12.4036 53.4113 13.9257 54.0677C14.3413 54.2472 14.8182 54.3353 15.1755 54.5918C16.748 55.7141 18.5582 56.0447 20.4092 56.1911C21.8951 56.3092 23.3921 56.284 24.8827 56.3595C26.855 56.4587 28.7313 55.9912 30.5918 55.4308C31.1411 55.2656 31.6842 55.0373 32.1831 54.754C33.8784 53.7938 35.4115 52.6038 36.8187 51.2627C37.3775 50.7307 37.8387 50.0964 38.3424 49.5061C39.5229 48.1194 40.4925 46.6445 41.1049 44.88C41.6038 43.4382 41.8824 41.9522 42.2649 40.4947C42.6805 38.9127 42.83 37.2506 42.756 35.5789C42.6789 33.8428 42.4538 32.1695 41.9422 30.4869C41.1898 28.0109 39.715 26.0937 37.8308 24.4488C36.1592 22.9912 34.1334 22.146 32.0525 21.455C30.9601 21.093 29.8378 20.8128 28.7171 20.542C27.3539 20.2115 25.9877 19.8841 24.5616 20.01C24.1901 20.043 23.8139 20.0195 23.4393 20.0147C22.1706 19.999 21.0027 20.3752 19.8914 20.9481C19.0178 21.3983 18.1977 21.9728 17.2911 22.3317C15.9216 22.8732 14.7773 23.7405 13.6707 24.6503C12.5957 25.5365 11.6009 26.5219 10.5998 27.4931C10.3101 27.7748 10.0992 28.1478 9.89145 28.502C9.32952 29.4575 8.87146 30.4837 8.22453 31.3762C6.93381 33.1565 6.43012 35.2547 5.67458 37.2521C5.63208 37.3655 5.63364 37.4977 5.63206 37.6221C5.63206 38.5791 5.63365 39.5329 5.63365 40.4868Z" fill="#010A38"/>
<path d="M46.2267 44.4165C46.0079 45.2177 45.7624 46.041 45.5594 46.8721C45.3169 47.87 44.6496 48.5925 44.0262 49.3464C43.979 49.4047 43.9082 49.444 43.8483 49.4913C43.8326 49.4141 43.787 49.3307 43.8027 49.2631C44.1663 47.711 44.5283 46.1574 44.914 44.6117C44.9911 44.3016 45.1406 43.9994 45.3059 43.724C45.3736 43.6106 45.6018 43.491 45.7057 43.5256C45.8678 43.5823 46.0174 43.7476 46.1118 43.9018C46.1921 44.0341 46.1874 44.2182 46.2267 44.4165Z" fill="#010A38"/>
<path d="M36.7586 57.6582C36.7208 57.6362 36.6594 57.6094 36.6138 57.5669C36.5996 57.5543 36.6185 57.4819 36.6421 57.4567C37.2654 56.8145 37.8714 56.1518 38.5278 55.5443C38.819 55.2751 39.1983 55.0894 39.5635 54.9194C39.8028 54.8076 40.0641 54.8973 40.1884 55.1523C40.3018 55.3853 40.3175 55.6592 40.0814 55.826C39.0472 56.558 37.9974 57.2695 36.7586 57.6582Z" fill="#010A38"/>
<path d="M41.498 52.0605C41.7231 52.1896 41.9072 52.2651 42.0552 52.3879C42.2158 52.5186 42.126 52.8318 41.9198 52.8696C41.7656 52.8995 41.5925 52.9074 41.4445 52.8664C41.2572 52.8129 41.0053 52.7216 41.0872 52.4698C41.1375 52.3155 41.339 52.2117 41.498 52.0605Z" fill="#010A38"/>
<path d="M24.0294 13.0962C23.916 13.1481 23.7524 13.2804 23.5839 13.2867C23.1983 13.3024 22.9653 13.0049 23.0865 12.6287C23.1337 12.4807 23.3525 12.3013 23.5021 12.2919C23.8358 12.2714 24.0719 12.6193 24.0294 13.0962Z" fill="#010A38"/>
<path d="M19.3229 38.2812C19.0994 36.6111 19.9997 35.5723 21.0591 34.6845C21.4746 34.3366 22.1058 34.1477 22.6614 34.0848C23.4327 33.9982 24.2575 33.9699 24.9989 34.1572C25.6159 34.3146 26.1133 34.2123 26.4832 33.8566C28.1643 32.24 30.2106 31.1335 32.0884 29.7939C33.3917 28.8637 34.8336 28.127 36.3384 27.5383C36.6972 27.3982 36.9711 27.4659 37.2607 27.6784C37.873 28.1254 38.054 28.7125 37.6826 29.3673C37.3426 29.9686 37.086 30.6234 36.502 31.0783C36.1526 31.3506 35.8882 31.741 35.6237 32.1078C34.5754 33.5575 33.2658 34.7396 31.8995 35.8745C30.9504 36.6631 30.0453 37.5052 29.1134 38.3143C28.8333 38.5567 28.5232 38.7629 28.232 38.9927C27.7472 39.3783 27.2278 39.7482 27.0436 40.3778C26.6642 41.6701 25.6002 42.1628 24.4669 42.4052C23.7208 42.5658 22.8944 42.4493 22.12 42.3438C21.0339 42.1959 20.3806 41.3664 19.899 40.5069C19.5102 39.8175 19.0222 39.0667 19.3229 38.2812ZM20.4672 37.7161C20.5239 38.3678 20.5207 38.7865 20.6041 39.1878C21.0653 41.434 23.5398 41.741 24.8682 40.7021C25.8143 39.9623 26.0881 38.788 25.9701 37.5855C25.9307 37.1841 25.7717 36.7921 25.6568 36.3986C25.4679 35.7533 24.7565 35.2165 24.1206 35.2496C23.5445 35.2795 22.9684 35.3172 22.3954 35.3786C21.706 35.4526 21.1079 35.7029 20.8529 36.4112C20.675 36.907 20.5538 37.4186 20.4672 37.7161ZM35.4789 29.9308C35.4585 29.8128 35.4632 29.7514 35.4411 29.7388C35.3845 29.7058 35.29 29.6554 35.2523 29.6775C34.8698 29.9167 34.5203 30.2205 34.1174 30.411C32.4001 31.22 30.911 32.388 29.3323 33.4142C28.8223 33.7464 28.3674 34.1635 27.8731 34.5208C26.8704 35.2433 26.7477 35.1866 27.1727 36.6772C27.2278 36.874 27.2844 37.0707 27.3631 37.258C27.4528 37.4737 27.8306 37.5713 27.9927 37.4123C28.1958 37.214 28.3375 36.9417 28.5625 36.7827C30.8276 35.1725 32.7338 33.1781 34.61 31.1539C34.9626 30.7761 35.2145 30.3086 35.4789 29.9308Z" fill="#010A38"/>
<path d="M26.2424 27.4463C26.277 28.5827 26.1479 29.4705 25.6505 30.2843C25.4679 30.5818 25.2193 30.7061 24.9233 30.577C24.5912 30.4322 24.2402 30.2575 23.9962 30.0009C23.4028 29.3808 22.866 28.7071 22.312 28.0491C22.2065 27.9248 22.1561 27.7485 22.0381 27.6399C21.802 27.4242 21.5187 27.0574 21.2904 27.0811C20.8528 27.1283 21.0685 27.6084 21.0118 27.9043C20.8654 28.6693 20.7348 29.4374 20.59 30.2024C20.5601 30.3614 20.5302 30.5408 20.4373 30.6652C20.2704 30.8903 20.1052 31.1673 19.7384 31.0571C19.4535 30.9721 19.134 30.6101 19.1686 30.3236C19.2835 29.3886 19.4346 28.4568 19.559 27.5234C19.6455 26.8701 19.7195 26.2138 19.7872 25.5574C19.8171 25.2693 19.8061 24.9766 19.836 24.6885C19.8675 24.3863 19.9808 24.1203 20.2909 24.0022C20.6466 23.8684 20.9457 23.9912 21.185 24.2588C21.4053 24.5028 21.621 24.7546 21.813 25.0206C22.5371 26.0249 23.2517 27.0386 23.971 28.046C24.0434 28.1467 24.1127 28.26 24.2087 28.3293C24.3016 28.3954 24.4385 28.4568 24.5393 28.4364C24.6258 28.4175 24.7486 28.2821 24.7502 28.1971C24.7612 27.6178 24.81 27.026 24.7187 26.4593C24.5944 25.6928 24.3488 24.9451 24.1662 24.1864C24.1284 24.0274 24.1237 23.859 24.119 23.6937C24.1048 23.2026 24.2276 23.02 24.5959 22.9665C25.0351 22.9036 25.4617 23.0641 25.5136 23.4151C25.7261 24.8349 26.447 26.1666 26.2424 27.4463Z" fill="#010A38"/>
<path d="M25.6035 52.212C25.3171 53.0919 25.2872 53.997 24.4781 54.5463C24.0201 54.858 23.7147 54.9115 23.2362 54.6235C23.0945 54.5385 22.9355 54.4629 22.8269 54.3433C22.2461 53.7121 21.6118 53.1139 21.127 52.4151C20.7382 51.8547 20.4202 51.2062 20.8373 50.4491C21.0073 50.1421 20.9412 49.714 21.053 49.3646C21.3458 48.45 22.0525 48.003 22.9434 48.1494C23.1386 48.1809 23.3684 48.2517 23.4959 48.3855C24.0059 48.9238 24.5001 49.4795 24.9645 50.0587C25.4839 50.7072 25.3485 51.5525 25.6035 52.212ZM24.1995 51.8783C24.1601 51.085 23.9114 50.3956 23.5368 49.7423C23.3338 49.3897 22.9891 49.3661 22.7797 49.6904C21.8872 51.0661 22.1406 52.1065 23.1402 53.1218C23.3652 53.3516 23.7352 53.328 23.8642 53.0337C24.0232 52.6685 24.0925 52.2655 24.1995 51.8783Z" fill="#010A38"/>
<path d="M7.29724 39.1539C7.37909 38.4534 7.3964 37.8584 7.6451 37.2571C7.89222 36.6606 8.35341 36.4906 8.84766 36.3033C8.98303 36.2529 9.18295 36.2844 9.32146 36.3474C10.524 36.8983 11.511 37.6743 11.8447 39.0311C12.2004 40.4745 11.3898 41.8266 10.2108 42.1525C9.78266 42.2705 9.30256 42.5365 8.80358 42.217C8.12045 41.7794 7.56325 41.2521 7.41214 40.4257C7.33029 39.9802 7.32872 39.5191 7.29724 39.1539ZM9.26795 40.9168C10.2958 40.9074 10.9506 39.7788 10.5051 38.8627C10.343 38.529 10.1337 38.2174 9.9259 37.9073C9.60165 37.4225 9.3073 37.4618 9.03027 37.9781C8.84768 38.3196 8.68239 38.6896 8.82878 39.0343C9.05387 39.5695 9.16719 40.0432 8.73275 40.5217C8.70285 40.5548 8.77841 40.7578 8.85239 40.7988C8.99248 40.8743 9.16406 40.8901 9.26795 40.9168Z" fill="#010A38"/>
<path d="M36.4976 37.6551C36.5039 36.6634 36.7872 36.0118 37.283 35.4199C37.6246 35.0122 38.048 34.9477 38.5092 35.0217C39.6346 35.2043 40.9915 36.6445 40.9222 37.7952C40.864 38.7616 40.5791 39.7454 39.9022 40.512C39.4442 41.0299 38.7327 41.1463 38.2337 40.6898C37.2862 39.8257 36.6314 38.7585 36.4976 37.6551ZM39.589 37.5339C39.5559 37.5244 39.5213 37.5166 39.4882 37.5071C39.4882 37.3844 39.4993 37.26 39.4867 37.1388C39.4426 36.7406 39.0727 36.3108 38.7044 36.3171C38.3644 36.3219 38.133 36.5406 37.9677 36.8586C37.5632 37.6362 37.6875 38.5806 38.3171 39.2401C38.6036 39.5408 38.9625 39.5313 39.1073 39.1583C39.312 38.6325 39.4332 38.0754 39.589 37.5339Z" fill="#010A38"/>
<path d="M39.3164 43.0379C39.2534 43.2787 39.2251 43.5321 39.1244 43.7525C38.5782 44.9488 37.9344 46.0931 37.1663 47.1603C37.0246 47.3571 36.8373 47.5475 36.6279 47.6609C36.3839 47.7915 36.0927 47.834 35.8204 47.9143C35.8928 47.6766 35.9432 47.4279 36.044 47.2028C36.2722 46.6944 36.4973 46.1797 36.7759 45.6996C37.3142 44.7725 37.6605 43.7698 37.9926 42.7608C38.0446 42.605 38.0399 42.4145 38.1296 42.2918C38.2398 42.1422 38.4397 41.9345 38.5719 41.9534C38.7796 41.9817 39.0268 42.1391 39.1417 42.317C39.2676 42.509 39.2629 42.7876 39.3164 43.0379Z" fill="#010A38"/>
<path d="M34.61 49.1531C34.9751 49.1232 35.1939 49.3436 35.2207 49.7591C35.2396 50.0519 35.1105 50.2345 34.8288 50.2959C34.514 50.3651 34.2983 50.1762 34.2668 49.822C34.229 49.3797 34.3345 49.1751 34.61 49.1531Z" fill="#010A38"/>
<path d="M24.7534 37.9594C24.7534 38.6834 24.4685 39.1792 24.1238 39.642C24.0388 39.7569 23.8688 39.8073 23.7382 39.8892C23.6721 39.7601 23.5556 39.6341 23.5477 39.5035C23.4958 38.5653 23.6327 37.6131 23.3116 36.6923C23.2738 36.5821 23.3856 36.316 23.4832 36.283C23.65 36.2279 23.916 36.2279 24.0404 36.3286C24.5929 36.7709 24.8132 37.3738 24.7534 37.9594Z" fill="#010A38"/>
</svg>
