<svg width="42" height="53" viewBox="0 0 42 53" fill="none" xmlns="http://www.w3.org/2000/svg">
<path d="M21.627 1C29.0977 1.00089 34.7551 4.25318 37.9678 9C41.1867 13.756 42.0081 20.0951 39.6309 26.377C37.165 32.8922 32.3867 39.3533 28.1738 44.2217C26.0751 46.647 24.132 48.6594 22.7148 50.0645C22.0322 50.7412 21.4712 51.2754 21.0752 51.6475C20.6572 51.2662 20.0597 50.7109 19.3301 50.0059C17.8448 48.5708 15.8154 46.5177 13.6426 44.0479C9.27818 39.0869 4.41009 32.5298 2.14062 25.9727C-0.00851982 19.7627 0.957854 13.533 4.36914 8.86328C7.77583 4.20009 13.6923 0.998947 21.627 1ZM21 7.06641C18.1445 7.06646 15.5161 7.87694 13.5752 9.2373C11.6377 10.5955 10.3117 12.5671 10.3115 14.8574C10.3115 17.148 11.6375 19.1203 13.5752 20.4785C15.5161 21.8389 18.1445 22.6494 21 22.6494C23.8556 22.6494 26.4838 21.8389 28.4248 20.4785C30.3627 19.1203 31.6885 17.1481 31.6885 14.8574C31.6883 12.567 30.3625 10.5955 28.4248 9.2373C26.4838 7.8769 23.8556 7.06641 21 7.06641Z" stroke="#010A38" stroke-width="2"/>
</svg>
