<svg width="64" height="52" viewBox="0 0 64 52" fill="none" xmlns="http://www.w3.org/2000/svg">
<path d="M38.3866 8.7352C39.0145 8.7352 39.6443 8.759 40.2723 8.72788C40.9185 8.69492 41.4915 8.89997 42.092 9.10685C43.5054 9.59018 44.8492 10.1943 46.0484 11.0914C47.2951 12.0251 48.2673 13.1437 48.9117 14.6138C49.5214 16.0016 49.8692 17.4515 50.1182 18.8997C50.3836 20.4394 50.5191 22.045 50.0065 23.6011C49.9333 23.8245 49.8894 24.0771 49.9077 24.3097C50.0047 25.6113 49.492 26.7556 49.027 27.92C48.5803 29.0404 47.9652 30.0675 47.3665 31.1055C47.0681 31.6236 47.3024 31.9953 47.8755 31.9202C50.2829 31.6017 52.6996 31.836 55.1107 31.7811C56.0005 31.7609 55.9328 31.836 56.2989 32.6946C56.72 33.6832 57.0587 34.703 57.6207 35.6477C58.2487 36.704 58.6111 37.9142 59.1256 39.0419C59.9037 40.7446 60.7184 42.4307 61.5093 44.126C61.8352 44.8236 62.1538 45.5229 62.454 46.2296C62.9025 47.286 63.2449 48.3881 63.8692 49.3675C64.0815 49.7008 64.0431 50.0083 63.6971 50.2427C63.6568 50.2701 63.6055 50.2793 63.5689 50.3086C62.3496 51.2807 62.3496 51.2807 60.8759 51.0519C60.5976 51.0079 60.2607 50.856 60.0465 50.9567C59.2538 51.3283 58.4299 51.1178 57.6244 51.1892C56.4271 51.2954 55.2334 51.4199 54.036 51.526C53.5088 51.5736 52.9797 51.6267 52.4524 51.6286C49.5067 51.6395 46.5591 51.6231 43.6134 51.6395C40.5835 51.656 37.5517 51.7055 34.5217 51.7256C31.1989 51.7476 27.8742 51.7659 24.5513 51.7604C23.2972 51.7585 22.045 51.656 20.7909 51.6487C19.6833 51.6432 18.5738 51.7293 17.4662 51.7293C16.4556 51.7293 15.4432 51.656 14.4307 51.6395C13.5831 51.6249 12.9826 51.1324 12.4297 50.5997C11.9574 50.1456 12.0361 49.5103 12.2283 48.9703C12.6787 47.7089 13.1877 46.4658 13.7021 45.2281C13.9584 44.613 14.2934 44.0326 14.5644 43.423C15.1081 42.2 15.6445 40.9752 16.1572 39.7413C16.4318 39.0804 16.6771 38.403 16.884 37.7183C17.2593 36.4752 17.7738 35.2962 18.356 34.1391C18.5226 33.8077 18.5116 33.3922 18.5976 33.0187C18.7898 32.1747 19.3848 31.5888 20.2764 31.49C21.8033 31.3215 23.3357 31.2099 24.8662 31.0781C25.1061 31.0579 25.3514 31.0817 25.5894 31.0524C26.0745 30.9938 26.2576 30.6735 26.0617 30.2359C25.7102 29.4523 25.3551 28.6706 24.9871 27.8943C24.2841 26.4059 23.938 24.804 23.6121 23.2148C23.4346 22.3452 23.4968 21.3822 23.6615 20.4998C23.9471 18.9619 24.1833 17.4021 24.9541 15.9851C26.0196 14.0262 27.2316 12.1789 29.1045 10.9211C30.6661 9.87211 32.3541 9.05375 34.3112 9.02628C34.692 9.02079 35.0746 9.05009 35.3987 8.74618C35.514 8.63816 35.7521 8.61986 35.9315 8.62901C36.7498 8.66929 37.5663 8.73153 38.3829 8.78646C38.3847 8.76815 38.3847 8.75167 38.3866 8.7352ZM38.8241 10.4342C38.8223 10.4177 38.8223 10.4012 38.8205 10.3866C37.8099 10.4451 36.7974 10.5788 35.7887 10.544C34.0421 10.4854 32.5042 10.8882 31.0213 11.8841C29.4011 12.9716 27.9859 14.1928 26.9881 15.8771C25.8072 17.8671 25.3733 20.0568 25.291 22.3269C25.2708 22.8798 25.4154 23.4473 25.5344 23.9966C25.6772 24.6502 25.8548 25.2983 26.0581 25.9354C26.4499 27.1657 26.7867 28.4198 27.5026 29.5219C27.8101 29.9961 28.1067 30.4794 28.3978 30.9664C29.2802 32.4401 30.1041 33.9505 31.0543 35.3786C31.6877 36.3306 32.5592 37.1233 33.2146 38.0643C34.0714 39.2946 35.2742 40.0251 36.5631 40.6659C36.7187 40.7427 36.9951 40.7885 37.1105 40.7061C37.9252 40.1184 38.7124 39.4923 39.5052 38.8735C39.5326 38.8515 39.5143 38.7783 39.5308 38.7344C40.0654 37.418 41.1034 36.4843 42.0407 35.4811C43.315 34.119 44.4391 32.6434 45.3856 31.0414C46.0154 29.9759 46.5463 28.8518 47.1139 27.7497C47.2018 27.5794 47.2567 27.3908 47.3079 27.2059C47.6723 25.8695 48.2124 24.5824 48.2654 23.1636C48.3094 22.001 48.8238 20.8403 48.2306 19.6814C48.1885 19.6009 48.1904 19.4929 48.1922 19.3977C48.2288 17.5522 47.3885 15.954 46.7367 14.3081C46.3358 13.2993 45.5797 12.5414 44.624 12.0617C43.9082 11.7029 43.3388 11.0054 42.4362 11.0456C41.735 10.3683 40.8526 10.4287 39.9811 10.436C39.5985 10.436 39.2104 10.4342 38.8241 10.4342ZM49.6019 35.395C49.6019 35.4097 49.6019 35.4243 49.6037 35.439C50.5209 35.439 51.44 35.4298 52.3572 35.4445C52.641 35.4481 52.9083 35.4939 53.0621 35.8216C53.9189 37.6359 54.7537 39.463 55.5739 41.2901C56.2312 42.7529 57.0294 44.0821 57.9814 45.3453C58.2853 45.7481 58.3255 46.2424 57.9814 46.5005C57.6482 46.7514 57.1593 47.1194 56.8609 47.0296C56.0224 46.777 55.2645 47.1358 54.4718 47.1468C52.1613 47.1798 49.8472 47.2438 47.5496 47.4599C46.8264 47.5276 46.0868 47.5294 45.3545 47.643C44.029 47.8462 42.6651 47.8315 41.3176 47.8425C39.7376 47.8553 38.1577 47.7949 36.5759 47.7729C34.6023 47.7455 32.6068 47.9048 30.6643 47.6448C29.1209 47.4379 27.5996 47.4873 26.0672 47.4141C25.7304 47.3976 25.3953 47.3427 25.0603 47.3445C22.7095 47.3537 20.3442 46.9839 18.0173 47.632C17.5559 47.7601 17.1257 47.4599 17.0762 46.993C17.0469 46.7129 17.0231 46.376 17.1458 46.1435C17.6401 45.2025 17.8635 44.1681 18.2406 43.1923C18.9601 41.3249 19.6302 39.4429 20.2325 37.5352C20.4614 36.8084 20.7451 36.0999 21.0307 35.3932C21.0948 35.2339 21.2449 35.0618 21.3987 34.9959C22.3544 34.5822 23.2826 34.1208 24.4048 34.2801C25.1591 34.3863 25.9427 34.2801 26.7135 34.2563C27.1675 34.2435 27.6197 34.1098 27.7753 33.6631C27.9328 33.2109 27.206 32.5372 26.5853 32.4951C26.3455 32.4786 26.102 32.4969 25.8603 32.4859C24.3133 32.4109 22.792 32.6049 21.2614 32.8136C20.4559 32.9235 19.8682 33.0571 19.8957 34.0311C19.9012 34.1977 19.7181 34.3643 19.6485 34.5401C18.6287 37.1196 17.62 39.7029 16.5911 42.2788C16.0601 43.6097 15.5 44.9297 14.9416 46.2479C14.5663 47.1303 14.125 47.9871 13.7918 48.8842C13.3927 49.9589 13.682 50.3415 14.8226 50.2006C15.727 50.0889 16.6222 49.9333 17.5376 49.9333C20.0989 49.9333 22.6601 49.9314 25.2196 49.9351C25.5564 49.9351 25.8951 49.9479 26.2301 49.9863C28.4271 50.2427 30.6222 50.466 32.8154 49.9534C32.9985 49.9113 33.2072 49.9168 33.3921 49.9552C35.4866 50.3946 37.6048 50.2262 39.7157 50.2189C41.0558 50.2134 42.4179 50.3196 43.7288 50.1108C44.6716 49.9626 45.609 50.034 46.517 50.0358C47.5221 50.0394 48.5474 50.0248 49.5634 50.0687C50.51 50.109 51.4638 49.9699 52.414 49.9333C54.2924 49.8619 56.1726 49.8088 58.051 49.7447C59.014 49.7117 59.9787 49.6769 60.9417 49.6348C61.8425 49.5964 61.9487 49.4591 61.6173 48.5638C61.3867 47.9377 61.0168 47.3628 60.7861 46.7349C60.1435 44.9883 59.3343 43.3095 58.5819 41.6142C57.5877 39.3806 56.5296 37.1764 55.649 34.8934C55.5281 34.5822 55.3121 34.3094 55.1565 34.011C54.9093 33.5313 54.5267 33.3903 53.994 33.3262C51.5334 33.0333 49.0875 33.2549 46.6379 33.4398C46.4603 33.4526 46.2497 33.5331 46.1253 33.6558C45.7133 34.0567 45.3087 34.4723 44.9499 34.9209C44.6515 35.2943 44.7796 35.5397 45.2575 35.5287C46.7093 35.4994 48.1556 35.4426 49.6019 35.395ZM26.8398 45.9239C26.8416 45.8964 26.8435 45.8689 26.8453 45.8415C27.422 45.8415 28.0023 45.8598 28.579 45.8341C28.9452 45.8177 29.0697 45.5376 29.0111 45.2245C28.9708 45.003 28.861 44.7705 28.7182 44.5947C27.4366 43.0037 26.2924 41.3066 24.3756 40.3088C23.5041 39.8548 22.6235 39.593 21.7045 39.3623C21.3859 39.2818 21.1571 39.3367 21.0161 39.6772C20.3003 41.4073 19.9341 43.2399 19.4324 45.0323C19.3189 45.4423 19.5112 45.7023 19.9561 45.6749C21.104 45.6053 22.2427 45.9184 23.3961 45.717C23.8153 45.6437 24.2621 45.7023 24.6923 45.7334C25.4081 45.7829 26.124 45.8598 26.8398 45.9239ZM36.4752 46.2772C36.4752 46.2699 36.4752 46.2644 36.4752 46.2571C37.8263 46.2571 39.1793 46.2644 40.5304 46.2516C40.8343 46.2479 40.9789 46.0044 40.8544 45.7554C40.3052 44.6515 39.7377 43.5567 39.1427 42.4765C38.879 41.9968 38.6611 41.9822 38.2455 42.2934C37.2954 43.0074 36.9549 43.0166 35.9461 42.3703C35.6221 42.1634 35.2742 41.9895 34.9666 41.7625C34.4211 41.3597 33.903 41.3817 33.3885 41.7954C33.0901 42.0353 32.8081 42.2971 32.5042 42.5296C31.977 42.9324 31.5596 43.4962 30.8639 43.6537C30.3879 43.7599 30.4244 44.115 30.5288 44.4464C30.6423 44.8089 30.8163 45.1531 30.9737 45.5009C31.1458 45.8799 31.4406 46.1124 31.8525 46.1692C32.2333 46.2204 32.6178 46.2699 33.0022 46.2735C34.1574 46.2863 35.3163 46.2772 36.4752 46.2772ZM31.0652 38.2419C30.9902 38.0881 30.9316 37.9014 30.8217 37.7512C30.4519 37.2459 29.9906 36.7919 29.7013 36.2445C29.2857 35.4591 28.7036 35.3346 27.898 35.4426C26.4773 35.633 25.0456 35.7612 23.6158 35.8747C22.4587 35.9662 21.8326 36.5027 21.774 37.5975C21.7685 37.7146 21.9809 37.9307 22.1219 37.9581C24.1376 38.3536 25.8475 39.3147 27.3634 40.675C27.5062 40.8032 27.8742 40.8874 28.0005 40.7977C28.9782 40.1166 29.9247 39.3916 30.8693 38.6666C30.9682 38.5897 30.9902 38.4121 31.0652 38.2419ZM55.7552 44.9956C55.6508 44.7595 55.5977 44.5709 55.4952 44.4171C54.3582 42.7401 53.5619 40.9002 52.8387 39.0181C52.5678 38.3096 52.2236 37.6286 51.9124 36.9347C51.1453 36.8926 50.3781 36.8322 49.6092 36.8139C48.9135 36.7974 48.6737 37.0556 48.6517 37.7622C48.6371 38.2108 48.7249 38.6135 49.0874 38.9358C49.5872 39.3806 50.0376 39.8896 50.5576 40.307C51.8849 41.3744 52.4872 42.7456 52.3975 44.4336C52.3865 44.6203 52.2822 44.8016 52.2639 44.9902C52.2199 45.4424 52.5367 45.7151 52.9687 45.6419C53.4813 45.554 53.9976 45.4735 54.5139 45.4112C54.7995 45.3764 55.0998 45.4204 55.3762 45.3563C55.5153 45.3215 55.6197 45.1293 55.7552 44.9956ZM43.3461 37.2588C43.2436 37.3064 42.8921 37.429 42.59 37.6267C42.3117 37.808 42.0737 38.0588 41.8375 38.2968C41.389 38.7509 41.3909 38.8735 41.7936 39.3513C42.1323 39.7541 42.4966 40.1368 42.806 40.5597C43.445 41.4366 43.9374 42.4161 44.6844 43.218C45.3471 43.9283 45.8415 44.7448 46.1161 45.6785C46.1893 45.9257 46.2314 46.1454 46.5427 46.1454C46.8411 46.1454 47.1047 46.0941 47.2658 45.7865C47.7949 44.7778 47.859 43.7818 47.0992 42.8719C46.6415 42.3264 46.1509 41.7716 45.5687 41.3744C44.1132 40.3784 43.769 39.6498 44.1297 37.9087C44.2432 37.3503 44.181 37.2679 43.3461 37.2588ZM50.6711 43.8917C50.6967 42.8189 50.7059 42.7566 50.0376 41.9053C49.6605 41.4256 49.2266 40.9807 48.7634 40.5816C47.7913 39.7431 46.9747 38.8332 46.885 37.4693C46.8795 37.3869 46.8063 37.2899 46.7349 37.235C46.6763 37.1892 46.5481 37.1508 46.5005 37.1819C45.9 37.5883 45.7115 38.262 45.5156 38.89C45.36 39.388 45.695 39.8365 46.0355 40.166C46.4786 40.5944 46.9692 40.9899 47.4892 41.3194C48.1739 41.7533 48.6114 42.33 48.8842 43.0861C49.146 43.8166 49.4023 44.527 49.2467 45.327C49.2174 45.4771 49.3438 45.7829 49.45 45.8085C49.6642 45.8616 49.9827 45.8506 50.1291 45.7206C50.3653 45.5101 50.5667 45.2025 50.6509 44.8986C50.7388 44.5855 50.6711 44.2286 50.6711 43.8917ZM43.7965 46.3413C43.9686 46.2827 44.2633 46.182 44.5599 46.0813C44.4171 45.8488 44.278 45.6108 44.1279 45.3819C43.4541 44.353 42.7749 43.326 42.1012 42.2952C42.0225 42.1762 41.9858 42.028 41.8998 41.9144C41.5245 41.422 41.1437 40.9331 40.7519 40.4535C40.708 40.3985 40.5505 40.3711 40.4919 40.4059C40.3784 40.4755 40.2228 40.5963 40.2173 40.7025C40.2045 40.9258 40.2228 41.1821 40.3235 41.3762C40.8398 42.3868 41.389 43.3791 41.9181 44.3805C42.1982 44.9096 42.7237 45.2794 42.8591 45.9129C42.9415 46.3138 43.3058 46.3614 43.7965 46.3413ZM29.5255 42.5442C30.8199 42.1616 31.6676 41.1217 32.7752 40.4956C32.8375 40.4608 32.7752 39.9903 32.6397 39.8713C32.3761 39.6388 31.3215 39.8695 31.0414 40.1477C30.4684 40.7208 29.9064 41.3048 29.3187 41.8595C29.1539 42.0151 29.0642 42.1469 29.207 42.33C29.2894 42.4344 29.4541 42.5644 29.5255 42.5442Z" fill="#010A38"/>
<path d="M44.036 20.1095C43.9097 21.3673 43.9353 22.4547 43.6625 23.4635C43.3806 24.507 42.8771 25.4847 41.98 26.2353C40.9035 27.136 39.6549 27.5626 38.3295 27.7951C37.6795 27.9086 36.9875 27.9526 36.343 27.6322C36.1307 27.5278 35.8817 27.4546 35.6474 27.4455C33.996 27.3795 32.8389 26.3104 31.6013 25.4334C30.9276 24.9556 30.3857 24.324 30.3747 23.4104C29.5142 21.7682 29.8712 20.1241 30.4717 18.535C30.9807 17.1839 31.7606 15.9793 33.0531 15.2012C33.2179 15.1023 33.3753 14.987 33.52 14.8607C34.3255 14.1631 35.2464 13.8629 36.3174 13.9489C37.2768 14.0258 38.2416 14.0423 39.2064 14.0679C40.5923 14.1046 41.5424 15.073 42.6647 15.6717C43.0144 16.4095 43.452 17.1198 43.6863 17.8924C43.917 18.6632 43.9463 19.4962 44.036 20.1095ZM42.2857 20.4738C42.2986 19.1246 41.6212 17.2681 40.8577 16.3308C40.5044 15.8969 40.076 15.6058 39.5195 15.5747C38.1775 15.4959 36.8337 15.4172 35.4881 15.3989C35.186 15.3952 34.8363 15.582 34.5855 15.7797C33.2087 16.8635 32.1066 18.103 31.6618 19.91C31.3505 21.1732 31.9199 22.2607 31.973 23.4379C31.9821 23.6338 32.2348 23.8242 32.3904 24.0054C33.7946 25.6659 35.5119 26.3873 38.1482 26.1493C40.1346 25.9698 41.2807 24.7835 41.8482 23.0003C42.1192 22.1435 42.1631 21.2171 42.2857 20.4738Z" fill="#010A38"/>
<path d="M41.5499 32.972C41.4474 32.8072 41.3338 32.7047 41.3393 32.6113C41.3485 32.4777 41.418 32.3257 41.5078 32.2214C42.7325 30.7714 43.6369 29.098 44.7501 27.5712C44.9093 27.3515 45.1254 27.0604 45.4476 27.2453C45.7918 27.4412 45.779 27.7927 45.6563 28.1387C45.1968 29.4294 44.2704 30.4015 43.4154 31.4195C43.0749 31.8241 42.7032 32.2049 42.3096 32.5564C42.1137 32.7303 41.8391 32.8182 41.5499 32.972Z" fill="#010A38"/>
<path d="M38.9213 36.0211C38.881 35.6586 39.0037 35.3382 39.4339 35.3035C39.5511 35.2943 39.7268 35.373 39.7927 35.4701C40.0106 35.7923 39.9611 36.1145 39.6591 36.3598C39.5199 36.4733 39.335 36.5301 39.1721 36.6125C39.0842 36.4147 38.9432 36.2243 38.9213 36.0211Z" fill="#010A38"/>
<path d="M12.0076 9.89248C10.9188 10.8052 9.62654 10.8777 8.3722 11.0364C8.0323 11.0795 7.63198 10.9726 7.31279 10.8207C5.59949 10.0046 4.07253 8.96078 3.33407 7.10427C2.80093 5.76883 2.65428 4.48169 3.4169 3.09794C4.27268 1.54337 5.45111 0.603055 7.17131 0.247628C8.56541 -0.0405101 9.89916 -0.157838 11.3105 0.347697C12.4958 0.77214 13.1584 1.63654 13.7605 2.58032C14.3264 3.46889 14.4645 4.53345 14.6025 5.56695C14.637 5.82921 14.637 6.15014 14.5163 6.36753C13.8002 7.65121 13.4206 9.18507 12.0076 9.89248ZM4.93008 7.04214C4.98184 7.10943 5.10777 7.30096 5.26133 7.46832C7.07642 9.45596 9.45917 9.93043 11.7763 8.20333C12.5735 7.6098 12.9634 6.71605 13.1256 5.78262C13.2498 5.07867 13.2033 4.27637 12.7305 3.69319C12.137 2.96163 11.4175 2.33015 10.7377 1.67106C10.6549 1.59169 10.4772 1.61068 10.3426 1.58652C8.63963 1.27768 7.02984 1.37773 5.57362 2.4837C4.15881 3.55688 3.81893 5.44962 4.93008 7.04214Z" fill="#010A38"/>
<path d="M12.8048 15.0413C14.2662 14.0268 16.9543 13.4971 18.9057 15.1603C19.2076 15.4174 19.4613 15.7746 19.6286 16.1369C20.1997 17.3688 20.2049 18.6508 19.8323 19.9414C19.5734 20.8351 18.8246 21.3907 18.1103 21.7202C16.2745 22.5674 14.4284 22.3051 12.7237 21.2233C12.4252 21.0335 12.1301 20.7592 11.968 20.4538C11.4969 19.5704 11.1915 18.6214 11.1795 17.6069C11.1622 16.3681 11.9921 15.6624 12.8048 15.0413ZM12.9066 19.2322C13.2051 19.5324 13.3621 19.7982 13.5933 19.9034C14.368 20.2588 15.1858 20.6436 16.0468 20.4676C16.7766 20.3192 17.6117 20.1087 18.1241 19.6308C18.6452 19.1442 18.9057 18.3109 18.5451 17.4982C18.1862 16.6873 17.7618 15.9316 16.73 15.9229C16.0157 15.9178 15.2997 15.9851 14.5854 16.0196C14.0677 16.0454 13.7072 16.2715 13.3397 16.6752C12.9946 17.0565 12.596 17.3533 12.6564 17.9089C12.7116 18.3971 12.8358 18.8733 12.9066 19.2322Z" fill="#010A38"/>
<path d="M1.32576 17.9679C2.35753 17.314 3.44106 17.5366 4.38139 17.8662C5.46665 18.2457 6.10333 19.695 5.91527 20.8925C5.82555 21.4653 5.62022 22.0277 5.4011 22.5678C5.20268 23.0561 4.78858 23.3563 4.24681 23.3615C3.61877 23.3666 2.99077 23.3028 2.36273 23.289C0.740878 23.2562 -0.475525 21.2047 0.181843 19.4103C0.381987 18.8634 0.934097 18.4441 1.32576 17.9679ZM2.15912 19.3828C1.29815 19.978 1.205 20.8511 1.99004 21.4584C2.43864 21.8052 2.96314 21.7482 3.51181 21.5826C3.90002 21.4653 4.26755 21.4774 4.47459 21.0012C4.69544 20.4922 4.51772 20.0988 4.24339 19.7554C3.46697 18.7927 3.29787 18.5701 2.15912 19.3828Z" fill="#010A38"/>
</svg>
