<svg width="86" height="78" viewBox="0 0 86 78" fill="none" xmlns="http://www.w3.org/2000/svg">
<path d="M39.218 27.214C32.927 28.6646 28.7383 34.9591 30.3385 41.3228C32.0246 48.0283 38.5512 51.4643 44.8573 49.733C44.9441 49.7675 45.0441 49.7799 45.1655 49.7383C58.8483 44.9926 53.488 23.925 39.218 27.214ZM31.6411 41.6035C29.754 35.5374 33.9772 29.4031 40.0513 28.3254C42.3432 27.9189 44.6102 28.3396 46.5567 29.3677C40.2479 27.8773 33.5398 31.4505 32.7419 38.3314C32.184 43.1409 35.0266 47.2224 39.1082 48.6986C35.6997 47.7909 32.8428 45.4655 31.6411 41.6035ZM44.9104 48.8147C44.8192 48.8519 44.7554 48.9112 44.7041 48.9767C44.5181 49.0042 44.3321 49.0192 44.1453 49.0405C44.1533 48.9484 44.1019 48.8457 43.993 48.8519C38.0305 49.1928 32.8588 44.5648 33.6151 38.3916C34.4271 31.7649 41.0263 28.5299 47.0703 30.3516C47.3625 30.4392 47.5529 30.2178 47.5742 29.9823C49.3852 31.2203 50.8242 33.0251 51.5796 35.2089C53.5385 40.8641 50.3115 46.6176 44.9104 48.8147Z" fill="#010A38"/>
<path d="M82.5541 24.8459C80.2578 17.8075 77.5568 9.2857 73.1591 3.23996C69.0058 -2.47015 62.8999 0.685113 57.4669 2.76176C44.5351 7.70586 31.3968 13.0378 18.8829 19.374C18.449 18.6833 18.0151 17.9917 17.5803 17.3018C17.4492 17.0937 17.2163 17.0521 17.0011 17.1504C14.9227 18.0953 12.8505 19.0535 10.7871 20.0294C9.46764 20.6537 6.92253 21.3604 5.88376 22.4399C4.42258 23.9568 6.11224 25.1479 7.67614 25.4003C7.71953 25.4074 7.75053 25.3906 7.78507 25.3799C5.642 26.6233 3.52551 27.902 1.44266 29.2242C1.06807 28.9753 0.474742 29.0408 0.316226 29.605C-0.3692 32.0518 0.140885 33.6697 1.06896 36.0235C2.96495 40.8295 5.30992 45.5044 7.55128 50.1562C9.5004 54.2015 11.5027 58.221 13.5589 62.2132C14.9599 64.9327 16.2484 68.4883 18.8732 70.3099C24.4266 74.1647 33.9756 68.2235 39.2013 66.0583C46.9978 62.8278 54.6588 59.2696 62.1525 55.3872C66.1508 53.3159 70.1031 51.1534 74.0013 48.8987C77.2495 47.0196 81.3311 45.2042 84.0861 42.6077C88.5148 38.4331 84.0763 29.5129 82.5541 24.8459ZM76.4136 13.307C76.8599 14.2661 77.3071 15.2509 77.7517 16.2471C77.718 16.2586 77.6843 16.2586 77.6498 16.2772C70.8912 19.8204 63.9732 22.9836 57.025 26.1327C56.6947 26.2823 56.9294 26.842 57.273 26.7216C64.5151 24.1888 71.4553 20.9264 78.2148 17.308C80.3437 22.1786 82.2911 27.3751 83.2528 32.3422C75.1021 36.051 67.1019 40.1299 59.5967 45.02C61.6123 41.0163 61.9319 36.2245 59.7269 31.4354C58.4836 28.7353 56.631 26.4152 54.4073 24.6086C61.6078 20.7245 68.7198 16.8652 76.1957 13.524C76.3064 13.4753 76.3702 13.3956 76.4136 13.307ZM57.4475 46.4369C57.4448 46.4386 57.4457 46.4422 57.443 46.4439C56.8674 46.3058 56.2909 46.1765 55.71 46.0631C56.5212 44.4187 57.0667 42.6316 57.3102 40.7657C57.915 40.7914 58.5208 40.8135 59.1229 40.802C59.2328 40.8002 59.3116 40.7524 59.3638 40.686C59.6561 40.7471 59.9447 40.8171 60.2184 40.9163C60.2202 40.9171 60.2219 40.9163 60.2246 40.9171C59.8367 42.8432 59.0052 44.594 57.8575 46.1676C57.7211 46.2589 57.583 46.3448 57.4475 46.4369ZM57.4457 37.9921C57.4032 36.8418 57.2429 35.7331 56.9941 34.6651C57.9265 34.4694 58.8635 34.2418 59.7597 33.9424C60.4539 36.1599 60.616 38.233 60.353 40.1485C60.3415 40.1485 60.3335 40.1423 60.3211 40.1432C59.3957 40.2158 58.4118 40.0139 57.4838 39.9598C57.4457 39.9581 57.4191 39.9776 57.3917 39.9935C57.4483 39.3346 57.4705 38.6669 57.4457 37.9921ZM56.8364 34.0602C56.3237 32.1731 55.4983 30.44 54.4321 28.8894C54.5481 28.8168 54.6624 28.7424 54.7766 28.6698C54.828 28.637 55.0414 28.5051 55.2637 28.3714C55.5364 28.8292 56.3857 28.3758 56.1289 27.8205C55.7622 27.0262 54.704 27.8081 54.0699 28.382C53.1542 27.1484 52.0739 26.0494 50.8713 25.0939C51.1006 24.9805 51.3309 24.8681 51.5602 24.7547C51.6727 24.8734 51.841 24.9327 51.9924 24.8158C52.1987 24.6564 52.4042 24.4953 52.6096 24.335C55.609 26.2814 58.0541 29.2206 59.4878 33.1348C59.4931 33.1499 59.4975 33.1649 59.5029 33.1791C58.6049 33.4129 57.7105 33.7246 56.8364 34.0602ZM50.3833 24.7255C48.3394 23.2121 45.9688 22.1069 43.4007 21.5295C46.408 21.6092 49.3082 22.3956 51.8551 23.8621C51.3672 24.1552 50.8739 24.4395 50.3833 24.7255ZM55.9234 37.2837C56.6292 45.8391 50.27 53.7348 41.456 54.0678C33.0369 54.3857 26.2907 47.194 26.4359 38.9441C26.5643 31.6426 31.3579 25.9095 37.7021 23.0695C38.9826 22.8118 40.2879 22.6515 41.6198 22.5621C49.0683 23.9205 55.261 29.2507 55.9234 37.2837ZM55.4523 46.5679C56.0226 46.7415 56.5964 46.8991 57.1729 47.0505C55.5293 48.9988 53.388 50.6397 50.9704 51.9273C52.8151 50.475 54.3427 48.6428 55.4523 46.5679ZM16.538 18.2866C17.3306 18.3804 17.7981 19.0242 18.1949 19.7203C17.5369 20.0559 16.886 20.4022 16.2333 20.7467C16.004 20.5155 15.7596 20.2986 15.5337 20.0922C15.1636 19.7539 14.7686 19.4475 14.363 19.1544C15.1707 18.6948 16.0651 18.2308 16.538 18.2866ZM12.9869 19.9302C13.1985 19.831 13.5129 19.6477 13.868 19.4405C14.2922 19.7867 14.7093 20.1427 15.0936 20.5332C15.2645 20.7068 15.4186 20.9008 15.5745 21.092C14.4994 21.6641 13.4296 22.2442 12.3643 22.8304C11.8888 22.1777 11.3008 21.5782 10.7517 20.9902C11.4956 20.636 12.2395 20.28 12.9869 19.9302ZM9.45081 21.6065C9.75722 21.4595 10.0654 21.3161 10.3727 21.17C10.8146 21.8306 11.2538 22.5408 11.7683 23.1589C11.2538 23.4441 10.7349 23.723 10.223 24.0108C9.49863 23.491 8.94073 22.8251 8.6051 21.9811C8.60421 21.9785 8.60156 21.9776 8.60067 21.9749C8.97527 21.8085 9.29761 21.68 9.45081 21.6065ZM8.22608 22.1476C8.42533 23.0172 8.91239 23.7948 9.59427 24.3624C9.02751 24.683 8.4519 24.9921 7.88868 25.3188C7.97812 25.2134 7.97192 25.0372 7.79569 24.9673C5.15583 23.9223 6.82689 22.8136 8.22608 22.1476ZM7.47866 46.0082C5.33648 41.708 0.591636 34.4977 1.73136 29.9955C1.7411 29.9574 1.73224 29.9264 1.73667 29.8901C17.6954 22.4425 33.2016 14.2555 49.5544 7.63147C53.6599 5.96838 58.2206 3.53751 62.5713 2.5935C66.0312 1.84254 70.421 1.91693 72.4471 5.22894C73.3309 6.67418 74.0252 8.26022 74.754 9.7887C75.1667 10.6539 75.5909 11.5474 76.0195 12.4596C75.938 12.4436 75.8521 12.4436 75.7591 12.4817C68.1982 15.5998 60.748 19.3962 54.1372 24.2349C54.0965 24.265 54.0841 24.304 54.0681 24.3421C48.374 19.924 40.4004 18.8117 33.9296 23.1873C33.8481 23.2422 33.8392 23.3201 33.8578 23.3892C33.5178 23.5495 33.1715 23.6947 32.8421 23.878C32.7323 23.9391 32.7137 24.0578 32.7473 24.1579C28.3045 27.1201 25.9311 32.2165 25.5574 37.4484C25.4618 37.42 25.3555 37.4183 25.2448 37.4688C19.2832 40.2025 13.295 42.9725 7.47866 46.0082ZM7.70979 46.4749C7.7036 46.4617 7.69563 46.4475 7.68943 46.4342C13.7068 43.9192 19.6321 41.112 25.5087 38.295C25.4813 39.2169 25.5318 40.137 25.6274 41.05C25.5158 41.0128 25.3901 41.0092 25.259 41.065C19.7136 43.4596 14.2647 46.1632 8.90265 48.9412C8.50592 48.1194 8.1021 47.3003 7.70979 46.4749ZM13.6581 58.5602C12.1181 55.5342 10.6189 52.487 9.13998 49.4309C14.7305 47.0877 20.3167 44.6374 25.7301 41.909C26.6768 48.2496 30.6583 53.9154 37.5807 55.1906C30.3678 57.7012 23.3179 60.7281 16.5017 64.1596C15.4399 62.3398 14.5561 60.3251 13.6581 58.5602ZM73.1184 47.3897C69.4938 49.4761 65.8284 51.4899 62.1215 53.4248C54.2036 57.5569 46.1007 61.332 37.8393 64.7255C34.0952 66.2637 30.2164 68.0783 26.3004 69.1489C21.6388 70.4223 18.9157 68.0393 16.8851 64.8034C24.6276 61.3931 32.4515 58.3273 40.4137 55.4705C40.9902 55.4758 41.5835 55.4537 42.1927 55.4023C43.4042 55.2996 44.5687 55.056 45.6863 54.7071C45.7421 54.7284 45.8041 54.7408 45.8758 54.7284C51.0484 53.872 55.4673 51.0923 58.2232 47.2888C58.4163 47.2578 58.5243 47.0638 58.4995 46.8911C58.6748 46.6343 58.8405 46.3731 59.0007 46.1074C67.0921 41.7797 75.1428 37.444 83.4768 33.5909C83.5654 34.1452 83.6548 34.7005 83.715 35.2469C84.4855 42.2154 77.9713 44.5967 73.1184 47.3897Z" fill="#010A38"/>
<path d="M68.7456 4.44242C67.5315 3.12913 66.0747 4.25203 64.7641 4.91797C63.2799 5.67247 61.7948 6.42786 60.3106 7.18236C59.8368 7.42323 59.2515 7.60034 58.8211 7.9218C58.6192 7.87752 58.3916 8.01656 58.4607 8.28577C58.4607 8.28754 58.4615 8.28931 58.4624 8.29108C58.3907 8.39558 58.3287 8.50893 58.2889 8.63999C58.2021 8.9278 58.3934 9.23952 58.675 9.32011C58.7166 9.3325 58.7582 9.34402 58.7998 9.35642C59.2851 10.7211 59.975 11.9768 60.8198 13.1812C61.004 13.4433 61.3228 13.554 61.6186 13.3902C63.1293 12.5533 64.6233 11.6837 66.1225 10.8256C67.1551 10.2349 68.8279 9.61677 69.6639 8.74803C70.7718 7.59769 69.671 5.444 68.7456 4.44242ZM67.9158 8.36636C67.3951 8.87113 66.4883 9.19524 65.8471 9.56807C64.3815 10.4209 62.9115 11.2675 61.4547 12.1344C60.6445 11.1842 60.013 10.1667 59.4835 9.05444C59.4914 9.03673 59.5047 9.02167 59.5109 9.00308C59.5251 8.9588 59.5393 8.91363 59.5534 8.86935C59.5667 8.82773 59.5649 8.79054 59.5676 8.75157C60.4177 8.03338 62.8353 7.18767 63.4889 6.85824C64.8819 6.1551 67.1161 4.25911 68.2178 6.00899C68.5118 6.38623 68.6278 6.81308 68.5649 7.28774C68.8067 7.89346 68.5897 8.253 67.9158 8.36636Z" fill="#010A38"/>
<path d="M46.0518 68.8C38.8788 71.5125 31.4409 75.2602 23.9411 76.9189C13.7872 79.1655 10.2636 67.2051 6.38125 60.1224C6.35203 60.0684 6.27587 60.1162 6.30066 60.1693C8.99897 65.9574 12.0497 76.8737 19.6045 77.9027C23.1547 78.3862 26.7846 76.7418 30.0107 75.5303C35.4171 73.4997 40.8181 71.4532 46.2236 69.4181C46.6053 69.2747 46.4388 68.6539 46.0518 68.8Z" fill="#010A38"/>
</svg>
