<svg width="54" height="55" viewBox="0 0 54 55" fill="none" xmlns="http://www.w3.org/2000/svg">
<path d="M45.1783 37.4845C45.2911 37.4316 45.3752 37.3048 45.3179 37.1672C43.8589 33.6596 41.4311 30.7569 38.7419 28.1064C37.1902 26.5765 35.6374 25.759 37.089 22.566C37.5107 21.6392 38.9312 20.7062 39.6339 19.9975C41.5019 18.1149 43.373 16.2352 45.2503 14.3615C45.3115 14.3 45.3337 14.2171 45.3395 14.1311C45.5249 13.8629 45.5724 13.4012 45.4792 13.1587C45.2073 12.4517 44.3688 12.4773 43.7296 12.6596C43.604 12.5263 43.4213 12.4478 43.201 12.519C40.4925 13.395 37.7836 14.2681 35.0774 15.1495C33.1536 15.7756 30.2226 17.1656 28.3961 15.3176C27.5459 14.4574 26.8417 12.2615 26.3245 11.1323C24.9372 8.10575 23.8679 4.38625 20.8441 2.66204C20.7988 2.44237 20.6008 2.26594 20.316 2.3789C20.306 2.38317 20.2978 2.39004 20.2878 2.39431C20.1936 2.39133 20.1112 2.44557 20.0553 2.52009C17.8888 3.76451 18.7972 8.48604 18.8301 10.4932C18.8914 14.208 20.3234 18.5206 15.4507 20.083C12.7344 20.9538 9.41291 20.9953 6.60128 21.4897C6.37663 21.5294 6.35063 21.774 6.47217 21.8966C5.30394 22.7917 6.30065 24.071 7.35659 24.8596C8.89523 26.009 10.9118 26.7521 12.7276 27.3253C15.2998 28.1369 18.3153 28.0665 20.2484 30.1812C20.4163 32.2717 18.9437 35.1487 18.448 36.9068C18.0087 38.4652 17.6154 40.0372 17.283 41.622C16.8637 43.6227 16.4191 45.4669 17.5997 47.2546C17.7315 47.4547 17.919 47.4852 18.0812 47.4221C20.2182 47.706 21.0243 45.3599 21.8706 43.7202C23.8714 39.8428 25.8866 35.9684 27.8284 32.0607C27.8334 32.0509 27.8318 32.041 27.8356 32.0308C32.1062 34.3051 36.4648 36.4613 40.8614 38.4818C42.6101 39.2854 44.334 39.9434 45.1705 37.809C45.2192 37.686 45.2118 37.5779 45.1783 37.4845ZM44.3177 37.449C43.2456 39.5548 29.7508 32.1979 27.9249 31.4253C27.7708 31.3603 27.6494 31.4259 27.5853 31.5314C27.4284 31.4648 27.2438 31.4788 27.1351 31.6508C25.8231 33.7308 24.7973 35.9989 23.6817 38.1891C22.5309 40.4475 20.9086 45.7234 18.403 46.9314C18.4003 46.8555 18.385 46.7771 18.34 46.6996C16.444 43.4374 19.5403 36.4786 20.4728 33.3851C20.7955 32.3151 21.0995 31.3942 20.95 30.4797C21.1316 30.3711 21.2387 30.1349 21.0837 29.8994C20.0908 28.3868 18.8087 27.8552 17.0657 27.3977C15.3705 26.9522 13.6456 26.6938 11.9819 26.1074C11.2835 25.8614 5.48902 23.6213 7.05232 22.1328C7.10664 22.0806 7.13058 22.0096 7.13326 21.9381C10.1678 21.7651 13.271 21.4915 16.249 20.8877C17.5482 20.6246 19.0148 20.3684 19.7495 19.1049C20.63 17.591 19.9738 15.3008 19.8834 13.7053C19.7801 11.8847 18.6671 4.5604 20.5215 3.22689C23.381 5.44364 24.5219 9.57111 25.9731 12.7615C26.5805 14.0974 27.1894 15.9469 28.4654 16.8102C29.8943 17.777 31.228 17.3979 32.7566 16.98C36.3583 15.9949 39.9007 14.6685 43.4505 13.5065C44.9915 15.7821 34.0675 21.4655 34.9805 25.266C35.2917 26.5613 36.7727 27.5937 37.647 28.4454C40.3976 31.1229 42.6534 33.9837 44.7359 37.1863C44.5758 37.1864 44.413 37.2621 44.3177 37.449Z" fill="#010A38"/>
<path d="M26.9807 22.4125C26.8714 22.3566 26.765 22.38 26.6786 22.4384C25.846 22.0632 24.8189 22.1591 24.0771 22.8363C22.9911 23.8271 23.0212 25.7543 24.1297 26.7199C25.235 27.6825 27.119 27.4346 27.9768 26.2608C28.9121 24.9836 28.3419 23.1044 26.9807 22.4125ZM27.3291 25.8898C26.6691 26.6967 25.3236 26.7974 24.5916 26.0467C23.8826 25.3191 23.9111 23.976 24.7172 23.3248C25.2591 22.8873 26.0439 22.8471 26.7216 23.0666C27.5982 23.6879 28.0861 24.9641 27.3291 25.8898Z" fill="#010A38"/>
<path d="M24.369 16.3301C24.2556 16.2375 24.1359 16.2521 24.0484 16.3162C24.0426 16.311 24.0429 16.3037 24.0363 16.299C23.4815 15.944 22.7417 16.2439 22.4244 16.783C22.0625 17.3967 22.3242 18.1193 22.9202 18.4649C23.5077 18.8052 24.2653 18.6904 24.6334 18.0913C24.9783 17.528 24.8881 16.7532 24.369 16.3301ZM23.2267 17.9628C22.9145 17.7852 22.7316 17.4212 22.8955 17.0793C23.0832 16.6865 23.5104 16.5203 23.9221 16.5538C23.9197 16.6308 23.9456 16.7098 24.0169 16.776C24.6198 17.3308 24.0042 18.406 23.2267 17.9628Z" fill="#010A38"/>
<path d="M23.3861 10.9158C23.3369 10.3359 22.8522 9.86454 22.3056 9.6541C22.3265 9.5842 22.3216 9.50494 22.2501 9.44133C21.9833 9.20346 21.6159 9.23465 21.3383 9.4503C21.0106 9.70411 20.9634 10.1517 21.0162 10.5338C21.113 11.233 21.5596 12.2157 22.3995 12.1772C23.0287 12.1485 23.4369 11.5103 23.3861 10.9158ZM22.6841 11.5162C22.3081 11.8789 21.9168 11.4023 21.7649 11.0613C21.6802 10.8716 21.6163 10.6643 21.5889 10.4582C21.5666 10.2919 21.5817 10.0413 21.6841 9.89211C21.6981 9.90314 21.7019 9.91904 21.7201 9.92734C22.0765 10.0877 22.4615 10.1967 22.7093 10.5265C22.926 10.8158 22.9627 11.2479 22.6841 11.5162Z" fill="#010A38"/>
<path d="M19.627 23.2851C19.5259 23.2284 19.4375 23.3284 19.4396 23.4255C18.2925 23.5172 17.5887 25.294 18.8995 25.7868C19.5015 26.0131 20.325 25.7544 20.5825 25.1359C20.8955 24.3832 20.2402 23.6314 19.627 23.2851ZM19.1656 25.3117C18.2065 25.081 18.959 23.7862 19.7189 23.8267C19.9477 24.1051 20.174 24.4048 20.1401 24.7661C20.0995 25.2051 19.5484 25.4039 19.1656 25.3117Z" fill="#010A38"/>
<path d="M14.6867 23.8034C14.5418 23.1537 13.8954 22.6766 13.2319 22.7817C13.1601 22.793 13.1219 22.8342 13.0991 22.882C12.5304 23.0661 12.2011 23.6851 12.2615 24.2679C12.332 24.9502 12.9989 25.3157 13.6399 25.2163C14.3218 25.1102 14.8429 24.5075 14.6867 23.8034ZM13.4874 24.7753C12.4104 24.9436 12.2736 23.4375 13.18 23.1188C13.2099 23.1347 13.2381 23.1541 13.2795 23.1522C13.6981 23.1308 14.0589 23.4547 14.1682 23.8489C14.2993 24.3221 13.9401 24.7042 13.4874 24.7753Z" fill="#010A38"/>
<path d="M24.9245 30.5687C24.9721 30.5405 25.0047 30.4803 24.9876 30.4208C24.8041 29.7899 23.8925 29.6268 23.3627 29.8583C22.6557 30.1671 22.5557 31.0305 22.9778 31.6198C23.3751 32.1747 24.1732 32.3041 24.6507 31.7757C24.919 31.4774 25.0496 30.9704 24.9245 30.5687ZM24.3641 31.3481C24.0962 31.7685 23.5937 31.6453 23.3637 31.2534C23.1332 30.8613 23.2649 30.3982 23.7041 30.2432C23.8987 30.1747 24.0714 30.1818 24.2337 30.2266C24.2097 30.2848 24.2056 30.3499 24.2663 30.4182C24.5079 30.6919 24.5699 31.0245 24.3641 31.3481Z" fill="#010A38"/>
<path d="M21.823 38.3034C21.7587 37.6639 21.0951 36.9671 20.4131 37.1342C20.2893 37.1642 20.2292 37.2743 20.2347 37.3778C19.812 37.5078 19.5026 37.926 19.4517 38.3812C19.3746 39.0729 19.9399 39.5932 20.6143 39.5678C21.2869 39.5419 21.8941 39.01 21.823 38.3034ZM20.6362 39.0246C19.708 39.0821 19.8615 37.8071 20.6362 37.7022C20.6774 37.6968 20.7038 37.6742 20.7284 37.651C20.9894 37.747 21.2008 37.9195 21.2822 38.2261C21.3975 38.6596 21.0597 38.998 20.6362 39.0246Z" fill="#010A38"/>
<path d="M33.2273 28.984C33.1179 28.5275 32.765 28.117 32.326 27.9746C32.2946 27.8879 32.2158 27.8153 32.0934 27.819C31.3426 27.8382 30.6375 28.5656 30.8206 29.341C30.9646 29.9502 31.6346 30.3682 32.2407 30.3385C32.944 30.304 33.3883 29.6575 33.2273 28.984ZM32.1683 29.7534C31.8675 29.7489 31.5217 29.5456 31.4143 29.2578C31.2939 28.9345 31.4849 28.6305 31.7529 28.444C31.7724 28.444 31.7894 28.4472 31.811 28.4425C32.6586 28.2489 33.0962 29.7661 32.1683 29.7534Z" fill="#010A38"/>
<path d="M39.2206 32.5369C39.072 32.4347 38.9127 32.5188 38.8537 32.6426C38.4397 32.506 37.9447 32.625 37.6316 32.9596C37.1437 33.4808 37.3627 34.2505 37.9246 34.6151C38.4732 34.9709 39.2157 34.8921 39.5775 34.3153C39.9455 33.7269 39.7899 32.9299 39.2206 32.5369ZM38.3201 34.196C38.0103 34.0453 37.7926 33.696 37.9978 33.3723C38.2228 33.0171 38.7538 32.94 39.0639 33.2133C39.0918 33.238 39.1223 33.2387 39.1526 33.2427C39.3602 33.7805 38.9905 34.5217 38.3201 34.196Z" fill="#010A38"/>
<path d="M33.4442 21.0852C33.4833 20.6357 33.2415 20.2194 32.868 20.0296C32.9456 19.9672 32.9393 19.8185 32.8357 19.7764C32.2525 19.5393 31.5773 19.9423 31.3823 20.5191C31.1748 21.1342 31.5871 21.7293 32.1877 21.8887C32.7686 22.0421 33.3893 21.7181 33.4442 21.0852ZM32.1388 21.3511C31.8286 21.1842 31.7274 20.8481 31.8988 20.5387C31.9762 20.3985 32.0907 20.2992 32.22 20.2232C32.2546 20.315 32.3354 20.3916 32.4583 20.3887C32.8178 20.3805 33.0633 20.8543 32.9411 21.1696C32.8143 21.4955 32.4008 21.4917 32.1388 21.3511Z" fill="#010A38"/>
<path d="M39.1606 18.0626C39.2026 17.6428 39.0053 17.1846 38.677 16.9157C38.7173 16.831 38.7037 16.7102 38.6066 16.6601C37.9434 16.3198 37.0762 16.6849 36.8074 17.3749C36.5384 18.0656 36.9985 18.753 37.6687 18.9561C38.3371 19.158 39.0863 18.804 39.1606 18.0626ZM37.7412 18.3548C37.0773 18.0559 37.2833 17.4543 37.7382 17.1528C37.7768 17.2015 37.836 17.2353 37.9168 17.2381C38.3144 17.2524 38.6226 17.5688 38.585 17.9872C38.5465 18.4221 38.0807 18.5073 37.7412 18.3548Z" fill="#010A38"/>
<path d="M16.7048 34.9728C17.0437 33.6506 17.3542 32.13 16.5565 30.9001C15.88 29.8571 14.6296 29.4485 13.5004 29.1183C11.1917 28.4424 8.79332 28.0376 6.40711 27.7644C6.25772 27.7471 6.21216 28.0029 6.36314 28.0282C7.83515 28.2767 9.30262 28.5486 10.7538 28.8993C11.6172 29.1078 12.5082 29.3202 13.352 29.5984C14.7651 30.0638 15.1469 30.2589 15.8262 31.7048C16.5344 33.2132 16.4086 33.6312 16.0171 35.1454C15.8088 35.9493 15.5417 36.7423 15.3052 37.5381C14.783 39.2927 14.2553 41.0462 13.7503 42.806C13.6327 43.2145 14.2602 43.4104 14.3819 43.0012C15.1784 40.3373 16.015 37.667 16.7048 34.9728Z" fill="#010A38"/>
</svg>
