<svg width="39" height="64" viewBox="0 0 39 64" fill="none" xmlns="http://www.w3.org/2000/svg">
<path d="M5.89039 59.9064C8.67997 56.7575 9.64699 51.7262 11.1873 47.9295C13.0679 43.2951 15.1994 38.8097 17.4271 34.3352C21.945 25.2619 24.6472 15.1719 29.9327 6.4777C30.2844 5.89927 29.3804 5.40809 29.0179 5.97123C26.5704 9.77369 24.8485 14.3775 23.0986 18.5412C21.092 23.3177 19.2426 28.1744 17.1149 32.8993C15.0592 37.4662 12.75 41.8841 10.837 46.5236C9.06729 50.814 8.03339 55.7249 5.45786 59.621C5.29095 59.8739 5.69992 60.1217 5.89039 59.9064Z" fill="#010A38"/>
<path d="M29.2947 6.57675C30.4051 7.02905 32.6506 9.11091 33.8947 8.23754C34.0648 8.11778 34.177 7.8362 33.9795 7.67376C33.4342 7.22465 32.5799 7.23421 31.9219 6.94691C31.1186 6.59717 30.3962 6.11556 29.5604 5.83781C29.1348 5.69639 28.88 6.40794 29.2947 6.57675Z" fill="#010A38"/>
<path d="M32.5567 8.40116C33.0465 10.1479 32.077 11.9316 31.3023 13.4452C30.2729 15.4576 29.2173 17.4203 28.2943 19.4958C26.0551 24.529 23.6866 29.4494 21.7449 34.6113C19.9268 39.4464 17.9686 44.1617 15.8447 48.8688C13.8998 53.1796 12.9162 57.8478 10.8433 62.107C10.6114 62.5835 11.3447 62.9339 11.5842 62.4618C13.8985 57.9026 14.972 52.8732 17.0697 48.2234C19.3541 43.1597 21.3506 38.029 23.3248 32.8359C25.4391 27.2727 28.0579 21.8592 30.5506 16.4565C31.6928 13.9803 34.1652 11.113 33.1644 8.21386C33.0465 7.87178 32.4592 8.05397 32.5567 8.40116Z" fill="#010A38"/>
<path d="M5.84773 59.8439C6.94789 61.9416 9.71708 63.6126 12.004 63.9941C12.4895 64.075 12.7194 63.2909 12.2327 63.1513C10.0566 62.5258 7.56518 61.6384 6.35035 59.5597C6.18409 59.2763 5.69548 59.5546 5.84773 59.8439Z" fill="#010A38"/>
<path d="M27.5506 8.99218C27.7092 9.45977 27.6588 9.34827 27.3989 8.65772C26.8141 8.25958 25.3763 7.8742 24.6023 7.50854C23.0231 6.76321 21.5229 5.86878 19.9348 5.14447C18.2658 4.38449 16.5967 3.6239 14.9277 2.86391C13.3479 2.14406 12.1521 0.876337 10.5277 0.278799C9.97731 0.0768589 9.64796 0.927975 10.2009 1.12991C11.5272 1.61406 12.3547 2.68555 13.5969 3.24868C15.2647 4.00548 16.9324 4.76163 18.6002 5.51843C21.7204 6.93392 24.6667 8.48381 27.8742 9.67825C28.2296 9.81075 28.457 9.25337 28.1028 9.14316C27.9238 9.08901 27.7461 9.03169 27.5697 8.97181C27.5569 8.96799 27.5467 8.97944 27.5506 8.99218Z" fill="#010A38"/>
<path d="M10.2745 0.0265827C9.2693 0.268019 8.2972 -0.135247 7.33528 0.050767C6.33959 0.243788 5.25727 0.415787 4.30172 0.750867C3.93033 0.880822 3.94052 1.42295 4.33357 1.51532C5.13304 1.70388 5.91086 1.37072 6.6753 1.14011C7.94109 0.757889 9.20179 1.06494 10.4548 0.533014C10.7785 0.395415 10.6077 -0.0543207 10.2745 0.0265827Z" fill="#010A38"/>
<path d="M4.33991 1.68848C5.11837 3.22309 5.19735 5.16984 6.16182 6.61018C6.44657 7.03572 7.08679 6.62356 6.82879 6.18337C5.95542 4.69271 5.89045 2.77779 4.87566 1.34574C4.6648 1.0476 4.17874 1.36996 4.33991 1.68848Z" fill="#010A38"/>
<path d="M7.03196 6.99932C9.47371 9.13848 12.6411 10.5177 15.4243 12.1835C17.8858 13.657 20.6804 15.5668 23.3528 16.5752C23.8446 16.7612 24.2039 16.0197 23.7076 15.835C21.2958 14.9361 19.035 13.1875 16.7047 12.0402C13.6457 10.5355 9.96869 8.76074 7.28805 6.69165C7.1065 6.55214 6.85996 6.84834 7.03196 6.99932Z" fill="#010A38"/>
<path d="M23.3779 18.601C18.0325 16.3255 13.0242 13.0372 7.49663 11.207C7.12906 11.0859 6.86662 11.6249 7.20743 11.8242C9.93904 13.4181 12.956 14.4387 15.7749 15.8663C18.0969 17.0422 20.6941 18.5354 23.2989 18.9176C23.4881 18.945 23.5454 18.6724 23.3779 18.601Z" fill="#010A38"/>
<path d="M6.77016 11.3555C5.62669 11.2313 4.52143 10.9803 3.3684 10.9415C2.42877 10.909 1.44582 10.9409 0.566715 10.5631C0.18322 10.3981 -0.203459 10.8568 0.122066 11.1734C0.806241 11.8384 1.75861 11.7594 2.66447 11.7282C4.04046 11.6811 5.41264 11.7932 6.78673 11.7104C6.99504 11.6976 6.96382 11.3766 6.77016 11.3555Z" fill="#010A38"/>
<path d="M0.190186 11.0971C0.189549 12.0654 0.62846 12.8101 0.900474 13.7242C1.29352 15.0467 1.99745 16.2826 2.45548 17.5815C2.54467 17.835 2.9855 17.8127 3.00015 17.5248C3.05685 16.4214 2.30832 15.341 1.914 14.3402C1.4961 13.2796 0.794093 12.1851 0.574316 11.0691C0.532272 10.8569 0.190823 10.8754 0.190186 11.0971Z" fill="#010A38"/>
<path d="M2.83806 17.8166C7.60308 21.8414 13.8734 25.3298 19.5392 27.8659C20.0717 28.1048 20.3533 27.3263 19.8762 27.0524C14.3123 23.8519 8.34904 21.1642 3.02661 17.5663C2.85844 17.4529 2.68326 17.6867 2.83806 17.8166Z" fill="#010A38"/>
<path d="M23.1483 32.3214C24.8721 34.2217 27.3215 35.2524 29.5072 36.5182C30.8156 37.2756 32.0744 38.0846 33.416 38.7949C34.627 39.4364 35.5405 40.441 36.8535 40.8736C37.1331 40.966 37.2733 40.5258 37.0229 40.399C35.831 39.7957 34.9283 38.8733 33.7849 38.2069C32.4605 37.4342 31.1386 36.6755 29.8684 35.8142C27.7942 34.4089 25.5028 33.4636 23.4866 31.9423C23.2222 31.743 22.9298 32.08 23.1483 32.3214Z" fill="#010A38"/>
<path d="M20.591 38.8086C21.2624 40.2541 23.1143 40.8784 24.4145 41.6352C26.3281 42.7493 28.7266 43.8642 30.8759 44.4082C31.3065 44.5171 31.5607 43.8431 31.1415 43.6699C29.4209 42.9564 27.7315 42.2136 26.0402 41.4313C24.489 40.7146 22.0077 39.9744 20.9159 38.5761C20.7693 38.3876 20.4992 38.6111 20.591 38.8086Z" fill="#010A38"/>
<path d="M30.4869 44.7114C32.937 44.9822 35.624 45.1472 38.0575 44.7044C38.6149 44.6032 38.5225 43.8336 38.002 43.7585C36.9089 43.6005 35.7966 43.8419 34.7009 43.9286C33.3065 44.0388 31.9094 44.0286 30.5169 44.1795C30.2258 44.2108 30.1735 44.6764 30.4869 44.7114Z" fill="#010A38"/>
<path d="M38.3118 44.1577C38.1958 43.5028 37.9073 42.9505 37.8939 42.2587C37.8811 41.5586 37.9226 40.6279 37.4849 40.0584C37.2728 39.7832 36.846 39.9049 36.6829 40.1533C36.3051 40.7279 36.6262 41.5268 36.7217 42.1587C36.7804 42.5473 36.8058 42.9384 36.9708 43.3015C37.1537 43.7073 37.4524 44.0214 37.6601 44.3985C37.8544 44.7527 38.3799 44.545 38.3118 44.1577Z" fill="#010A38"/>
<path d="M9.42714 58.6965C9.49021 57.8053 9.67241 56.944 9.85078 56.0707C9.93932 55.6356 10.04 55.2266 10.189 54.8093C10.2406 54.6641 10.7872 53.1084 11.2758 54.0697C11.3453 54.2061 11.5791 54.1914 11.5892 54.0207C11.6421 53.1339 10.477 53.0078 10.0737 53.713C9.24177 55.1693 9.12709 57.0479 9.17614 58.685C9.1806 58.8265 9.41759 58.8398 9.42714 58.6965Z" fill="#010A38"/>
<path d="M10.6815 56.9332C11.0528 57.1479 11.3905 57.2371 11.781 56.9759C11.9804 56.8434 12.109 56.4503 12.2059 56.2395C12.3142 56.005 12.3358 55.719 12.3384 55.4648C12.3409 55.1527 11.8147 55.1297 11.7912 55.4406C11.7644 55.7878 11.6287 56.1146 11.4988 56.435C11.3656 56.765 11.114 56.6841 10.8503 56.5707C10.6381 56.4796 10.4852 56.8198 10.6815 56.9332Z" fill="#010A38"/>
<path d="M12.4919 52.5202C12.7703 50.3835 13.0576 48.3355 13.6577 46.2517C13.9182 45.3465 14.089 44.3967 14.5967 43.5832C14.9076 43.0857 15.4885 42.5162 15.3299 43.5787C15.2649 44.0176 15.9523 44.0501 16.016 43.6163C16.2778 41.8358 15.1191 41.0765 14.1833 42.8863C12.7544 45.6504 11.8084 49.3898 12.0594 52.5119C12.0817 52.7915 12.4563 52.7966 12.4919 52.5202Z" fill="#010A38"/>
<path d="M15.4485 37.3885C16.706 38.897 17.7877 37.2999 18.3897 36.0577C18.9458 34.9079 19.3402 33.6478 19.5612 32.3967C19.7332 31.4246 19.7676 30.4569 19.9829 29.4861C20.2008 28.5025 20.7831 27.6514 21.0016 26.6672C21.0634 26.3895 20.7073 26.2773 20.5595 26.4965C19.5281 28.0273 19.1433 29.7256 18.935 31.5316C18.8637 32.1489 17.4807 38.5154 15.848 37.0139C15.6186 36.8031 15.2479 37.1477 15.4485 37.3885Z" fill="#010A38"/>
<path d="M20.7505 30.3831C21.8341 30.415 22.0609 28.9613 22.2526 28.1204C22.4922 27.0731 22.159 25.9653 22.0399 24.9275C21.88 23.5356 22.1998 22.2705 22.7272 20.9913C22.8693 20.646 22.3877 20.4498 22.2087 20.7614C21.671 21.6946 21.3774 22.7247 21.3958 23.8115C21.4098 24.6294 21.5022 25.4136 21.6405 26.2195C21.7341 26.7622 21.873 29.9053 20.7442 30.0569C20.5632 30.0818 20.5626 30.378 20.7505 30.3831Z" fill="#010A38"/>
<path d="M20.9245 32.8981C22.1291 33.3949 23.3408 31.7144 23.5414 30.7028C23.5911 30.4531 23.2414 30.2881 23.1152 30.5315C22.7413 31.2545 22.0348 32.9089 21.0035 32.6286C20.8461 32.5853 20.7792 32.8375 20.9245 32.8981Z" fill="#010A38"/>
<path d="M24.4648 25.1695C25.3681 23.3214 25.3866 21.1708 26.6422 19.4897C26.7581 19.3349 26.5358 19.1247 26.3918 19.2584C24.8387 20.7026 25.0827 23.2214 24.2934 25.0777C24.2457 25.1911 24.4087 25.2835 24.4648 25.1695Z" fill="#010A38"/>
</svg>
